<svg id="Warstwa_3" data-name="Warstwa 3" xmlns="http://www.w3.org/2000/svg" viewBox="0 0 316 316"><defs><style>.cls-1{fill:#e5e5e5;}.cls-2{fill:#14213d;}</style></defs><g id="bluzki"><circle id="Ellipse_55" data-name="Ellipse 55" class="cls-1" cx="158" cy="158" r="158"/><path class="cls-2" d="M105,47.34c10,15.8,28.47,23.08,46.66,23.42,11.49.21,24.35-1.79,35-6.12,9.52-3.88,15.84-10.84,22.44-18.49.65-.76-.45-1.87-1.11-1.11-7.16,8.26-14.47,15.12-25.15,18.53a106.22,106.22,0,0,1-27.6,4.76c-19.46.8-37.92-5.19-49.9-21.19-.15-.21-.49,0-.35.2Z"/><path class="cls-2" d="M104.08,47.09c-11.08,2.95-22,8-32.51,12.57-8.74,3.84-16.95,8.48-22.15,16.76-5.48,8.75-7.27,19.54-9.31,29.49-2.31,11.26-4.82,23-5.15,34.56a.67.67,0,0,0,1.32.17c4.35-19.59,3.41-42.73,13.15-60.8C60.09,60,86,57.18,104.28,47.58a.27.27,0,0,0-.2-.49Z"/><path class="cls-2" d="M35,141.34c7.12,2.81,14.31,5.76,21.74,7.64,6.9,1.75,14.11,1.19,20.92,3.11a1.09,1.09,0,0,0,.58-2.1c-7.32-2.09-15-1.56-22.4-3.47C48.83,144.71,42.23,142,35,141c-.21,0-.21.28-.05.34Z"/><path class="cls-2" d="M207.67,46.62c18.28,9.61,44.2,12.47,54.86,32.27,9.73,18.06,8.81,41.22,13.15,60.8a.67.67,0,0,0,1.32-.18c-.33-11.53-2.84-23.29-5.15-34.56-2.05-10-3.83-20.72-9.31-29.48-5.18-8.28-13.42-12.93-22.15-16.76C229.9,54.1,219,49.09,207.88,46.13c-.29-.07-.48.35-.21.49Z"/><path class="cls-2" d="M276.93,140.05c-7.2.95-13.8,3.7-20.79,5.51-7.42,1.92-15.08,1.39-22.4,3.48a1.09,1.09,0,0,0,.58,2.1c6.81-1.93,14-1.36,20.92-3.11,7.42-1.89,14.62-4.83,21.74-7.64.16-.07.16-.37-.05-.34Z"/><path class="cls-2" d="M107.36,54.49A118.55,118.55,0,0,0,89.59,72.06s0,.12.07.07A201.9,201.9,0,0,1,107.82,55c.33-.26-.14-.72-.46-.46Z"/><path class="cls-2" d="M88,75.65c-3.19,5.93-6.55,11.89-9.22,18.07-.05.12.11.23.18.11,3.43-5.81,6.25-12,9.15-18.11,0-.08-.07-.14-.11-.07Z"/><path class="cls-2" d="M78.4,150.59a0,0,0,1,0,0,0,0,0,0,1,0,0,0Z"/><path class="cls-2" d="M78.59,150.51c-.46.57-.16,1.52-.09,2.19a4.19,4.19,0,0,0,.63,2.35.26.26,0,0,0,.43-.11,4.63,4.63,0,0,0-.2-2.54c-.14-.64-.14-1.52-.73-1.89Z"/><path class="cls-2" d="M77.67,150.8c5,16.06,4.94,33,8.3,49.35a173.74,173.74,0,0,0,14.63,43.19c.6,1.21,2.32.15,1.79-1-6.86-15.42-12.31-31.05-15.33-47.68-2.68-14.75-2.43-30.26-8.56-44.17-.21-.47-1-.13-.83.35Z"/><path class="cls-2" d="M100.34,232.69c.42,3.64,1.12,8.46,3.14,11.57.14.22.57.16.54-.15a33.87,33.87,0,0,0-1.49-5.36c-.57-2-1-4.1-1.53-6.15-.09-.35-.7-.29-.66.09Z"/><path class="cls-2" d="M104,233.16a34.41,34.41,0,0,0,2,10.64c.17.45,1,.44.92-.13a34.6,34.6,0,0,0-2.71-10.57.12.12,0,0,0-.23.06Z"/><path class="cls-2" d="M109.11,234.11a50,50,0,0,0,.59,9.24.69.69,0,0,0,1.35-.18,49.64,49.64,0,0,0-1.58-9.11.18.18,0,0,0-.36.05Z"/><path class="cls-2" d="M78.67,152.46c-.67-5.87-1-11.77-1.71-17.64,0,0-.09-.06-.09,0a146.93,146.93,0,0,0,1.5,17.64c0,.19.32.2.3,0Z"/><path class="cls-2" d="M78.25,135.73c-.82,4.42-.76,11.08,1.64,15a.3.3,0,0,0,.55-.15c-.06-2.17-.85-4.28-1.17-6.42-.42-2.8-.48-5.61-.69-8.43,0-.17-.29-.23-.33,0Z"/><path class="cls-2" d="M76.79,136.73c0,5.68.17,12.84,3,17.93.18.33.81.2.76-.21-.3-2.6-1.27-5.08-1.84-7.63a82,82,0,0,1-1.57-10.09.17.17,0,0,0-.33,0Z"/><path class="cls-2" d="M77.72,140.56c.36,5,.76,11.43,3.17,15.91a.28.28,0,0,0,.51-.14c-.05-2.49-1-5-1.53-7.41-.64-2.8-1.27-5.6-2-8.38,0-.11-.2-.09-.19,0Z"/><path class="cls-2" d="M79.58,150.65c.94,4.12,1.31,8.25,2,12.39.06.29.45.18.47-.06.45-4.12-.71-8.65-2.31-12.41,0-.12-.22,0-.19.08Z"/><path class="cls-2" d="M78.31,102.81c-5,13.13-2.46,28.45-1.32,42.1a.61.61,0,0,0,1.21,0c.82-14.35-3.16-27.74.18-42.08,0,0,0-.06-.07,0Z"/><path class="cls-2" d="M101,244.79c4.28.65,8.71,4,13,5.12,5.4,1.34,11.13,1.84,16.63,2.64,10.88,1.59,21.78,3.24,32.79,3.48,19.46.43,39.45-3.29,56.67-12.52.94-.5.11-1.93-.83-1.43-19.21,10.29-39.86,12.1-61.29,11.2-10.29-.43-20.53-1.36-30.75-2.67-5.15-.66-10.76-1-15.75-2.6-4.51-1.47-6.11-3.7-10.4-4.14-.52-.06-.65.84-.12.92Z"/><path class="cls-2" d="M101.59,243.94a10.4,10.4,0,0,0,5.45,1.94.32.32,0,0,0,.22-.55A7.08,7.08,0,0,0,104.8,244a12.37,12.37,0,0,0-3-.88c-.51-.06-.57.63-.24.86Z"/><path class="cls-2" d="M100.83,244.42a15.12,15.12,0,0,1,4.94.93c1.6.63,2.77,1.8,4.28,2.56a.36.36,0,0,0,.49-.49c-1.58-3.21-6.61-4.27-9.8-3.67-.4.07-.28.66.09.67Z"/><path class="cls-2" d="M104.14,244.48a41.57,41.57,0,0,0,20.93,6.3c3.73.18,5.75.42,9,2,2,1,2.92,1.31,5.14,1,.67-.11.51-1.22-.16-1.19-2.35.11-4.33-2.52-6.37-3.1s-4.2-.27-6.36-.38c-7.64-.36-14.71-2.63-21.86-5.17-.38-.14-.58.42-.27.62Z"/><path class="cls-2" d="M131.39,243.54c-.19,1.09-.35,2.2-.57,3.29a6.51,6.51,0,0,0-.23,2.59.24.24,0,0,0,.43.06,6.55,6.55,0,0,0,.54-2.55c.11-1.11.28-2.21.42-3.31,0-.33-.53-.41-.59-.08Z"/><path class="cls-2" d="M133.45,242.18c-.89,3.13-.61,6.82-.74,10,0,.65,1,.65,1,0,.12-3.22.68-6.87,0-10,0-.16-.27-.15-.32,0Z"/><path class="cls-2" d="M136.34,242.21a53,53,0,0,0-.1,11,.4.4,0,0,0,.79,0,53.74,53.74,0,0,0-.11-11,.29.29,0,0,0-.58,0Z"/><path class="cls-2" d="M141.09,241.26c-.17,3.5-.2,7-.22,10.5a.53.53,0,0,0,1.06,0c0-3.51,0-7-.21-10.5a.32.32,0,0,0-.63,0Z"/><path class="cls-2" d="M114.56,238.77a50.18,50.18,0,0,0-.32,9.65c0,.59,1,.59.93,0-.14-3.2,0-6.38,0-9.57,0-.32-.52-.42-.58-.08Z"/><path class="cls-2" d="M118.05,238.28c-.22,1.54-.3,3.09-.41,4.64s-.49,3.18,0,4.6a.24.24,0,0,0,.44,0,9.51,9.51,0,0,0,.56-3.95c.09-1.74.22-3.49.18-5.23,0-.43-.72-.57-.79-.11Z"/><path class="cls-2" d="M120.75,239.21a30.42,30.42,0,0,0-.31,10.29c.1.58,1,.4,1-.13.16-3.33,0-6.71.13-10.05,0-.45-.72-.57-.8-.11Z"/><path class="cls-2" d="M107,46.11c16.38-3.68,35,2.48,51.68,2.69s33.89-5.71,50.15-2a.53.53,0,0,0,.28-1c-16-4.64-34,1.85-50.43,1.68A247.7,247.7,0,0,1,131,45.53c-8.23-1-16.15-2.53-24.18.11a.24.24,0,0,0,.13.47Z"/><path class="cls-2" d="M148.08,54c2.91.12,5.81-.25,8.73-.26,2,0,8.4-.59,9.77,1.12.24.29.76-.1.53-.41-1.35-1.8-4.66-1.42-6.66-1.53-4-.21-8.47-.24-12.38,1a0,0,0,0,0,0,.09Z"/><path class="cls-2" d="M148.71,54.25a18.39,18.39,0,0,1,.4,2c0,.59,0,1.18.06,1.76,0,.36.57.5.68.09A6.48,6.48,0,0,0,149.3,54c-.17-.34-.66-.09-.59.25Z"/><path class="cls-2" d="M150,58.15c5.29-.25,10.46-.74,15.76-.57.69,0,.68-1,0-1a52,52,0,0,0-15.84,1.06.29.29,0,0,0,.08.56Z"/><path class="cls-2" d="M167.08,57.12a3.13,3.13,0,0,0-.08-2.18.34.34,0,0,0-.59,0,3.08,3.08,0,0,0-.08,2.18c0,.37.69.37.75,0Z"/><path class="cls-2" d="M208.27,51.72c4,6.11,9.41,10.37,14.17,15.78,6.16,7,9.22,17.15,13.69,25.22.14.26.59.08.48-.2-3.21-7.89-7-16.81-12.06-23.68-4.6-6.22-11.19-11.12-16-17.33-.12-.16-.38,0-.27.21Z"/><path class="cls-2" d="M237.34,100.47a0,0,0,1,0,0,0,0,0,0,1,0,0,0Z"/><path class="cls-2" d="M237.11,100.52c1,4.94.83,9.31.64,14.27a.2.2,0,0,0,.39.06c1.3-4.53.74-10-.67-14.43a.19.19,0,0,0-.36.1Z"/><path class="cls-2" d="M238.26,110.47a20.08,20.08,0,0,0-.41,3.1c-.13,1.2-.44,2.37-.53,3.57,0,.52.69.55.85.12a10.81,10.81,0,0,0,.16-6.79,0,0,0,0,0-.07,0Z"/><path class="cls-2" d="M239.1,108.5a56.12,56.12,0,0,0-1.15,6.8,17.59,17.59,0,0,0-.4,5.3.35.35,0,0,0,.63.08,17.56,17.56,0,0,0,.92-5.22,56.65,56.65,0,0,0,.57-6.88.29.29,0,0,0-.57-.08Z"/><path class="cls-2" d="M238.62,106.18c0,4.53-.59,8.88-.93,13.38,0,.22.31.25.38,0,1.37-4.21,1.33-9.09.77-13.43,0-.13-.22-.15-.22,0Z"/><path class="cls-2" d="M239.53,111.13c-7.42,18.77-7.38,42.24-7.3,62.12.09,23-8.45,47-14,69.19a.45.45,0,0,0,.86.23c6-20.58,14.27-42.92,15.31-64.47.51-10.44-.16-20.8.85-31.25,1.14-11.84,4.72-23.91,4.51-35.79a.11.11,0,0,0-.22,0Z"/><path class="cls-2" d="M124.18,239.83c-.17,2.86-.4,5.71-.35,8.59a.4.4,0,0,0,.79,0c0-2.88-.18-5.73-.35-8.59,0-.06-.09-.06-.09,0Z"/><path class="cls-2" d="M147.33,242.66a30.79,30.79,0,0,0-.41,4.8,16.27,16.27,0,0,0,.1,4.83.23.23,0,0,0,.43,0,15.94,15.94,0,0,0,.33-4.83,30.79,30.79,0,0,0-.19-4.8c0-.13-.23-.12-.26,0Z"/><path class="cls-2" d="M151,243.05c-1.28.79-1.16,2.94-1.28,4.31-.14,1.64-.53,3.88.61,5.2a.44.44,0,0,0,.68-.08c.88-1.36.41-3.54.46-5.12,0-1.35.62-3.17-.27-4.29a.16.16,0,0,0-.2,0Z"/><path class="cls-2" d="M154.31,245.56a75.38,75.38,0,0,0-.83,7.63c0,.32.54.42.59.08.36-2.53.29-5.16.4-7.71,0-.11-.15-.1-.16,0Z"/><path class="cls-2" d="M157.42,241.26a58.5,58.5,0,0,0-.14,12.41.35.35,0,0,0,.7,0,57.84,57.84,0,0,0-.14-12.41.21.21,0,0,0-.42,0Z"/><path class="cls-2" d="M161,243.06a28,28,0,0,0,0,5.26c.08,1.53-.15,3.39.76,4.67a.52.52,0,0,0,.89,0c.71-1.42.23-3.13.06-4.67a28.28,28.28,0,0,0-.85-5.26c-.11-.37-.76-.45-.82,0Z"/><path class="cls-2" d="M166.05,242.21c-.19,3.8-.9,8.28-.1,12a.29.29,0,0,0,.55,0c.8-3.73.09-8.21-.1-12a.18.18,0,0,0-.35,0Z"/><path class="cls-2" d="M170,242.69c-.18,2-.22,3.94-.3,5.91-.07,1.72-.39,3.6.18,5.24a.66.66,0,0,0,1.26,0c.56-1.63.25-3.53.18-5.24-.08-2-.12-3.95-.3-5.91a.51.51,0,0,0-1,0Z"/><path class="cls-2" d="M217.76,230.26c-.92,2.42-1.2,5.07-1.82,7.58s-1.28,5-1.78,7.62c0,.07.08.13.12,0,2.2-4.44,4.1-10.19,3.75-15.21a.14.14,0,0,0-.27,0Z"/><path class="cls-2" d="M212.26,234.88c-.73,1.15-.8,2.63-1.15,3.94a39.63,39.63,0,0,1-1.57,4.48,1.1,1.1,0,0,0,.29,1.09.89.89,0,0,0,.79.33,1.15,1.15,0,0,0,1.09-.82c1-2.42,2.32-6.5,1.16-9a.36.36,0,0,0-.61,0Z"/><path class="cls-2" d="M206.78,236.47c-.78,2.14-.6,4.62-1,6.86-.33,2-1.05,4-1.06,6a.13.13,0,0,0,.24.06c1.29-2,1.58-4.48,1.9-6.76.27-2,.68-4.24,0-6.2a.05.05,0,0,0-.1,0Z"/><path class="cls-2" d="M177.56,242.21c-.24,2.9-.82,6.91.38,9.65.09.19.33.06.35-.09a25.59,25.59,0,0,0-.39-4.77,36.45,36.45,0,0,1,0-4.79c0-.2-.3-.19-.31,0Z"/><path class="cls-2" d="M180.83,242.21c-.12,1.54-.14,3.08-.16,4.63a15,15,0,0,0,.15,4,.21.21,0,0,0,.4,0,15.42,15.42,0,0,0,.15-4c0-1.55,0-3.09-.16-4.63a.19.19,0,0,0-.38,0Z"/><path class="cls-2" d="M186,242.13a51.15,51.15,0,0,0-.7,10,1,1,0,1,0,1.91-.26l-.12-1a.37.37,0,0,0-.62-.26,4.83,4.83,0,0,1-.88.87l1.66.69a51.13,51.13,0,0,0-.67-10,.31.31,0,0,0-.58,0Z"/><path class="cls-2" d="M190,242.06a28.44,28.44,0,0,0-.7,4.77c-.13,1.43-.53,2.95.11,4.28a.63.63,0,0,0,1.07,0c.75-1.14.58-2.62.65-4a30.3,30.3,0,0,0,0-4.95c-.07-.59-.94-.82-1.11-.15Z"/><path class="cls-2" d="M194.18,241.74a34.06,34.06,0,0,1-.58,7.54c-.09.48.63.69.73.2a25.76,25.76,0,0,0,.2-7.74c0-.22-.36-.23-.35,0Z"/><path class="cls-2" d="M197.79,243.53a12.26,12.26,0,0,0-.58,3.34c-.05,1-.12,1.88.72,2.49a.52.52,0,0,0,.54,0c.85-.61.77-1.53.73-2.49a12.26,12.26,0,0,0-.58-3.34.43.43,0,0,0-.83,0Z"/><path class="cls-2" d="M100.27,229.45c10,6.7,22,7.67,33.59,9.13,13.28,1.67,27.35,4.21,40.58,1,.41-.09.33-.79-.1-.74-12,1.35-23.29.61-35.26-.8-13.23-1.56-27-1.72-38.67-8.86-.15-.09-.28.14-.14.24Z"/><path class="cls-2" d="M177.69,238.74c13.45,2,29-2.55,41.34-7.79.22-.09.06-.44-.16-.38-13.69,3.6-26.7,9.08-41.15,8-.11,0-.14.18,0,.2Z"/><path class="cls-2" d="M80.72,98a17.25,17.25,0,0,0-3,7.66c0,.1.14.11.17,0a41.55,41.55,0,0,1,2.88-7.63c0-.06,0-.1-.09,0Z"/><path class="cls-2" d="M80.41,97.62a45.29,45.29,0,0,0-4.64,18.1c0,.22.35.28.39,0a169.06,169.06,0,0,1,4.41-18.09c0-.09-.11-.15-.16-.06Z"/><path class="cls-2" d="M79.53,101c-2.84,9.08-3.87,19.85-1.19,29.09.06.19.37.16.35,0-.72-10.08-1-19,1-29a.07.07,0,0,0-.13,0Z"/><path class="cls-2" d="M77.59,123.39c.46,7.78,1.08,15.67,2.29,23.37,0,.1.17.07.17,0-.34-7.79-1.3-15.64-2.39-23.36,0,0-.07,0-.07,0Z"/><path class="cls-2" d="M108,59c12.41,14.41,31,16.34,48.7,16.14a.1.1,0,0,0,0-.19c-17.79,0-35.76-2.34-48.52-16.13-.11-.11-.28.06-.18.18Z"/><path class="cls-2" d="M158.62,75.08A139,139,0,0,0,188.72,69c8.71-2.92,13.09-10,21.07-13.62.22-.1,0-.43-.2-.33-7.93,3.5-12.22,10.9-20.9,13.83-9.65,3.25-20,4.85-30.07,6.13,0,0,0,.06,0,0Z"/><path class="cls-2" d="M102.56,49.43c.34,1.13.83,2.23,1.27,3.33a19.74,19.74,0,0,0,1.22,2.88.15.15,0,0,0,.27-.11,23.9,23.9,0,0,0-1.25-3.33c-.39-1-.74-2-1.21-2.89-.08-.17-.35-.05-.3.12Z"/><path class="cls-2" d="M214.2,49.51c-.5.78-1.09,1.54-1.63,2.29A14.89,14.89,0,0,0,210.89,54a.18.18,0,0,0,.24.24,6.74,6.74,0,0,0,1.73-1.91,14.38,14.38,0,0,0,1.52-2.74.1.1,0,0,0-.18-.1Z"/><path class="cls-2" d="M109.9,46.51c-1.08,0-.78-.14-1.61.62-.17.16,0,.39.21.36,14.24-2.3,27.6.51,41.5,3.39.16,0,.23-.21.07-.25-13.41-3.29-26.33-5.34-40.17-4,.07,0,.08-.11,0-.11Z"/><path class="cls-2" d="M153.33,50.24c17.52,1.18,35.29-4.86,52.53-2.4.34,0,.49-.47.14-.52-7.31-1.2-14.13-.24-21.41.83a182.66,182.66,0,0,1-31.26,1.94.08.08,0,0,0,0,.15Z"/><path class="cls-2" d="M83.07,97.82c-6.45,19.79-2,43.71,1.57,63.73.06.31.62.24.57-.08-2.76-21.33-6.45-42.23-2-63.6a.09.09,0,0,0-.17-.05Z"/><path class="cls-2" d="M85.4,164c3.39,10.88,2.91,22.35,5.09,33.47a101,101,0,0,0,10.9,29.93c.15.26.53,0,.4-.23-5.48-11.2-9.66-22.43-11.53-34.79-1.44-9.6-1.4-19.18-4.61-28.45-.05-.16-.3-.09-.25.07Z"/><path class="cls-2" d="M98,211.31a86.16,86.16,0,0,0,6.89,19.08c.09.15.35.05.29-.12-2.22-6.38-4.82-12.61-7-19,0-.1-.2-.06-.17.05Z"/><path class="cls-2" d="M101.77,214.06c1.14,5.43,2.41,11.39,4.87,16.4.09.19.37,0,.32-.14-1.29-5.49-3.46-10.87-5-16.31a.1.1,0,1,0-.19.05Z"/><path class="cls-2" d="M234.2,97.62a56.56,56.56,0,0,1-1.27,25.45,43.44,43.44,0,0,0-1.31,16c0,.19.31.2.3,0-.18-8.07,1.94-14.87,3.48-22.63,1.25-6.3.25-12.66-1.14-18.84a0,0,0,1,0-.06,0Z"/><path class="cls-2" d="M231.1,141.51c.32,28.77-4.41,56.13-12.63,83.61-.1.35.42.48.54.15,9.63-26.61,13.29-55.56,12.26-83.76a.09.09,0,0,0-.17,0Z"/><path class="cls-2" d="M186.64,70.39a34.61,34.61,0,0,0,.27,9.59.12.12,0,0,0,.23,0c-.06-3.21-.38-6.34-.18-9.56,0-.21-.31-.21-.32,0Z"/><path class="cls-2" d="M189.92,68.48c.21,4.13.33,8.28.59,12.4a.09.09,0,0,0,.17,0,69.5,69.5,0,0,0-.58-12.4c0-.11-.18-.12-.18,0Z"/><path class="cls-2" d="M209.55,58c0-.54,0-1.45-.73-1.57a.61.61,0,0,0-.75.58,0,0,0,0,0,.05,0c.93-.28,1.38-.11,1.36.49a2.83,2.83,0,0,1,0,.5,0,0,0,0,0,.05,0Z"/><path class="cls-2" d="M209.11,56.54c0,4.12-.42,8.3,0,12.41a.09.09,0,0,0,.18,0c.41-4.11,0-8.29,0-12.41a.08.08,0,1,0-.15,0Z"/><path class="cls-2" d="M207.22,56.06a135.33,135.33,0,0,0-.07,14.8.12.12,0,0,0,.24,0,132.87,132.87,0,0,0-.07-14.8c0-.06-.09-.06-.1,0Z"/><path class="cls-2" d="M150.61,212.13c0,8.33-.34,16.51-.8,24.82,0,.08.13.1.14,0a112.8,112.8,0,0,0,.82-24.84c0-.1-.16-.11-.16,0Z"/><path class="cls-2" d="M152.75,225.51c-.18,3.72-.55,7.79,0,11.48,0,.13.22.13.24,0,.54-3.69.17-7.76,0-11.48a.11.11,0,1,0-.22,0Z"/><path class="cls-2" d="M156.66,225.51c-.36,4.79-.61,9.61-.76,14.41a.2.2,0,0,0,.4,0c0-.35,0-.7,0-1,0-.12-.2-.16-.22,0a92.34,92.34,0,0,0,.76-13.33.1.1,0,0,0-.19,0Z"/><path class="cls-2" d="M159.83,226.45c-.22,4.59-.54,9.25-.57,13.84,0,.16.27.21.29,0a60.79,60.79,0,0,0,.39-13.88c0-.07-.11-.07-.11,0Z"/><path class="cls-2" d="M173.16,220.26c.17,6.05.31,12.09.55,18.13,0,.27.43.27.42,0-.19-6-.49-12.09-.75-18.13a.11.11,0,0,0-.22,0Z"/><path class="cls-2" d="M92,100.92a255.11,255.11,0,0,0-.9,29.13.14.14,0,0,0,.28,0c.17-9.72.21-19.42.68-29.13,0,0-.06,0-.06,0Z"/><path class="cls-2" d="M94.59,114.77A107.64,107.64,0,0,0,94,129.56c0,.07.12.1.13,0a107.61,107.61,0,0,0,.65-14.81c0-.1-.15-.1-.16,0Z"/><path class="cls-2" d="M96.87,119.07c0,3.47-.26,7,0,10.5a.1.1,0,0,0,.19,0c.31-3.47.09-7,0-10.5a.15.15,0,0,0-.29,0Z"/><path class="cls-2" d="M94,77.55c.33,5.25.55,10.49.39,15.74a.2.2,0,0,0,.39,0,97.53,97.53,0,0,0-.72-15.75,0,0,0,0,0-.06,0Z"/><path class="cls-2" d="M200.77,62.3c.24,2.73.45,5.44.42,8.18,0,1.28-.08,2.55-.16,3.83-.05.79.19,2.14-.38.81,0-.08-.14,0-.13.06a10.2,10.2,0,0,0,.32,1.35.17.17,0,0,0,.33,0,57.84,57.84,0,0,0-.24-14.22c0-.09-.17-.07-.16,0Z"/><path class="cls-2" d="M198.67,62.75c-.21,5-.66,10.2-.45,15.26a.1.1,0,0,0,.2,0c.49-5,.33-10.21.41-15.26a.08.08,0,0,0-.16,0Z"/><path class="cls-2" d="M223.9,74.68a126.45,126.45,0,0,0-.1,22.44c0,.12.21.13.2,0-.2-7.51-.35-14.94.05-22.44a.08.08,0,1,0-.15,0Z"/><path class="cls-2" d="M226.39,81.84a63.86,63.86,0,0,0,.89,18.15c0,.1.19.08.18,0a100,100,0,0,1-1-18.13c0-.06-.09,0-.09,0Z"/><path class="cls-2" d="M229.06,86.58a27.13,27.13,0,0,0-.32,9.59c0,.08.13,0,.13,0,.1-3.2,0-6.36.28-9.56a0,0,0,0,0-.09,0Z"/><path class="cls-2" d="M91.48,132.9c.2,10,0,20.06.15,30.08a.1.1,0,0,0,.19,0c.51-10,.18-20.08-.09-30.08,0-.16-.26-.16-.25,0Z"/><path class="cls-2" d="M93.12,165.84a191.36,191.36,0,0,0,3.34,30.1c0,.13.21.07.2-.06-1.36-10-2.72-19.93-3.28-30,0-.16-.26-.16-.26,0Z"/><path class="cls-2" d="M128.16,218.9c1.56-2.24,1.13.58,1.13,1.77v3.74c0,2.91-.11,5.84.09,8.73a.11.11,0,1,0,.21,0c.33-5.34.15-10.86,0-16.21a.13.13,0,0,0-.23-.06c-.4.68-.82,1.33-1.28,2,0,.06.06.12.1.06Z"/><path class="cls-2" d="M132.35,217.4c-.28,4.9-.71,9.88-.63,14.79,0,.13.19.12.2,0,.49-4.89.49-9.89.62-14.79a.1.1,0,0,0-.19,0Z"/><path class="cls-2" d="M139.46,217.87A67.87,67.87,0,0,0,141,237.76c0,.21.38.12.33-.09-.11-.41-.22-.81-.32-1.21a.1.1,0,1,0-.2,0,115.24,115.24,0,0,1-1.24-18.64c0-.09-.12-.08-.13,0Z"/><path class="cls-2" d="M142.79,223.6a111.69,111.69,0,0,0-.06,12.41.11.11,0,0,0,.21,0,109.32,109.32,0,0,0-.06-12.41,0,0,0,1,0-.09,0Z"/><path class="cls-2" d="M144.64,228.85a47.41,47.41,0,0,0,0,7.63.12.12,0,1,0,.23,0,47.41,47.41,0,0,0,0-7.63.1.1,0,0,0-.21,0Z"/><path class="cls-2" d="M184.75,221.69a83.37,83.37,0,0,1-1.21,12.72.19.19,0,0,0,.13.23l.17.06a.2.2,0,0,0,.21-.08,1.18,1.18,0,0,1,.11-.19c.08-.12,0-.25-.18-.23l-.07,0a.13.13,0,0,0,0,.23c.05,0,.84-5,.88-5.32a63.69,63.69,0,0,0,.21-7.44.11.11,0,0,0-.22,0Z"/><path class="cls-2" d="M189.09,222.55c-.42,5.55-.52,11.14-.74,16.7,0,.31.46.31.47,0,.21-5.56.55-11.13.57-16.7a.15.15,0,0,0-.3,0Z"/><path class="cls-2" d="M104.51,146.75c-.43,16.38-.36,32.78-.44,49.16a.21.21,0,0,0,.41,0c.15-16.38.45-32.78.25-49.16a.11.11,0,0,0-.22,0Z"/><path class="cls-2" d="M106.53,171.57c-.37,7.78-.17,15.61-.17,23.39a.2.2,0,0,0,.4,0c0-7.78.2-15.62-.17-23.39a0,0,0,0,0-.06,0Z"/><path class="cls-2" d="M107.42,199.73c-.13,4.45-.18,8.92,0,13.37a.15.15,0,0,0,.29,0c.13-4.45.08-8.92,0-13.37a.1.1,0,0,0-.19,0Z"/><path class="cls-2" d="M214.7,133.85c.16,5.89.12,11.78,0,17.67a.19.19,0,0,0,.38,0,168,168,0,0,0-.34-17.67Z"/><path class="cls-2" d="M217.67,139.59a75.21,75.21,0,0,1-.61,10.92c0,.23.31.33.35.1a45.69,45.69,0,0,0,.43-11c0-.1-.17-.11-.17,0Z"/><path class="cls-2" d="M231.89,119.57q-1.45,10.46-2.54,21c0,.24.34.23.37,0q1.31-10.46,2.24-21s-.07,0-.07,0Z"/><path class="cls-2" d="M210.92,74.68c-.07,6.8,0,13.74.56,20.52a.13.13,0,0,0,.25,0c.1-6.8-.25-13.73-.75-20.52a0,0,0,0,0-.06,0Z"/><path class="cls-2" d="M216.3,61.79c-.44,5.15-.57,10.76.62,15.82,0,.14.26.11.25,0-.19-5.29-.78-10.48-.7-15.79a.09.09,0,0,0-.17,0Z"/><path class="cls-2" d="M218.13,63.22c-.18,4.33-.55,9.07,0,13.37a.11.11,0,0,0,.22,0c.56-4.3.19-9,0-13.37a.12.12,0,0,0-.24,0Z"/><path class="cls-2" d="M212.41,206.88a135.36,135.36,0,0,0-.59,22,.18.18,0,0,0,.28.16c.78-.37.64-.21.93-1.05a.1.1,0,0,0-.19-.08,1.84,1.84,0,0,1-.7-2.41l0-1.69c0-2,0-3.94,0-5.91.06-3.66.24-7.32.36-11,0,0-.08,0-.09,0Z"/><path class="cls-2" d="M216,208.33c-1.05,6.18-1.93,12.84-1.25,19.09a.15.15,0,0,0,.29,0c.5-6.36.41-12.71,1.11-19.07,0-.08-.13-.1-.15,0Z"/><path class="cls-2" d="M216.11,159.17c.15,8.52,0,17.35.84,25.77,0-.16-.26-.17-.26,0l0,1.28a.21.21,0,0,0,.41,0c-.08-9-.2-18.06-.8-27.05a.09.09,0,0,0-.17,0Z"/><path class="cls-2" d="M219.61,171.09c-.32,4.89-.25,9.9-.11,14.8a.18.18,0,0,0,.36,0c.14-4.9.21-9.91-.11-14.8a.07.07,0,0,0-.14,0Z"/><path class="cls-2" d="M39.58,131.48c-.2,3.49,0,7-.24,10.5,0,.51.82.51.79,0-.21-3.5,0-7-.24-10.5a.16.16,0,0,0-.31,0Z"/><path class="cls-2" d="M41.32,134.72a16.1,16.1,0,0,0-.27,3.47,4.9,4.9,0,0,0,.57,3,.26.26,0,0,0,.46-.06,6.62,6.62,0,0,0,.07-2.94c0-1.13,0-2.25-.09-3.37,0-.4-.65-.54-.74-.1Z"/><path class="cls-2" d="M43.86,136.66c-.42,2.06-1,4.77-.71,6.85.07.41.63.32.74,0a12.11,12.11,0,0,0,.4-3.18c.08-1.19.15-2.4.12-3.59,0-.31-.48-.4-.55-.08Z"/><path class="cls-2" d="M45.66,138.64c-.13,1.19-.17,2.39-.19,3.59a9.15,9.15,0,0,0,.15,3.18.34.34,0,0,0,.64,0,9.4,9.4,0,0,0,.16-3.18c0-1.2-.06-2.4-.19-3.59a.29.29,0,0,0-.57,0Z"/><path class="cls-2" d="M39.11,132.85c-.46,2.69-1.07,6-.73,8.65a.34.34,0,0,0,.66.08c.74-2.62.61-6,.54-8.67,0-.25-.42-.33-.47-.06Z"/><path class="cls-2" d="M48.87,138.24c.36-.37.71-.75,1.07-1.13l-.51-.4c-1.16,2.08-1.19,5.11-1.53,7.43-.14,1,1.35,1.38,1.48.4.34-2.37,1.19-5.39.65-7.75a.33.33,0,0,0-.6-.08L48.61,138a.17.17,0,0,0,.26.2Z"/><path class="cls-2" d="M52.72,137.45a13,13,0,0,0-1.36,7.39.78.78,0,0,0,1.55,0c.1-2.43.4-4.73.71-7.15.07-.49-.68-.63-.9-.24Z"/><path class="cls-2" d="M55.78,139.93a14.32,14.32,0,0,0-1.14,6.34.84.84,0,0,0,1.67,0c0-2.06.1-4.12.07-6.18,0-.3-.46-.47-.6-.16Z"/><path class="cls-2" d="M73.68,140a20.51,20.51,0,0,0-.93,4.79c-.11,1.28-.47,2.84.55,3.78a.48.48,0,0,0,.68,0c.85-1,.48-2.22.48-3.47,0-1.66.14-3.31.25-5,0-.62-.85-.68-1-.14Z"/><path class="cls-2" d="M71.53,141.75c-.92.72-.91,2.17-1.07,3.25a18.59,18.59,0,0,0-.39,4.13,1.08,1.08,0,0,0,2.11.28,18.52,18.52,0,0,0,.36-4.4c0-1.09.23-2.41-.54-3.26a.34.34,0,0,0-.47,0Z"/><path class="cls-2" d="M75.32,144.87c-.08.63-.2,1.57-.32,2.31a14,14,0,0,0-.44,2.63,1,1,0,0,0,1.87.51,6.54,6.54,0,0,0,.62-3.06,4.92,4.92,0,0,0-.43-2.84c-.53-.75-2.06-.56-1.8.51.07.31.47.2.5-.06Z"/><path class="cls-2" d="M62.81,141.43a27.57,27.57,0,0,0-.38,3.63,11.55,11.55,0,0,0,.1,3.76c.14.44.86.64,1.09.14a7.75,7.75,0,0,0,.31-3.62,12.52,12.52,0,0,0-.86-3.91c0-.11-.23-.14-.26,0Z"/><path class="cls-2" d="M65.62,143.77c-.14.76-.23,1.51-.32,2.27a5,5,0,0,0,0,2.25.35.35,0,0,0,.64.08,4.54,4.54,0,0,0,.43-2c.09-.83.17-1.66.2-2.5,0-.52-.83-.66-.93-.13Z"/><path class="cls-2" d="M239.45,139.22l.19-.32-.47-.27c-.87,1.27-.55,3-.5,4.46.08,2,.16,3.94.36,5.9.18,1.71,2.74,1.25,2.25-.3a3,3,0,0,0-.6-1.26.55.55,0,0,0-.86-.12,4.21,4.21,0,0,0-.75,1.38l2.25.3c-.09-2.1-.32-4.2-.57-6.29-.17-1.43-.13-3-1.15-4.12a.27.27,0,0,0-.45.12l-.11.35a.22.22,0,0,0,.41.17Z"/><path class="cls-2" d="M243.06,138a16.54,16.54,0,0,0-.49,6.61c.14,1.58.09,3.52,1.46,4.5a.46.46,0,0,0,.63-.16c.72-1.47-.09-3.15-.25-4.72-.21-2,0-4-.16-6.07a.61.61,0,0,0-1.19-.16Z"/><path class="cls-2" d="M247.14,139.88a10.11,10.11,0,0,0-.22,4.48c.18,1.31.29,2.83,1.48,3.59a.85.85,0,0,0,1.23-.51c.42-1.13-.24-2.4-.47-3.54-.27-1.33-.33-2.7-.62-4a.73.73,0,0,0-1.4,0Z"/><path class="cls-2" d="M252,140.1a36.81,36.81,0,0,0,.67,4c.23,1.19.25,2.54,1.09,3.48a.54.54,0,0,0,.85-.11c.53-1.14.14-2.42-.13-3.6a16.24,16.24,0,0,0-1.44-4.08.56.56,0,0,0-1,.28Z"/><path class="cls-2" d="M271.39,130.05a16.44,16.44,0,0,0,.56,5.41c.39,1.37.84,3.15,2.11,3.91a.43.43,0,0,0,.64-.37c0-1.46-1.1-2.82-1.62-4.17a27.19,27.19,0,0,1-1.35-4.82c0-.2-.33-.14-.34,0Z"/><path class="cls-2" d="M269.43,133.87c0,1.65.16,3.3.29,4.94.1,1.3,0,2.77.77,3.87a.49.49,0,0,0,.89-.12c.43-1.26-.06-2.65-.31-3.93-.32-1.62-.64-3.24-1.07-4.83a.29.29,0,0,0-.57.07Z"/><path class="cls-2" d="M263.39,136.74c0,1.54.14,3.07.12,4.61,0,1.24-.37,2.55.5,3.52a.75.75,0,0,0,1,0c1.1-.91.77-2.78.62-4.07a15.06,15.06,0,0,0-1.09-4.38c-.27-.6-1.19-.27-1.18.32Z"/><path class="cls-2" d="M260.79,136.8c-1,.57-1,2-1.07,3s-.39,2.8.57,3.6a.69.69,0,0,0,1,0c.71-.92.39-2,.37-3.15s.4-2.47-.25-3.31a.43.43,0,0,0-.58-.15Z"/><path class="cls-2" d="M237.8,139.66c5.82-1.24,11.69-.15,17.45-1.82s11-4.86,17-6.2c.49-.11.28-.85-.2-.74-6,1.27-11.13,4.57-17,6.19s-11.72.26-17.33,2.25a.17.17,0,0,0,.09.32Z"/><path class="cls-2" d="M39.74,129.73c3.28.23,6,2.74,8.87,4a52.62,52.62,0,0,0,8.21,2.71,82.31,82.31,0,0,0,20.08,3.06c.57,0,.54-.79,0-.86-7.91-1-15.81-1.66-23.47-4-4.24-1.31-9.13-5.66-13.69-5.11a.1.1,0,0,0,0,.2Z"/><path class="cls-2" d="M105.06,56.93c-2,2.14-3.82,4.43-5.85,6.55s-4.31,4-6.25,6.17c-.16.18.05.48.26.34a43.33,43.33,0,0,0,12.15-12.82c.12-.19-.16-.41-.31-.24Z"/></g></svg>