<svg id="Warstwa_3" data-name="Warstwa 3" xmlns="http://www.w3.org/2000/svg" xmlns:xlink="http://www.w3.org/1999/xlink" viewBox="0 0 316 316"><defs><style>.cls-1{fill:none;}.cls-2{fill:#e5e5e5;}.cls-3{clip-path:url(#clip-path);}.cls-4{fill:#14213d;}</style><clipPath id="clip-path"><circle id="Ellipse_55" data-name="Ellipse 55" class="cls-1" cx="157.77" cy="158.1" r="140.1"/></clipPath></defs><g id="dreswka_drapana" data-name="dreswka drapana"><polygon class="cls-2" points="147.26 120.13 154.55 167.99 159.8 199.56 139.79 205.12 128.18 168.08 147.26 120.13"/><circle id="Ellipse_55-2" data-name="Ellipse 55" class="cls-2" cx="158" cy="158" r="158"/><g class="cls-3"><path class="cls-4" d="M168.05,58.9c-6.23-.58-13.78,4.94-14.23,11.38,0,.31.39.31.48.07,2.62-6.46,6.6-10.25,13.75-10.92a.27.27,0,0,0,0-.53Z"/><path class="cls-4" d="M154,71.65a247.2,247.2,0,0,0-6,58.33c.23,19.83-3.74,39.31-2.82,59.21,0,.59.94.6.92,0a238.73,238.73,0,0,1,.77-29.3c.9-9.73,2.2-19.27,2.08-29.07a251.53,251.53,0,0,1,1.26-29.17c1.05-10,3.08-20,4-30,0-.1-.14-.12-.17,0Z"/><path class="cls-4" d="M145.69,190.13c3.9,1.84,9.56,3.13,13.8,1.84a.25.25,0,0,0-.07-.48c-2.28-.23-4.56,0-6.85-.28a43.66,43.66,0,0,1-6.66-1.61c-.31-.1-.53.39-.22.53Z"/><path class="cls-4" d="M159.67,191.54c1.16-9.36,1.73-18.83,2.5-28.23s2.22-18.88,2.05-28.23c0-.29-.46-.38-.52-.07-1.6,9-1.69,18.35-2.4,27.42-.76,9.68-1.74,19.4-2.09,29.11,0,.3.42.28.46,0Z"/><path class="cls-4" d="M163.89,138.37c1.16-7.36,3.49-14.46,4.72-21.83,1-6.08,2.94-13.12,2.12-19.29,0-.36-.67-.35-.72,0-1.16,7.11-1.52,14.35-2.74,21.47-1.1,6.41-3.81,13.09-3.56,19.63,0,.1.16.13.18,0Z"/><path class="cls-4" d="M155.11,67.17a87.23,87.23,0,0,0,5.55,15c2.65,5.17,6.79,9.34,9,14.76.12.28.58.16.47-.13-1.89-4.6-5.07-8.28-7.7-12.45-3.3-5.26-4.84-11.47-7.16-17.19a.09.09,0,0,0-.18,0Z"/><path class="cls-4" d="M156.46,66.42c2.63,10.56,8.23,21.52,14.47,30.36.16.23.52,0,.37-.21-2.85-4.86-5.77-9.61-8.23-14.69s-4.28-10.35-6.49-15.51c0-.06-.13,0-.12,0Z"/><path class="cls-4" d="M201.54,66.26c-4.69-2.67-10.3-3.94-15.55-4.93-6.57-1.24-11.61-2.58-17.12-6.56-.31-.22-.71.21-.51.51,2.8,4.31,8.52,5.64,13.26,6.53,6.73,1.26,13.15,3.2,19.8,4.72.16,0,.27-.19.12-.27Z"/><path class="cls-4" d="M168.51,55.09a13.52,13.52,0,0,1-.77-4.92,17.14,17.14,0,0,1,1.39-4.76.11.11,0,0,0-.18-.11c-2.3,2.47-2.4,7.1-.74,9.91a.16.16,0,0,0,.3-.12Z"/><path class="cls-4" d="M169.92,43.73c-2,5.6,1.1,10.9,6.22,13.34,8,3.82,16.8,5.58,24.82,9.54a.38.38,0,0,0,.38-.65c-5-3.3-11-5-16.7-6.8-7.79-2.48-16.33-5.24-14.46-15.35a.14.14,0,0,0-.26-.08Z"/><path class="cls-4" d="M202.32,66.91c8.44-5,18.1-5.66,27-9.45,5.8-2.47,11-8.51,6.72-14.81-.2-.29-.76-.12-.61.26,4.29,11-7.2,14.33-15.4,16.52-6.23,1.67-12.69,3.1-18,6.92-.32.24,0,.77.33.56Z"/><path class="cls-4" d="M236,43.36c3.86,4.39,3,9.84-1.13,13.71-3.29,3.06-7.78,4.07-12.08,4.79-7.15,1.19-14.2,2.36-20.91,5.22-.4.17-.12.83.29.7a111.44,111.44,0,0,1,17.16-4.53c4.75-.78,9.87-1.35,14-4.07,5.4-3.55,8.36-11.18,2.79-15.93a.08.08,0,0,0-.11.11Z"/><path class="cls-4" d="M169.81,44.71l-.29.3a0,0,0,0,0,0,0l.3-.29s0-.06,0,0Z"/><path class="cls-4" d="M168.69,46.82A8.73,8.73,0,0,1,170,44.47c.52-.66,1.2-1.11,1.76-1.72.09-.09,0-.26-.12-.21-1.6.57-2.85,2.61-3.21,4.2a.16.16,0,0,0,.31.08Z"/><path class="cls-4" d="M168.92,45c9.29-7.66,20.35-8.85,32.07-8.81s25.47.77,35.62,7.21c.38.24.72-.36.35-.6-10.36-7-25.54-7.58-37.62-7.34-10,.2-23.72.84-30.56,9.41a.1.1,0,0,0,.14.13Z"/><path class="cls-4" d="M170.24,49.48c.16-6.65,11-7.95,15.94-8.68a86.56,86.56,0,0,1,16.25-.74c11.07.44,21.91,2.68,32.76,4.74.49.09.7-.64.21-.75C222,41.18,208,38.47,194.24,39.25c-6.2.35-13.06,1.19-18.8,3.66-2.9,1.25-5.6,3.17-5.48,6.57a.14.14,0,1,0,.28,0Z"/><path class="cls-4" d="M180.83,57.79l-1.48-.3a0,0,0,0,0,0,0l1.49.29s0,0,0,0Z"/><path class="cls-4" d="M180.32,58.09c0-1.86-.15-3.34.85-5a6.91,6.91,0,0,1,4.45-3.14c.1,0,.08-.2,0-.19-3.42.27-7.12,5-5.31,8.36a0,0,0,0,0,0,0Z"/><path class="cls-4" d="M188.94,49c5.68-.84,11.24-1.76,17-1,4.39.56,8.63,1.86,13,2.62a.13.13,0,0,0,.07-.26,62.5,62.5,0,0,0-30.07-1.46c-.09,0-.05.15,0,.14Z"/><path class="cls-4" d="M223.22,51.77a4.34,4.34,0,0,1,1.61,5.75.15.15,0,1,0,.26.15,4.46,4.46,0,0,0-1.79-6.05c-.09,0-.17.09-.08.15Z"/><path class="cls-4" d="M170.65,96.73c-1.5,6-1.08,14.3.56,20.29a.2.2,0,0,0,.4,0c.2-3.61-.24-7.27-.38-10.88a69.47,69.47,0,0,0-.51-9.36,0,0,0,0,0-.07,0Z"/><path class="cls-4" d="M171.81,102.39a74.16,74.16,0,0,0,.62,14.59c0,.18.33.14.31,0a110.58,110.58,0,0,1-.68-14.55c0-.17-.24-.17-.25,0Z"/><path class="cls-4" d="M173.05,107.44a71.54,71.54,0,0,0,0,8,.1.1,0,0,0,.19,0,69.24,69.24,0,0,0,0-8c0-.07-.09-.07-.1,0Z"/><path class="cls-4" d="M168.19,114.05a27.06,27.06,0,0,0,.7,9.82c1.48,4.95,3.22,7.56.72,12.91-2.79,5.95-5.73,11.56-6.45,18.23,0,.17.26.24.33.09,1.52-3.51,2.44-7.22,3.85-10.77,1.28-3.23,3.54-6.25,4.57-9.54a10.91,10.91,0,0,0-.41-7.13c-1.58-4.72-2.74-8.54-3-13.61a.16.16,0,0,0-.32,0Z"/><path class="cls-4" d="M160.36,183.81c-.34,2.59-.33,5.26-.44,7.87a50.61,50.61,0,0,0-.12,7.88c0,.19.33.27.36.05a44.71,44.71,0,0,0,.32-7.32c0-2.82.22-5.68,0-8.48a.07.07,0,1,0-.13,0Z"/><path class="cls-4" d="M160.13,200.16c14,5.44,29.56,7.69,44.53,8.11,13,.37,29.93.65,41.16-7a.52.52,0,0,0-.52-.89c-13.15,6.16-27.94,6.84-42.28,6.34-14.64-.52-28.61-3.52-42.75-7.09a.27.27,0,0,0-.14.52Z"/><path class="cls-4" d="M237.57,110.62c0,7.36-3.13,14.34-1.3,21.65.91,3.64,2.09,7.19,2.9,10.85,1,4.24,1.38,8.68,2.72,12.8a.33.33,0,0,0,.65-.09c-.22-7.52-2.62-15.22-4.67-22.42-1.35-4.74-1.13-8.63-.38-13.43.5-3.19,1.09-6.2.44-9.41,0-.21-.36-.16-.36.05Z"/><path class="cls-4" d="M242.35,157.66Z"/><path class="cls-4" d="M242.36,157.66v-.3s0,0,0,0v.3Z"/><path class="cls-4" d="M172.28,58.68a12.49,12.49,0,0,0-10,1.64c-.15.11-.07.38.13.32a41.71,41.71,0,0,1,4.5-1.38,39.08,39.08,0,0,1,5.29-.22.18.18,0,0,0,.05-.36Z"/><path class="cls-4" d="M234.9,58.47c3.09.7,6.49,1.13,9.27,2.76,2.21,1.29,4.2,4.26,5.87,6.32,3.86,4.79,3.54,12.22,5,18,.08.35.67.29.63-.08-.56-6.34-.89-14.12-5.18-19.13-2.11-2.46-3.32-4.78-6.28-6.23a18.14,18.14,0,0,0-9.23-1.85c-.11,0-.15.18,0,.21Z"/><path class="cls-4" d="M254.71,84.54c2.3,18.77,3.8,37.41,4.3,56.33.5,18.6.07,37.17.25,55.78a.49.49,0,0,0,1,0c.68-18.87.34-37.78-.18-56.64-.52-18.46-1.07-37.4-4.93-55.53-.05-.22-.44-.18-.41.06Z"/><path class="cls-4" d="M238,109.48c-.95,7.83-.21,15.91.82,23.7,1,7.25,1.9,14.88,4,21.91.1.34.68.29.65-.09-.69-7.33-2.56-14.58-3.52-21.9a216.82,216.82,0,0,1-1.42-23.62.24.24,0,0,0-.48,0Z"/><path class="cls-4" d="M247.43,63.1a102.72,102.72,0,0,1-11,28.44.25.25,0,0,0,.44.25,73,73,0,0,0,10.72-28.66c0-.11-.16-.13-.18,0Z"/><path class="cls-4" d="M248.46,64.87c-2.65,10.23-5.23,20.29-11.27,29.18-.18.26.24.59.43.34,6.06-7.83,10.2-19.72,11-29.51a.06.06,0,0,0-.12,0Z"/><path class="cls-4" d="M237.67,89c-.93,2.06-2,4.82-1.8,7.1a.11.11,0,0,0,.21,0,24.33,24.33,0,0,0,.84-3.54c.27-1.18.61-2.35.9-3.52,0-.09-.11-.15-.15-.07Z"/><path class="cls-4" d="M236.7,92.28a50.2,50.2,0,0,0-1.65,10c-.15,2.06-.79,4.76.58,6.5.14.17.39,0,.29-.23-1.13-2.22-.41-5.67-.19-8.06.25-2.75.71-5.48,1.14-8.21,0-.11-.14-.16-.17,0Z"/><path class="cls-4" d="M238.37,92.17c-1.59,4-3,9.83-2.29,14.14,0,.21.34.18.39,0,.67-2.23.65-4.71,1-7s.91-4.68,1.25-7a.19.19,0,0,0-.36-.1Z"/><path class="cls-4" d="M236.66,94a31.16,31.16,0,0,0-.69,12c.06.45.69.28.74-.1.22-2,.1-4,.15-6A49.24,49.24,0,0,0,237,94a.15.15,0,0,0-.3,0Z"/><path class="cls-4" d="M238.12,95a96.89,96.89,0,0,0-.83,13.07.24.24,0,0,0,.47,0c.38-4.34.42-8.72.71-13.07,0-.22-.33-.21-.35,0Z"/><path class="cls-4" d="M238.12,104.46a7,7,0,0,0,0,1.21.08.08,0,0,0,.15,0,7,7,0,0,0,0-1.21c0-.08-.12-.08-.13,0Z"/><path class="cls-4" d="M242.79,150.82A313.19,313.19,0,0,0,246.37,197c0,.36.67.28.64-.09-1.34-15.34-2.34-30.76-3.87-46.08a.18.18,0,0,0-.35,0Z"/><path class="cls-4" d="M246.6,196.38c4.16,1.78,9.35,2.51,13.69.92.38-.14.36-.82-.1-.76-4.72.62-8.75.81-13.35-.72-.33-.11-.56.43-.24.56Z"/><path class="cls-4" d="M241.23,152.66c.63,4.05,1,8.17,1.77,12.19a.2.2,0,0,0,.39,0,52.11,52.11,0,0,0-1.89-12.21.14.14,0,0,0-.27.07Z"/><path class="cls-4" d="M246.48,197.18c0,.25-.13.32-.15.55s0,.37,0,.55a9.09,9.09,0,0,0,0,1.28.18.18,0,0,0,.35,0,10.94,10.94,0,0,0,0-1.28c0-.18,0-.36,0-.55s-.11-.3-.15-.55a0,0,0,0,0-.05,0Z"/><path class="cls-4" d="M246.43,196a19.27,19.27,0,0,0-.11,3.56.19.19,0,0,0,.38,0,20.19,20.19,0,0,0-.12-3.56.07.07,0,1,0-.15,0Z"/><path class="cls-4" d="M246.6,199.37a7.88,7.88,0,0,1-1.7,1.22c-.64.31-1.34.41-2,.66-.11,0-.14.22,0,.25a4.42,4.42,0,0,0,4-1.9c.13-.19-.15-.37-.31-.23Z"/><path class="cls-4" d="M198.42,68.21c-.18,15.4-.9,31-.59,46.36a.15.15,0,0,0,.3,0c1.38-15.22,1-31.11.36-46.36a0,0,0,1,0-.07,0Z"/><path class="cls-4" d="M197.5,116.36c-.93,14.84-.68,29.85-.59,44.72s-.35,30,1.43,44.7a.27.27,0,0,0,.53,0c.45-14.82-.9-29.87-1.12-44.7s.24-29.83,0-44.72a.14.14,0,0,0-.28,0Z"/><path class="cls-4" d="M210.54,67.31c-.24,12.33.09,24.69,0,37s-.91,24.68-.88,37a.12.12,0,1,0,.24,0c1.13-12.24,1.12-24.71,1.28-37s.38-24.74-.35-37a.12.12,0,0,0-.24,0Z"/><path class="cls-4" d="M210.45,142.41c-.9,21.27,3.51,42.42,2.29,63.73,0,.35.51.34.53,0,1.37-21.2-1.8-42.55-2.7-63.73a.06.06,0,1,0-.12,0Z"/><path class="cls-4" d="M184.12,64a69.1,69.1,0,0,0-1.25,16.67c0,.27.44.36.49.07A68.88,68.88,0,0,0,184.3,64c0-.1-.16-.14-.18,0Z"/><path class="cls-4" d="M184.64,64.91a50.74,50.74,0,0,0-1,10.43.13.13,0,0,0,.25,0,50,50,0,0,0,1-10.42c0-.16-.24-.2-.27,0Z"/><path class="cls-4" d="M182.51,79.17A22.19,22.19,0,0,0,181.23,83c0,.18.23.32.31.13a21,21,0,0,0,1.15-3.92.09.09,0,0,0-.18,0Z"/><path class="cls-4" d="M183.06,80.05a12.09,12.09,0,0,0-.95,3.3.14.14,0,0,0,.26.06,12,12,0,0,0,.88-3.3.1.1,0,0,0-.19-.06Z"/><path class="cls-4" d="M183.6,80.1c0,.51,0,1,0,1.54a2.32,2.32,0,0,0,.12,1.2.13.13,0,0,0,.22,0,2.32,2.32,0,0,0,.12-1.2c0-.52,0-1,0-1.54a.21.21,0,0,0-.41,0Z"/><path class="cls-4" d="M184,80.66a2,2,0,0,0,.64,1.86c.07.06.17,0,.12-.09a3,3,0,0,1-.56-1.74c0-.11-.18-.14-.2,0Z"/><path class="cls-4" d="M220.38,66c1,2.81-.38,5.63.06,8.5a8.53,8.53,0,0,0,2.08,4.42.13.13,0,0,0,.2-.16c-1.85-2.87-2.06-5.17-1.72-8.48a8.07,8.07,0,0,0-.43-4.36c0-.1-.22,0-.19.08Z"/><path class="cls-4" d="M220.61,65.85c.44,3.67-1.85,11.52,2.55,13.66.13.06.31-.08.21-.21A9.94,9.94,0,0,1,221.13,73c0-2.42.4-4.77-.28-7.14,0-.13-.25-.11-.24,0Z"/><path class="cls-4" d="M222.56,78.86c-.18.71-.09,1.91.68,2.26a.14.14,0,0,0,.21-.16,9.4,9.4,0,0,0-.38-.95,3.43,3.43,0,0,1-.14-1.1.19.19,0,0,0-.37,0Z"/><path class="cls-4" d="M223.15,79c.13.32.26.64.41,1a2.08,2.08,0,0,0,.51.89.14.14,0,0,0,.23-.1,1.79,1.79,0,0,0-.31-.85c-.17-.35-.35-.69-.55-1-.08-.16-.36,0-.29.12Z"/><path class="cls-4" d="M222.9,79.43c.33.2.66.39,1,.57a1.7,1.7,0,0,0,.87.33.19.19,0,0,0,.16-.27,1.72,1.72,0,0,0-.76-.53c-.34-.18-.69-.34-1.05-.49a.23.23,0,0,0-.23.39Z"/><path class="cls-4" d="M223,78.4a3.84,3.84,0,0,1,1.43.11c.43.12.8.36,1.22.49.08,0,.18-.08.12-.16a2.6,2.6,0,0,0-2.79-.57c-.06,0-.06.14,0,.13Z"/><path class="cls-4" d="M184.16,51a17.78,17.78,0,0,0-3.73,5.55c0,.07.08.11.12.05A60,60,0,0,1,184.18,51s0,0,0,0Z"/><path class="cls-4" d="M186.7,49.74c-1.62,2.53-3.32,5.09-4.7,7.76,0,0,0,.07.05,0,1.73-2.46,3.21-5.16,4.7-7.76,0,0,0-.06-.05,0Z"/><path class="cls-4" d="M186.69,51.81a26.67,26.67,0,0,0-3.57,6.27c0,.06.08.1.11,0,1.18-2.1,2.19-4.25,3.55-6.26,0,0-.05-.11-.09,0Z"/><path class="cls-4" d="M157.1,66.77c1.8-4.76,10.66-6.37,15.11-6.52.14,0,.15-.23,0-.23a30.4,30.4,0,0,0-10.78,2.62c-2,.84-3.78,1.92-4.51,4.08,0,.11.14.16.18,0Z"/><path class="cls-4" d="M199.5,66.43c-.23,3.82-.52,7.75-.38,11.58a.07.07,0,1,0,.13,0c.39-3.81.38-7.75.41-11.58,0-.1-.15-.1-.16,0Z"/><path class="cls-4" d="M200.66,66.72c-.16,3.56-.15,7.14-.08,10.7a.17.17,0,0,0,.33,0c.07-3.55.07-7.14-.09-10.7a.08.08,0,0,0-.16,0Z"/><path class="cls-4" d="M215.88,84.85A101.77,101.77,0,0,0,216,97.93a.07.07,0,0,0-.14,0l-.09.8c0,.19.31.2.31,0,0-4.63,0-9.25-.14-13.88a0,0,0,0,0,0,0Z"/><path class="cls-4" d="M216.78,86.63a88.92,88.92,0,0,1,0,11.31c0,.16.23.15.25,0a47.63,47.63,0,0,0-.21-11.32,0,0,0,0,0-.07,0Z"/><path class="cls-4" d="M218,89.61c0,2.74-.08,5.48-.06,8.23,0,.12.19.11.18,0L218,97s-.06,0-.07,0c0,.27,0,.54-.05.81,0,.11.18.12.18,0,0-2.75,0-5.49-.06-8.23,0,0-.06,0-.06,0Z"/><path class="cls-4" d="M219.08,91.39c0,1.87-.13,3.78,0,5.64a.07.07,0,1,0,.13,0c.15-1.86,0-3.77,0-5.64a.09.09,0,0,0-.17,0Z"/><path class="cls-4" d="M249.54,69.1A73.11,73.11,0,0,1,239.78,94c-.1.16.15.3.25.15a61.94,61.94,0,0,0,9.71-24.95c0-.13-.17-.19-.2-.05Z"/><path class="cls-4" d="M249.08,78c-1.92,5.37-4.7,9.78-7.69,14.56a.06.06,0,0,0,.1.07c3.69-4,6.14-9.44,7.69-14.6,0-.06-.08-.09-.1,0Z"/><path class="cls-4" d="M248.18,82.75a29.91,29.91,0,0,1-4.11,8.9c0,.07.06.15.11.09a19.54,19.54,0,0,0,4-9,0,0,0,1,0,0,0Z"/><path class="cls-4" d="M249.64,70.66A41.26,41.26,0,0,1,253.48,86a.08.08,0,0,0,.15,0,29.12,29.12,0,0,0-3.89-15.44c0-.06-.13,0-.1.06Z"/><path class="cls-4" d="M254.72,89.6c.5,9.42,1,19.23,2.69,28.51a.07.07,0,0,0,.14,0c-.84-9.49-1.62-19-2.69-28.5,0-.09-.15-.09-.14,0Z"/><path class="cls-4" d="M240.23,95.55c-.15,7.21-.29,14.48,0,21.69a.06.06,0,1,0,.12,0c.27-7.21.13-14.48,0-21.69,0,0-.06,0-.07,0Z"/><path class="cls-4" d="M241.39,98.22c-.11,5.42-.35,10.94,0,16.35a.09.09,0,0,0,.17,0c.32-5.41.09-10.93,0-16.35a.07.07,0,0,0-.13,0Z"/><path class="cls-4" d="M242.68,102.09c-.19,4.12-.58,8.35-.36,12.48,0,.09.12.08.13,0,.45-4.11.31-8.35.36-12.48a.07.07,0,0,0-.13,0Z"/><path class="cls-4" d="M243.76,104.76a70.84,70.84,0,0,0,0,8.62.11.11,0,0,0,.21,0,70.84,70.84,0,0,0,0-8.62.07.07,0,0,0-.14,0Z"/><path class="cls-4" d="M245.22,107.44a44.22,44.22,0,0,0,0,5.64.08.08,0,1,0,.15,0,42.45,42.45,0,0,0,0-5.64.1.1,0,0,0-.2,0Z"/><path class="cls-4" d="M239.78,118.49c1.74,14.61,3.6,29.4,6.18,43.89,0,.08.17.06.16,0-1.46-14.64-3.78-29.38-6.24-43.88,0,0-.11,0-.1,0Z"/><path class="cls-4" d="M245.76,164.2c.05,11.05.07,22.27,1.14,33.29a.06.06,0,0,0,.11,0c-.16-11.1-.88-22.19-1.08-33.29a.09.09,0,1,0-.17,0Z"/><path class="cls-4" d="M247,181.73c.23,5,.37,9.94.9,14.86a.07.07,0,1,0,.13,0c-.07-5-.53-9.92-.9-14.86,0-.08-.13-.08-.13,0Z"/><path class="cls-4" d="M248.51,182a89.69,89.69,0,0,0,.45,14c0,.07.13.05.13,0,0-4.65-.38-9.33-.46-14a.06.06,0,1,0-.12,0Z"/><path class="cls-4" d="M250.3,183.51c.52,4.47.91,9,1.66,13.42,0,.13.25.1.24,0-.37-4.48-1.12-8.94-1.71-13.39,0-.12-.21-.12-.19,0Z"/><path class="cls-4" d="M257.65,177.87c-.13,6.13,0,12.3.22,18.42a.11.11,0,0,0,.22,0c.05-6.13,0-12.3-.33-18.42a.06.06,0,0,0-.11,0Z"/><path class="cls-4" d="M156.27,72.08a238.56,238.56,0,0,0-4.55,43.37c0,.1.14.1.14,0,1.13-14.55,2.46-28.87,4.51-43.34,0-.06-.09-.09-.1,0Z"/><path class="cls-4" d="M151,118.08c-.69,5.15-1.48,10.26-.74,15.42,1,6.9-1.86,13.4-1.21,20.27,0,.09.16.09.15,0-.26-6.11,2.16-12,1.62-18.09-.25-2.9-.84-5.56-.6-8.5s.65-6.05.88-9.09c0,0-.09-.07-.1,0Z"/><path class="cls-4" d="M148.65,156.47c-.51,11.14-1,22.44-.38,33.58a.06.06,0,0,0,.11,0c.3-11.19.11-22.39.4-33.58,0-.08-.12-.08-.13,0Z"/><path class="cls-4" d="M149.51,176.67c-.38,4.34-.83,8.73-.89,13.08,0,.1.13.09.14,0,.51-4.32.63-8.73.82-13.08,0,0-.07,0-.07,0Z"/><path class="cls-4" d="M151.38,180.53a38.52,38.52,0,0,0-.64,9.82.07.07,0,0,0,.13,0c.2-3.28.24-6.5.71-9.77,0-.13-.17-.18-.2-.05Z"/><path class="cls-4" d="M152.53,182.33c-.11,2.68-.49,5.34-.63,8a.07.07,0,0,0,.13,0,41.56,41.56,0,0,0,.7-8,.1.1,0,0,0-.2,0Z"/><path class="cls-4" d="M158.78,176.38c-.42,4.47-1,8.92-1.47,13.39,0,.14.22.17.25,0a87.57,87.57,0,0,0,1.26-13.42,0,0,0,1,0,0,0Z"/><path class="cls-4" d="M169.17,96.18c-1,4.32-1.56,8.73-2.11,13.12-.61,4.85-.47,10.14-2,14.8,0,.08.1.14.13.06,1.41-3.31,1.25-7.22,1.64-10.75.64-5.76,1.65-11.46,2.43-17.2,0-.07-.1-.11-.12,0Z"/><path class="cls-4" d="M170.26,115.79c1.15,5.75,3.42,11.56,3,17.49,0,.07.1.08.12,0,1.11-5.57-1.45-12.24-2.92-17.55a.11.11,0,0,0-.21.05Z"/><path class="cls-4" d="M173.32,135.05a12.65,12.65,0,0,0-.66,2.68.07.07,0,0,0,.13,0,12.59,12.59,0,0,0,.72-2.66c0-.12-.16-.17-.19,0Z"/><path class="cls-4" d="M174.28,135.07c-.16.57-.28,1.15-.4,1.74a6.18,6.18,0,0,0-.24,1.54c0,.06.11.11.14,0a11.79,11.79,0,0,0,.65-3.29c0-.09-.12-.1-.15,0Z"/><path class="cls-4" d="M235.94,109.82c-.05,9.35-4.47,18.42.75,27.19a.1.1,0,0,0,.17-.1,25.84,25.84,0,0,1-1.91-16c.62-3.75,1.43-7.29,1.16-11.1a.09.09,0,0,0-.17,0Z"/><path class="cls-4" d="M242.63,178.75c.88,7.65,1.49,15.21,2,22.89a.09.09,0,0,0,.17,0,99,99,0,0,0-2-22.91c0-.09-.17-.07-.16,0Z"/><path class="cls-4" d="M163.11,177.24a210.43,210.43,0,0,0-2,23.51.13.13,0,0,0,.26,0c.34-7.85.9-15.7,1.84-23.5,0,0-.06,0-.07,0Z"/><path class="cls-4" d="M164,185.91a81.54,81.54,0,0,0-1.21,14.54.12.12,0,0,0,.23,0,121.61,121.61,0,0,1,1-14.52s-.06-.06-.06,0Z"/><path class="cls-4" d="M165.09,189.44a65.54,65.54,0,0,0-.84,11,.15.15,0,0,0,.3,0c.44-3.61.58-7.34.76-11,0-.12-.2-.15-.22,0Z"/><path class="cls-4" d="M167.8,190a103.79,103.79,0,0,0-.71,10.42c0,.13.22.17.24,0a104,104,0,0,0,.74-10.45c0-.17-.26-.17-.27,0Z"/><path class="cls-4" d="M169.11,193.32c0,2.38-.31,4.76-.33,7.13a.11.11,0,0,0,.22,0,23.26,23.26,0,0,0,.36-7.16.13.13,0,0,0-.25,0Z"/><path class="cls-4" d="M167.64,149.6a62.63,62.63,0,0,0-3.88,23.51.15.15,0,0,0,.3,0,107.89,107.89,0,0,1,3.7-23.48c0-.07-.09-.1-.12,0Z"/><path class="cls-4" d="M168.29,153.19a67.74,67.74,0,0,0-2.81,19,.12.12,0,0,0,.24,0,99.74,99.74,0,0,1,2.74-19c0-.11-.13-.15-.17,0Z"/><path class="cls-4" d="M212.35,65a33.31,33.31,0,0,0-8.08,2.84c-.06,0,0,.14.06.12,2.71-.88,5.28-2.07,8.06-2.82.09,0,.05-.16,0-.14Z"/><path class="cls-4" d="M205.15,67.48c4.18-1.14,8.32-1.89,12.56-2.7a.12.12,0,0,0,0-.23,38.51,38.51,0,0,0-12.55,2.85s0,.1,0,.08Z"/><path class="cls-4" d="M218.27,64.22c-3.62,0-8,.27-11.36,1.65-.09,0-.1.21,0,.2,3.79-.43,7.51-1.31,11.33-1.68a.09.09,0,0,0,0-.17Z"/><path class="cls-4" d="M222.15,64.29a22.08,22.08,0,0,0,14.71-3.86.09.09,0,0,0-.1-.16,28.57,28.57,0,0,1-14.61,3.83.1.1,0,0,0,0,.19Z"/><path class="cls-4" d="M235.19,58.65a29.67,29.67,0,0,1-9.54,4.3.19.19,0,0,0,.1.37,21.91,21.91,0,0,0,9.53-4.55c.06-.05,0-.17-.09-.12Z"/><path class="cls-4" d="M236.83,58.76c-1.4.81-2.72,1.74-4.14,2.52s-2.93,1.36-4.35,2.12a.09.09,0,0,0,.07.17,21.87,21.87,0,0,0,8.48-4.73c.05,0,0-.11-.06-.08Z"/><path class="cls-4" d="M237.84,58.91a42.22,42.22,0,0,0-5.35,3.92.15.15,0,0,0,.18.24,43.25,43.25,0,0,0,5.3-3.93c.14-.1,0-.33-.13-.23Z"/><path class="cls-4" d="M193.88,47.39A59.69,59.69,0,0,0,187.48,58a.06.06,0,0,0,.1.05c2.13-3.55,4.06-7.18,6.34-10.64,0,0,0-.06,0,0Z"/><path class="cls-4" d="M173.44,42.36a24.33,24.33,0,0,0-1.52,2,7.82,7.82,0,0,0-1.36,2.09c0,.08.08.17.15.12a6.55,6.55,0,0,0,1.38-1.75,27.26,27.26,0,0,0,1.54-2.31c.06-.11-.1-.25-.19-.14Z"/><path class="cls-4" d="M173.56,41.61a10.54,10.54,0,0,0-3.32,4.85c-.07.2.23.27.31.08a14.6,14.6,0,0,1,3.12-4.82c.07-.07,0-.17-.11-.11Z"/><path class="cls-4" d="M173.38,40.85c-1.44,1.33-3.18,3.27-3.5,5.29a.11.11,0,0,0,.2.08c.53-.84.84-1.81,1.37-2.66a13.84,13.84,0,0,1,2-2.6.08.08,0,0,0-.11-.11Z"/><path class="cls-4" d="M176.83,39.84a19.53,19.53,0,0,0-4,4.9.07.07,0,0,0,.11.08c.71-.76,1.28-1.67,1.94-2.48s1.38-1.6,2.08-2.39a.08.08,0,0,0-.11-.11Z"/><path class="cls-4" d="M179.07,38.49A30,30,0,0,0,176,42.58a.1.1,0,0,0,.16.12,29.73,29.73,0,0,0,3.09-4.1c.06-.08-.08-.19-.14-.11Z"/><path class="cls-4" d="M181.32,38.13c-.5.67-.95,1.38-1.42,2.07a9.84,9.84,0,0,0-1.15,1.89.09.09,0,0,0,.14.08,10.08,10.08,0,0,0,1.29-1.81c.46-.69.93-1.39,1.35-2.11.07-.13-.12-.23-.21-.12Z"/><path class="cls-4" d="M184.9,37.16c-1.24,1-2.85,2.4-3.27,4,0,.08.09.15.14.08.55-.64.92-1.43,1.46-2.08a12.83,12.83,0,0,1,1.81-1.8c.1-.08,0-.27-.14-.18Z"/><path class="cls-4" d="M187.56,36.9a30.9,30.9,0,0,0-3.24,3.63c-.06.09.07.17.14.11a32.56,32.56,0,0,0,3.28-3.56c.1-.12-.07-.29-.18-.18Z"/><path class="cls-4" d="M222,38.41c.09.16-1,1.51-1.18,1.7a14,14,0,0,0-1.34,2.06c-.09.17.13.37.28.21a12.68,12.68,0,0,0,1.3-1.78,9.58,9.58,0,0,0,1.21-1.84c.1-.3-.12-.85-.39-.42a0,0,0,0,0,0,0l0,.07s.1,0,.08,0Z"/><path class="cls-4" d="M224.49,38.72a3.13,3.13,0,0,0-.87.45,6.5,6.5,0,0,0-1,.94,3.34,3.34,0,0,0-1,1.94.12.12,0,0,0,.2.08A20.32,20.32,0,0,0,223,40.39a12.34,12.34,0,0,1,1.56-1.59s0-.09,0-.08Z"/><path class="cls-4" d="M227.17,38.45A7.49,7.49,0,0,0,225.1,40a5.46,5.46,0,0,0-1.41,2,.16.16,0,0,0,.27.16c.56-.57.95-1.33,1.5-1.92a21.47,21.47,0,0,1,1.81-1.63c.08-.06,0-.17-.1-.13Z"/><path class="cls-4" d="M229.17,39.58c-.58.52-1.12,1.08-1.7,1.6a7.85,7.85,0,0,0-1.53,1.46.12.12,0,0,0,.13.17,5.1,5.1,0,0,0,1.75-1.29,12.57,12.57,0,0,0,1.58-1.76c.1-.14-.11-.28-.23-.18Z"/><path class="cls-4" d="M231.31,40.53A18.8,18.8,0,0,0,230,41.85a5.53,5.53,0,0,0-1.08,1.33.13.13,0,0,0,.17.18,6.26,6.26,0,0,0,1.29-1.28c.4-.46.8-.93,1.15-1.42.07-.11-.08-.21-.17-.13Z"/><path class="cls-4" d="M234.25,40.85a5.53,5.53,0,0,1-1.19,1.72c-.09.08,0,.2.12.16a2.34,2.34,0,0,0,1.3-1.82.12.12,0,0,0-.23-.06Z"/><path class="cls-4" d="M211.89,112.49q.29,14,.77,27.93c0,.2.32.2.31,0q-.43-14-1-27.93s0,0,0,0Z"/><path class="cls-4" d="M213.76,121.11c-.06,5.23-.28,10.52-.12,15.75a.09.09,0,0,0,.17,0,127.33,127.33,0,0,0,0-15.75,0,0,0,1,0-.07,0Z"/><path class="cls-4" d="M215.25,126.16c-.06,3.36-.14,6.74-.06,10.1a.11.11,0,1,0,.22,0c.08-3.36,0-6.74-.06-10.1a.05.05,0,1,0-.1,0Z"/><path class="cls-4" d="M217,127.64a47.27,47.27,0,0,0,0,7.14.09.09,0,0,0,.17,0,46,46,0,0,0,0-7.14.09.09,0,0,0-.17,0Z"/><path class="cls-4" d="M218.48,128.83a39.8,39.8,0,0,0,0,5.35.08.08,0,0,0,.16,0,36.74,36.74,0,0,0,0-5.35c0-.11-.17-.11-.18,0Z"/><path class="cls-4" d="M220,129.13c0,1.48-.12,3,0,4.46a.06.06,0,0,0,.12,0c.12-1.47,0-3,0-4.46a.06.06,0,0,0-.11,0Z"/><path class="cls-4" d="M222.09,129.13a15.76,15.76,0,0,0,0,2.38.05.05,0,0,0,.1,0,17.19,17.19,0,0,0,0-2.38.05.05,0,1,0-.1,0Z"/><path class="cls-4" d="M175.16,124.08a42.63,42.63,0,0,0-.29,9.51s.09,0,.09,0c0-3.19-.06-6.33.26-9.51,0,0-.05,0-.06,0Z"/><path class="cls-4" d="M176.31,125c0,2.56-.17,5.17,0,7.73,0,.07.12.07.12,0,.18-2.56,0-5.17,0-7.73a.06.06,0,0,0-.12,0Z"/><path class="cls-4" d="M178.52,124.36a35.25,35.25,0,0,0-.09,7.75.05.05,0,0,0,.1,0c.11-2.58,0-5.15.15-7.74,0-.1-.15-.1-.16,0Z"/><path class="cls-4" d="M180.76,125.56a56,56,0,0,0,0,5.65.06.06,0,0,0,.12,0,53.24,53.24,0,0,0,0-5.65.07.07,0,0,0-.14,0Z"/><path class="cls-4" d="M182.78,126.16a35.77,35.77,0,0,0,0,5.67c0,.09.17.09.18,0a35.77,35.77,0,0,0,0-5.67.13.13,0,0,0-.26,0Z"/><path class="cls-4" d="M184.31,127.05a25.37,25.37,0,0,0,0,4.18c0,.08.16.08.17,0a25.36,25.36,0,0,0,0-4.18.09.09,0,1,0-.18,0Z"/><path class="cls-4" d="M187.3,127.05a17.39,17.39,0,0,0,.13,5.39.09.09,0,0,0,.17,0c0-1.79-.2-3.57-.11-5.37,0-.12-.18-.12-.19,0Z"/><path class="cls-4" d="M190.27,129.43a30.58,30.58,0,0,0-.35,4.16c0,.09.15.12.17,0a29.24,29.24,0,0,0,.37-4.18c0-.13-.18-.13-.19,0Z"/><path class="cls-4" d="M205.06,172.22c-.06,11-.15,22,.24,33a.1.1,0,0,0,.21,0c.18-11-.12-22-.39-33a0,0,0,0,0-.06,0Z"/><path class="cls-4" d="M205.48,69.11c-.88,12.65-1.15,25.36-1.58,38s-1.3,25.39-1.14,38a.09.09,0,0,0,.17,0c.9-12.63.86-25.38,1.31-38s1.13-25.35,1.27-38a0,0,0,0,0,0,0Z"/><path class="cls-4" d="M203.66,148.15c-.09,5.44.15,10.91.34,16.35a.11.11,0,0,0,.22,0c-.08-5.44-.11-10.92-.47-16.35a0,0,0,0,0-.09,0Z"/><path class="cls-4" d="M64.89,114.49c-5.4,13-6.1,27.93-7.7,41.78-1.74,15.14-6.95,74.87-8.1,90.07-.05.61.9.63.95,0,1.09-14.79,6.19-74.09,7.79-88.83,1.53-14.2,2.05-29.54,7.34-42.95.08-.18-.21-.26-.28-.09Z"/><path class="cls-4" d="M63.5,114.22c7.41,2.13,14.7,6.07,22.45,6.76a.42.42,0,0,0,.13-.82A90.57,90.57,0,0,1,74.4,117c-3.51-1.31-7.08-2.84-10.87-3-.1,0-.12.15,0,.17Z"/><path class="cls-4" d="M90,121.4c5.44-.11,10.92,1,16.38,1.2,4.93.16,10.49,1,15.17-.9.41-.17.13-.86-.29-.73-5.51,1.69-11.67.84-17.35.67-4.51-.13-9.56-1.73-14-.77a.27.27,0,0,0,.06.53Z"/><path class="cls-4" d="M63.54,114a10.63,10.63,0,0,1,.16-2.58,16.43,16.43,0,0,1,.85-2.14c0-.08-.09-.15-.15-.09a5.79,5.79,0,0,0-1,4.82.07.07,0,0,0,.14,0Z"/><path class="cls-4" d="M64.52,109.73c4.23,1.6,8.91,1,13,2.93,3.18,1.5,5.85,2.82,9.46,2.82a.32.32,0,0,0,0-.64c-4.53,0-7.53-2.56-11.67-3.69a69,69,0,0,0-10.83-1.48s0,0,0,.06Z"/><path class="cls-4" d="M86.91,115.28l.16-.29a0,0,0,0,0,0,0,.26.26,0,0,0-.18.33s0,0,0,0Z"/><path class="cls-4" d="M87,115.17s-.66,6.72-.72,7.26c-.21,1.75-.57,3.48.1,5.14.07.19.34.06.31-.12-.47-2.28,0-4.67.28-7,.2-1.72.79-3.67.57-5.38a.17.17,0,0,0-.11-.11c-.27-.08-.23-.09-.47.06-.06,0,0,.13,0,.11Z"/><path class="cls-4" d="M89.82,115.49c-.34,3.91-.27,7.82-.77,11.73,0,.26.38.27.41,0a44.43,44.43,0,0,0,.39-11.74s0,0,0,0Z"/><path class="cls-4" d="M87.18,115.09a3.26,3.26,0,0,0,1.17.17,6.37,6.37,0,0,1,1.49.43c.19.09.28-.23.09-.32a6.39,6.39,0,0,0-1.55-.44,1.73,1.73,0,0,0-1.21.09,0,0,0,0,0,0,.07Z"/><path class="cls-4" d="M86.14,127.73c1.08,0,2.16-.21,3.23-.34.18,0,.11-.3-.07-.28-1,.12-2.14.2-3.18.42a.1.1,0,0,0,0,.2Z"/><path class="cls-4" d="M90.1,115.56c10,2.68,22,3.93,32.08,1.09.45-.13.28-.85-.18-.72-10.27,2.88-21.55,1-31.87-.58-.12,0-.15.18,0,.21Z"/><path class="cls-4" d="M122.2,116.35c-.26,3.36-.3,6.77-.33,10.15a.21.21,0,0,0,.42,0c.12-3.38.23-6.79.12-10.16a.11.11,0,0,0-.21,0Z"/><path class="cls-4" d="M122.05,126.87a14.33,14.33,0,0,0,2-.29.19.19,0,0,0-.09-.36,16.92,16.92,0,0,0-1.89.5.08.08,0,0,0,0,.15Z"/><path class="cls-4" d="M124.24,126.55a53.59,53.59,0,0,0-.09-10.52c0-.21-.36-.16-.35,0,.07,3.49.16,7,.16,10.47a.14.14,0,0,0,.28,0Z"/><path class="cls-4" d="M122.42,116.55a10.93,10.93,0,0,0,1.8-.31.21.21,0,0,0-.1-.4,10.36,10.36,0,0,0-1.74.37c-.17.06-.16.35,0,.34Z"/><path class="cls-4" d="M124.38,116.5a61.38,61.38,0,0,0,12.27-.33c4.76-.79,9-3.24,13.81-3.77.37,0,.41-.61,0-.61-4.19,0-7.85,2.25-11.82,3.29-4.63,1.22-9.52,1.14-14.27,1.06a.18.18,0,0,0,0,.36Z"/><path class="cls-4" d="M124.39,121.33c4.84-.17,9.76-1.27,14.52-2.08,2.41-.41,4.81-.83,7.21-1.28,1.75-.33,3.34-.46,4.63-1.76a.25.25,0,0,0-.29-.39c-3.59,2.17-8.81,2.34-12.89,3.06-4.37.77-8.91,1.22-13.19,2.36,0,0,0,.09,0,.09Z"/><path class="cls-4" d="M150.07,112.08a17.7,17.7,0,0,1,.25,3.91c0,.29.4.29.44,0a7.75,7.75,0,0,0-.43-4c-.07-.16-.28,0-.26.1Z"/><path class="cls-4" d="M124.35,122.65a185,185,0,0,0,22.21.44.27.27,0,0,0,0-.54,187,187,0,0,0-22.21-.13.12.12,0,0,0,0,.23Z"/><path class="cls-4" d="M146.49,123.07c1.5-.82,1.15-2.83.83-4.19a.17.17,0,0,0-.33.08c.33,1.44.52,2.82-.64,3.92a.12.12,0,0,0,.14.19Z"/><path class="cls-4" d="M147,119.1a7,7,0,0,0-4.52-.74c-.29,0-.23.53.06.51a16.63,16.63,0,0,1,4.39.39.09.09,0,0,0,.07-.16Z"/><path class="cls-4" d="M64.59,109.55c14.26.91,28.54,1.33,42.82,1.61,13.91.28,27.86.78,41.77.74a.23.23,0,0,0,0-.45c-28.19-1.08-56.41-.66-84.59-2.1a.1.1,0,0,0,0,.2Z"/><path class="cls-4" d="M101.42,113.37a11.7,11.7,0,0,0,0,2,7.65,7.65,0,0,0,.16,1.79c0,.11.23.14.25,0a8.41,8.41,0,0,0,0-1.94,12.41,12.41,0,0,0-.23-1.93.07.07,0,0,0-.14,0Z"/><path class="cls-4" d="M112,114.22c0,.57-.06,1.14-.07,1.71a4.19,4.19,0,0,0,0,1.5.13.13,0,0,0,.24,0,4.42,4.42,0,0,0,.12-1.5c0-.57,0-1.14,0-1.71a.17.17,0,0,0-.33,0Z"/><path class="cls-4" d="M101.52,113.81c3.41.35,6.9.18,10.32.21a.21.21,0,0,0,0-.41c-3.42,0-6.9-.25-10.32,0a.09.09,0,0,0,0,.17Z"/><path class="cls-4" d="M102.56,113.56c-.37.16-.91.7-.69,1.13a.08.08,0,0,0,.14,0,1.78,1.78,0,0,0,.21-.44,1.25,1.25,0,0,1,.47-.47.14.14,0,0,0-.13-.24Z"/><path class="cls-4" d="M103.07,113.81a3.14,3.14,0,0,0-1,.93,1.72,1.72,0,0,0-.42,1.19.1.1,0,0,0,.17,0c.22-.27.25-.68.43-1a3.25,3.25,0,0,1,.9-1c.1-.07,0-.23-.09-.16Z"/><path class="cls-4" d="M103.77,113.59a10.76,10.76,0,0,0-1.06,1.18,3.76,3.76,0,0,0-.82,1.36c0,.09.07.15.14.09a5.62,5.62,0,0,0,.87-1.22c.31-.46.63-.9,1-1.34,0,0-.05-.12-.1-.07Z"/><path class="cls-4" d="M104.18,113.85a17.52,17.52,0,0,0-2.45,3.05c-.11.17.15.32.27.16.75-1,1.59-2,2.27-3.13,0-.06,0-.13-.09-.08Z"/><path class="cls-4" d="M105.16,113.74a5.32,5.32,0,0,0-1.5,1.56c-.39.53-1,1.18-1.11,1.86a.1.1,0,0,0,.15.08c.55-.34.86-1.11,1.23-1.63a9.15,9.15,0,0,0,1.27-1.84s0,0,0,0Z"/><path class="cls-4" d="M112.07,113.66a33.8,33.8,0,0,0-2.38,3.43c-.13.2.18.39.32.19a34.25,34.25,0,0,0,2.23-3.48c.05-.1-.09-.24-.17-.14Z"/><path class="cls-4" d="M112.21,114.74a5.49,5.49,0,0,0-1.28,1.31c-.29.38-.86,1-.77,1.46a.12.12,0,0,0,.16.08c.43-.18.67-.87.92-1.24s.79-.95,1.11-1.47c.05-.08,0-.2-.14-.14Z"/><path class="cls-4" d="M112.22,115.6a5.39,5.39,0,0,0-.64.79,2,2,0,0,0-.43.8.1.1,0,0,0,.14.09,2.12,2.12,0,0,0,.57-.72,4.21,4.21,0,0,0,.47-.89c0-.06-.06-.11-.11-.07Z"/><path class="cls-4" d="M111.87,116.69a1.46,1.46,0,0,0-.16.19.07.07,0,0,0,.1.1l.2-.14c.1-.09-.06-.25-.14-.15Z"/><path class="cls-4" d="M73,118.06q-2.9,7.75-5.59,15.58c-1.62,4.71-3.08,9.56-6.83,13.06-.34.32.16.84.51.52,3.31-3,4.91-7,6.33-11.16,2-5.94,4-11.93,5.83-17.92a.13.13,0,0,0-.25-.08Z"/><path class="cls-4" d="M73.82,118.66a16.55,16.55,0,0,0-1,3.14s0,.06.07,0a16.56,16.56,0,0,0,1-3.16Z"/><path class="cls-4" d="M74.4,118.33a18,18,0,0,0-.91,3.15,0,0,0,0,0,.09,0,17.94,17.94,0,0,0,.88-3.15s0,0-.06,0Z"/><path class="cls-4" d="M75.19,118.35c-.3,1-.56,2-.8,3,0,.11.14.16.17.05.28-1,.53-2,.75-3a.06.06,0,0,0-.12,0Z"/><path class="cls-4" d="M92.13,115.92a29.27,29.27,0,0,1,9-.08c.15,0,.19-.24,0-.26a23.62,23.62,0,0,0-9.1.14c-.13,0-.08.22,0,.2Z"/><path class="cls-4" d="M112.14,115.58c3,.33,5.9.1,8.92.8.07,0,.13-.09,0-.13-2.6-1.19-6.19-1-9-.75a0,0,0,1,0,0,.08Z"/><path class="cls-4" d="M60.63,146.74c-.28.22-.59.4-.87.63l-.92.76c-.09.08,0,.21.13.13l.87-.71c.29-.25.54-.53.82-.77,0,0,0-.06,0,0Z"/><path class="cls-4" d="M60.81,147.09c-.41.3-.8.63-1.2.95a5.34,5.34,0,0,0-1.17,1,.09.09,0,0,0,.12.13,5.43,5.43,0,0,0,1.11-.93c.4-.36.8-.71,1.18-1.09,0,0,0-.07,0,0Z"/><path class="cls-4" d="M72.41,122.59c-1.7,5-2.72,10.17-4.18,15.21a24.33,24.33,0,0,1-7.86,12.36s0,.05,0,0a19.67,19.67,0,0,0,7.23-9.78,125.71,125.71,0,0,0,4.83-17.82s0,0,0,0Z"/><path class="cls-4" d="M65.77,115c-2.42,4.48-3.3,9.7-4.26,14.65-1,5.1-1.87,10.38-1.22,15.58,0,0,.07,0,.07,0a68.69,68.69,0,0,1,1.43-16.11c1-4.85,1.83-9.62,4-14.1,0,0,0,0,0,0Z"/><path class="cls-4" d="M90.09,121.54c.29-.19.22,1,.21,1.19,0,.57,0,1.13,0,1.7,0,1-.06,2.09-.08,3.14a.09.09,0,0,0,.17,0c.08-2.09.22-4.21.12-6.3a0,0,0,0,0-.07,0l-.31.28s0,0,0,0Z"/><path class="cls-4" d="M90,121.53c-.18,1.89-.07,3.81-.26,5.72,0,.16.23.16.25,0a19.65,19.65,0,0,0,.05-5.73s0,0,0,0Z"/><path class="cls-4" d="M121.35,121.58a11.34,11.34,0,0,0,0,2.33c0,.2.24,2.19.29,2.18s0-.1,0-.1h-.06s-.06,0-.06,0l0,.08a.09.09,0,0,0,0,.1l.05.05a.12.12,0,0,0,.17,0c.35-.34.06-1.05,0-1.47-.12-1.06-.09-2.13-.17-3.2a.09.09,0,0,0-.17,0Z"/><path class="cls-4" d="M64.78,110.35a1,1,0,0,1-.18-.84s0,0,0,0a.92.92,0,0,0,.18.87,0,0,0,1,0,0,0Z"/><path class="cls-4" d="M64.83,110.35c-.06-.26-.11-.52-.16-.78a.06.06,0,0,0-.1,0,7.41,7.41,0,0,0-1.09,4.38c0,.12.21.18.23,0,.14-.85.18-1.7.39-2.53a8.36,8.36,0,0,1,.38-1.23c.22-.59.18-.22.27.16,0,0,.09,0,.08,0Z"/><path class="cls-4" d="M64.25,109.47a8.87,8.87,0,0,0-.6,4.49c0,.06.12.07.13,0,.1-.64.06-1.3.13-1.95a16.46,16.46,0,0,1,.48-2.5.07.07,0,0,0-.14,0Z"/><path class="cls-4" d="M64.33,109.93a38.07,38.07,0,0,0-.41,4.64c0,.1.15.13.17,0a38.32,38.32,0,0,0,.35-4.67c0-.07-.11-.07-.11,0Z"/><path class="cls-4" d="M64.74,109.92a10.77,10.77,0,0,0-.37,4,.13.13,0,0,0,.25,0,36,36,0,0,1,.24-4c0-.07-.1-.08-.12,0Z"/><path class="cls-4" d="M65.33,109.93a10.82,10.82,0,0,0-.5,4.69c0,.09.15.06.15,0a42.74,42.74,0,0,1,.43-4.65,0,0,0,0,0-.08,0Z"/><path class="cls-4" d="M66,110.17a41.61,41.61,0,0,0-.68,4.85c0,.09.15.12.17,0a39.93,39.93,0,0,0,.58-4.87s-.06-.05-.07,0Z"/><path class="cls-4" d="M66.91,110.62a18.11,18.11,0,0,0-.57,4.23c0,.13.18.12.2,0a18.32,18.32,0,0,0,.39-4.23s0,0,0,0Z"/><path class="cls-4" d="M67.67,110.62a9.71,9.71,0,0,0-.52,4.47c0,.08.13,0,.14,0,.07-.69,0-1.39.1-2.08s.22-1.57.35-2.35c0,0-.06-.07-.07,0Z"/><path class="cls-4" d="M68.57,110.65A13.07,13.07,0,0,0,68,116c0,.08.12.06.13,0,.2-1.76.28-3.49.58-5.25,0-.07-.09-.1-.11,0Z"/><path class="cls-4" d="M90.24,116.2a14.89,14.89,0,0,0,0,4.47c0,.11.23.09.21,0a30,30,0,0,1-.19-4.44,0,0,0,1,0-.06,0Z"/><path class="cls-4" d="M89.9,115.77a20.79,20.79,0,0,0,.21,4.25c0,.11.16.08.17,0a19.34,19.34,0,0,0-.17-4.23c0-.13-.21-.14-.21,0Z"/><path class="cls-4" d="M90.39,115.78c.08,1.41.22,2.82.38,4.23,0,.1.18.11.17,0-.12-1.41-.25-2.83-.46-4.24a0,0,0,0,0-.09,0Z"/><path class="cls-4" d="M91.06,115.79a13.23,13.23,0,0,0,.29,5.53.06.06,0,0,0,.11,0,50.57,50.57,0,0,1-.27-5.51c0-.08-.12-.08-.13,0Z"/><path class="cls-4" d="M91.86,116.23a31.93,31.93,0,0,0-.09,5.08.07.07,0,0,0,.13,0,30.75,30.75,0,0,0,.13-5.08.09.09,0,0,0-.17,0Z"/><path class="cls-4" d="M92.93,116.25a9.65,9.65,0,0,0,.15,4,.06.06,0,0,0,.12,0c0-1.35-.18-2.67-.1-4,0-.12-.15-.11-.17,0Z"/><path class="cls-4" d="M94.23,116.49a17.42,17.42,0,0,0,0,4.89c0,.07.1.05.11,0,.06-1.61,0-3.26,0-4.88,0-.07-.1-.07-.11,0Z"/><path class="cls-4" d="M126.07,120.51c-.44.62-.95,1.2-1.37,1.84-.06.1.09.19.16.1.48-.6.87-1.26,1.31-1.88,0-.06,0-.12-.1-.06Z"/><path class="cls-4" d="M126.53,120.76c-.18.24-.36.49-.52.75a2.57,2.57,0,0,0-.41.69,0,0,0,0,0,.08,0,2.77,2.77,0,0,0,.44-.67c.15-.27.29-.54.43-.81,0,0,0,0,0,0Z"/><path class="cls-4" d="M127.38,121a2.79,2.79,0,0,0-1.1,1.46s0,.07.06,0c.17-.23.28-.5.44-.74a4.33,4.33,0,0,1,.64-.71s0-.06,0,0Z"/><path class="cls-4" d="M128.86,120.58a6.09,6.09,0,0,0-1.84,2.26.06.06,0,0,0,.09.06c.28-.33.49-.73.75-1.08a13.14,13.14,0,0,1,1-1.19s0-.08,0,0Z"/><path class="cls-4" d="M130.35,120.19c-.33.38-.64.77-.95,1.17a8.08,8.08,0,0,0-1,1.36c0,.06,0,.11.08.07a7.09,7.09,0,0,0,.94-1.17c.34-.45.67-.9,1-1.37,0,0,0-.09-.07-.06Z"/><path class="cls-4" d="M131.8,120a14.56,14.56,0,0,0-1.78,2.71c0,.05,0,.09.09.06a15.33,15.33,0,0,0,1.76-2.73s0-.08-.07,0Z"/><path class="cls-4" d="M133.36,119.86a16,16,0,0,0-2.25,2.88c0,.07,0,.14.1.08a16.2,16.2,0,0,0,2.23-2.9s0-.11-.08-.06Z"/><path class="cls-4" d="M134.73,119.79a4,4,0,0,0-.45.37,3.57,3.57,0,0,0-.42.54,3.71,3.71,0,0,0-.64,1.25.08.08,0,0,0,.15.07c.25-.36.41-.77.66-1.13.11-.16.22-.32.34-.47s.26-.43.4-.59,0-.06,0,0Z"/><path class="cls-4" d="M136.45,119.21a9.13,9.13,0,0,0-2.41,3.17c0,.06.07.09.1,0,.39-.49.68-1,1.05-1.55a20.14,20.14,0,0,1,1.33-1.6s0-.1-.07-.06Z"/><path class="cls-4" d="M138,119.08c-.75,1-1.54,2-2.21,3.11-.06.09.07.17.14.09.78-1,1.48-2.08,2.18-3.13,0-.07-.06-.14-.11-.07Z"/><path class="cls-4" d="M139.62,118.87a34,34,0,0,0-3,4s0,.09.06,0a35.62,35.62,0,0,0,3-4s0-.07,0,0Z"/><path class="cls-4" d="M141.56,118.7a14.15,14.15,0,0,0-2.89,4.19.06.06,0,0,0,.11,0c.47-.63.83-1.36,1.27-2s1.06-1.42,1.62-2.11c.06-.07,0-.18-.11-.11Z"/><path class="cls-4" d="M143.22,118.53a20.15,20.15,0,0,0-2.15,3.81.1.1,0,0,0,.18.08c.7-1.27,1.35-2.56,2.09-3.82a.07.07,0,1,0-.12-.07Z"/><path class="cls-4" d="M144.16,118.81a22.67,22.67,0,0,0-1.9,3.94s.05.08.08,0a22.38,22.38,0,0,0,1.95-3.92c0-.07-.09-.13-.13-.06Z"/><path class="cls-4" d="M145.57,118.81a24,24,0,0,0-2.38,4.22c0,.07.07.09.11,0a24.19,24.19,0,0,0,2.37-4.21.06.06,0,1,0-.1-.06Z"/><path class="cls-4" d="M146.75,119.42a31,31,0,0,0-2.31,3.82c0,.07.06.12.1.06a29.52,29.52,0,0,0,2.33-3.8c0-.08-.07-.15-.12-.08Z"/><path class="cls-4" d="M147.26,120.13a17.38,17.38,0,0,0-1.34,2.52c0,.07.08.11.12,0a15.38,15.38,0,0,0,1.32-2.51.06.06,0,0,0-.1-.06Z"/><path class="cls-4" d="M149,112.57c.1.64.28,1.3.42,2s.21,1.42.39,2.11a.06.06,0,0,0,.11,0,11.78,11.78,0,0,0-.95-4.21s-.08,0-.07,0l0,.13s.08,0,.07,0Z"/><path class="cls-4" d="M147.6,112.78a17,17,0,0,0,1,4.46c0,.05.09,0,.08,0-.2-1.48-.67-3-1-4.46a.06.06,0,0,0-.12,0Z"/><path class="cls-4" d="M146.41,113a29.42,29.42,0,0,0,1,4.25s.13,0,.12,0a28.65,28.65,0,0,0-1-4.27c0-.08-.14,0-.13,0Z"/><path class="cls-4" d="M104.53,166.62c-3,13.57-13.93,68.9-15.49,82.71-.05.42-4,28.55.67,0,2.23-13.73,12.68-68.94,15.12-82.63,0-.19-.26-.28-.3-.09Z"/><path class="cls-4" d="M104.75,167.05c.82,6.94,2.64,13.93,4.12,20.76,1.51,7,12.27,55.83,14.68,62.59.12.34.67.21.55-.14-2.35-6.79-13.15-55.58-14.68-62.59-1.49-6.84-2.51-14-4.54-20.65a.07.07,0,0,0-.13,0Z"/><path class="cls-4" d="M148.43,117v.42a.22.22,0,0,0,.44,0c0-.14,0-.28,0-.42a.22.22,0,0,0-.44,0Z"/><path class="cls-4" d="M147.79,117.4c1.72,6.52,2.27,13.41,3.16,20.08,1,7.2,1.9,14.41,2.71,21.63.73,6.41,1.18,12.85,2,19.24.88,7,7.94,44.15,7.28,51.26,0,.39.57.4.61,0,.62-6.45-6-42.83-6.95-49.15-1.08-7.09-1.47-14.3-2.28-21.43-.77-6.84-1.65-13.66-2.57-20.48s-1.19-14.61-3.42-21.29c-.11-.33-.62-.21-.53.13Z"/><path class="cls-4" d="M140.14,123.86c4.42,4.06,4.49,9,6.07,14.32a28.44,28.44,0,0,0,6,11.41c.17.17.48,0,.35-.26-2.93-4.83-5.35-9.21-6.57-14.82-1-4.54-2.12-7.73-5.72-10.8-.1-.09-.26.05-.16.15Z"/><path class="cls-4" d="M138.31,124.55c2.9,1.79,3.64,4.6,5,7.48,0,.07.13,0,.11,0-.68-2.85-2.33-6.21-5.11-7.47,0,0,0,0,0,0Z"/><path class="cls-4" d="M143.42,134.25c1.52,2.87,1.83,6.17,3.18,9.11a25.47,25.47,0,0,0,5.1,7.2.1.1,0,0,0,.14-.14,25,25,0,0,1-5.66-8.58c-1-2.53-1.32-5.26-2.68-7.64a0,0,0,0,0-.08.05Z"/><path class="cls-4" d="M147.56,122.68c1.63,7.15,2.32,14.48,3.59,21.7a0,0,0,0,0,0,0c-.9-7.19-1.72-14.69-3.59-21.71,0,0-.06,0-.05,0Z"/><path class="cls-4" d="M109.67,125.52c.89,10.17-.26,20-.43,30.2,0,.13.17.13.19,0,1.15-9.84,1.7-20.39.38-30.22,0-.08-.15-.06-.14,0Z"/><path class="cls-4" d="M105.72,125.34c1.34-.06,2.69-.09,4-.17a.09.09,0,0,0,0-.17c-1.34,0-2.68.11-4,.17-.11,0-.12.17,0,.17Z"/><path class="cls-4" d="M87.36,129.47a24.07,24.07,0,0,1-.44,4.64c0,.06.06.08.08,0a10.19,10.19,0,0,0,.46-4.68.05.05,0,0,0-.1,0Z"/><path class="cls-4" d="M87.81,129.26a33.07,33.07,0,0,0-.1,4.45.06.06,0,0,0,.11,0,32.91,32.91,0,0,0,.09-4.44.05.05,0,0,0-.1,0Z"/><path class="cls-4" d="M88.61,130.33a11.17,11.17,0,0,0-.23,3.82s.07,0,.07,0a30.14,30.14,0,0,1,.2-3.8s0,0,0,0Z"/><path class="cls-4" d="M89.07,130.14c0,.84-.1,1.69,0,2.54,0,0,.07,0,.08,0,.07-.84.05-1.7.05-2.54a0,0,0,0,0-.08,0Z"/><path class="cls-4" d="M92,130.22c.39,2.17,1.86,4,3.11,5.78a45.92,45.92,0,0,0,4.23,5.3,0,0,0,1,0,.06-.06c-1.42-1.75-2.87-3.46-4.18-5.3s-2.72-3.63-3.11-5.75c0-.07-.12-.05-.11,0Z"/><path class="cls-4" d="M93.67,133a36.32,36.32,0,0,0,6.11,7.21s.1,0,.06-.06A87.65,87.65,0,0,1,93.68,133s0,0,0,0Z"/><path class="cls-4" d="M95.54,134.12a33.13,33.13,0,0,0,4.95,5.63c.07.07.19,0,.11-.11-1.74-1.8-3.38-3.65-5-5.57,0,0-.09,0-.06.05Z"/><path class="cls-4" d="M104.61,125a39,39,0,0,0,.54,6.38.07.07,0,0,0,.13,0,38,38,0,0,0-.63-6.38s0,0,0,0Z"/><path class="cls-4" d="M105.13,125.81c.07,1.91.06,3.84.21,5.73a.05.05,0,0,0,.1,0,29.81,29.81,0,0,0-.21-5.74s-.1,0-.1,0Z"/><path class="cls-4" d="M105.05,126.14a60.68,60.68,0,0,1,.08,8.09,0,0,0,0,0,.09,0,30.5,30.5,0,0,0-.13-8.1s0,0,0,0Z"/><path class="cls-4" d="M113.5,115.66a3.65,3.65,0,0,0-.66,1.13,6.34,6.34,0,0,0-.53,1.23.07.07,0,0,0,.12,0,7.29,7.29,0,0,0,.69-1.33,3.23,3.23,0,0,0,.4-1.07s0,0,0,0Z"/><path class="cls-4" d="M115.05,115.16a3.62,3.62,0,0,0-1.12,2.12s.08.08.1,0c.17-.33.25-.7.42-1a5.4,5.4,0,0,1,.68-1c0-.06,0-.13-.08-.08Z"/><path class="cls-4" d="M116.17,115.7l-.46.83a3.73,3.73,0,0,0-.37.75s0,.08.07,0a3.75,3.75,0,0,0,.42-.73l.42-.85s0-.1-.08,0Z"/><path class="cls-4" d="M117.78,115.42a5.29,5.29,0,0,0-1,2.07c0,.05.08.07.1,0,.18-.33.29-.7.45-1a8.91,8.91,0,0,1,.57-1c0-.06-.06-.12-.1-.06Z"/><path class="cls-4" d="M118.92,115.78a8.32,8.32,0,0,0-.85,1.58c0,.06.07.09.1,0a7.56,7.56,0,0,0,.82-1.57s0-.1-.07,0Z"/><path class="cls-4" d="M96.49,115.5a3.94,3.94,0,0,0-.34,1.4,0,0,0,0,0,.08,0,4,4,0,0,0,.29-1.42s0,0,0,0Z"/><path class="cls-4" d="M98,115.48a1.39,1.39,0,0,0-.51,1.3s.06,0,.07,0a1.94,1.94,0,0,1,.53-1.2c0-.06,0-.15-.09-.09Z"/><path class="cls-4" d="M99.07,115.84a3.47,3.47,0,0,0-.35,1s.06,0,.08,0a3.47,3.47,0,0,0,.34-.95,0,0,0,0,0-.07,0Z"/><path class="cls-4" d="M100.2,115.71a2.13,2.13,0,0,0-.38,1.44,0,0,0,0,0,.07,0,3.7,3.7,0,0,1,.39-1.38c0-.05,0-.1-.08-.05Z"/><path class="cls-4" d="M101.42,115.68a1.22,1.22,0,0,0-.33,1.18c0,.06.1,0,.11,0a1.75,1.75,0,0,1,.34-1c.07-.09,0-.21-.12-.13Z"/><path class="cls-4" d="M122.67,129c-1.13,2.41-1.66,5-2.62,7.42-.52,1.3-1.42,2.38-2,3.62-.82,1.61-1.26,3.13-2.66,4.4-.06,0,0,.13.08.08,1.93-1.74,3-4.69,4.22-6.93,1.41-2.61,2-5.8,3.08-8.57,0,0,0,0,0,0Z"/><path class="cls-4" d="M120.44,137.11c-1.19,2.35-2.34,4.75-3.35,7.17,0,.06.08.11.11.05,1.2-2.33,2.31-4.76,3.34-7.17,0-.06-.07-.1-.1,0Z"/><path class="cls-4" d="M121.48,137.32a56.83,56.83,0,0,1-3,6.33,0,0,0,0,0,.07,0,20.38,20.38,0,0,0,2.88-6.37Z"/><path class="cls-4" d="M122.68,137.76c-.72,2-1.61,3.78-2.47,5.66,0,0,0,.09.07,0a22.21,22.21,0,0,0,2.48-5.67c0-.06-.06-.08-.08,0Z"/><path class="cls-4" d="M137.15,126.33a6.57,6.57,0,0,1-1,1.88,15.46,15.46,0,0,0-.95,1.8c0,.05.06.08.09,0,.38-.54.67-1.16,1-1.74l.48-.88c.12-.23.46-.65.47-.9s.08-.37-.16-.27l0,0v.06a0,0,0,0,0,.05,0Z"/><path class="cls-4" d="M138,126.66a15.79,15.79,0,0,0-1.72,3.28,0,0,0,0,0,.05,0c.62-1.06,1.11-2.2,1.71-3.27,0,0,0,0,0,0Z"/><path class="cls-4" d="M138.94,127.46a6.1,6.1,0,0,0-.84,1.9s.06.09.09,0c.32-.61.54-1.26.87-1.87a.07.07,0,1,0-.12-.07Z"/><path class="cls-4" d="M60.91,150.92c-.22,3-.45,6-.63,9,0,0,0,0,0,0a63.3,63.3,0,0,0,.63-9,0,0,0,1,0,0,0Z"/><path class="cls-4" d="M104.55,164.76a1.16,1.16,0,0,1,.78,1.07s0,0,0,0a1,1,0,0,0-.81-1.14,0,0,0,1,0,0,.06Z"/></g></g></svg>