<?xml version="1.0" encoding="UTF-8"?><svg xmlns="http://www.w3.org/2000/svg" viewBox="0 0 316 316"><defs><style>.d{fill:#14213d;}.e{fill:#c9b194;}.f{fill:none;}</style></defs><g id="a"/><g id="b"><g id="c"><g><g><path class="e" d="M168.02,36.39c-.07-.24-.15-.48-.22-.72-.11-.37-.42-.75-.83-.83-5.22-.99-11.39,3.87-14.5,7.59-3.97,4.75-5.74,10.95-4.8,17.1,1.55,10.05,15.93,23.55,26.13,15.46,1.37-1.09-.38-2.96-1.77-2.29-10.36,4.98-21.04-6.18-21.54-15.81-.25-4.89,1.42-9.68,4.62-13.38,.86-1,9.94-8.19,10.83-6.25,.54,1.17,2.44,.34,2.07-.87h0Z"/><path class="e" d="M147.09,48.25c1.05-.29,2.1-.58,3.14-.9,1.42-.43,.83-2.6-.61-2.23-1.06,.27-2.1,.58-3.15,.88-1.44,.41-.83,2.66,.62,2.25h0Z"/><path class="e" d="M146.06,54.92c1.3-.69,2.61-1.36,3.87-2.11,1.29-.76,.16-2.64-1.16-1.99-1.32,.65-2.59,1.38-3.88,2.09-1.31,.73-.15,2.7,1.17,2h0Z"/><path class="e" d="M147.57,62.24c1.06-.88,2.13-1.76,3.14-2.7,1.12-1.05-.5-2.56-1.65-1.65-1.08,.85-2.11,1.78-3.14,2.7-1.14,1.01,.51,2.6,1.65,1.65h0Z"/><path class="e" d="M149.19,70.15c.91-1.34,1.83-2.67,2.68-4.05,.8-1.29-1.16-2.38-2.01-1.17-.93,1.33-1.79,2.7-2.66,4.06-.8,1.25,1.16,2.38,1.99,1.16h0Z"/><path class="e" d="M151.59,73.45c1.18-1.21,2.38-2.41,3.51-3.67,1-1.12-.57-2.73-1.66-1.66-1.21,1.18-2.36,2.43-3.51,3.67-1.03,1.1,.6,2.75,1.66,1.66h0Z"/><path class="e" d="M155.41,77.29c1.06-1.49,2.12-2.98,3.11-4.52,.83-1.29-1.15-2.37-2.02-1.18-1.09,1.47-2.1,2.99-3.11,4.51-.85,1.27,1.17,2.41,2.03,1.19h0Z"/><path class="e" d="M143.78,63.84c1.36-.72,2.72-1.46,4.04-2.25,1.28-.77,.15-2.69-1.17-2-1.36,.71-2.7,1.49-4.02,2.28-1.27,.76-.15,2.67,1.16,1.98h0Z"/><path class="e" d="M144.18,55.86c.34-.91,1.18-1.38,2.12-1.39,1.48-.01,1.48-2.25,0-2.3-2.04-.07-3.68,1.19-4.31,3.09-.46,1.4,1.68,1.95,2.18,.6h0Z"/><path class="e" d="M144.06,49.12c1.65,0,3.29,.04,4.94,0,1.51-.04,1.51-2.3,0-2.34-1.65-.04-3.29,0-4.94,0-1.51,0-1.51,2.33,0,2.34h0Z"/><path class="e" d="M147.79,43.68c1.15,.19,2.29,.39,3.45,.52,1.28,.15,1.58-2.02,.31-2.27-1.04-.2-2.09-.34-3.13-.5-1.46-.22-2.1,2-.62,2.24h0Z"/><path class="e" d="M171.8,75.68c3.97-1.03,8.23-3.01,11.25-5.83,1.02-.95-.3-2.69-1.5-1.94-3.42,2.13-6.57,4.1-10.35,5.58-1.33,.52-.84,2.57,.6,2.19h0Z"/><path class="e" d="M67.84,59.32c-3.99,.37-7.97,.8-11.96,1.25-.92,.1-1.52,.79-1.33,1.74,3.74,18.13,1.95,36.29-.33,54.48-2.18,17.46-3.84,34.8-4.38,52.4-1.12,36.08-1.63,72.18-2.4,108.27-.02,.99,.83,1.74,1.78,1.78,66.28,2.9,132.69,2.78,198.95-.68,.95-.05,1.71-.75,1.73-1.73,.09-3.85,.18-7.7,.26-11.55,.05-2.19-3.33-2.18-3.39,0-.11,3.85-.23,7.7-.34,11.55,.58-.58,1.16-1.16,1.73-1.73-66.29,3.17-132.65,3.48-198.95,.58,.59,.59,1.19,1.19,1.78,1.78,.79-37.15,1.15-74.33,2.39-111.46,1.15-34.41,11.27-70.29,3.81-104.42-.44,.58-.89,1.16-1.33,1.74,4.1-.51,8.19-1.02,12.28-1.6,1.35-.19,1.05-2.53-.33-2.4h0Z"/><path class="e" d="M66.02,60.68c-2.48,2.57-4.87,5.3-7.13,8.07-.94,1.15,.6,2.78,1.66,1.66,2.46-2.59,4.87-5.31,7.1-8.09,.91-1.14-.58-2.74-1.64-1.64h0Z"/><path class="e" d="M67.78,65.66c-2.84,2.81-5.8,5.48-8.67,8.26-.95,.93,.34,2.74,1.46,1.89,3.24-2.44,6.22-5.43,8.83-8.53,.94-1.12-.56-2.68-1.63-1.63h0Z"/><path class="e" d="M68.15,71.13c-3.65,2.56-7.09,5.66-9.78,9.23-.87,1.15,.99,2.51,1.97,1.52,3.02-3.05,5.99-6.06,9.25-8.88,1.01-.87-.33-2.64-1.44-1.87h0Z"/><path class="e" d="M68.37,77.2c-4,2.93-7.64,6.98-10.07,11.3-.84,1.49,1.26,2.6,2.23,1.3,2.9-3.85,5.91-7.31,9.28-10.74,.91-.93-.32-2.69-1.44-1.87h0Z"/><path class="e" d="M68.29,83.4c-4.04,3.46-8.06,7.54-10.93,12.04-.79,1.23,1.02,2.63,2.02,1.56,3.64-3.85,7.01-8,10.61-11.9,1.07-1.15-.53-2.71-1.71-1.71h0Z"/><path class="e" d="M66.04,91.36c-3.67,3.64-7.35,7.51-10.46,11.64-.91,1.2,1,2.53,2.02,1.56,3.67-3.49,7-7.53,10.13-11.51,.93-1.18-.57-2.81-1.69-1.69h0Z"/><path class="e" d="M66.2,99.12c-4.12,3.87-8,8-11.08,12.76-.79,1.22,1.11,2.74,2.04,1.58,3.47-4.31,6.89-8.64,10.78-12.59,1.12-1.14-.59-2.84-1.75-1.75h0Z"/><path class="e" d="M66.34,106.7c-2.82,4.11-5.93,7.94-9.18,11.72-1,1.16,.61,2.83,1.71,1.71,3.6-3.69,6.74-7.89,9.49-12.24,.81-1.28-1.17-2.4-2.02-1.18h0Z"/><path class="e" d="M66.44,114.94c-2.82,3.77-5.78,7.37-8.75,11.01-.99,1.21,.61,2.91,1.75,1.75,3.41-3.44,6.44-7.49,9-11.6,.81-1.3-1.13-2.33-2-1.17h0Z"/><path class="e" d="M67.75,122.57c-3.63,3.95-7.1,8.14-10,12.67-.88,1.38,1.21,2.5,2.15,1.26,3.13-4.13,6.19-8.28,9.52-12.25,.97-1.15-.63-2.81-1.67-1.67h0Z"/><path class="e" d="M66.59,132.2c-3.82,4.73-7.74,9.42-11.23,14.39-.88,1.25,1.14,2.83,2.13,1.65,3.9-4.67,7.4-9.67,10.98-14.59,.79-1.09-1.03-2.51-1.88-1.45h0Z"/><path class="e" d="M65.56,146.05c-4.08,4.41-7.93,9.08-11.7,13.75-.96,1.18,.66,2.89,1.71,1.71,4.05-4.57,8.07-9.23,11.8-14.06,.8-1.04-.93-2.34-1.81-1.39h0Z"/><path class="e" d="M65.1,153.8c-4.72,5.11-9.48,10.24-13.89,15.62-.96,1.17,.61,2.84,1.7,1.7,4.81-5.02,9.34-10.37,13.84-15.67,.96-1.13-.62-2.78-1.66-1.66h0Z"/><path class="e" d="M64.43,161.65c-3.63,6.38-9.64,11.57-14.16,17.34-.94,1.2,.63,2.91,1.72,1.72,2.8-3.03,5.41-6.23,8.06-9.39,2.29-2.72,4.73-5.33,6.39-8.5,.7-1.33-1.27-2.5-2.02-1.18h0Z"/><path class="e" d="M64.27,170.05c-3.93,5.52-8.3,10.63-12.69,15.78-1.06,1.24,.65,3.02,1.82,1.82,4.86-4.99,9.06-10.62,12.95-16.38,.87-1.29-1.19-2.46-2.08-1.21h0Z"/><path class="e" d="M65.47,180.13c-4.94,5.97-9.96,11.88-14.83,17.9-.98,1.21,.62,2.92,1.75,1.75,5.41-5.62,10.4-11.89,14.9-18.25,.75-1.06-.98-2.42-1.82-1.4h0Z"/><path class="e" d="M63.99,190.05c-4.4,5.26-9.13,10.43-13.06,16.05-.8,1.15,.98,2.5,1.93,1.49,4.61-4.94,8.62-10.57,12.78-15.88,.91-1.16-.68-2.83-1.66-1.66h0Z"/><path class="e" d="M65.45,196.76c-5.47,6.75-10.79,13.67-15.41,21.03-.86,1.37,1.23,2.53,2.14,1.25,5-6.99,9.89-14.04,15.14-20.85,.82-1.06-1.02-2.49-1.87-1.44h0Z"/><path class="e" d="M64.86,206.98c-5.06,6.34-10.08,12.8-14.41,19.66-.86,1.37,1.22,2.51,2.14,1.25,4.64-6.42,9.11-12.95,13.97-19.21,.93-1.2-.73-2.9-1.69-1.69h0Z"/><path class="e" d="M63.9,217.88c-4.99,6.88-10.19,13.66-14.93,20.71-.76,1.13,1.05,2.57,1.91,1.48,5.36-6.71,10.21-13.9,15.05-21,.86-1.26-1.16-2.39-2.03-1.19h0Z"/><path class="e" d="M64.26,227.28c-4.22,6.48-8.56,12.94-12.46,19.63-.81,1.38,1.24,2.53,2.12,1.24,4.37-6.38,8.35-13.07,12.4-19.66,.81-1.32-1.23-2.48-2.06-1.2h0Z"/><path class="e" d="M64.98,237c-4.78,7.71-9.74,15.35-14.24,23.23-.79,1.39,1.27,2.57,2.13,1.24,4.95-7.6,9.49-15.5,14.16-23.28,.79-1.31-1.24-2.49-2.05-1.2h0Z"/><path class="e" d="M64.72,249.54c-3.68,8.2-8.27,15.46-14.34,22.11-1.05,1.15,.61,2.84,1.72,1.72,6.42-6.51,11.55-14.35,14.77-22.92,.46-1.23-1.6-2.12-2.15-.91h0Z"/><path class="e" d="M65.68,262.87c-2.74,3.74-5,7.82-6.91,12.04-.62,1.37,1.38,2.57,2.04,1.19,2.01-4.2,4.34-8.16,6.87-12.06,.82-1.27-1.13-2.34-1.99-1.16h0Z"/><path class="e" d="M74.56,262.37c-3.24,4.86-6.56,9.75-9.51,14.79-.8,1.36,1.21,2.48,2.09,1.22,3.34-4.79,6.38-9.85,9.43-14.83,.79-1.29-1.19-2.42-2.02-1.18h0Z"/><path class="e" d="M84,270.18c1.43,0,1.43-2.22,0-2.22s-1.43,2.22,0,2.22h0Z"/><path class="e" d="M93.64,263.6c-2.05,2.86-4.01,5.85-5.84,8.86-.8,1.33,1.18,2.43,2.05,1.2,2.03-2.88,3.98-5.87,5.79-8.89,.78-1.3-1.15-2.36-2-1.17h0Z"/><path class="e" d="M85.98,265.6c-2.75,3.7-5.32,7.64-7.17,11.88-.6,1.36,1.31,2.57,2.05,1.2,2.19-4.11,4.41-8.11,7.14-11.9,.88-1.22-1.13-2.36-2.01-1.17h0Z"/><path class="e" d="M97.37,266.48c-2.31,3.56-4.19,7.57-5.49,11.61-.48,1.5,1.73,2.01,2.3,.63,1.56-3.81,3.27-7.44,5.17-11.09,.68-1.32-1.18-2.4-1.99-1.16h0Z"/><path class="e" d="M104.68,265.32c-2.68,3.81-4.75,8.22-5.89,12.74-.38,1.5,1.8,2.07,2.3,.63,1.5-4.31,3.29-8.27,5.59-12.21,.76-1.3-1.15-2.36-1.99-1.16h0Z"/><path class="e" d="M113.68,264.55c-3.35,4.19-5.94,8.88-7.39,14.06-.42,1.49,1.81,2.08,2.3,.63,1.64-4.81,3.86-9.22,6.92-13.28,.79-1.05-1.01-2.45-1.83-1.41h0Z"/><path class="e" d="M120.06,267c-1.94,3.5-3.6,7.17-4.61,11.06-.4,1.54,1.82,2.11,2.35,.65,1.29-3.57,2.63-7.09,4.37-10.47,.72-1.39-1.35-2.62-2.11-1.23h0Z"/><path class="e" d="M129.23,266.42c-2.62,3.33-4.42,7.15-4.84,11.4-.14,1.43,2.19,1.73,2.51,.34,.86-3.72,2.1-7.07,4.29-10.23,.8-1.15-1.08-2.62-1.96-1.51h0Z"/><path class="e" d="M136.29,266.8c-1.43,3.59-2.7,7.29-3.88,10.97-.47,1.46,1.73,2,2.26,.62,1.38-3.61,2.7-7.29,3.83-10.98,.44-1.44-1.68-1.94-2.21-.61h0Z"/><path class="e" d="M145.32,265.34c-2.63,4.21-4.76,8.85-6.1,13.63-.42,1.5,1.79,2.07,2.3,.63,1.61-4.55,3.46-8.87,5.79-13.1,.72-1.31-1.2-2.42-1.99-1.16h0Z"/><path class="e" d="M152.4,265.51c-2.1,3.77-5.94,9.3-4.78,13.82,.39,1.5,2.53,.85,2.28-.63-.39-2.31,1.01-4.73,1.93-6.74,.82-1.78,1.69-3.53,2.6-5.26,.71-1.34-1.29-2.52-2.04-1.19h0Z"/><path class="e" d="M157.38,265.65c-1.8,3.92-4.47,8.35-4.41,12.78,.02,1.56,2.31,1.53,2.4,0,.26-4.11,2.65-8.1,4.14-11.88,.48-1.22-1.58-2.1-2.13-.9h0Z"/><path class="e" d="M162.81,265.89c-2.03,4.19-3.98,8.58-5.23,13.07-.44,1.58,1.8,2.09,2.39,.66,1.74-4.24,3.25-8.58,5.01-12.82,.51-1.23-1.58-2.12-2.16-.91h0Z"/><path class="e" d="M171.62,265.48c-2.14,4.01-3.7,8.4-4.42,12.9-.23,1.47,1.94,2.15,2.28,.63,.97-4.31,2.25-8.35,4.11-12.37,.61-1.32-1.27-2.48-1.98-1.16h0Z"/><path class="e" d="M178.79,266.73c-1.66,3.61-3.24,7.3-4.67,11.01-.48,1.25,1.62,2.15,2.18,.92,1.65-3.62,3.17-7.33,4.59-11.05,.46-1.21-1.56-2.07-2.1-.89h0Z"/><path class="e" d="M186.85,265.35c-1.88,3.74-3.55,7.75-4.5,11.84-.35,1.5,1.78,2.06,2.28,.63,1.34-3.81,2.61-7.58,4.23-11.29,.59-1.34-1.33-2.54-2.02-1.18h0Z"/><path class="e" d="M194.07,266.21c-2.1,3.44-3.87,7.11-4.97,11-.42,1.49,1.76,2.04,2.28,.63,1.34-3.61,2.79-7.1,4.69-10.46,.73-1.3-1.22-2.44-2-1.17h0Z"/><path class="e" d="M201.35,265.3c-1.11,2.3-2.2,4.6-3.22,6.95-.77,1.77-1.49,3.41-.88,5.34,.49,1.55,2.6,.88,2.38-.65-.26-1.74,1.19-4.01,1.86-5.58,.72-1.7,1.39-3.41,2.06-5.12,.49-1.26-1.6-2.15-2.2-.93h0Z"/><path class="e" d="M208.24,264.67c-2.27,3.81-3.69,8.14-4.05,12.57-.11,1.34,2.12,1.66,2.36,.32,.74-4.13,1.87-7.91,3.71-11.7,.65-1.34-1.24-2.49-2.02-1.18h0Z"/><path class="e" d="M215.44,264.74c-1.25,2.97-2.35,5.97-3.15,9.1-.5,1.93-1.02,3.88,.47,5.47,1.08,1.15,2.68-.53,1.71-1.71-.9-1.09,.74-4.82,1.07-5.92,.62-2.03,1.32-4.04,2.09-6.02,.49-1.25-1.66-2.17-2.19-.92h0Z"/><path class="e" d="M224.05,264.4c-2.51,3.96-4.19,8.15-4.71,12.84-.15,1.4,2.19,1.72,2.46,.33,.83-4.21,2.1-8.26,4.34-11.95,.81-1.34-1.26-2.54-2.09-1.22h0Z"/><path class="e" d="M228.72,267.02c-1.42,3.22-2.34,6.71-2.83,10.19-.21,1.5,1.96,2.21,2.34,.65,.81-3.33,1.77-6.61,2.66-9.92,.34-1.25-1.61-2.18-2.17-.92h0Z"/><path class="e" d="M234.53,265.55c-1.38,2.64-2.12,5.5-1.93,8.49,.09,1.52,2.35,1.54,2.38,0,.04-2.54,.52-4.98,1.65-7.26,.69-1.39-1.37-2.62-2.1-1.23h0Z"/><path class="e" d="M240.83,265.24c-.67,3.69-1.32,7.38-1.69,11.11-.14,1.43,2.25,1.76,2.52,.34,.71-3.68,1.13-7.41,1.54-11.13,.15-1.34-2.13-1.66-2.37-.32h0Z"/><path class="e" d="M127.66,112.54c-1.09-1.59-2.04-3.26-2.87-4.99-.58-1.21-2.72-.34-2.2,.93,.79,1.89,1.75,3.64,2.95,5.3,.91,1.26,3.01,.08,2.11-1.23h0Z"/><path class="e" d="M137.69,107.9c.54-2.06,1.17-4.09,1.85-6.1,.52-1.54-1.83-2.13-2.4-.66-.78,1.99-1.38,4.02-1.88,6.1-.38,1.57,2.02,2.24,2.43,.67h0Z"/><path class="e" d="M173.49,102.35c-.41-1.82-.24-3.57,.72-5.19,.84-1.42-1.32-2.66-2.2-1.28-1.35,2.12-1.8,4.74-.97,7.15,.53,1.54,2.81,.93,2.44-.67h0Z"/><path class="e" d="M185.03,210.92c-.68,4.37-1.06,8.75-.95,13.17,.04,1.53,2.35,1.53,2.38,0,.07-4.2,.32-8.37,.96-12.52,.24-1.56-2.14-2.23-2.38-.66h0Z"/><path class="e" d="M193.06,212.1c.93,3.09,1.98,6.16,3.12,9.18,.56,1.49,2.91,.91,2.43-.67-.95-3.09-2-6.16-3.16-9.17-.56-1.45-2.85-.9-2.38,.66h0Z"/><path class="e" d="M219.07,204.88c4.15,2.25,8.13,4.84,11.97,7.58,1.26,.9,2.9-1.19,1.67-2.17-3.84-3.03-7.89-5.58-12.24-7.81-1.58-.81-2.97,1.54-1.4,2.39h0Z"/><path class="e" d="M249.1,157.84c1.21,1.79,2.98,2.81,5.15,2.88,1.53,.05,1.51-2.27,0-2.37-1.25-.08-2.34-.7-3.04-1.74-.87-1.29-2.99-.07-2.11,1.23h0Z"/><path class="e" d="M237.25,120.48c2.55-1.82,5.1-3.65,7.64-5.49,1.19-.86,.05-2.87-1.17-2-2.56,1.81-5.1,3.64-7.65,5.46-1.21,.87-.05,2.9,1.18,2.02h0Z"/><path class="e" d="M92.51,199.32c-3.76,3.56-7.77,6.8-12.02,9.75-1.22,.85-.08,2.86,1.18,2.02,4.47-3,8.64-6.37,12.54-10.06,1.13-1.07-.58-2.76-1.7-1.7h0Z"/><path class="e" d="M99.84,213.53c-2,4.6-3.78,9.27-5.31,14.05-.48,1.48,1.84,2.11,2.33,.64,1.52-4.55,3.22-9.03,5.14-13.43,.64-1.46-1.52-2.73-2.16-1.26h0Z"/><path class="e" d="M133.24,230.52c-.3,4.38-.61,8.76-.84,13.14-.09,1.61,2.35,1.57,2.48,0,.37-4.38,.67-8.76,.97-13.14,.12-1.68-2.5-1.67-2.61,0h0Z"/><path class="e" d="M82.83,166.7c-3.5,.33-7,.54-10.51,.7-1.58,.07-1.6,2.49,0,2.47,3.51-.04,7.01-.26,10.51-.59,1.64-.16,1.65-2.73,0-2.58h0Z"/><path class="e" d="M82.48,56.18l-.21-.81c-.36-1.34-2.18-.95-2.3,.31-.51,5.8-.67,11.63-.7,17.45,0,1.54,2.36,1.54,2.39,0,.12-5.82,.41-11.63,.65-17.45-.76,.1-1.53,.21-2.29,.31,.08,.27,.17,.53,.25,.8,.44,1.41,2.6,.83,2.22-.61h0Z"/><path class="e" d="M88.68,56.77c-.13,9.75-.59,19.47-1.23,29.2-.1,1.55,2.28,1.53,2.4,0,.78-9.72,1.15-19.45,1.24-29.2,.01-1.55-2.39-1.55-2.41,0h0Z"/><path class="e" d="M252.71,222.94c-.66,12.55-1.36,25.1-2.11,37.65-.09,1.53,2.24,1.5,2.36,0,1.03-12.53,1.72-25.09,2.07-37.65,.04-1.5-2.25-1.49-2.33,0h0Z"/><path class="e" d="M256.61,233.15c-.19,9.27-.86,18.49-1.59,27.73-.12,1.55,2.22,1.5,2.39,0,1.05-9.2,1.43-18.48,1.55-27.73,.02-1.51-2.32-1.51-2.35,0h0Z"/><path class="e" d="M244.9,250.96c0,3.31-.17,6.62-.35,9.93-.08,1.55,2.24,1.5,2.39,0,.33-3.3,.38-6.61,.32-9.93-.03-1.52-2.36-1.52-2.36,0h0Z"/><path class="e" d="M240.76,256.22c0,2.04-.03,4.09,.03,6.13,.05,1.53,2.33,1.53,2.38,0,.07-2.04,.04-4.09,.03-6.13,0-1.57-2.44-1.58-2.45,0h0Z"/><path class="e" d="M245.47,55.02c0,3.41-.03,6.81,.02,10.22,.02,1.49,2.3,1.49,2.32,0,.05-3.41,.02-6.81,.02-10.22,0-1.52-2.36-1.52-2.36,0h0Z"/><path class="e" d="M250.71,55.9c-.31,5.74-.41,11.48-.26,17.23,.04,1.52,2.38,1.52,2.36,0-.09-5.74,0-11.49,.28-17.23,.08-1.53-2.29-1.52-2.38,0h0Z"/><path class="e" d="M256.06,56.48c.62,12.18,.56,24.33-.13,36.5-.09,1.52,2.26,1.51,2.36,0,.83-12.17,.83-24.33,.08-36.5-.09-1.47-2.38-1.49-2.31,0h0Z"/><path class="e" d="M76.72,233.44c-.19,9.44-.23,18.89,.15,28.33,.06,1.52,2.4,1.54,2.38,0-.11-9.44-.27-18.88-.18-28.33,.01-1.51-2.32-1.51-2.35,0h0Z"/><path class="e" d="M80.55,247.46c-.5,5.43-.66,10.92-.16,16.36,.14,1.5,2.44,1.55,2.38,0-.21-5.47-.3-10.89,.07-16.36,.1-1.48-2.16-1.45-2.29,0h0Z"/><path class="e" d="M84.33,253.6c-.28,2.43-.59,4.87-.82,7.3-.12,1.3,2.13,1.63,2.31,.31,.35-2.53,.62-5.08,.91-7.62,.18-1.53-2.23-1.52-2.4,0h0Z"/><path class="d" d="M130.36,158.02h-1.15c-.78,0-.78,1.21,0,1.21h1.15c.78,0,.78-1.21,0-1.21h0Z"/><path class="d" d="M139.36,200.56c.2,.28,.39,.57,.59,.85,.44,.64,1.49,.03,1.05-.61-.2-.28-.39-.57-.59-.85-.44-.64-1.49-.03-1.05,.61h0Z"/><path class="d" d="M136.36,204.59v.57c0,.78,1.21,.78,1.21,0v-.57c0-.78-1.21-.78-1.21,0h0Z"/><g><path class="d" d="M268.49,57.11c.1-.3,.1-.62-.04-.88-.17-.74-1.02-.94-1.61-.61-24.99-3.41-50.05-.28-75.12,.37,3.86-25.9-43.44-28.86-51.26-5.03-.18,.55,0,.98,.34,1.26-.43,.62-.78,1.3-1.02,2.02-23.34-.95-46.53-1.24-70.18,.17-.6-.71-2.03-.49-2.05,.7-.88,69.18-4,138.54-1.51,207.72,.03,.89,.78,1.29,1.47,1.23,.18,.17,.4,.29,.7,.32,65.05,4.85,131.05,1.37,196.22,.79,.72,0,1.1-.51,1.17-1.06,.18-.2,.3-.46,.3-.81-.54-68.79,.89-137.42,2.58-206.18Zm-125.38-3.6c.55-.64,.35-1.43-.11-1.9,3.64-10.32,16.46-15.06,26.67-14.73,11.22,.35,20.15,9,19.12,19.19-.1,0-.2,0-.3,0,.06,.75,0,1.5-.19,2.25,.03,0,.06,0,.09,0-.44,1.79-1.15,3.61-2.26,5.42-5.15,8.48-14.47,14.38-24.56,13.48-10.54-.94-18.62-10.19-18.36-20.68,.01-.55-.28-.89-.65-1.06-.01-.38,0-.75,.05-1.13h-.04c.14-.28,.3-.57,.53-.84Zm-74.5,208.61c-2.42-68.54,2.16-136.99,1.27-205.51,23.43-.9,46.41-.91,69.55-.06,.03,.54,.13,1.07,.34,1.59,.18,.45,.6,.72,1.04,.8,.8,10.75,9.46,19.91,20.48,21.02,12.77,1.29,25.76-8.14,29.57-20.21,.16-.52,.27-1.01,.39-1.52,25.03-.72,50.08-3.68,74.96-.28-3.38,68.09-3.8,136.55-2.91,204.71-64.86,.6-129.89,2.61-194.71-.55Z"/><g><path class="d" d="M221.34,118.88c-5.79,9.55-12.14,18.74-19.04,27.52-.48,.61,.38,1.47,.86,.86,6.97-8.86,13.39-18.12,19.23-27.76,.41-.67-.64-1.28-1.05-.61h0Z"/><path class="d" d="M216.83,113.68c.66,2.39,1.61,4.65,2.86,6.79,.39,.68,1.44,.06,1.05-.61-1.19-2.06-2.1-4.21-2.74-6.5-.21-.75-1.38-.43-1.17,.32h0Z"/><path class="d" d="M214.78,117.71c1.08,2.58,2.15,5.15,3.23,7.73,.3,.71,1.47,.4,1.17-.32-1.08-2.58-2.15-5.15-3.23-7.73-.3-.71-1.47-.4-1.17,.32h0Z"/><path class="d" d="M211.78,122.64c1.04,2.88,2.13,5.74,3.29,8.57,.29,.71,1.47,.4,1.17-.32-1.16-2.83-2.26-5.69-3.29-8.57-.26-.73-1.44-.42-1.17,.32h0Z"/><path class="d" d="M208.92,126.94c.9,2.99,2.03,5.89,3.39,8.71,.34,.7,1.39,.09,1.05-.61-1.31-2.72-2.39-5.53-3.27-8.42-.22-.75-1.4-.43-1.17,.32h0Z"/><path class="d" d="M204.72,131.97c1.33,2.64,2.53,5.33,3.61,8.09,.28,.72,1.46,.41,1.17-.32-1.12-2.85-2.36-5.64-3.73-8.38-.35-.7-1.4-.08-1.05,.61h0Z"/><path class="d" d="M202.26,137.69l-.08,.03c.23,.09,.46,.19,.69,.28l.03,.1c-.1,.17-.2,.35-.3,.52-.48-.19-.6-.08-.36,.32,.07,.24,.14,.48,.21,.73,.1,.36,.21,.73,.32,1.09,.25,.85,.49,1.69,.74,2.54,.22,.75,1.39,.43,1.17-.32-.28-.97-.56-1.94-.84-2.9-.2-.69-.29-1.73-.77-2.29-.64-.74-1.79-.04-1.24,.83,.13,.21,.43,.38,.69,.28l.08-.03c.72-.28,.41-1.45-.32-1.17h0Z"/><path class="d" d="M198.37,143.78c.83,1.35,1.35,2.79,1.58,4.36,.11,.77,1.28,.44,1.17-.32-.25-1.66-.82-3.22-1.7-4.65-.41-.66-1.46-.06-1.05,.61h0Z"/><path class="d" d="M195.21,148c.19,1.61,.63,3.13,1.32,4.59,.33,.71,1.38,.09,1.05-.61-.6-1.26-.99-2.59-1.15-3.98-.09-.77-1.31-.78-1.21,0h0Z"/><path class="d" d="M188.96,161.98c4.12-2.21,7.58-5.27,10.32-9.06,.46-.63-.59-1.24-1.05-.61-2.61,3.62-5.95,6.52-9.88,8.63-.69,.37-.08,1.42,.61,1.05h0Z"/><path class="d" d="M192.78,153.58c.4,1.17,.66,2.37,.74,3.61,.05,.78,1.27,.78,1.21,0-.09-1.35-.35-2.65-.78-3.93-.25-.73-1.43-.42-1.17,.32h0Z"/><path class="d" d="M89.85,150.68c-.35-.18-.7-.37-1.05-.55-.1,.38-.2,.75-.31,1.13,3.73-.06,7.23,1.14,10.76,2.21,3.29,.99,6.57,2.01,9.84,3.05,6.55,2.07,13.08,4.2,19.61,6.34,.74,.24,1.06-.93,.32-1.17-6.87-2.25-13.75-4.49-20.64-6.66-6.3-1.98-13.2-5.07-19.89-4.97-.58,0-.86,.85-.31,1.13,.35,.18,.7,.37,1.05,.55,.69,.36,1.31-.69,.61-1.05h0Z"/><path class="d" d="M91.01,147.26c-.2,1.51,.22,2.94,1.27,4.05,.54,.57,1.4-.29,.86-.86-.73-.77-1.11-1.81-.96-2.87,.1-.76-1.07-1.1-1.17-.32h0Z"/><path class="d" d="M95.06,149c.36,1.06,.73,2.12,1.09,3.18,.25,.74,1.43,.42,1.17-.32-.36-1.06-.73-2.12-1.09-3.18-.25-.74-1.43-.42-1.17,.32h0Z"/><path class="d" d="M100.78,149.58c.43,1.45,.86,2.9,1.29,4.35,.22,.75,1.39,.43,1.17-.32-.43-1.45-.86-2.9-1.29-4.35-.22-.75-1.39-.43-1.17,.32h0Z"/><path class="d" d="M106.79,150.87c.07,1.76,.54,3.43,1.4,4.96,.38,.68,1.43,.07,1.05-.61-.76-1.35-1.17-2.8-1.24-4.35-.03-.78-1.25-.78-1.21,0h0Z"/><path class="d" d="M112.52,153.16c.03,1.77,.52,3.44,1.46,4.94,.41,.66,1.47,.05,1.05-.61-.83-1.33-1.26-2.76-1.29-4.33-.01-.78-1.23-.78-1.21,0h0Z"/><path class="d" d="M118.76,155.14c.51,1.2,.82,2.47,.93,3.77,.07,.77,1.28,.78,1.21,0-.13-1.53-.49-2.97-1.1-4.39-.31-.72-1.35-.1-1.05,.61h0Z"/><path class="d" d="M150.11,167.34c-4.68-1.39-9.39-2.67-14.13-3.85-.76-.19-1.08,.98-.32,1.17,4.74,1.18,9.45,2.47,14.13,3.85,.75,.22,1.07-.95,.32-1.17h0Z"/><path class="d" d="M147.85,163.79c.07,.93,0,1.82-.27,2.71-.22,.75,.96,1.07,1.17,.32,.28-.99,.39-2.01,.31-3.03-.06-.77-1.28-.78-1.21,0h0Z"/><path class="d" d="M144.4,162.07v3.73c0,.78,1.21,.78,1.21,0v-3.73c0-.78-1.21-.78-1.21,0h0Z"/><path class="d" d="M140.64,160.64c.13,1.3,.09,2.59-.16,3.87-.15,.76,1.02,1.09,1.17,.32,.27-1.39,.35-2.78,.2-4.2-.08-.77-1.29-.78-1.21,0h0Z"/><path class="d" d="M135.78,160.18c-.31,1.09-.4,2.2-.26,3.33,.1,.77,1.31,.77,1.21,0-.13-1.02-.06-2.01,.22-3.01,.21-.75-.96-1.08-1.17-.32h0Z"/><path class="d" d="M126.9,158.78c.24,.8,.33,1.59,.27,2.42-.06,.78,1.16,.78,1.21,0,.07-.93-.04-1.85-.31-2.75-.23-.75-1.4-.43-1.17,.32h0Z"/><path class="d" d="M131.29,159.92l.72,3.48c.16,.76,1.33,.44,1.17-.32-.24-1.16-.48-2.32-.72-3.48-.16-.76-1.33-.44-1.17,.32h0Z"/><path class="d" d="M162.29,177.84c-4.62,6.16-9.65,11.99-15.06,17.47-.55,.56,.31,1.42,.86,.86,5.48-5.56,10.57-11.47,15.25-17.72,.47-.63-.58-1.23-1.05-.61h0Z"/><path class="d" d="M157.95,179.14c-.07-.39-.13-.79-.2-1.18-.34,.2-.68,.39-1.02,.59,1.02,.85,1.82,1.87,2.4,3.07,.34,.7,1.39,.09,1.05-.61-.62-1.28-1.49-2.41-2.59-3.32-.48-.4-1.12-.02-1.01,.59,.07,.39,.13,.79,.2,1.18,.13,.77,1.3,.44,1.17-.32h0Z"/><path class="d" d="M155.04,180.99c1.11,.81,2.12,1.74,3.04,2.77,.52,.58,1.38-.28,.86-.86-.99-1.1-2.09-2.08-3.29-2.96-.63-.46-1.24,.59-.61,1.05h0Z"/><path class="d" d="M152.58,184.66c.98,1.13,1.96,2.26,2.94,3.39,.51,.59,1.37-.27,.86-.86-.98-1.13-1.96-2.26-2.94-3.39-.51-.59-1.37,.27-.86,.86h0Z"/><path class="d" d="M149.7,187.54c.68,.85,1.36,1.71,2.04,2.56,.49,.61,1.34-.25,.86-.86-.68-.85-1.36-1.71-2.04-2.56-.49-.61-1.34,.25-.86,.86h0Z"/><path class="d" d="M146.73,190.28c.63,.88,1.34,1.68,2.17,2.37,.6,.5,1.46-.36,.86-.86-.75-.62-1.42-1.33-1.98-2.12-.45-.63-1.5-.03-1.05,.61h0Z"/><path class="d" d="M143.68,194.14c.67,.67,1.35,1.34,2.02,2,.56,.55,1.41-.31,.86-.86-.67-.67-1.35-1.34-2.02-2-.56-.55-1.41,.31-.86,.86h0Z"/><path class="d" d="M141.8,197c.17,.76,.53,1.41,1.07,1.97,.54,.56,1.4-.3,.86-.86-.4-.41-.63-.88-.76-1.44-.17-.76-1.34-.44-1.17,.32h0Z"/><g><path class="d" d="M88.19,145.71c-1.67-6.31,27.47-13.9,32.63-15.62,10.01-3.35,20.09-6.48,30.21-9.47,10.12-2.99,20.3-5.79,30.53-8.39,3.62-.92,32.53-9.75,33.82-6.18,.58,1.62,3.2,.9,2.59-.71-1.15-3.06-3.21-3.23-6.26-2.8-7.23,1.02-14.51,3.21-21.61,4.93-14.02,3.4-27.95,7.16-41.77,11.29-13.49,4.03-26.84,8.49-40.1,13.2-6,2.13-12.9,3.83-18.45,6.96-2.95,1.66-4.44,3.95-3.25,7.26,.37,1.03,1.94,.63,1.66-.46h0Z"/><path class="d" d="M86.83,141.79c-3.14,6.46,1.98,14.63,4.56,20.6,3.88,8.96,8.19,17.73,12.46,26.51,4.51,9.28,8.89,18.61,12.79,28.17,1.35,3.31,3.95,9.36,8.27,5.57,.88-.77-.05-2.34-1.15-1.97-3.61,1.19-8.9-15.18-10.04-17.71-2.92-6.44-6.01-12.81-9.08-19.19-2.92-6.07-5.86-12.14-8.62-18.28-1.49-3.32-2.95-6.65-4.36-10.01-1.6-3.81-4.37-8.84-3.39-13.09,.19-.83-1.04-1.45-1.45-.61h0Z"/><path class="d" d="M215.3,104.05c2.06,6.03,4.89,11.74,7.11,17.71,2,5.37,3.31,11.06,5.75,16.26,2.75,5.88,5,11.89,7.22,17.99,1.51,4.14,9.48,19.62,4.68,22.77-.92,.6-.61,2.17,.58,2.15,4.51-.08,5-4.3,4.03-7.86-2.29-8.39-5.87-16.64-8.91-24.78-2.84-7.6-6.14-14.88-8.74-22.56-2.61-7.68-5.58-15.63-10.34-22.24-.46-.64-1.67-.29-1.37,.58h0Z"/><path class="d" d="M119.33,221.52c2.51,2.37,5.12,2.07,8.32,1.15,6.59-1.89,13.07-4.41,19.55-6.65,12.54-4.34,24.99-8.93,37.31-13.85,11.66-4.66,23.28-9.46,35.18-13.46,7.67-2.58,21.03-3.63,25.22-11.74,.74-1.43-1.17-2.45-2.11-1.23-3.49,4.57-8.64,5.67-13.87,7.19-5.36,1.56-10.65,3.31-15.9,5.19-9.85,3.53-19.54,7.52-29.26,11.4-9.97,3.99-20.01,7.77-30.13,11.35-5.46,1.93-10.95,3.81-16.43,5.68-4.43,1.51-12.36,5.98-17.09,3.95-.63-.27-1.38,.47-.79,1.03h0Z"/><path class="d" d="M167.82,158.97c.17-2.91-5.04-2.58-6.71-1.76-3.4,1.66-4.31,5.79-3.64,9.26,.62,3.18,4.48,5.98,7.69,5.81,2.68-.14,7.5-3.75,5.41-6.69-.52-.74-1.58-.82-2.09,0-.9,1.45-2.21,3.57-4.26,3.13-1.55-.33-3.21-1.8-3.5-3.28-.32-1.6-.25-3.68,.9-4.93,.86-.93,3.88-2.18,5.03-1.06,.44,.43,1.13,.1,1.17-.48h0Z"/><path class="d" d="M167.77,154.91c-2.4,3.97-.48,10.95,3.78,12.91,2.21,1.02,4.5,.56,6.39-.88,2.04-1.55,3.2-3.09,2.85-5.67-.13-.99-1.46-.88-1.91-.25-1.56,2.18-4.53,5.33-7.1,2.85-2.34-2.25-1.89-6-2.83-8.81-.17-.52-.88-.64-1.18-.15h0Z"/><path class="d" d="M179.32,164.53c4.57-7.45-1.16-15.44-8.75-17.61-9.1-2.6-17.06,1.77-20.09,10.67-2.84,8.35,.82,18.36,9.32,21.6,8.38,3.19,17.14-1.11,21.46-8.54,.81-1.39-1.25-3.13-2.3-1.78-3.33,4.28-7.84,7.86-13.54,7.79-7.19-.08-12.6-6.26-12.41-13.36,.21-8.07,5.2-14.73,13.76-13.96,7.57,.68,13.2,6.71,10.86,14.49-.3,1.01,1.14,1.58,1.67,.71h0Z"/><path class="d" d="M217.9,108.83c-3.75,4.98-6.43,10.8-9.75,16.08-3.49,5.55-7.17,10.98-10.77,16.46-3.45,5.26-6.93,10.5-10.47,15.7-3.64,5.36-8.32,10.63-11.02,16.52-.47,1.03,.67,1.94,1.56,1.2,4.8-4.03,8.29-10.01,11.85-15.11,3.79-5.45,7.42-11.02,11.06-16.57,6.8-10.37,15.86-21.48,19.1-33.62,.27-1-1.01-1.39-1.56-.66h0Z"/><path class="d" d="M87.72,142.24c-1.42,2.37-.18,4.31,2.09,5.55,5.34,2.91,12.74,3.73,18.6,5.34,13.9,3.81,27.8,7.59,41.74,11.24,2,.52,2.86-2.58,.86-3.1-10.11-2.64-20.2-5.34-30.31-8-4.88-1.28-9.75-2.59-14.61-3.92-2.77-.75-16.75-2.87-16.76-6.67,0-.86-1.17-1.17-1.61-.44h0Z"/><path class="d" d="M157.19,175.71c-13.65,13.37-22.3,30.63-35.44,44.34-1.32,1.38,.77,3.48,2.1,2.1,6.38-6.67,11.11-13.51,16.24-21.08,5.71-8.42,13.08-15.66,18.44-24.32,.52-.84-.66-1.72-1.35-1.04h0Z"/><path class="d" d="M187,161.07c8.06,3.63,17.03,5.41,25.52,7.78,4.42,1.23,8.82,2.53,13.2,3.88,3.65,1.12,12.94,2.51,15.13,5.61,1.08,1.54,3.54,.18,2.56-1.5-1.73-2.99-5.72-3.48-8.81-4.5-5.02-1.67-10.09-3.16-15.2-4.57-10.43-2.89-21.1-6.54-31.83-8.06-.76-.11-1.44,.99-.58,1.38h0Z"/></g></g></g></g><rect class="f" width="316" height="316"/></g></g></g></svg>