<svg id="Warstwa_3" data-name="Warstwa 3" xmlns="http://www.w3.org/2000/svg" xmlns:xlink="http://www.w3.org/1999/xlink" viewBox="0 0 316 316"><defs><style>.cls-1{fill:none;}.cls-2{fill:#e5e5e5;}.cls-3{clip-path:url(#clip-path);}.cls-4{fill:#14213d;}</style><clipPath id="clip-path"><circle id="Ellipse_55" data-name="Ellipse 55" class="cls-1" cx="158" cy="158" r="140.1"/></clipPath></defs><g id="dresówka_pętelka" data-name="dresówka pętelka"><circle id="Ellipse_55-2" data-name="Ellipse 55" class="cls-2" cx="158" cy="158" r="158"/><g class="cls-3"><path class="cls-4" d="M54.12,161.79c.45,19.51,1.75,39.12,3.14,58.59.06.86,1.38.87,1.34,0-.89-19.51-1.91-39.15-3.75-58.59-.05-.46-.74-.48-.73,0Z"/><path class="cls-4" d="M114.73,161.31c-1.84,19.44-2.86,39.08-3.76,58.59,0,.87,1.29.86,1.35,0,1.39-19.47,2.69-39.08,3.14-58.59,0-.48-.69-.46-.73,0Z"/><path class="cls-4" d="M51.22,161.64a50.09,50.09,0,0,0,6.83.35c2.54.07,5.11.31,7.65.19.47,0,.64-.81.12-.88A63.84,63.84,0,0,0,58.5,161a42.11,42.11,0,0,0-7.28.18.26.26,0,0,0,0,.51Z"/><path class="cls-4" d="M51.49,152.7c2.07.69,4.48.46,6.65.52l7.56.18a.54.54,0,0,0,0-1.07l-7.56-.15c-2.16,0-4.55-.37-6.65.23a.15.15,0,0,0,0,.29Z"/><path class="cls-4" d="M71.91,153.06c2.64.82,5.72.46,8.45.5l8.89.13c6.08.1,12.15.31,18.23.43a.57.57,0,0,0,0-1.13c-6.07-.25-12.16-.33-18.23-.43-3-.05-5.93-.09-8.89-.1-2.72,0-5.82-.42-8.45.38a.11.11,0,0,0,0,.22Z"/><path class="cls-4" d="M72.39,161.58c2.52.94,5.88.44,8.57.46,3,0,6,.07,9,.07s6-.06,9-.12c2.83-.06,5.85.15,8.63-.41.51-.1.32-.77-.11-.82-2.92-.39-6,0-9,.08s-6,.09-9,.14c-2.85,0-5.69.08-8.53.07-2.69,0-6-.59-8.57.26a.14.14,0,0,0,0,.27Z"/><path class="cls-4" d="M113.13,153.5a2.49,2.49,0,0,0,1.8.35.48.48,0,0,0,0-1,2.49,2.49,0,0,0-1.8.35.19.19,0,0,0,0,.26Z"/><path class="cls-4" d="M114.11,161.61a3.69,3.69,0,0,0,.93.21.51.51,0,0,0,.63-.42.52.52,0,0,0-.5-.58,3.36,3.36,0,0,0-1,0,.44.44,0,0,0-.11.79Z"/><path class="cls-4" d="M51.46,152.6a12.77,12.77,0,0,0-.43,4.49c0,1.46-.28,3.15.29,4.51a.23.23,0,0,0,.45,0c.51-1.38.2-3,.21-4.51a15,15,0,0,0-.23-4.49.15.15,0,0,0-.29,0Z"/><path class="cls-4" d="M115,153.29a71.85,71.85,0,0,0,.06,8.17.35.35,0,0,0,.69,0,74.17,74.17,0,0,0-.24-8.17.26.26,0,0,0-.51,0Z"/><path class="cls-4" d="M113.3,161.65v0a.26.26,0,0,0,.17.18,4.56,4.56,0,0,0,1.22.13c.25,0,.68,0,.68-.37,0-.67-1.56-.34-1.9-.24a.24.24,0,0,0-.17.17.16.16,0,0,0,0,.1Z"/><path class="cls-4" d="M113.26,161.37a3.48,3.48,0,0,0,1.1.27,1,1,0,0,0,.94-.21.18.18,0,0,0,0-.21,1,1,0,0,0-.83-.42,3.53,3.53,0,0,0-1.17,0,.31.31,0,0,0-.07.56Z"/><path class="cls-4" d="M114,161.73a4.85,4.85,0,0,0,1.47.16.28.28,0,0,0,0-.55,4.85,4.85,0,0,0-1.47.16.12.12,0,0,0,0,.23Z"/><path class="cls-4" d="M51.09,152.49a8.35,8.35,0,0,0,0,1.58,1.61,1.61,0,0,0,.28,1.05.1.1,0,0,0,.15,0,2.06,2.06,0,0,0,0-1.13c0-.49-.06-1-.11-1.48a.19.19,0,0,0-.38,0Z"/><path class="cls-4" d="M51.78,152.65a7.23,7.23,0,0,0,0,1.47,4.18,4.18,0,0,0,.22,1.27c0,.07.14.09.15,0a4.56,4.56,0,0,0,0-1.38,6.54,6.54,0,0,0-.18-1.39.13.13,0,0,0-.25,0Z"/><path class="cls-4" d="M51.39,161.63a3.54,3.54,0,0,0,0-1.45,5.47,5.47,0,0,0-.2-1.46c0-.06-.13-.08-.14,0a5.9,5.9,0,0,0,0,1.57,3.26,3.26,0,0,0,.2,1.36.08.08,0,0,0,.13,0Z"/><path class="cls-4" d="M52.09,161.62c-.05-2-.14-4-.32-5.93,0-.07-.12-.08-.12,0a22.33,22.33,0,0,0,.35,5.94,0,0,0,0,0,.09,0Z"/><path class="cls-4" d="M67.94,151.7s0,0,0,0,0,0,0,0Z"/><path class="cls-4" d="M66.18,151.2c-1,3.75-.51,8.51-.24,12.34,0,.4.64.41.63,0,0-2.21-.12-4.42-.13-6.64a32.84,32.84,0,0,0-.16-5.7.05.05,0,0,0-.1,0Z"/><path class="cls-4" d="M71.78,151.2c-1,3.75-.51,8.51-.24,12.34,0,.4.64.41.63,0,0-2.21-.12-4.42-.13-6.64a31.88,31.88,0,0,0-.16-5.7.05.05,0,0,0-.1,0Z"/><path class="cls-4" d="M108.13,151.2c-1,3.75-.51,8.51-.24,12.34,0,.4.64.41.63,0,0-2.21-.12-4.42-.13-6.64a32.84,32.84,0,0,0-.16-5.7.05.05,0,0,0-.1,0Z"/><path class="cls-4" d="M113.25,151.2c-1,3.75-.51,8.51-.24,12.34,0,.4.64.41.63,0,0-2.21-.12-4.42-.13-6.64a31.88,31.88,0,0,0-.16-5.7.05.05,0,0,0-.1,0Z"/><path class="cls-4" d="M66,151.26a10.77,10.77,0,0,0,2.6.06,25.27,25.27,0,0,0,3-.09c.17,0,.25-.29,0-.32a16,16,0,0,0-2.85,0,9.17,9.17,0,0,0-2.82.27c-.06,0-.07.12,0,.13Z"/><path class="cls-4" d="M66,163.75a10.77,10.77,0,0,0,2.6.06,27.55,27.55,0,0,0,3-.09c.17,0,.25-.29,0-.32a16,16,0,0,0-2.85-.06,9.49,9.49,0,0,0-2.82.28c-.06,0-.07.12,0,.13Z"/><path class="cls-4" d="M107.47,151.58a10.77,10.77,0,0,0,2.6.06,25.27,25.27,0,0,0,3-.09c.17,0,.25-.29,0-.32a16,16,0,0,0-2.85,0,9.17,9.17,0,0,0-2.82.27c-.06,0-.07.12,0,.13Z"/><path class="cls-4" d="M108,164.07a10.84,10.84,0,0,0,2.61.06,27.44,27.44,0,0,0,3-.09c.17,0,.26-.29.05-.32a16,16,0,0,0-2.85-.06,9.49,9.49,0,0,0-2.82.28c-.06,0-.07.12,0,.13Z"/><path class="cls-4" d="M57.78,221c4.35.61,8.94.21,13.32.16l13.26-.13c9.12-.09,18.35.25,27.45-.29a.56.56,0,0,0,0-1.11c-9.1-.48-18.34,0-27.45.08q-6.63.08-13.26.19c-4.38.08-9-.18-13.32.59a.27.27,0,0,0,0,.51Z"/><path class="cls-4" d="M60.55,220.84c-.38,3.65.42,7.57.86,11.19s.93,7.25,1.47,10.87c1.11,7.56,2.31,15.16,4,22.62.16.66,1.11.37,1-.27-1.23-7.42-2.63-14.79-3.74-22.23q-.88-5.94-1.63-11.92C62.12,227.73,62,224,61,220.78a.24.24,0,0,0-.46.06Z"/><path class="cls-4" d="M107.21,220.46c-1,3.26-1.11,6.94-1.52,10.32q-.75,6-1.63,11.92c-1.1,7.44-2.51,14.81-3.74,22.23-.11.64.84.93,1,.27,1.71-7.46,2.91-15.06,4-22.62q.76-5.19,1.41-10.4c.46-3.77,1.32-7.87.92-11.66a.24.24,0,0,0-.46-.06Z"/><path class="cls-4" d="M67.86,265.75c11,.1,22.1,0,33.14-.3a.55.55,0,0,0,0-1.09c-11-.06-22.1,0-33.14.3a.55.55,0,0,0,0,1.09Z"/><path class="cls-4" d="M68.85,265.27c.2,1.13.44,2.24.61,3.38.05.31.61.24.57-.08a15.91,15.91,0,0,0-.78-3.41.21.21,0,0,0-.4.11Z"/><path class="cls-4" d="M69.7,269c4.66.39,9.5-.06,14.17-.14s9.45-.17,14.17-.28a.34.34,0,0,0,0-.67c-4.72.08-9.44.2-14.17.31s-9.53-.14-14.17.45a.17.17,0,0,0,0,.33Z"/><path class="cls-4" d="M98.53,268.39a4.49,4.49,0,0,0,.6-1.38,5,5,0,0,0,.46-1.63.24.24,0,0,0-.44-.12,4.76,4.76,0,0,0-.55,1.49,4.49,4.49,0,0,0-.35,1.52c0,.13.18.24.28.12Z"/><path class="cls-4" d="M69.48,265.22a6.57,6.57,0,0,0,.36,3.08c.09.21.45.22.43-.05a16.66,16.66,0,0,0-.56-3.06c0-.14-.21-.1-.23,0Z"/><path class="cls-4" d="M70.1,265.37a9.38,9.38,0,0,0,.4,3.21.05.05,0,0,0,.1,0,9.4,9.4,0,0,0-.25-3.25c0-.14-.25-.1-.25,0Z"/><path class="cls-4" d="M70.88,265.05a14,14,0,0,0,0,1.94,3.46,3.46,0,0,0,.22,1.47.09.09,0,0,0,.17,0,3.94,3.94,0,0,0,0-1.71A13.77,13.77,0,0,0,71,265c0-.08-.12-.05-.13,0Z"/><path class="cls-4" d="M71.55,265c0,.63.11,1.25.17,1.88a2.26,2.26,0,0,0,.26,1.24s.11,0,.14,0a2.34,2.34,0,0,0,0-1.46,8,8,0,0,0-.33-1.67.13.13,0,0,0-.26,0Z"/><path class="cls-4" d="M72.51,265.21c0,.65,0,1.29,0,1.94a4.11,4.11,0,0,0,.2,1.48c0,.09.18.05.2,0a4.28,4.28,0,0,0,0-1.71c0-.57-.13-1.13-.23-1.7,0-.08-.14-.06-.14,0Z"/><path class="cls-4" d="M73.44,265.37a15.7,15.7,0,0,0,0,1.94,3.75,3.75,0,0,0,.21,1.46.08.08,0,0,0,.15,0,4.11,4.11,0,0,0,0-1.71,16.28,16.28,0,0,0-.22-1.69.07.07,0,0,0-.14,0Z"/><path class="cls-4" d="M74.24,265.53c0,.58.06,1.15.07,1.72a7.68,7.68,0,0,0,0,1.52c0,.14.22.11.26,0a5.28,5.28,0,0,0-.19-3.26.1.1,0,0,0-.19,0Z"/><path class="cls-4" d="M75.55,265.05a9.78,9.78,0,0,0,.1,1.87,3.67,3.67,0,0,0,.32,1.39.08.08,0,0,0,.14,0,5.64,5.64,0,0,0-.18-1.52c-.08-.57-.11-1.15-.21-1.72,0-.1-.16-.06-.17,0Z"/><path class="cls-4" d="M76.59,265.06c0,.6.09,1.2.1,1.8a8.54,8.54,0,0,0,.06,1.6.16.16,0,0,0,.31,0,7.45,7.45,0,0,0-.22-3.44.13.13,0,0,0-.25,0Z"/><path class="cls-4" d="M77.46,265.05a10.19,10.19,0,0,0,.42,3.39.08.08,0,0,0,.16,0,10,10,0,0,0-.42-3.39c0-.09-.15-.07-.16,0Z"/><path class="cls-4" d="M78.54,265.21c0,.62,0,1.24.09,1.85a3.18,3.18,0,0,0,.23,1.41.11.11,0,0,0,.19,0,3.74,3.74,0,0,0,0-1.63c-.06-.55-.12-1.1-.21-1.64,0-.15-.25-.11-.25,0Z"/><path class="cls-4" d="M79.55,265.37a6.84,6.84,0,0,0,.06,1.69,1.83,1.83,0,0,0,.35,1.13.12.12,0,0,0,.19-.05,2.44,2.44,0,0,0-.08-1.25c-.08-.52-.13-1-.25-1.56,0-.16-.25-.1-.27,0Z"/><path class="cls-4" d="M80.75,265.54a8.1,8.1,0,0,0,.1,1.77,2.16,2.16,0,0,0,.29,1.18.1.1,0,0,0,.16,0,2.49,2.49,0,0,0,0-1.38,7.59,7.59,0,0,0-.29-1.58.12.12,0,0,0-.24,0Z"/><path class="cls-4" d="M82.11,265.35c-.29.93-.62,2.4-.06,3.29a.11.11,0,0,0,.19,0,6,6,0,0,0,0-1.4,9.92,9.92,0,0,1,.13-1.8.12.12,0,0,0-.24-.06Z"/><path class="cls-4" d="M82.83,265.52a11.23,11.23,0,0,0,0,1.64,6.45,6.45,0,0,0,.1,1.46.19.19,0,0,0,.36,0,3.75,3.75,0,0,0,0-1.7,3.9,3.9,0,0,0-.39-1.43c0-.07-.11,0-.12,0Z"/><path class="cls-4" d="M84.11,265.37a15.61,15.61,0,0,0,0,2.05,3.24,3.24,0,0,0,.3,1.54.1.1,0,0,0,.18,0,4.59,4.59,0,0,0-.06-1.65c-.06-.64-.09-1.27-.14-1.91a.16.16,0,0,0-.31,0Z"/><path class="cls-4" d="M85.45,265.69c-.06.61,0,1.21-.09,1.82a5.6,5.6,0,0,0-.08,1.58.12.12,0,0,0,.22,0,3.51,3.51,0,0,0,.27-1.61,7.08,7.08,0,0,0-.14-1.84c0-.11-.17-.08-.18,0Z"/><path class="cls-4" d="M86.72,265.18a12.79,12.79,0,0,0-.13,1.63,4.35,4.35,0,0,0,.1,1.65.15.15,0,0,0,.29,0,4.15,4.15,0,0,0,.09-1.65,10,10,0,0,0-.13-1.63.11.11,0,0,0-.22,0Z"/><path class="cls-4" d="M88,264.86a17.85,17.85,0,0,0-.22,1.79,5.24,5.24,0,0,0,0,1.81.16.16,0,0,0,.31,0,4.94,4.94,0,0,0,.19-1.67c0-.63,0-1.26,0-1.9,0-.13-.22-.18-.25,0Z"/><path class="cls-4" d="M89.41,265.21c-.07.55-.08,1.11-.1,1.67a2.45,2.45,0,0,0,.12,1.29.15.15,0,0,0,.25,0,2.45,2.45,0,0,0,.12-1.29c0-.56,0-1.12-.1-1.67a.15.15,0,0,0-.29,0Z"/><path class="cls-4" d="M90.78,265.35c-.08.46-.19.91-.24,1.38a3.16,3.16,0,0,0,0,1.4.15.15,0,0,0,.27,0,2.55,2.55,0,0,0,.19-1.23c0-.53,0-1,0-1.57,0-.09-.15-.12-.17,0Z"/><path class="cls-4" d="M92,265.51a6.46,6.46,0,0,0-.18,1.39,4.34,4.34,0,0,0-.07,1.39.15.15,0,0,0,.27,0,2.85,2.85,0,0,0,.26-1.33,3.93,3.93,0,0,0-.11-1.49.09.09,0,0,0-.17,0Z"/><path class="cls-4" d="M93.34,265.17a4.24,4.24,0,0,0-.47,1.72,2.7,2.7,0,0,0,.14,1.76c.06.08.19.1.23,0a3.67,3.67,0,0,0,.14-1.52c0-.64.17-1.27.17-1.91a.11.11,0,0,0-.21-.05Z"/><path class="cls-4" d="M94.63,265.19a8,8,0,0,0-.33,1.6,3.14,3.14,0,0,0-.16,1.35.2.2,0,0,0,.33.08,2.32,2.32,0,0,0,.39-1.35,3.54,3.54,0,0,0-.11-1.68.06.06,0,0,0-.12,0Z"/><path class="cls-4" d="M96.33,264.86a15,15,0,0,0-.57,3.4.21.21,0,0,0,.4.05,15.18,15.18,0,0,0,.43-3.42.13.13,0,0,0-.26,0Z"/><path class="cls-4" d="M97.43,265.17a16.12,16.12,0,0,0-.39,1.7,5.71,5.71,0,0,0-.2,1.54c0,.17.27.3.37.1a6,6,0,0,0,.37-1.63,15.37,15.37,0,0,0,.21-1.66c0-.21-.3-.24-.36-.05Z"/><path class="cls-4" d="M83.44,161.9c2.49,14.89,11,31.32,27.45,33.46.52.06.64-.84.13-.92a27.16,27.16,0,0,1-19.1-12.63c-4-6.21-5.47-13.26-8.22-20a.13.13,0,0,0-.26.07Z"/><path class="cls-4" d="M112.76,165.14c-.39,9.21-.79,18.44-1.3,27.65q-.37,6.68-.85,13.34c-.33,4.71-1.09,9.55-1,14.26,0,.24.38.32.43.06.85-4.34.9-9,1.22-13.37q.51-6.9.87-13.81c.49-9.39.75-18.74.69-28.13a0,0,0,1,0,0,0Z"/><path class="cls-4" d="M82.2,162a11.31,11.31,0,0,0,.35,2.45,11.51,11.51,0,0,0,.62,2.39.07.07,0,0,0,.13,0,19.55,19.55,0,0,0-.47-2.25,22,22,0,0,0-.54-2.56,0,0,0,0,0-.09,0Z"/><path class="cls-4" d="M83.62,168.52c1.32,6.87,5.37,13.59,9.61,19s10.78,7.91,17.12,9.8c.16,0,.22-.19.07-.24-6.78-2.29-13-4.41-17.44-10.41a56.27,56.27,0,0,1-9.2-18.23.08.08,0,0,0-.16,0Z"/><path class="cls-4" d="M84.1,162.28a19.73,19.73,0,0,0,1.19,4.35c0,.07.15,0,.15,0a20.18,20.18,0,0,0-1.08-4.38.14.14,0,0,0-.26.07Z"/><path class="cls-4" d="M84.1,162a5.32,5.32,0,0,0,.29,2.33,9.54,9.54,0,0,0,.92,2.54c.07.12.25,0,.22-.1-.16-.87-.48-1.7-.71-2.56a8.34,8.34,0,0,0-.64-2.22,0,0,0,0,0-.08,0Z"/><path class="cls-4" d="M84.45,162.48a10.69,10.69,0,0,0,.6,2.72,15.32,15.32,0,0,0,.87,2.66.11.11,0,0,0,.2-.05,15,15,0,0,0-.65-2.72,11.47,11.47,0,0,0-.92-2.64.05.05,0,0,0-.1,0Z"/><path class="cls-4" d="M84.41,162.19c.57,5.55,2.79,11.49,5.25,16.47,2.3,4.63,5.58,9.18,10,12,.21.13.48-.2.28-.36a34.62,34.62,0,0,1-9.79-11.93c-2.6-5.23-3.44-10.86-5.5-16.23,0-.1-.23-.1-.22,0Z"/><path class="cls-4" d="M54.83,161.52a15.76,15.76,0,0,0,0,4.6.07.07,0,0,0,.14,0,16.11,16.11,0,0,0,0-4.6.07.07,0,0,0-.13,0Z"/><path class="cls-4" d="M55,161.52a18,18,0,0,0,.06,4.34,28.73,28.73,0,0,0,.41,4.35c0,.12.19.08.2,0a31.69,31.69,0,0,0-.14-4.67,17.29,17.29,0,0,0-.46-4,0,0,0,0,0-.07,0Z"/><path class="cls-4" d="M55.54,162a31.27,31.27,0,0,0,0,5.3.08.08,0,0,0,.16,0,31.27,31.27,0,0,0,0-5.3.07.07,0,0,0-.14,0Z"/><path class="cls-4" d="M55.39,161.53a92.79,92.79,0,0,0,.26,9.72c.12,2.89,0,6,.56,8.81,0,.12.19.08.21,0,.36-3.16-.15-6.54-.32-9.71-.16-2.92-.17-5.9-.62-8.8a0,0,0,0,0-.09,0Z"/><path class="cls-4" d="M51.65,152.65c-.25,3-.15,6.06-.1,9l.43,0c0-.21-.06-.42-.1-.63s-.21-.11-.23,0-.06.42-.1.63.44.37.44,0a88.14,88.14,0,0,0-.11-9,.12.12,0,0,0-.23,0Z"/><path class="cls-4" d="M52.13,152.41a63.23,63.23,0,0,0-.09,9.13.21.21,0,0,0,.42,0,63.23,63.23,0,0,0-.1-9.13.12.12,0,0,0-.23,0Z"/><path class="cls-4" d="M72.18,152.61a16.31,16.31,0,0,0-.06,6.07.09.09,0,0,0,.17,0,36.89,36.89,0,0,0,.1-6c0-.12-.19-.16-.21,0Z"/><path class="cls-4" d="M71.82,153.13a48.06,48.06,0,0,0-.08,8.65.21.21,0,0,0,.41,0,48.06,48.06,0,0,0-.08-8.65.13.13,0,0,0-.25,0Z"/><path class="cls-4" d="M72.67,161.31a19.51,19.51,0,0,0,0-4,27.85,27.85,0,0,0-.31-4c0-.05-.08,0-.08,0a27.67,27.67,0,0,0,0,4.27,18,18,0,0,0,.3,3.67,0,0,0,0,0,.06,0Z"/><path class="cls-4" d="M72.12,159.12a2.61,2.61,0,0,0-.15.63,5.61,5.61,0,0,0,0,.71,10.59,10.59,0,0,0,.23,1.37c.07.31.55.18.48-.13a14,14,0,0,1-.25-1.44c0-.41-.14-.75-.21-1.14a.06.06,0,0,0-.12,0Z"/><path class="cls-4" d="M72.38,152.83a9.12,9.12,0,0,0,0,3.68c0,.1.16.07.17,0,.06-1.21.11-2.41.19-3.62a.17.17,0,0,0-.34,0Z"/><path class="cls-4" d="M56.67,162.49c-.11,5.43.32,10.9.53,16.33.19,5-.11,10.53,1,15.41,0,.12.19.08.21,0a52.44,52.44,0,0,0-.28-7.92q-.23-4-.48-7.93c-.33-5.27-.39-10.6-.92-15.86a0,0,0,0,0,0,0Z"/><path class="cls-4" d="M58.4,195.37c-.46,3.93,0,8.11.31,12,.3,3.72.62,7.45,1.13,11.15,0,.25.47.2.45-.06-.32-3.86-.84-7.69-1.15-11.55s-.25-7.75-.66-11.58a0,0,0,1,0-.08,0Z"/><path class="cls-4" d="M60.89,218.6c7.74.34,15.56-.07,23.3-.13l23.3-.2a.15.15,0,0,0,0-.29c-7.77.06-15.53.1-23.3.17s-15.57-.21-23.3.24a.11.11,0,0,0,0,.21Z"/><path class="cls-4" d="M62.53,222.08c.54,6.74,1.59,13.51,2.62,20.19,1.08,7,2.15,14,3.68,20.92,0,.22.36.12.32-.09-1.05-6.85-2.35-13.66-3.4-20.51s-1.88-13.72-3-20.53c0-.11-.2-.08-.19,0Z"/><path class="cls-4" d="M61.62,223c7.55.19,15.13-.09,22.69-.11s15.14,0,22.7-.14a.22.22,0,0,0,0-.44c-7.57,0-15.13.14-22.7.24s-15.14-.05-22.69.27a.09.09,0,1,0,0,.18Z"/><path class="cls-4" d="M63,220.94a3.07,3.07,0,0,0-1.53,2,.15.15,0,0,0,.28.08A4.14,4.14,0,0,1,63,221s0-.1-.06-.08Z"/><path class="cls-4" d="M64.22,220.58a6.85,6.85,0,0,0-1.82,2.63.17.17,0,0,0,.31.13,17.32,17.32,0,0,1,1.63-2.67c0-.07-.06-.15-.12-.09Z"/><path class="cls-4" d="M65.66,221a2.06,2.06,0,0,0-1.46,1.81.07.07,0,0,0,.13,0c.2-.29.34-.62.56-.91a4,4,0,0,1,.85-.75c.09-.06,0-.23-.08-.19Z"/><path class="cls-4" d="M66.8,220.77c-.35.29-.7.59-1,.91s-.65.49-.67.84a.09.09,0,0,0,.1.1c.36,0,.6-.44.83-.68s.61-.69.9-1.06c.07-.08,0-.18-.12-.11Z"/><path class="cls-4" d="M62.23,221c-.25.25-.48.5-.71.76s-.48.46-.53.74a.15.15,0,0,0,.22.17c.27-.11.46-.47.63-.7s.39-.55.57-.83c.07-.11-.09-.23-.18-.14Z"/><path class="cls-4" d="M63.7,221.3c-.09.12-.23.2-.32.33l-.38.57a3.66,3.66,0,0,0-.57,1,.14.14,0,0,0,.23.13,3.59,3.59,0,0,0,.65-1c.1-.18.2-.35.29-.53s.1-.34.18-.51,0-.09-.08,0Z"/><path class="cls-4" d="M68.28,221a6.72,6.72,0,0,0-1.79,1.93c-.09.14.12.32.23.18a17.23,17.23,0,0,1,1.73-1.89c.12-.1,0-.32-.17-.22Z"/><path class="cls-4" d="M70.37,220.48a15.36,15.36,0,0,0-1.31,1.24A5.4,5.4,0,0,0,68,223c0,.07,0,.14.11.11A5.67,5.67,0,0,0,69.33,222a15.13,15.13,0,0,0,1.22-1.31.13.13,0,0,0-.18-.19Z"/><path class="cls-4" d="M72.36,220.51a6.17,6.17,0,0,0-1.57,1.12c-.36.35-.89.8-1,1.33,0,.08.08.11.14.08.47-.21.82-.79,1.19-1.15s.91-.76,1.38-1.13c.15-.12,0-.32-.19-.25Z"/><path class="cls-4" d="M74.07,220.58c-.35.37-.71.73-1,1.11a3.39,3.39,0,0,0-.77,1c0,.08.07.15.15.11a3.71,3.71,0,0,0,.9-1l.9-1.14c.06-.09,0-.21-.13-.13Z"/><path class="cls-4" d="M76,220.25a7,7,0,0,0-1.21,1.1c-.26.31-.75.76-.73,1.19a.1.1,0,0,0,.15.09c.38-.17.64-.76.9-1.07s.68-.75,1-1.11c.09-.1,0-.28-.15-.2Z"/><path class="cls-4" d="M77.93,220.35a8,8,0,0,0-2.26,2.11c0,.07.06.15.12.09A29.37,29.37,0,0,1,78,220.41s0-.08,0-.06Z"/><path class="cls-4" d="M79.34,220.54a3.62,3.62,0,0,0-1.82,2.17c0,.07.07.14.13.07.29-.35.48-.78.78-1.14a7.12,7.12,0,0,1,1-.95c.08-.07,0-.2-.12-.15Z"/><path class="cls-4" d="M80.78,220.57c-.32.31-.64.63-1,1a4,4,0,0,0-.79.95c0,.1,0,.23.17.16a4.23,4.23,0,0,0,.9-.94c.28-.34.54-.68.81-1,.06-.08-.07-.18-.14-.11Z"/><path class="cls-4" d="M82,220.56c-.29.36-.61.72-.9,1.09a2.07,2.07,0,0,0-.57.89c0,.08.09.11.15.08.32-.14.51-.56.7-.85s.49-.75.74-1.13c0-.06-.07-.15-.12-.08Z"/><path class="cls-4" d="M83.42,220.53a5.89,5.89,0,0,0-1.18.87,2.26,2.26,0,0,0-.81,1.1.11.11,0,0,0,.16.12c.38-.18.65-.62.94-.93s.67-.67,1-1c.09-.09,0-.25-.14-.18Z"/><path class="cls-4" d="M84.91,220.57a3.22,3.22,0,0,0-1.24.81c-.26.27-.7.75-.61,1.15a.08.08,0,0,0,.13.05.81.81,0,0,0,.31-.37,4.73,4.73,0,0,1,.43-.57,4.55,4.55,0,0,1,1.09-.81.14.14,0,0,0-.11-.26Z"/><path class="cls-4" d="M86.32,220.56a3.76,3.76,0,0,0-2,2.19.08.08,0,0,0,.13.07,8.15,8.15,0,0,0,1-1.07c.33-.36.69-.67,1-1,.1-.09,0-.24-.14-.18Z"/><path class="cls-4" d="M88.16,220.5l-1.24,1.18a6.61,6.61,0,0,0-1.08,1.1.07.07,0,0,0,.1.09,6.18,6.18,0,0,0,1.13-1l1.22-1.19c.09-.09,0-.23-.13-.14Z"/><path class="cls-4" d="M89.63,220.3c-.36.36-.72.72-1.07,1.09a4.37,4.37,0,0,0-.91,1.06c0,.1.06.23.17.16a4.62,4.62,0,0,0,1-1c.33-.39.65-.78,1-1.18.07-.09,0-.2-.12-.12Z"/><path class="cls-4" d="M91.09,220.75a9,9,0,0,0-1.22,1.08c-.28.31-.74.75-.74,1.18a.09.09,0,0,0,.13.08c.39-.19.64-.74.91-1.06a9.18,9.18,0,0,1,1.07-1.09c.1-.09,0-.27-.15-.19Z"/><path class="cls-4" d="M92.75,220.77a18,18,0,0,0-2.12,2c-.09.12,0,.33.17.22a17.48,17.48,0,0,0,2.1-2c.1-.1-.05-.24-.15-.15Z"/><path class="cls-4" d="M94.2,220.3a8.46,8.46,0,0,0-2,2.43.09.09,0,0,0,.13.11,8.34,8.34,0,0,0,2-2.41c.07-.1-.09-.21-.17-.13Z"/><path class="cls-4" d="M95.7,220.35a4.26,4.26,0,0,0-1.07.69,2.19,2.19,0,0,0-.73,1,.13.13,0,0,0,.22.13c.26-.27.4-.66.66-1a3.66,3.66,0,0,1,1-.78s0-.09,0-.07Z"/><path class="cls-4" d="M97.41,220.35a7.91,7.91,0,0,0-1.14.94,4.3,4.3,0,0,0-1,1.1.16.16,0,0,0,.21.22,4.54,4.54,0,0,0,1.1-1,7.91,7.91,0,0,0,.94-1.14.09.09,0,0,0-.12-.12Z"/><path class="cls-4" d="M99.71,220.28c-.45.36-.87.74-1.29,1.13a4.21,4.21,0,0,0-1.06,1.13c0,.07,0,.18.11.15a3.89,3.89,0,0,0,1.14-1c.43-.42.85-.85,1.25-1.3.09-.1,0-.23-.15-.15Z"/><path class="cls-4" d="M101.93,220.11c-.48.41-1,.8-1.45,1.21a6.69,6.69,0,0,0-1.25,1.18c-.07.12.07.24.19.18a6.22,6.22,0,0,0,1.3-1.11c.46-.43.9-.88,1.35-1.32.1-.09,0-.22-.14-.14Z"/><path class="cls-4" d="M103.27,220.23c-.48.38-.93.78-1.38,1.17a4.61,4.61,0,0,0-1.14,1.15s0,.14.08.11a4.32,4.32,0,0,0,1.22-1c.46-.42.93-.85,1.38-1.31.1-.1-.05-.24-.16-.16Z"/><path class="cls-4" d="M104.26,220.27c-.46.38-.89.79-1.32,1.2s-.81.62-.86,1.06a.11.11,0,0,0,.11.1c.44,0,.77-.54,1.06-.84s.83-.86,1.21-1.32a.14.14,0,0,0-.2-.2Z"/><path class="cls-4" d="M105.28,220.29a14,14,0,0,0-1.2,1.11c-.3.3-.79.64-.85,1.09,0,.08.08.12.15.11.44-.08.77-.64,1.05-1a11.36,11.36,0,0,0,1-1.2c0-.09-.07-.21-.15-.15Z"/><path class="cls-4" d="M106.43,220.29a12.44,12.44,0,0,0-1.25,1.16,10.67,10.67,0,0,0-1.05,1.18c-.16.25.18.46.38.3a11.54,11.54,0,0,0,1.17-1.25,12.82,12.82,0,0,0,1-1.24c.08-.13-.1-.24-.21-.15Z"/><path class="cls-4" d="M107.28,220.41a14.91,14.91,0,0,1-1.13,1.12c-.32.29-.86.59-1,1a.2.2,0,0,0,.2.26c.45,0,.84-.5,1.14-.8a13,13,0,0,0,1.11-1.24c.2-.24-.13-.58-.34-.35Z"/><path class="cls-4" d="M85.35,161.78a12.7,12.7,0,0,0,1.34,5.34c0,.06.11,0,.1,0-.21-.89-.56-1.74-.78-2.63s-.35-1.8-.59-2.68a0,0,0,0,0-.07,0Z"/><path class="cls-4" d="M86.09,161.54a18.89,18.89,0,0,0,1.43,5.06c0,.05.09,0,.07,0-.45-1.69-1-3.34-1.43-5,0-.05-.07,0-.07,0Z"/><path class="cls-4" d="M87,167.5c2.17,10.55,9.29,20.45,19,25.38,0,0,.06,0,0,0a40.78,40.78,0,0,1-18.93-25.34s-.06,0,0,0Z"/><path class="cls-4" d="M89.91,176.21a34.73,34.73,0,0,0,12,14.91s.11-.05.07-.08a43.15,43.15,0,0,1-12.07-14.85s0,0,0,0Z"/><path class="cls-4" d="M89.09,176.27a74.06,74.06,0,0,0,5.76,8.49c1.82,2.31,3.71,4.74,6.38,6.1a0,0,0,1,0,0-.07c-5.23-3.39-8.89-9.37-12.14-14.55,0,0,0,0,0,0Z"/><path class="cls-4" d="M87.47,168.06c2.69,6.27,5.3,14.13,10.79,18.57.07.06.17,0,.1-.1-5.15-5.27-7.66-12-10.87-18.48,0,0,0,0,0,0Z"/><path class="cls-4" d="M87.61,172.32a34.89,34.89,0,0,0,6.82,12.11.06.06,0,0,0,.09-.07A74.93,74.93,0,0,1,87.7,172.3c0-.06-.11,0-.09,0Z"/><path class="cls-4" d="M72.66,153.13a66.8,66.8,0,0,0,0,7.62c0,.09.15.13.17,0,0-.35,0-.31.08-.67a0,0,0,0,0-.09,0c-.23.79-.06-.81-.07-1.09,0-.58,0-1.17-.06-1.75,0-1.37,0-2.74,0-4.11,0,0,0,0,0,0Z"/><path class="cls-4" d="M73,152.39c-.06,1.93,0,3.87.09,5.8,0,.73-.29,2.41.28,3a.05.05,0,0,0,.08,0l.15-.06a0,0,0,0,0,0-.06l0-.13s-.07,0-.07,0c0-1.17-.21-2.74-.25-4,0-1.5-.07-3-.21-4.51a0,0,0,1,0-.07,0Z"/><path class="cls-4" d="M73.63,152.65a53.38,53.38,0,0,0,.46,8.66c0,.06.1,0,.1,0a53.17,53.17,0,0,0-.51-8.64,0,0,0,0,0-.05,0Z"/><path class="cls-4" d="M74.45,152.65a59.5,59.5,0,0,0,.27,8.65c0,.06.09.06.09,0a60.92,60.92,0,0,0-.31-8.65s0,0,0,0Z"/><path class="cls-4" d="M75.52,153.13a77.68,77.68,0,0,0,0,7.93,0,0,0,1,0,.09,0,74.91,74.91,0,0,0,0-7.93,0,0,0,0,0,0,0Z"/><path class="cls-4" d="M113.85,153.38a72.3,72.3,0,0,0-.4,7.92.07.07,0,0,0,.14,0,72.22,72.22,0,0,0,.31-7.92s0,0-.05,0Z"/><path class="cls-4" d="M53.16,153.61a67.68,67.68,0,0,0,.19,7.93.08.08,0,0,0,.15,0,70,70,0,0,0-.26-7.93c0-.05-.08-.05-.08,0Z"/><path class="cls-4" d="M54,152.89a48.55,48.55,0,0,0,.27,8.18c0,.05.07,0,.08,0a48.53,48.53,0,0,0-.27-8.17s-.08-.06-.08,0Z"/><path class="cls-4" d="M54.41,153.91c3.37.19,6.73.45,10.1.63.1,0,.12-.15,0-.17a72.77,72.77,0,0,0-10.12-.64.09.09,0,1,0,0,.18Z"/><path class="cls-4" d="M76,154.63c10.4.36,20.81.41,31.22.6a.13.13,0,0,0,0-.26c-10.41-.19-20.82-.52-31.22-.55a.11.11,0,0,0,0,.21Z"/><path class="cls-4" d="M76.52,160.08c10.09,1.11,20.61.71,30.73.24a.13.13,0,1,0,0-.25c-5.12.22-10.24.36-15.36.34s-10.25-.4-15.37-.4c0,0,0,.07,0,.07Z"/><path class="cls-4" d="M54.18,160.32c-1.13-.52.12-.22.73-.22,1.1,0,2.19-.07,3.29-.06,2.35,0,4.68.22,7,.47.13,0,.17-.22,0-.23A55.31,55.31,0,0,0,53,160c-.13,0-.13.21,0,.21l1.12.17s0,0,0-.05Z"/><path class="cls-4" d="M108.21,162.83c1.67,0,3.37.08,5,0a.09.09,0,0,0,0-.18c-1.67-.09-3.37,0-5,0a.09.09,0,0,0,0,.18Z"/><path class="cls-4" d="M66.4,162.18c1-.06,2-.25,3-.3s2,0,3,0c.07,0,.1-.11,0-.13a12.79,12.79,0,0,0-6,.38,0,0,0,0,0,0,.06Z"/><path class="cls-4" d="M67.86,162c-.14.07-.25.06-.38.16a1.71,1.71,0,0,0-.35.36,1.31,1.31,0,0,0-.34.93.08.08,0,0,0,.14,0,1.93,1.93,0,0,0,.15-.4,1.61,1.61,0,0,1,.26-.46c.1-.13.21-.23.32-.35s.12-.17.22-.23,0,0,0,0Z"/><path class="cls-4" d="M69.06,161.78A6.88,6.88,0,0,0,68,162.83a3.08,3.08,0,0,0-.69,1.06.05.05,0,0,0,.09,0,8.87,8.87,0,0,0,.82-1.09,12.94,12.94,0,0,1,.93-1s0-.07,0,0Z"/><path class="cls-4" d="M108.2,161.82a11.2,11.2,0,0,0,4.35-.24c.08,0,.06-.16,0-.15-1.45.12-2.88.2-4.32.3,0,0-.07.08,0,.09Z"/><path class="cls-4" d="M109.86,161.74a3.92,3.92,0,0,0-1.3,2.16.1.1,0,1,0,.2.06,7.19,7.19,0,0,1,1.17-2.14.05.05,0,0,0-.07-.08Z"/><path class="cls-4" d="M110.85,161.79c-.81.36-1.88,1.4-1.68,2.39a.07.07,0,0,0,.13,0,11.74,11.74,0,0,1,.5-1.23,3,3,0,0,1,1.12-1.06c.08,0,0-.15-.07-.12Z"/><path class="cls-4" d="M112,161.5a8.15,8.15,0,0,0-1.26,1.3,3.51,3.51,0,0,0-.76,1.32.05.05,0,0,0,.09,0,11.7,11.7,0,0,0,.93-1.26,12.45,12.45,0,0,1,1.15-1.26c.11-.09,0-.24-.15-.15Z"/><path class="cls-4" d="M112.92,161.69c-.37.35-.71.73-1,1.11a5.28,5.28,0,0,0-.88,1.07.08.08,0,0,0,.11.11,6,6,0,0,0,1-1.07c.32-.37.64-.74.94-1.13,0-.07-.06-.15-.12-.09Z"/><path class="cls-4" d="M113.43,162.19l-.79.87a4.38,4.38,0,0,0-.66.83c0,.05,0,.13.09.09a10.28,10.28,0,0,0,1.48-1.67c.07-.08,0-.2-.12-.12Z"/><path class="cls-4" d="M108.43,161.59a10.14,10.14,0,0,0,4.37.42c.07,0,.08-.14,0-.15-1.43-.23-2.87-.21-4.31-.48-.14,0-.2.18-.06.21Z"/><path class="cls-4" d="M87.14,162.25a30.25,30.25,0,0,0,3,9c0,.1.19,0,.15-.09a36.79,36.79,0,0,1-3.07-8.88s0,0,0,0Z"/><path class="cls-4" d="M88.54,161.77A31.11,31.11,0,0,0,91,169.53c0,.06.14,0,.11-.05a67.11,67.11,0,0,1-2.56-7.72s0,0,0,0Z"/><path class="cls-4" d="M57.63,161.05c.09,3.78.09,7.51,0,11.29,0,.09.13.09.14,0a56.79,56.79,0,0,0,0-11.29.06.06,0,1,0-.12,0Z"/><path class="cls-4" d="M59,161.78a72.14,72.14,0,0,0-.07,7.92.09.09,0,1,0,.17,0,74.71,74.71,0,0,0-.07-7.92,0,0,0,1,0,0,0Z"/><path class="cls-4" d="M109.23,207.66c-.34,3.27-.62,6.55-.9,9.84,0,.12.18.12.19,0,.26-3.28.53-6.56.74-9.84,0,0,0,0,0,0Z"/><path class="cls-4" d="M110,198.26a50,50,0,0,0-.57,7.72c0,.08.14.11.15,0a49.85,49.85,0,0,0,.55-7.72c0-.07-.12-.09-.13,0Z"/><path class="cls-4" d="M101.66,188.68a21.77,21.77,0,0,0,4.15,3.32c1.28.81,2.75,1.82,4.32,1.77a0,0,0,0,0,0-.09c-3.16-.36-6.09-3.09-8.44-5a0,0,0,0,0,0,0Z"/><path class="cls-4" d="M103.63,188.93a19.24,19.24,0,0,0,6.45,4,.08.08,0,0,0,.06-.15,24.84,24.84,0,0,1-6.46-3.88s-.09,0-.05.05Z"/><path class="cls-4" d="M104.86,187.69a51.57,51.57,0,0,0,5.89,4c.09.06.16-.08.08-.14-2-1.35-4-2.62-5.93-4,0,0-.07,0,0,.06Z"/><path class="cls-4" d="M106.25,187.29a28.77,28.77,0,0,0,3.83,2.66c.06,0,.12,0,.07-.08a29.91,29.91,0,0,0-3.86-2.64,0,0,0,0,0,0,.06Z"/><path class="cls-4" d="M107.22,186.58a11.12,11.12,0,0,1,1.47,1c.42.35.78.76,1.17,1.14a.06.06,0,0,0,.09-.07,6.14,6.14,0,0,0-2.68-2.15.05.05,0,1,0,0,.09Z"/><path class="cls-4" d="M59.78,197.08a101.29,101.29,0,0,0,1.71,19.73c0,.11.21.08.19,0-.78-6.57-1.25-13.12-1.86-19.7a0,0,0,1,0,0,0Z"/><path class="cls-4" d="M61.46,203.8a71.5,71.5,0,0,0,.7,12.74.05.05,0,0,0,.1,0,70.42,70.42,0,0,0-.79-12.73Z"/><path class="cls-4" d="M69.78,263.41c4.66.11,9.35-.12,14-.21,5-.1,10.08.05,15-.38a.1.1,0,1,0,0-.19c-5-.21-10.06.16-15,.29-4.66.11-9.36.09-14,.41a0,0,0,0,0,0,.08Z"/><path class="cls-4" d="M105.42,223.75c-.54,3.28-1.3,6.55-1.8,9.83,0,.06.06.08.08,0a46.2,46.2,0,0,0,1.85-9.84c0-.07-.12-.08-.13,0Z"/><path class="cls-4" d="M102.93,237.91a1,1,0,0,0,0-.24h0a1.85,1.85,0,0,0,0,.24Z"/><path class="cls-4" d="M103.6,235.5c-.84,4.35-1.31,8.79-1.91,13.18-.55,4.09-1.26,8.2-1.62,12.31,0,.14.23.18.25,0,.74-4.06,1.15-8.21,1.69-12.3.58-4.39,1.3-8.8,1.65-13.21a0,0,0,0,0-.06,0Z"/><path class="cls-4" d="M65.36,152.89a66.7,66.7,0,0,0,0,7.21.06.06,0,1,0,.12,0c.17-2.38.11-4.83,0-7.21a.1.1,0,0,0-.2,0Z"/><path class="cls-4" d="M64.73,152.89c.1,2.71.24,5.46.45,8.17a0,0,0,0,0,.08,0,25.29,25.29,0,0,0-.48-8.18s0,0,0,0Z"/><path class="cls-4" d="M64.23,153.37a37.1,37.1,0,0,0,0,7.45c0,.06.09.06.1,0a38.63,38.63,0,0,0,0-7.45s-.06,0-.06,0Z"/><path class="cls-4" d="M63,154.33a45.12,45.12,0,0,0,.6,7c0,.06.09,0,.09,0a42.84,42.84,0,0,0-.57-7,.06.06,0,0,0-.12,0Z"/><path class="cls-4" d="M72.59,153.37a24.41,24.41,0,0,0,.43,7.72.09.09,0,0,0,.18,0c-.1-2.56-.38-5.11-.45-7.69a.08.08,0,1,0-.16,0Z"/><path class="cls-4" d="M73.19,153.61a33.42,33.42,0,0,0,0,7.21.09.09,0,0,0,.18,0,33.42,33.42,0,0,0-.08-7.21.06.06,0,0,0-.11,0Z"/><path class="cls-4" d="M107.28,153.13c-.21,2.54-.06,5.14,0,7.69a.08.08,0,0,0,.16,0c0-2.55.18-5.15,0-7.69,0-.06-.09-.06-.1,0Z"/><path class="cls-4" d="M106.21,153.37a45.82,45.82,0,0,0,.3,7.22s.07,0,.08,0a45.77,45.77,0,0,0-.34-7.21s0,0,0,0Z"/><path class="cls-4" d="M105.07,153.13a42.3,42.3,0,0,0,.45,7.46c0,.06.09,0,.1,0a42.26,42.26,0,0,0-.47-7.45s-.08-.06-.08,0Z"/><path class="cls-4" d="M103.49,153.38a67.89,67.89,0,0,0,.57,7.93,0,0,0,0,0,.07,0,67.69,67.69,0,0,0-.55-7.92,0,0,0,1,0-.09,0Z"/><path class="cls-4" d="M76.62,153.35a19.07,19.07,0,0,0,.11,7.71,0,0,0,0,0,.09,0c-.12-2.59-.15-5.1-.13-7.69a0,0,0,0,0-.07,0Z"/><path class="cls-4" d="M78.16,152.89a51,51,0,0,0,0,7.21c0,.05.07.05.08,0a51,51,0,0,0,0-7.21s0,0,0,0Z"/><path class="cls-4" d="M79.86,152.89a72.33,72.33,0,0,0-.32,7.92c0,.05.07.05.08,0a77.34,77.34,0,0,0,.34-7.92.05.05,0,0,0-.1,0Z"/><path class="cls-4" d="M101.64,153.37a52.4,52.4,0,0,0,.22,7.2,0,0,0,0,0,0,0,54.13,54.13,0,0,0-.21-7.2s-.06,0-.06,0Z"/><path class="cls-4" d="M106.9,153.61a35.27,35.27,0,0,0-.3,6.24c0,.11.18.16.21,0a35.48,35.48,0,0,0,.32-6.27c0-.15-.21-.14-.23,0Z"/><path class="cls-4" d="M107.48,153.84a38.16,38.16,0,0,1-.41,5.75c0,.09.13.09.16,0a11.73,11.73,0,0,0,.43-5.79.09.09,0,0,0-.18,0Z"/><path class="cls-4" d="M106.2,153.13c-.1,2.39-.31,4.82-.3,7.2,0,.11.18.14.2,0a29.67,29.67,0,0,0,.29-7.23.1.1,0,0,0-.19,0Z"/><path class="cls-4" d="M113.42,153.61a56.49,56.49,0,0,1-.22,6.24,0,0,0,0,0,.07,0,24.67,24.67,0,0,0,.26-6.25.06.06,0,0,0-.11,0Z"/><path class="cls-4" d="M112.07,151.44c.16,2.72.22,5.46.42,8.18,0,0,.08,0,.09,0a32.18,32.18,0,0,0-.35-8.2c0-.09-.16-.07-.16,0Z"/><path class="cls-4" d="M92.62,171.14a20.18,20.18,0,0,0,2.28,5.59,0,0,0,0,0,.06,0c-.75-1.87-1.69-3.64-2.31-5.57,0,0,0,0,0,0Z"/><path class="cls-4" d="M96.24,179.28a12.21,12.21,0,0,0,1.6,2c.07.08.18,0,.11-.12a12.22,12.22,0,0,0-1.69-1.9s0,0,0,0Z"/><path class="cls-4" d="M58.91,162c-.12,2.66.09,5.5.24,8.16a.06.06,0,1,0,.11,0A24.63,24.63,0,0,0,59,162s-.06,0-.07,0Z"/><path class="cls-4" d="M59.18,163.46a154.92,154.92,0,0,0,.52,17.77.13.13,0,0,0,.26,0c.31-5.84-.25-11.94-.62-17.77,0-.1-.16-.1-.16,0Z"/><path class="cls-4" d="M59.79,182.2a4.66,4.66,0,0,1-3.51,4.87c-.19.05-.16.39,0,.37A4.48,4.48,0,0,0,60,182.18a.09.09,0,0,0-.18,0Z"/><path class="cls-4" d="M60.25,181.4a5.06,5.06,0,0,1-3.54,5.73c-.16,0-.19.33,0,.35,1.9.29,4-1.36,3.51-3.38a.1.1,0,0,0-.19,0,2.9,2.9,0,0,1-3.22,3v.35c2.51-.65,4.5-3.51,3.5-6.08,0,0-.07,0-.06,0Z"/><path class="cls-4" d="M59.58,162a43.36,43.36,0,0,0,.06,4.56.06.06,0,0,0,.11,0,40.81,40.81,0,0,0,0-4.56.11.11,0,1,0-.22,0Z"/><path class="cls-4" d="M59.21,162.26c-.15,2.9.22,5.85.29,8.76s-.08,5.86.06,8.77a.11.11,0,0,0,.22,0,72.89,72.89,0,0,0,.06-9.23,49.06,49.06,0,0,0-.58-8.31s0,0,0,0Z"/><path class="cls-4" d="M59,168c.32,2.8.53,5.68,1.12,8.44,0,.06.11,0,.1,0-.13-2.81-.66-5.66-1.06-8.44,0-.09-.17-.07-.16,0Z"/><path class="cls-4" d="M59.39,166.58c.1,2.95.12,6,.5,8.89,0,.06.1.07.1,0,0-2.95-.3-5.95-.56-8.89,0,0,0,0,0,0Z"/><path class="cls-4" d="M59.5,161.61c.39.31.06,2.16,0,2.6-.06.95-.2,1.89-.21,2.84a.08.08,0,0,0,.15,0,18.83,18.83,0,0,0,.34-3.52c0-.62.27-1.7-.21-2.18a.08.08,0,0,0-.08,0c-.14.07-.12,0-.14.21,0,0,0,0,0,0l.07.06s0,0,0,0Z"/><path class="cls-4" d="M59.12,161.54a41.29,41.29,0,0,0,.31,7.2c0,.1.16.11.16,0a41.44,41.44,0,0,0-.32-7.22c0-.09-.15-.06-.15,0Z"/><path class="cls-4" d="M59.85,161.3a81.21,81.21,0,0,0,.3,8.4.06.06,0,1,0,.12,0c0-2.79-.11-5.62-.35-8.4a0,0,0,1,0-.07,0Z"/><path class="cls-4" d="M59.64,164.18a70.22,70.22,0,0,0,.52,15.87c0,.14.25.11.24,0-.23-5.29-.51-10.54-.63-15.84a.07.07,0,1,0-.13,0Z"/><path class="cls-4" d="M60.11,167.54c-.22,3.82-.12,7.7-.06,11.53a.13.13,0,0,0,.25,0c.06-3.83.16-7.71-.06-11.53a.07.07,0,0,0-.13,0Z"/><path class="cls-4" d="M60.11,174.27c.07,2.25.22,4.47.16,6.72,0,.18.27.18.28,0a28,28,0,0,0-.4-6.72s0,0,0,0Z"/><path class="cls-4" d="M186.52,56.53c-7,1.11-11,7.91-14,13.66a119.49,119.49,0,0,0-9.56,24.24c-1.17,4.28-2.24,8.58-3.65,12.79s-3.34,8-5,12c-3.41,8.3-2.34,17.56-1.48,26.3a.28.28,0,0,0,.56,0c-.05-8.68-1.82-17.28,1.49-25.59,1.4-3.53,3.17-6.89,4.48-10.45,1.4-3.81,2.46-7.74,3.51-11.66a131.32,131.32,0,0,1,8.34-23.31c3.54-7.35,7.09-15.08,15.38-17.84a.09.09,0,0,0,0-.18Z"/><path class="cls-4" d="M151.75,145.4a112.72,112.72,0,0,0,15.16,3.67c.42.09.6-.56.18-.64-5.09-1-10.15-2.42-15.26-3.3a.14.14,0,0,0-.08.27Z"/><path class="cls-4" d="M151.75,145.5c-.45.36-.47,1.2-.55,1.73a2.66,2.66,0,0,0,0,1.65.11.11,0,0,0,.18,0c.32-.44.22-1.16.3-1.68s.37-1.18.18-1.67a.06.06,0,0,0-.1,0Z"/><path class="cls-4" d="M167,148.58c-.22,1.24-.35,2.47-.67,3.69a.22.22,0,0,0,.42.12,7.79,7.79,0,0,0,.56-3.81c0-.16-.29-.15-.31,0Z"/><path class="cls-4" d="M151.26,149.39a58.28,58.28,0,0,0,15.3,3.7c.29,0,.34-.43.07-.5-5-1.31-10.19-2.51-15.26-3.63a.22.22,0,0,0-.11.43Z"/><path class="cls-4" d="M156.29,146.54a6.32,6.32,0,0,0-.42,1.84,12.37,12.37,0,0,0-.25,1.9.14.14,0,0,0,.28,0,15.06,15.06,0,0,0,.38-2.13,5,5,0,0,0,.13-1.63.07.07,0,0,0-.12,0Z"/><path class="cls-4" d="M164.37,148a16.85,16.85,0,0,0-.61,2.32,4.34,4.34,0,0,0-.18,1.85c0,.06.12.08.15,0a7.34,7.34,0,0,0,.38-1.93c.14-.74.31-1.47.48-2.2a.11.11,0,1,0-.22-.06Z"/><path class="cls-4" d="M157.26,146.71a8.08,8.08,0,0,0-.93.92,5.29,5.29,0,0,0-.77.93c-.06.12.07.28.2.19a5.42,5.42,0,0,0,.87-.92,8.41,8.41,0,0,0,.77-1c.06-.09-.07-.17-.14-.11Z"/><path class="cls-4" d="M158.07,147.27a8.77,8.77,0,0,0-2.32,2.1c-.11.15.13.32.25.2l2.17-2.16c.07-.07,0-.19-.1-.14Z"/><path class="cls-4" d="M159.36,147.55a7.1,7.1,0,0,0-1.88,1.37,4.52,4.52,0,0,0-1.29,1.73c0,.07.07.16.14.11a17.73,17.73,0,0,0,1.4-1.58,22.25,22.25,0,0,1,1.72-1.5c.08-.06,0-.16-.09-.13Z"/><path class="cls-4" d="M161.15,147.87a8.5,8.5,0,0,0-2.07,1.38,12.69,12.69,0,0,0-2,1.62.2.2,0,0,0,.24.32,12.21,12.21,0,0,0,2-1.53,8.42,8.42,0,0,0,1.83-1.69.07.07,0,0,0-.08-.1Z"/><path class="cls-4" d="M162.53,148a11.78,11.78,0,0,0-1.82,1.33,6.77,6.77,0,0,0-1.66,1.49.17.17,0,0,0,.19.25,6.23,6.23,0,0,0,1.65-1.2,13.48,13.48,0,0,0,1.81-1.65.14.14,0,0,0-.17-.22Z"/><path class="cls-4" d="M163.87,148.13a18,18,0,0,0-3.42,2.86c-.21.23.06.62.34.44l.32-.18c.09-.06.09-.24,0-.26l-.35-.08c0,.18.05.35.07.52a18.13,18.13,0,0,0,3.27-3c.12-.14,0-.37-.19-.26Z"/><path class="cls-4" d="M164.43,148.33a13,13,0,0,0-2.45,2.83l.35.1c0,.06,0-.12,0-.14a.12.12,0,0,0-.17-.13.62.62,0,0,0-.22.17c-.09.13.06.34.21.28.38-.15.63-.61.88-.92a22,22,0,0,0,1.56-2c.08-.12-.1-.25-.2-.15Z"/><path class="cls-4" d="M164,149.36a16.48,16.48,0,0,0-1.11,2.07c-.1.23.28.38.4.17a15.1,15.1,0,0,0,.94-2.14c.06-.14-.15-.22-.23-.1Z"/><path class="cls-4" d="M191,48.66c-1.36,2.55-3.2,4.68-4.69,7.14-1.68,2.76-3.11,5.47-5,8.12-.15.21.17.44.35.27,2.44-2.26,3.57-5.25,5.16-8.1,1.38-2.48,3.65-4.55,4.29-7.38a.06.06,0,0,0-.11-.05Z"/><path class="cls-4" d="M181.4,64.47c13.94,5.18,29.5,10.13,34.73,25.72.16.48.91.28.76-.21-4.52-15.27-21.49-21.93-35.44-25.69a.09.09,0,0,0,0,.18Z"/><path class="cls-4" d="M216.18,89.57a12.47,12.47,0,0,1,.51,1.45c.14.49.18,1,.34,1.5a.08.08,0,0,0,.15,0,4.92,4.92,0,0,0-.88-3c0-.06-.15,0-.12,0Z"/><path class="cls-4" d="M216,89.64a11.28,11.28,0,0,0,.86,3.13c.08.18.3,0,.28-.12a11.32,11.32,0,0,0-1-3,.07.07,0,0,0-.13,0Z"/><path class="cls-4" d="M216.5,89.2a15.44,15.44,0,0,0,.24,1.68,6.93,6.93,0,0,0,.42,1.64.09.09,0,0,0,.17,0,6.3,6.3,0,0,0-.27-1.55,14.41,14.41,0,0,0-.48-1.74s-.09,0-.08,0Z"/><path class="cls-4" d="M220.44,87.76c-3,1.95-5.8,7.1-5.5,10.69a.14.14,0,0,0,.27,0c.71-2,.9-4.1,1.91-6.07a41,41,0,0,1,3.33-4.65Z"/><path class="cls-4" d="M219.15,88.93c-1.88,1.79-3.86,4.8-4,7.46a.1.1,0,0,0,.18,0c.65-1.24,1-2.61,1.66-3.85a27.39,27.39,0,0,1,2.36-3.49c.1-.13-.11-.27-.22-.17Z"/><path class="cls-4" d="M214.66,97.73c4.07-6.45,7.75-13.14,11.79-19.61,2.25-3.58,4.65-5.25,8.53-6.69a21.53,21.53,0,0,0,6.44-3.14c.08-.07,0-.19-.11-.14-5,2.77-11.06,3.27-14.53,8.27a183.27,183.27,0,0,0-12.41,21.14.17.17,0,0,0,.29.17Z"/><path class="cls-4" d="M252.5,59.37a44.72,44.72,0,0,1-12.6,9.55.1.1,0,0,0,.08.18,25.45,25.45,0,0,0,12.61-9.66c0-.06-.05-.12-.09-.07Z"/><path class="cls-4" d="M215.16,96.24c-.43.42-1,1.1-.71,1.73,0,.06.12,0,.15,0a3.74,3.74,0,0,0,.29-.72,3.06,3.06,0,0,1,.47-.8c.12-.14-.06-.34-.2-.21Z"/><path class="cls-4" d="M214.85,97.56a.56.56,0,0,0-.33.64c0,.16.26.27.34.09.19-.46.38-.91.56-1.37l-.28-.08c-.16.47-.31.93-.45,1.41l.42.11a30.59,30.59,0,0,1,1.65-4.65c.05-.12-.13-.17-.19-.08a11.7,11.7,0,0,0-1.88,4.62c-.06.27.36.39.42.11.12-.48.22-1,.31-1.44,0-.15-.19-.27-.26-.12-.22.44-.42.87-.62,1.31l.33,0,.06-.5c0-.06,0-.13-.08-.09Z"/><path class="cls-4" d="M215.53,98.71a50.53,50.53,0,0,1,20.74-21.25c7.22-3.88,15.91-6.09,20.75-13.22.28-.41-.38-.78-.66-.39-5.72,7.92-15.88,9.94-23.69,15.06A49.77,49.77,0,0,0,215.34,98.6c-.06.13.12.24.19.11Z"/><path class="cls-4" d="M191.14,48.89c4.91-5.2,10.83-7.72,17.92-8.47,6.82-.72,14.7-1.1,21.39.63,6.39,1.66,11.75,5.92,16.76,10A22.74,22.74,0,0,1,253,58c1,1.81,1.87,3.44,3.82,4.32.3.14.57-.3.26-.45-3-1.47-3.73-5-5.69-7.47s-4.79-4.52-7.33-6.51c-5.08-4-10.33-7.22-16.82-8.12a67.6,67.6,0,0,0-21.66.66c-5.44,1.09-11.39,3.61-14.56,8.42,0,.05,0,.11.09.06Z"/><path class="cls-4" d="M257.12,62.56c-.33.4-.62.82-.95,1.21a7.07,7.07,0,0,0-.89,1.09.11.11,0,0,0,.14.15,3.75,3.75,0,0,0,1.06-1,7.37,7.37,0,0,0,.85-1.24c.07-.13-.11-.29-.21-.17Z"/><path class="cls-4" d="M257.18,62.84a4.5,4.5,0,0,1-.74,1.13c-.28.28-.71.46-.91.79a.13.13,0,0,0,.11.2c.45,0,.92-.46,1.17-.78a2.47,2.47,0,0,0,.54-1.29.09.09,0,0,0-.17,0Z"/><path class="cls-4" d="M257.41,62.84a4.16,4.16,0,0,0-1.05,1.24c0,.08,0,.2.13.14a4.23,4.23,0,0,0,1-1.29c.05-.07-.06-.15-.12-.09Z"/><path class="cls-4" d="M181.16,64.12l-.4.18a.14.14,0,0,0-.08.13c0,.15,0,.29,0,.44a.2.2,0,0,0,.14.18c3.93,1.63,7.91,3.14,11.84,4.8s6.16,3.91,8.68,7.09a43,43,0,0,0,7.15,7.12c3,2.34,6.88,4.25,8,8.11.1.38.62.21.57-.15-.46-3-3-4.68-5.24-6.34a50.72,50.72,0,0,1-10-9.2c-2.35-2.93-4.51-5.27-8-6.78-1.69-.72-3.42-1.35-5.13-2-.5-.2-7.82-3.1-7.46-3.47a.07.07,0,0,0-.08-.1Z"/><path class="cls-4" d="M190.58,56c3.49-4,6.3-8.2,11.56-10.1a46.65,46.65,0,0,1,15.74-2.31,56.14,56.14,0,0,1,16,2.35,20.91,20.91,0,0,1,8.39,4.67c1.92,1.69,3.81,3.41,5.75,5.09.25.21.62-.14.37-.38-4.1-3.79-7.86-7.9-13.26-9.67a55.43,55.43,0,0,0-17.79-2.74c-5.24,0-11,.61-15.86,2.75s-8.27,6-11,10.27a.06.06,0,0,0,.1.07Z"/><path class="cls-4" d="M190.28,57.19a20.87,20.87,0,0,0-3.37,6c-.07.22.29.38.38.16a36.89,36.89,0,0,1,3.25-6c.1-.16-.14-.35-.26-.21Z"/><path class="cls-4" d="M191.44,57.33c-1.82,1.72-2.77,3.91-3.83,6.1,0,.09.09.17.14.08a32.24,32.24,0,0,1,3.84-6,.11.11,0,1,0-.15-.15Z"/><path class="cls-4" d="M192.23,57.91a25.56,25.56,0,0,0-2.16,2.81,10.77,10.77,0,0,0-1.64,3.15c0,.11.13.23.21.12a25,25,0,0,0,1.67-2.89C191,60,191.63,59,192.37,58c.06-.08-.07-.18-.14-.1Z"/><path class="cls-4" d="M248.78,56.93c.36.53.74,1,1.11,1.57a13.49,13.49,0,0,0,1,1.47.18.18,0,0,0,.3-.17,5.76,5.76,0,0,0-1-1.61A8.76,8.76,0,0,0,249,56.78c-.1-.09-.27,0-.19.15Z"/><path class="cls-4" d="M246.89,58.5c-1.91,2-3.61,4.29-5.4,6.45-1.65,2-3.05,3.88-5.47,4.92-.09,0,0,.19,0,.18,2.2-.09,3.65-2.3,4.89-3.85,2-2.53,4.17-5,6-7.61a.07.07,0,0,0-.11-.09Z"/><path class="cls-4" d="M247.17,59.59c-2.52,2.55-4.78,5.39-7.1,8.11-.17.2.12.49.29.29,2.33-2.74,4.79-5.42,6.91-8.32a.06.06,0,0,0-.1-.08Z"/><path class="cls-4" d="M247.79,60.41c-1.1,1.37-2.24,2.71-3.45,4A37.35,37.35,0,0,0,241,67.86c-.07.1.07.22.16.16a16.37,16.37,0,0,0,3.65-3.5,41.26,41.26,0,0,0,3.09-4c.05-.07-.07-.16-.12-.09Z"/><path class="cls-4" d="M240,67.39c-1,.66-2,1.42-3,2.11a15.53,15.53,0,0,0-2.71,1.87.12.12,0,0,0,.12.2,9.43,9.43,0,0,0,3-1.77,16.07,16.07,0,0,0,2.63-2.31.06.06,0,0,0-.08-.1Z"/><path class="cls-4" d="M190.56,63.81a69.14,69.14,0,0,0,9.81,5.87c3.24,1.42,6.4,2.3,8.8,5,.05.06.15,0,.11-.08-1.57-2.35-4.14-3.37-6.67-4.39-4.29-1.72-8.05-4.18-12-6.52,0,0-.08,0,0,.07Z"/><path class="cls-4" d="M210.55,75.44c1.3,1.71,2.63,3.42,3.76,5.26s2,3.85,3,5.73a.1.1,0,0,0,.19-.08,27.13,27.13,0,0,0-6.88-11,.07.07,0,0,0-.1.09Z"/><path class="cls-4" d="M212.93,77.59a30.34,30.34,0,0,1,2.66,3.82c.71,1.19,1.14,2.6,1.94,3.72.06.07.21.06.2-.06-.29-2.8-2.75-5.69-4.68-7.59a.08.08,0,1,0-.12.11Z"/><path class="cls-4" d="M214,79.6a19.27,19.27,0,0,1,2.28,3.31c.57,1.06.87,2.29,1.52,3.29a.11.11,0,0,0,.2-.06c-.11-2.43-2.26-5-3.89-6.65a.08.08,0,0,0-.11.11Z"/><path class="cls-4" d="M218.07,86.36a6.55,6.55,0,0,0,.29.85,2,2,0,0,0,.33.66.14.14,0,0,0,.24-.1,2.26,2.26,0,0,0-.25-.7,5.43,5.43,0,0,0-.4-.8.12.12,0,0,0-.21.09Z"/><path class="cls-4" d="M255.29,65.86C260,71.08,264,76.44,266.55,83s3.31,13.91,5,20.76,3.63,13.72,5.74,20.47c1,3.23,2.55,6.32,3.27,9.63.9,4.12.41,8.35.1,12.5,0,.43.61.42.66,0a43.19,43.19,0,0,0,.14-11.47c-.53-3.44-2.09-6.55-3.16-9.83-2.43-7.42-4.46-15-6.35-22.62-1.75-7-2.57-14.38-5.39-21.06a44.66,44.66,0,0,0-11.12-15.73c-.13-.12-.31.06-.19.18Z"/><path class="cls-4" d="M187.79,76.48c.55,7.24-2.25,13.47-5.22,19.9a124.21,124.21,0,0,0-7.08,17.72c-1.71,5.94-2.62,12.08-4.31,18-1.56,5.48-5.22,10.69-5.53,16.44,0,.37.56.37.58,0,.27-3.64,2.08-6.73,3.48-10a56.46,56.46,0,0,0,2.76-8.33c1.59-6.2,2.57-12.56,4.58-18.66,2.16-6.53,5.29-12.63,8-18.93,2.19-5.1,4-10.6,2.82-16.17a0,0,0,0,0-.07,0Z"/><path class="cls-4" d="M187.9,70.28a60.06,60.06,0,0,0,.2,13.2c0,.16.27.12.27,0,.07-4.36-.13-8.79-.23-13.16,0-.15-.22-.15-.24,0Z"/><path class="cls-4" d="M187.65,80.29c.14,6,.6,12,.53,18-.07,6.24-.42,12.47-.82,18.69-.78,12.26-1.94,24.54-1.74,36.83a.37.37,0,0,0,.74,0c.12-12.51,1.08-24.95,1.84-37.43.71-11.83,1.68-24.42-.41-36.15a.07.07,0,0,0-.14,0Z"/><path class="cls-4" d="M248.2,71.84c-2.1,11.73-1.13,24.32-.41,36.15.75,12.48,1.71,24.92,1.83,37.43a.37.37,0,0,0,.74,0c.21-12.29-1-24.57-1.74-36.83-.38-6-.72-12-.81-18.09-.09-6.23.38-12.41.52-18.64,0-.08-.12-.1-.13,0Z"/><path class="cls-4" d="M185.39,153.89c1.47,3.3,5.32,3.5,8.49,3.76,6.52.53,13.06.83,19.6,1s13.07.22,19.61.12c4.28-.07,9.68.58,13.15-2.45.22-.2-.07-.56-.32-.41-4.42,2.67-10.31,2-15.28,2s-10.22,0-15.33-.06-10.21-.29-15.31-.56c-4.17-.21-11.95.74-14.37-3.58-.09-.16-.31,0-.24.14Z"/><path class="cls-4" d="M247.81,153.77a23.45,23.45,0,0,1-1.48,1.93c-.52.56-1.16,1-1.69,1.51-.07.08,0,.22.11.18a5.51,5.51,0,0,0,3.2-3.56.08.08,0,0,0-.14-.06Z"/><path class="cls-4" d="M249.92,146.55c-.33,4.69-.94,8.23-5.7,10.09-.18.08-.17.37.05.36,4.93,0,6.53-6.64,5.88-10.48,0-.14-.23-.1-.23,0Z"/><path class="cls-4" d="M216,97.6a10.22,10.22,0,0,0-.58,2.08.07.07,0,0,0,.12,0,9.66,9.66,0,0,0,.64-2.06.09.09,0,1,0-.18-.05Z"/><path class="cls-4" d="M216.48,96.76a3.34,3.34,0,0,0-.85,2.75c0,.06.14.08.15,0,.07-.42,0-.83.15-1.25a3.62,3.62,0,0,1,.69-1.37c.07-.09-.06-.23-.14-.13Z"/><path class="cls-4" d="M218.2,94.15a14.41,14.41,0,0,0-1.75,3.14,6.14,6.14,0,0,0-.74,2.78.11.11,0,0,0,.19.06,12.8,12.8,0,0,0,1-2.65c.43-1.11,1-2.14,1.49-3.21a.11.11,0,0,0-.19-.12Z"/><path class="cls-4" d="M219.2,93.52a14.79,14.79,0,0,0-2.81,5.92c0,.07.08.12.12,0,.52-.95.87-2,1.32-3s1-1.93,1.53-2.89a.09.09,0,1,0-.16-.1Z"/><path class="cls-4" d="M219.53,94.29A15.91,15.91,0,0,0,218,96.94a7.21,7.21,0,0,0-.81,2.32c0,.11.15.13.2,0a18.3,18.3,0,0,0,1.07-2.49c.38-.83.81-1.63,1.24-2.44a.09.09,0,1,0-.16-.09Z"/><path class="cls-4" d="M221.74,89.69a16.68,16.68,0,0,0-2.59,3.69,9.87,9.87,0,0,0-1.43,3.81c0,.15.2.18.28.07a31.24,31.24,0,0,0,1.83-3.77c.66-1.25,1.43-2.41,2.14-3.63a.15.15,0,0,0-.23-.17Z"/><path class="cls-4" d="M221.45,90a14.6,14.6,0,0,0-4.5,8c0,.16.2.29.29.12.74-1.33,1.28-2.75,2-4.08s1.67-2.53,2.47-3.82c.11-.18-.13-.35-.28-.22Z"/><path class="cls-4" d="M217.29,96.77c-2.22,3.68-2.47,7.83-2.24,12,.28,5.18.89,10.34,1.17,15.52a267.84,267.84,0,0,1-.22,32.92c0,.25.37.25.38,0a293.37,293.37,0,0,0,.47-30.53c-.2-4.93-.58-9.85-1-14.77-.46-5.18-.68-10.26,1.66-15.06a.12.12,0,0,0-.21-.12Z"/><path class="cls-4" d="M214.78,96.7c-3.12,9.41-.26,19.69.22,29.29.55,11-.41,21.93-1.3,32.87,0,.3.44.3.47,0,1-10.5,1.85-21.1,1.43-31.65-.41-10.21-3-20.3-.5-30.42a.17.17,0,0,0-.32-.09Z"/><path class="cls-4" d="M232.93,80.06a31.51,31.51,0,0,0-12.51,12c0,.09.09.21.16.12a73.22,73.22,0,0,1,5.35-6.32,65.18,65.18,0,0,1,7.12-5.6.13.13,0,0,0-.12-.22Z"/><path class="cls-4" d="M233.28,80.23c3.06-2.42,7-3.26,10.47-4.93a36.36,36.36,0,0,0,8.41-5.38c.06-.06,0-.18-.1-.13a66.92,66.92,0,0,1-9.95,5.83c-3.1,1.36-6.4,2.15-9,4.47-.1.09,0,.23.14.14Z"/><path class="cls-4" d="M256.72,64.82A94.47,94.47,0,0,0,249,72.71a.16.16,0,1,0,.22.22,90,90,0,0,0,7.63-8,.08.08,0,0,0-.11-.12Z"/><path class="cls-4" d="M187.61,74.59c-8.34,6.75-20.35,11.81-25,22.15-.07.16.15.31.25.14,5.94-10.22,16.36-14.55,24.91-22.08.14-.13-.06-.32-.2-.21Z"/><path class="cls-4" d="M188,76.43c-7.6,7.9-21.85,11.74-25.49,23,0,.12.16.21.22.09,5.29-11.29,17.7-14,25.39-23,.07-.08,0-.2-.12-.12Z"/><path class="cls-4" d="M248.39,75c3.26,3.27,7.45,4.1,11.43,6.15a19.89,19.89,0,0,1,9,10.15c.07.16.34,0,.28-.12a18.38,18.38,0,0,0-6.78-8.95,25.32,25.32,0,0,0-5.69-2.81,33.83,33.83,0,0,1-8.2-4.48s-.07,0,0,.06Z"/><path class="cls-4" d="M248,77.21c2.78,2.72,6.76,3.62,10.19,5.24,4.94,2.32,7.34,7,10.78,11,.12.15.36,0,.26-.2-2.43-3.62-5.32-8.09-9.2-10.29s-8.16-3.42-12-5.78c0,0-.05,0,0,0Z"/><path class="cls-4" d="M247.88,87.17c2.12,5.59,4.24,11.14,5.87,16.9,1.54,5.42,2.31,11.06,5.15,16a33,33,0,0,1,3.86,8.19,70.5,70.5,0,0,1,1.3,8.17c.56,4.18,1.41,8.17,4.12,11.51.28.35.77-.15.49-.5-3.5-4.39-3.66-10-4.43-15.27-.73-5-2.58-8.58-5-12.94-2.78-5-3.52-11-5.15-16.43A104.71,104.71,0,0,0,248.18,87c-.08-.16-.36,0-.3.13Z"/><path class="cls-4" d="M268.14,148.4a80.82,80.82,0,0,0,14.49-1c.31-.05.24-.59-.08-.56-4.81.48-9.58.85-14.41,1.13a.23.23,0,0,0,0,.46Z"/><path class="cls-4" d="M267.93,148.15a3.73,3.73,0,0,0,.16,4.07.2.2,0,0,0,.34-.14c0-.65-.29-1.28-.35-1.93s0-1.31-.12-2a0,0,0,0,0,0,0Z"/><path class="cls-4" d="M268.16,152.53c3-.29,6-.75,9.09-1,2.18-.19,4.54,0,6.58-.85.26-.11.07-.52-.19-.45-2.74.74-5.85.57-8.67.89a66.06,66.06,0,0,0-6.86,1.06c-.2,0-.16.39.05.37Z"/><path class="cls-4" d="M282.36,147.43a15.18,15.18,0,0,1,.78,3.31c0,.27.42.17.44-.06a6.23,6.23,0,0,0-.79-3.43c-.12-.23-.52-.08-.43.18Z"/><path class="cls-4" d="M271.88,148.18a18.22,18.22,0,0,0,.34,2.07,13.08,13.08,0,0,0,.42,2.33c0,.1.23.14.25,0a7,7,0,0,0-.21-2.13,10.35,10.35,0,0,0-.59-2.33.11.11,0,0,0-.21.06Z"/><path class="cls-4" d="M278.7,147.76a5.22,5.22,0,0,0,.32,3,.19.19,0,0,0,.36-.09,10.15,10.15,0,0,0-.22-1.55c-.06-.46-.1-.93-.19-1.39,0-.13-.25-.13-.27,0Z"/><path class="cls-4" d="M273.41,148.05c-.43,0-.68.35-.93.68a3.83,3.83,0,0,0-.56,1.17.31.31,0,0,0,.45.35,1.86,1.86,0,0,0,.62-.53c.06-.08,0-.2-.12-.2a1.94,1.94,0,0,0-.81.2l.46.34a4,4,0,0,1,.45-1c.19-.3.49-.53.54-.9a.1.1,0,0,0-.1-.13Z"/><path class="cls-4" d="M274.78,147.66a8.08,8.08,0,0,0-1.25,1.36,3.34,3.34,0,0,0-.83,1.47.2.2,0,0,0,.3.17,4.5,4.5,0,0,0,.95-1.28c.35-.51.72-1,1.07-1.54.1-.15-.12-.29-.24-.18Z"/><path class="cls-4" d="M276,147.41a20.62,20.62,0,0,0-1.89,2.08c-.41.53-1.06,1.14-1.12,1.83,0,.11.12.16.21.12.61-.31,1-1.16,1.39-1.7.54-.7,1.09-1.4,1.67-2.07.15-.17-.09-.42-.26-.26Z"/><path class="cls-4" d="M277.46,147.67c-1.17,1.26-2.46,2.42-3.71,3.6-.29.28.19.73.43.43s.29-.34.43-.51,0-.24-.12-.2l-.61.2.3.51a28.05,28.05,0,0,0,3.49-3.82c.12-.15-.07-.35-.21-.21Z"/><path class="cls-4" d="M278.81,147.8c-.59.58-1.18,1.16-1.76,1.76-.27.29-.54.57-.8.87-.12.12-.41.64-.58.63l.24.15-.07.1a.17.17,0,0,0,.14-.25l0-.06a.23.23,0,0,0-.24-.1c-.67.19-.14,1.13.48.68a2.64,2.64,0,0,0,.41-.58c.24-.32.53-.61.79-.92.57-.67,1.12-1.36,1.67-2,.14-.17-.08-.4-.24-.24Z"/><path class="cls-4" d="M279.09,148.48c-.32.37-.66.72-1,1.09a2.62,2.62,0,0,0-.74,1,.25.25,0,0,0,.36.28,2.73,2.73,0,0,0,.84-1c.28-.41.54-.82.82-1.22.12-.17-.15-.38-.29-.22Z"/><path class="cls-4" d="M278.86,150.06a.52.52,0,0,0,.06.28.14.14,0,0,0,.24,0,.52.52,0,0,0,.06-.28.18.18,0,0,0-.36,0Z"/><path class="cls-4" d="M194.06,55.13c6-7.28,15-10.22,24.27-10.23,9.95,0,22.74,3,28.59,11.79a.14.14,0,0,0,.24-.14c-5.33-8.95-18.69-11.85-28.3-11.89-9.07,0-19.37,2.63-24.84,10.44,0,0,0,0,0,0Z"/><path class="cls-4" d="M210.16,54.86c3.88.3,7.83.32,11.72.34a.11.11,0,1,0,0-.21c-3.88-.17-7.83-.35-11.72-.24-.06,0-.06.1,0,.11Z"/><path class="cls-4" d="M210.29,54.87a13.33,13.33,0,0,0,.67,5.35c0,.11.22.07.18,0a18.64,18.64,0,0,1-.69-5.3c0-.11-.15-.1-.16,0Z"/><path class="cls-4" d="M211,60.06c4.16.23,8.36.21,12.54.2a.13.13,0,0,0,0-.25c-4.18-.09-8.37-.17-12.54,0a0,0,0,1,0,0,.06Z"/><path class="cls-4" d="M222.44,55a36.86,36.86,0,0,1,.5,4.58.17.17,0,0,0,.34,0,8.89,8.89,0,0,0-.8-4.59,0,0,0,0,0,0,0Z"/><path class="cls-4" d="M212.77,54.79a6.5,6.5,0,0,0-2.28,2.92s0,.07.08,0c.39-.52.71-1.08,1.11-1.59s.79-.86,1.13-1.33c0,0,0-.06,0,0Z"/><path class="cls-4" d="M213.73,55.14A13.1,13.1,0,0,0,210.59,59c0,.06,0,.13.09.07.55-.61,1-1.34,1.48-2s1.07-1.27,1.63-1.88c0,0,0-.09-.06-.06Z"/><path class="cls-4" d="M222.73,56.94a6.5,6.5,0,0,0-2.16,2.41c0,.08.07.18.14.1.34-.4.62-.87,1-1.28s.74-.77,1.11-1.15c0,0,0-.12-.06-.08Z"/><path class="cls-4" d="M223.49,57.71c-.25.25-.53.49-.78.74a3.06,3.06,0,0,0-.66.73.07.07,0,0,0,.1.09,3,3,0,0,0,.71-.67c.24-.27.47-.55.71-.81.05,0,0-.13-.08-.08Z"/><path class="cls-4" d="M227.32,74.33c-2.3,3.37-4.74,6.67-6.94,10.11-.06.1.09.18.16.09,2.48-3.23,4.67-6.72,6.86-10.16,0-.05-.05-.09-.08,0Z"/><path class="cls-4" d="M229.2,75.75a73.25,73.25,0,0,1,11.09-4.65s0-.08,0-.07a39.61,39.61,0,0,0-11.09,4.68s0,.06,0,0Z"/><path class="cls-4" d="M241.78,69.37c4.65-1.14,7.54-5.38,11.06-8.31,0,0,0-.07,0-.05-3.76,2.79-6.37,6.85-11,8.29a0,0,0,0,0,0,.07Z"/><path class="cls-4" d="M256.11,63a53.66,53.66,0,0,1-6.17,6.17.06.06,0,0,0,.07.09A22.41,22.41,0,0,0,256.12,63s0,0,0,0Z"/><path class="cls-4" d="M193.28,57.93a16.59,16.59,0,0,0-3.66,6.41c-.05.14.18.21.23.06l.4-.66s0-.1-.05-.07-.51.69-.19.37a11,11,0,0,0,1-2.17c.69-1.35,1.65-2.55,2.34-3.9,0,0,0-.07-.06,0Z"/><path class="cls-4" d="M195,58a25.39,25.39,0,0,0-4.63,6.4c-.09.19.17.35.28.17a49.28,49.28,0,0,1,4.51-6.41c.09-.11-.06-.26-.16-.16Z"/><path class="cls-4" d="M203,69c2.51,1.6,4.86,3.4,7.34,5,0,0,.1,0,.06-.08a35.32,35.32,0,0,0-7.33-5.09A.07.07,0,1,0,203,69Z"/><path class="cls-4" d="M204.2,69c2.65,1.28,4,4.18,6.83,5.34.1,0,.14-.1.07-.15A25.4,25.4,0,0,1,207,71a7.5,7.5,0,0,0-2.79-2c-.05,0-.09.07,0,.09Z"/><path class="cls-4" d="M204,68a72.07,72.07,0,0,0,7.09,6.11c.08,0,.16-.06.1-.13a72.16,72.16,0,0,0-7.1-6.07c-.06,0-.15,0-.09.09Z"/><path class="cls-4" d="M205.45,68.4c1,.9,2,1.74,3,2.66s1.84,2,2.84,2.83c.07,0,.19,0,.13-.11a22.26,22.26,0,0,0-5.9-5.46c-.05,0-.12,0-.07.08Z"/><path class="cls-4" d="M206.46,68.64c1,1,2.16,2,3.17,3s1.93,2.18,2.92,3.25c.06.07.19,0,.13-.1a24.36,24.36,0,0,0-6.16-6.24c-.05,0-.11,0-.06.09Z"/><path class="cls-4" d="M212,74.62a77.39,77.39,0,0,1,4.53,6.57.06.06,0,0,0,.1-.06,23.52,23.52,0,0,0-4.57-6.56,0,0,0,1,0-.06.05Z"/><path class="cls-4" d="M194.37,55.74c3.32-2.52,6.24-5.48,9.95-7.48,4.56-2.44,9.25-2.47,14.24-2.94.15,0,.16-.24,0-.24-9.7-.42-17.74,3.47-24.26,10.57,0,.05,0,.13.07.09Z"/><path class="cls-4" d="M223.74,89a30.48,30.48,0,0,0-4.09,5.62c-1.13,2.23-1.71,4.67-3.1,6.79-.05.08.07.14.13.07a27.3,27.3,0,0,0,2.65-5.69A28.24,28.24,0,0,1,223.76,89s0,0,0,0Z"/><path class="cls-4" d="M223.86,90.28c-2.49,3.31-5.84,6.74-6.14,11.08,0,.07.1.08.11,0,.85-4.39,3.63-7.48,6.07-11.07,0,0,0,0,0,0Z"/><path class="cls-4" d="M224.41,91.5a31.42,31.42,0,0,0-5.79,9.56c0,.06.07.1.1,0a66.09,66.09,0,0,1,5.78-9.53s-.05-.12-.09-.07Z"/><path class="cls-4" d="M247,74.57c-4.85,3.69-11.43,4.42-15.69,8.94,0,0,0,0,0,0,4.35-4.48,11.12-4.82,15.7-8.93,0,0,0,0,0,0Z"/><path class="cls-4" d="M249,86.53a49.79,49.79,0,0,1,4.24,9.63c.62,2.12,1.21,4.14,2.73,5.8,0,0,.12,0,.08-.06-1.82-2.47-2.33-5.27-3.34-8.09a41.32,41.32,0,0,0-3.67-7.31s-.06,0,0,0Z"/><path class="cls-4" d="M256.11,103c1.57,6.49,1.61,14.71,6.49,19.83,0,0,.09,0,.06,0-4.53-6-4.15-13-6.52-19.8,0,0,0,0,0,0Z"/><path class="cls-4" d="M259.58,114.67a28,28,0,0,0,3.85,7.56c.06.08.2,0,.14-.09a47.68,47.68,0,0,1-3.93-7.49s-.07,0-.06,0Z"/><path class="cls-4" d="M261.13,115.53a40.27,40.27,0,0,0,2.83,5.79c0,.05.13,0,.1,0a39.81,39.81,0,0,0-2.88-5.77s-.06,0-.05,0Z"/><path class="cls-4" d="M263,117.17a27.86,27.86,0,0,1,1.19,2.89s.08,0,.07,0a13.39,13.39,0,0,0-1.19-2.91s-.1,0-.07,0Z"/><path class="cls-4" d="M268.3,93.49c.79,4.16,1.66,8.31,2.51,12.46a48.44,48.44,0,0,0,2.9,10.59.05.05,0,0,0,.1,0c-2.78-7.34-3.71-15.4-5.39-23a.06.06,0,1,0-.12,0Z"/><path class="cls-4" d="M274.22,119c1.42,4,3.13,7.85,4.44,11.86,1.58,4.82,1.2,9.31.55,14.26a0,0,0,0,0,.06,0c.8-4.27,1.25-8.53.07-12.78a118.86,118.86,0,0,0-5-13.36s-.09,0-.08,0Z"/><path class="cls-4" d="M261.82,124.44a41,41,0,0,1,2.43,7.95c0,.07.12.05.12,0a18.13,18.13,0,0,0-2.47-8,0,0,0,0,0-.08,0Z"/><path class="cls-4" d="M262.06,123.4a42.53,42.53,0,0,1,2.66,7.33c0,.06.1,0,.09,0a20.43,20.43,0,0,0-2.68-7.34,0,0,0,0,0-.07,0Z"/><path class="cls-4" d="M263.3,123.78a50.47,50.47,0,0,0,2.33,6.37.08.08,0,0,0,.15-.06,47.92,47.92,0,0,0-2.41-6.33s-.08,0-.07,0Z"/><path class="cls-4" d="M264.74,131.88c.74,5.52,1.92,11.57,5.15,16.23,0,0,.13,0,.1-.06-2.83-5.24-3.87-10.45-5.13-16.19,0-.06-.13-.05-.12,0Z"/><path class="cls-4" d="M268.11,141.64a17.47,17.47,0,0,0,2.59,6.44.07.07,0,0,0,.12-.07c-.93-2.13-1.85-4.2-2.64-6.39,0,0-.08,0-.07,0Z"/><path class="cls-4" d="M270.14,142.68a9,9,0,0,0,1.79,4.6c0,.05.1,0,.08-.06a17,17,0,0,1-1.76-4.57c0-.08-.12,0-.11,0Z"/><path class="cls-4" d="M183.41,59.37a32.78,32.78,0,0,0-5.15,5.38c-1.83,2.44-3,5.26-4.82,7.7-1.46,2-2.84,3.49-3.64,5.88-1.13,3.35-2.12,6.78-3,10.2a.08.08,0,0,0,.16,0c1-3.07,1.86-6.19,2.82-9.27.89-2.86,2.54-4.75,4.2-7.14,1.35-2,2.28-4.15,3.61-6.11a39.63,39.63,0,0,1,5.88-6.66l0,0Z"/><path class="cls-4" d="M172.41,76.17a23.39,23.39,0,0,0-3.55,9.14c0,.06.08.06.09,0a46.63,46.63,0,0,1,3.54-9.1s-.05-.1-.08,0Z"/><path class="cls-4" d="M172.76,77.39A60.16,60.16,0,0,0,170,84c0,.11.13.18.17.08,1-2.19,1.85-4.44,2.75-6.66,0-.08-.1-.13-.13-.06Z"/><path class="cls-4" d="M173.41,78.33a45.68,45.68,0,0,0-2,5.28c0,.06.08.1.11,0a45.08,45.08,0,0,0,2-5.29c0-.06-.07-.09-.1,0Z"/><path class="cls-4" d="M186.81,69.09a7,7,0,0,1,.1,2.78,17,17,0,0,1-.68,2.09c0,.05.06.1.1.06,1.08-1.3,1-3.43.58-5a.05.05,0,0,0-.1,0Z"/><path class="cls-4" d="M188.78,73.06c1,1.35.53,6.43.62,8.07.13,2.48.21,5,.44,7.45,0,.11.19.12.19,0-.06-3.44-.36-6.88-.56-10.31-.08-1.31.4-4.29-.66-5.24,0,0-.05,0,0,0Z"/><path class="cls-4" d="M190.66,80.57a26,26,0,0,0,.77,7.62s.11,0,.1,0c-.21-2.54-.7-5-.8-7.6a0,0,0,1,0-.07,0Z"/><path class="cls-4" d="M192.45,84.06c.11,1.36,0,2.77.15,4.11,0,.08.11.11.13,0a9.39,9.39,0,0,0-.15-4.15.07.07,0,0,0-.13,0Z"/><path class="cls-4" d="M201.34,75a49.56,49.56,0,0,0,6.34,6.37c1.2.92,2.54,1.53,3.67,2.56a39.92,39.92,0,0,1,3,3.47s.12,0,.09-.07A16.37,16.37,0,0,0,209.21,82c-3-1.93-5.2-4.71-7.75-7.12-.08-.07-.19,0-.12.11Z"/><path class="cls-4" d="M187.94,68.9a36.84,36.84,0,0,1,10.7,5.95c.06,0,.13-.06.08-.11A24.28,24.28,0,0,0,188,68.8a.05.05,0,0,0,0,.1Z"/><path class="cls-4" d="M191.48,71.42c1.18.52,2.39,1,3.55,1.55s2.23,1.31,3.37,1.92c0,0,.12,0,.07-.09a17.74,17.74,0,0,0-7-3.41s0,0,0,0Z"/><path class="cls-4" d="M192.25,72.67a19.61,19.61,0,0,1,6,3.2c.07,0,.14-.05.09-.11a11,11,0,0,0-6-3.2.06.06,0,0,0,0,.11Z"/><path class="cls-4" d="M192.86,73.84c.9.44,1.84.77,2.73,1.21s1.71,1,2.6,1.48c.07,0,.15,0,.09-.11a12,12,0,0,0-5.38-2.66c-.05,0-.09.06,0,.08Z"/><path class="cls-4" d="M194.09,75.29c1.19.56,2.34,1.22,3.54,1.77.06,0,.12,0,.05-.1a19.79,19.79,0,0,0-3.52-1.8c-.09,0-.17.09-.07.13Z"/><path class="cls-4" d="M198.79,75.79c3.35,2,5.15,5.84,8.27,8.23,3.76,2.86,7.73,5,9.92,9.38,0,0,.12,0,.1,0-1.51-3.92-5-6.09-8.25-8.41a26.21,26.21,0,0,1-5.65-5.11,14.48,14.48,0,0,0-4.33-4.14.05.05,0,0,0-.06.09Z"/><path class="cls-4" d="M227.62,77.34c.49.11-1.1,2.26-1.21,2.42l-1.38,2c-1,1.46-2.05,2.88-2.88,4.43-.05.09.08.2.15.11a90,90,0,0,0,5.9-8.8.1.1,0,0,0,0-.15c-.28-.21-.17-.16-.52-.21-.08,0-.1.13,0,.15Z"/><path class="cls-4" d="M227.23,78.11c-1.55,2.33-3.34,4.63-4.72,7.06-.07.12.09.26.19.15a39.54,39.54,0,0,0,4.75-7.09.13.13,0,0,0-.22-.12Z"/><path class="cls-4" d="M226.77,78.07a31,31,0,0,0-4.34,7.21c0,.08.09.12.14.06,1.6-2.25,2.91-4.81,4.36-7.17.07-.11-.09-.19-.16-.1Z"/><path class="cls-4" d="M228.05,78.31c-.72.94-1.36,2-2,2.94a22.09,22.09,0,0,0-1.89,3c0,.07.05.15.11.08a19.51,19.51,0,0,0,1.89-2.76c.69-1.06,1.41-2.11,2-3.21a.07.07,0,1,0-.11-.07Z"/><path class="cls-4" d="M228.06,79.13c-1.05,1.74-2.33,3.35-3.38,5.09,0,0,0,.1.09.06a17.25,17.25,0,0,0,3.46-5,.1.1,0,0,0-.17-.1Z"/><path class="cls-4" d="M228.18,79.7c-.37.62-.74,1.22-1.16,1.81s-.91,1.1-1.3,1.7c-.06.1.08.19.16.12a11.66,11.66,0,0,0,2.46-3.54c0-.1-.1-.2-.16-.09Z"/><path class="cls-4" d="M229,79.68c-.16.22-1.8,2.73-1.86,2.7a.06.06,0,0,0,.07-.09l0,0a.08.08,0,0,0-.08,0c-.27.15,0,.39.23.27s.27-.34.37-.48.3-.46.46-.69c.34-.51.69-1,1-1.56.07-.11-.1-.2-.18-.1Z"/><path class="cls-4" d="M229.62,79.7a10.61,10.61,0,0,1-.94,1.29,9.35,9.35,0,0,0-.91,1c-.05.08,0,.15.12.12a3.66,3.66,0,0,0,1.07-1,8.26,8.26,0,0,0,.82-1.26c.06-.1-.1-.19-.16-.09Z"/><path class="cls-4" d="M228.2,81.55c1.42-1.41,3-2.63,4.45-4,.07,0,0-.15-.09-.11a16.18,16.18,0,0,0-4.41,4s0,.08,0,0Z"/><path class="cls-4" d="M233,77.49a12.84,12.84,0,0,0-4.21,3.2.07.07,0,0,0,.1.1,36.89,36.89,0,0,1,4.17-3.2.06.06,0,0,0-.06-.1Z"/><path class="cls-4" d="M194.56,52.21a29,29,0,0,0-6,8.95c-.05.11.13.17.19.08,1-1.5,1.78-3.1,2.77-4.6s2.13-2.87,3.13-4.35c.05-.07,0-.14-.11-.08Z"/><path class="cls-4" d="M194.47,51.73c-.87,1.88-2.52,3.17-3.67,4.86a20.33,20.33,0,0,0-2.56,5.1.1.1,0,0,0,.18.08c1.16-1.91,1.93-4,3.3-5.77,1.06-1.39,2.37-2.5,2.91-4.2,0-.09-.12-.16-.16-.07Z"/><path class="cls-4" d="M195.2,51.2a25.57,25.57,0,0,0-6.78,10c0,.1.12.16.18.07,1.09-1.69,2-3.5,3.09-5.17s2.5-3.15,3.56-4.85c0,0,0-.06-.05,0Z"/><path class="cls-4" d="M199.85,47.42a23.51,23.51,0,0,0-7.48,7.79c-.05.09.07.19.14.11,1.12-1.42,2.17-2.87,3.41-4.19s2.63-2.45,4-3.64a0,0,0,0,0-.05-.07Z"/><path class="cls-4" d="M198,48.08a33.84,33.84,0,0,0-8.46,10.46.11.11,0,0,0,.18.11,105.49,105.49,0,0,1,8.41-10.44.09.09,0,0,0-.13-.13Z"/><path class="cls-4" d="M195.22,52.89a18.83,18.83,0,0,0-2.46,2.66,21.56,21.56,0,0,0-2,2.56.1.1,0,0,0,.16.12c.85-.84,1.55-1.86,2.32-2.78a23.4,23.4,0,0,0,2-2.52s0-.07-.05,0Z"/><path class="cls-4" d="M195.92,52.55a55.92,55.92,0,0,0-4.81,5.52c-.1.13.11.28.22.17a54.94,54.94,0,0,0,4.76-5.56c.07-.1-.09-.22-.17-.13Z"/><path class="cls-4" d="M196,53.14a31.69,31.69,0,0,1-2.17,2.76A16.31,16.31,0,0,0,191.93,58a.08.08,0,0,0,.1.1,9,9,0,0,0,2.28-2.28,28.74,28.74,0,0,0,1.95-2.59c.09-.14-.12-.26-.22-.13Z"/><path class="cls-4" d="M196.33,53.78a32.91,32.91,0,0,0-3.72,4.54.12.12,0,0,0,.18.14,32.6,32.6,0,0,0,3.71-4.55c.07-.1-.09-.23-.17-.13Z"/><path class="cls-4" d="M197.56,53.36a20.82,20.82,0,0,0-4.29,5.2c0,.06.06.14.11.08,1.49-1.67,2.79-3.5,4.27-5.18.06-.07,0-.16-.09-.1Z"/><path class="cls-4" d="M197.12,54.4c-.49.71-1,1.42-1.52,2.08a15.88,15.88,0,0,0-1.35,1.62.06.06,0,0,0,.08.08,7.34,7.34,0,0,0,1.58-1.75,18.66,18.66,0,0,0,1.32-2c0-.08-.07-.14-.11-.07Z"/><path class="cls-4" d="M197.55,55.21l-1,1.2a6.86,6.86,0,0,0-.81,1.13.06.06,0,0,0,.1.08,6.63,6.63,0,0,0,.9-1.07c.31-.41.62-.82.92-1.24.06-.08-.07-.18-.13-.1Z"/><path class="cls-4" d="M197.57,56.05c-.42.51-.85,1-1.28,1.52-.07.09.05.21.13.13,1.58-1.62,3.19-3.2,4.75-4.83,0,0,0-.1-.07-.07A30.83,30.83,0,0,0,198,55.72c-.13.14-1.51,1.43-1.45,1.57.14.31.31-.13.41-.27l.7-.92s0-.09-.06-.05Z"/><path class="cls-4" d="M186.49,80.16a21.41,21.41,0,0,1-2,7.82s0,.09.07,0a14.91,14.91,0,0,0,2-7.87c0-.07-.1-.07-.11,0Z"/><path class="cls-4" d="M184.23,88.8c-.45,3.44-3,6.83-4.35,10-1.24,2.92-2.54,5.83-3.66,8.8,0,.09.11.16.15.07,1.7-3.66,3-7.47,4.72-11.14,1.18-2.58,3-4.86,3.2-7.76,0,0,0,0-.06,0Z"/><path class="cls-4" d="M162.84,99.87c-.86,9.88-8.85,17.86-8.77,27.83,0,.06.09.06.1,0,.92-9.93,8.47-17.87,8.84-27.83,0-.1-.16-.1-.17,0Z"/><path class="cls-4" d="M153.49,129.45a80.35,80.35,0,0,0,.85,15.49c0,.12.2.12.19,0a105.68,105.68,0,0,1-1-15.49,0,0,0,1,0,0,0Z"/><path class="cls-4" d="M154.72,136.5c0,3,0,6,.2,9a.12.12,0,0,0,.24,0c0-3-.09-6-.3-9a.07.07,0,1,0-.14,0Z"/><path class="cls-4" d="M156.12,139.16c-.07,2.52-.27,5.1-.16,7.61,0,.07.12.09.13,0a34.14,34.14,0,0,0,.2-7.63.09.09,0,0,0-.17,0Z"/><path class="cls-4" d="M166.54,139.36c-.77,2.53-1.83,5-2.45,7.62,0,.07.08.11.11.05a33.9,33.9,0,0,0,2.52-7.62.09.09,0,0,0-.18,0Z"/><path class="cls-4" d="M172.7,120.86c-1.48,5.44-3.44,10.66-5.19,16a0,0,0,0,0,.09,0,82.63,82.63,0,0,0,5.18-16,0,0,0,1,0-.08,0Z"/><path class="cls-4" d="M189.37,109.13c.72,10.1-1.46,19.84-1.72,29.87,0,.11.15.11.17,0,1.23-9.75,2.86-20.06,1.6-29.87,0,0-.06,0,0,0Z"/><path class="cls-4" d="M187.77,138.15a141.48,141.48,0,0,0-1.05,18.29.12.12,0,0,0,.24,0c.12-6.12.5-12.19,1-18.29,0-.11-.16-.1-.17,0Z"/><path class="cls-4" d="M188.81,143.69a50.83,50.83,0,0,0-.95,11.93c0,.07.12.07.12,0,.21-4,.42-7.94.94-11.92,0-.06-.1-.07-.11,0Z"/><path class="cls-4" d="M190,146.14a40.3,40.3,0,0,0-.86,9.47c0,.09.11.08.12,0,.36-3.14.44-6.28.91-9.42,0-.11-.15-.16-.17-.05Z"/><path class="cls-4" d="M191,148.63a39.47,39.47,0,0,0-.26,5.75c0,.09.16.13.18,0a38.33,38.33,0,0,0,.28-5.77.1.1,0,0,0-.2,0Z"/><path class="cls-4" d="M246.51,75c-.47,4.43-.78,8.91-1.12,13.35,0,.08.13.1.14,0A77.88,77.88,0,0,0,246.61,75c0-.07-.09-.07-.1,0Z"/><path class="cls-4" d="M246.12,91.88a164.13,164.13,0,0,0,1.36,29.81s.11,0,.11,0c-.73-9.94-1.54-19.81-1.43-29.79a0,0,0,1,0,0,0Z"/><path class="cls-4" d="M246.93,123.34c.38,5.28.76,10.56.79,15.87s.59,11.85-3.37,15.89c-.08.07,0,.18.11.11,3.51-3,3.49-8.24,3.54-12.47a141.26,141.26,0,0,0-1-19.4c0-.06-.1-.07-.1,0Z"/><path class="cls-4" d="M216.8,101.76a17.85,17.85,0,0,0,0,8,.06.06,0,0,0,.12,0,39.82,39.82,0,0,1-.14-8s0,0,0,0Z"/><path class="cls-4" d="M217.52,102.16c-.06,2.24-.17,4.55,0,6.78a.06.06,0,0,0,.11,0c.16-2.23,0-4.54,0-6.78a0,0,0,1,0-.09,0Z"/><path class="cls-4" d="M219.39,103c-.1,1.57-.27,3.16-.25,4.73,0,.07.1.07.11,0,.19-1.56.2-3.16.27-4.73,0-.08-.12-.08-.13,0Z"/><path class="cls-4" d="M217.32,112c.43,8.87.56,17.64.42,26.52,0,.12.17.11.18,0a160.88,160.88,0,0,0-.54-26.52,0,0,0,0,0-.06,0Z"/><path class="cls-4" d="M217.8,139.18a166.63,166.63,0,0,1,0,17.88c0,.05.08.05.09,0a86.87,86.87,0,0,0,0-17.88c0-.06-.1-.06-.09,0Z"/><path class="cls-4" d="M219.42,145.54c-.13,3.83-.4,7.69-.27,11.51a0,0,0,1,0,.08,0c.32-3.81.24-7.68.3-11.51a.06.06,0,0,0-.11,0Z"/><path class="cls-4" d="M220.65,148.22c-.15,2.65-.36,5.35-.29,8,0,.07.1.07.11,0,.26-2.65.24-5.36.28-8,0-.07-.09-.07-.1,0Z"/><path class="cls-4" d="M222.62,150.27c0,1.93-.12,3.83-.23,5.75,0,.1.15.12.16,0a27.25,27.25,0,0,0,.23-5.78c0-.1-.16-.1-.16,0Z"/><path class="cls-4" d="M224.29,151.31a33.44,33.44,0,0,1,.39,4.1.09.09,0,0,0,.17,0,13.38,13.38,0,0,0-.42-4.13.07.07,0,1,0-.14,0Z"/><path class="cls-4" d="M226.49,152.12c.07,1,.14,1.93.29,2.89,0,.06.1,0,.1,0,0-1-.12-1.92-.21-2.88,0-.11-.19-.12-.18,0Z"/><path class="cls-4" d="M242.45,53.09a.44.44,0,0,1-.27-.57s0,0,0,0a.47.47,0,0,0,.29.64s.06,0,0-.06Z"/><path class="cls-4" d="M242.53,52.34c.4.19-1.26,2.75-1.46,3.11-.6,1-1.21,2.1-1.75,3.19,0,.08.08.16.13.07.73-1.17,1.37-2.4,2-3.62l1-1.83a6.15,6.15,0,0,0,.35-.72c0-.33-.29-.8-.42-.23a0,0,0,0,0,0,0l.1,0s.05,0,0,0Z"/><path class="cls-4" d="M244,52.84a31,31,0,0,0-3.3,6.07,0,0,0,0,0,.09,0c1.15-2,2.13-4.08,3.26-6.08,0,0,0,0,0,0Z"/><path class="cls-4" d="M244.67,54.08a49.56,49.56,0,0,0-3,5.11.09.09,0,0,0,.16.09,52.17,52.17,0,0,0,2.93-5.15c0-.05-.05-.09-.08-.05Z"/><path class="cls-4" d="M245.79,55.88a31.93,31.93,0,0,1-2.21,4.27c0,.06,0,.12.09.07a14.23,14.23,0,0,0,2.22-4.31.05.05,0,0,0-.1,0Z"/><polygon class="cls-2" points="188.84 78.25 179.64 104.75 162.47 164.12 137.57 157.12 141.98 108.35 159.1 76.7 166.62 72.29 188.84 78.25"/><path class="cls-4" d="M115.85,77.69c6.68-1.06,13.37-3.82,19.83-5.81.47-.15.27-.9-.21-.75-6.46,2-13.58,3.48-19.7,6.37-.11,0,0,.2.08.19Z"/><path class="cls-4" d="M115.82,77.19c-2.13,8.26,2.27,15.33,6.63,22,.31.47,1.07,0,.76-.44-4.45-6.8-8.1-13.08-7-21.47,0-.23-.35-.28-.4-.06Z"/><path class="cls-4" d="M122.82,99.17c.05,7.56,2.05,15.08,3.64,22.43,1.63,7.5,4.4,16.76,1.77,24.28-1.23,3.52-3.34,6.6-4.92,10a34,34,0,0,0-2.87,9.51,54.43,54.43,0,0,0,.75,20.15.23.23,0,0,0,.45-.06c-.2-7.62-1.51-15,.2-22.54,1.56-6.9,6.68-12.4,7.93-19.33,1.14-6.36-.8-13.61-2.12-19.8a247.44,247.44,0,0,1-4.44-24.59.2.2,0,0,0-.39,0Z"/><path class="cls-4" d="M120.83,182.44c.22,10.31,1.75,20.7,2.93,30.93q1.72,14.88,3.94,29.7c.07.46.77.26.71-.2q-2.23-15.65-4.12-31.35c-1.15-9.68-1.73-19.49-3.26-29.11,0-.11-.2-.09-.2,0Z"/><path class="cls-4" d="M188.89,78.56c-6.12-2.89-13.23-4.38-19.7-6.37a.39.39,0,0,0-.21.75c6.46,2,13.16,4.75,19.83,5.81.11,0,.2-.14.08-.19Z"/><path class="cls-4" d="M188.44,78.31c1.12,8.39-2.54,14.68-7,21.47-.31.47.45.91.76.44,4.36-6.64,8.76-13.71,6.63-22-.05-.21-.43-.18-.4.06Z"/><path class="cls-4" d="M181.45,100.23a235.63,235.63,0,0,1-4.31,24c-1.38,6.38-3.41,13.84-2.24,20.4,1.2,6.74,6.18,12.12,7.8,18.79,1.88,7.76.53,15.27.32,23.08a.23.23,0,0,0,.45.06,54.7,54.7,0,0,0,.76-20.16,34.22,34.22,0,0,0-2.65-9c-1.61-3.52-3.89-6.74-5.15-10.42-2.58-7.58.13-16.74,1.77-24.29,1.59-7.34,3.59-14.86,3.64-22.43,0-.26-.36-.24-.39,0Z"/><path class="cls-4" d="M183.63,183.47c-1.52,9.63-2.11,19.44-3.26,29.11q-1.86,15.71-4.12,31.35c-.06.46.64.67.71.2q2.22-14.82,3.94-29.69c1.18-10.24,2.71-20.63,2.93-30.94,0-.11-.18-.14-.2,0Z"/><path class="cls-4" d="M135.59,71.58c4.7,14.43,26.84,12.78,33.61,1.17.22-.37-.36-.71-.59-.34-3.85,6.23-10,8.51-17.13,8.61s-12.35-3.37-15.7-9.52c-.06-.1-.23,0-.19.08Z"/><path class="cls-4" d="M135.44,71.5c10.65,5.35,22.1,3.59,33.3,1.23.21,0-6.08.85-9,1.25-8.17,1.1-16.17,1-24.16-2.66-.11,0-.22.12-.1.18Z"/><path class="cls-4" d="M135.7,72.45c10.36,5.06,22.15,3.69,32.92.82a.12.12,0,0,0-.06-.24c-10.95,2.8-22.17,4-32.76-.73-.11,0-.21.1-.1.15Z"/><path class="cls-4" d="M128.12,244.21c8,.42,16,0,24,.14s16,.35,24,.54c.41,0,.41-.63,0-.65-8-.32-16-.46-24-.57s-16.06-.53-24,0a.28.28,0,0,0,0,.55Z"/><path class="cls-4" d="M129.61,141.07c15.15.28,30.31.27,45.46.35a.28.28,0,0,0,0-.55c-15.15-.08-30.31-.24-45.46-.12a.16.16,0,0,0,0,.32Z"/><path class="cls-4" d="M129.39,144.05c15.09.85,30.36.51,45.47.42a.31.31,0,0,0,0-.62c-15.13,0-30.35-.56-45.47-.14a.17.17,0,0,0,0,.34Z"/><path class="cls-4" d="M116.34,77.71A25.92,25.92,0,0,0,118,87.81c1.53,3.62,4,6.76,5.77,10.29.07.14.26,0,.2-.12-1.31-3-3.29-5.52-4.81-8.38-2-3.77-2.43-7.68-2.71-11.89,0-.07-.12-.07-.12,0Z"/><path class="cls-4" d="M123.41,99.22c1.66,8.93,3.36,17.9,5.47,26.74,0,.15.25.08.22-.06-1.7-8.93-3.68-17.82-5.55-26.72,0-.1-.16-.06-.14,0Z"/><path class="cls-4" d="M129,126.43a33.14,33.14,0,0,1,1.54,14.15c0,.12.18.15.2,0a27.41,27.41,0,0,0-1.61-14.22c0-.08-.17,0-.13,0Z"/><path class="cls-4" d="M131.46,133.16a42.19,42.19,0,0,1,0,7c0,.11.18.13.2,0a22.9,22.9,0,0,0-.13-7.06s-.1,0-.1,0Z"/><path class="cls-4" d="M132.26,134a57.54,57.54,0,0,1,.19,6.16c0,.15.23.15.24,0a30.42,30.42,0,0,0-.29-6.18c0-.08-.14-.06-.14,0Z"/><path class="cls-4" d="M124.2,98.11a22.33,22.33,0,0,0,2.07,8.14c0,.06.15,0,.12,0a36.64,36.64,0,0,1-2.17-8.09s0,0,0,0Z"/><path class="cls-4" d="M124.8,97.68a20.19,20.19,0,0,0,2.25,8.08c.06.1.2,0,.15-.09a26.52,26.52,0,0,1-2.29-8c0-.06-.11-.07-.11,0Z"/><path class="cls-4" d="M126.13,99.61a27.4,27.4,0,0,0,1.45,5.54c0,.14.28.08.23-.07a50.1,50.1,0,0,1-1.63-5.49s-.05,0-.05,0Z"/><path class="cls-4" d="M125.59,107.07a15.4,15.4,0,0,0,1.45,4.22c0,.09.19,0,.14-.09a18.13,18.13,0,0,1-1.52-4.15s-.08,0-.07,0Z"/><path class="cls-4" d="M128.15,111.76a4.34,4.34,0,0,0,1.78,2.41c.06,0,.11,0,.07-.08-.33-.4-.74-.71-1.05-1.14a7.87,7.87,0,0,1-.71-1.23s-.11,0-.09,0Z"/><path class="cls-4" d="M180.1,100.44c.27,3.36-1.46,7-2.18,10.22a0,0,0,1,0,.09,0c.61-2,1.11-4,1.63-5.93a10.62,10.62,0,0,0,.54-4.32s-.08,0-.08,0Z"/><path class="cls-4" d="M179.33,101.08a29.33,29.33,0,0,1-2.82,10.17c0,.06.06.12.1.06a20.32,20.32,0,0,0,2.8-10.23,0,0,0,1,0-.08,0Z"/><path class="cls-4" d="M180,107.67a45.8,45.8,0,0,1-2.48,6.52c0,.09.08.17.13.08a19.91,19.91,0,0,0,2.41-6.58s-.05-.06-.06,0Z"/><path class="cls-4" d="M179.4,112.75c-3.34,8.56-6.33,18.17-6.07,27.45a.09.09,0,0,0,.17,0c.39-9.68,3.3-18.23,6-27.43,0,0-.05-.06-.07,0Z"/><path class="cls-4" d="M187.43,79.24c.8,4.47-.19,7.31-2,11.37-1.19,2.71-2.44,5.4-3.52,8.16,0,0,.06.09.08,0,3-6.09,7.06-12.69,5.55-19.61,0-.08-.14,0-.13,0Z"/><path class="cls-4" d="M130.61,140.77a13.16,13.16,0,0,0-1.15,2.12c-.05.15.18.23.26.11a13.69,13.69,0,0,0,1.05-2.14c0-.1-.1-.19-.16-.09Z"/><path class="cls-4" d="M131.47,140.94a7.84,7.84,0,0,0-1.29,1.22,4.16,4.16,0,0,0-.91,1.37.11.11,0,0,0,.18.1,11.76,11.76,0,0,0,1-1.33c.35-.44.73-.84,1.11-1.25,0-.05,0-.15-.08-.11Z"/><path class="cls-4" d="M132.52,140.92a8,8,0,0,0-3,3.23c0,.07.07.12.12.07.49-.5.86-1.09,1.33-1.61a14.32,14.32,0,0,1,1.69-1.52c.1-.07,0-.24-.1-.17Z"/><path class="cls-4" d="M133.11,140.91c-.6.48-1.16,1-1.73,1.52a5.86,5.86,0,0,0-1.45,1.49c0,.06,0,.15.09.12a5.3,5.3,0,0,0,1.53-1.27c.58-.56,1.17-1.11,1.71-1.71a.11.11,0,1,0-.15-.15Z"/><path class="cls-4" d="M133.77,140.93c-.5.47-1,1-1.45,1.46a12,12,0,0,0-1.28,1.39c-.12.16.12.29.25.19a14.87,14.87,0,0,0,1.37-1.38c.45-.48.9-1,1.33-1.44a.16.16,0,0,0-.22-.22Z"/><path class="cls-4" d="M134.6,140.92c-.44.47-.87,1-1.33,1.43s-1,.87-1.4,1.36c-.1.12,0,.32.17.23a7.86,7.86,0,0,0,1.47-1.35,12.5,12.5,0,0,0,1.28-1.53c.08-.11-.1-.24-.19-.14Z"/><path class="cls-4" d="M136.31,141.07a10,10,0,0,0-1.88,1.24,5.76,5.76,0,0,0-1.56,1.59c-.06.11.06.25.17.18a18.94,18.94,0,0,0,1.46-1.38,22.34,22.34,0,0,1,1.92-1.44.11.11,0,0,0-.11-.19Z"/><path class="cls-4" d="M137,141.16c-.6.47-1.18,1-1.76,1.47a9.52,9.52,0,0,0-1.68,1.55c-.07.09.06.19.15.15A9.16,9.16,0,0,0,135.4,143c.59-.52,1.2-1,1.77-1.6.1-.09,0-.29-.16-.2Z"/><path class="cls-4" d="M130,141.58a24.63,24.63,0,0,0,5.76-.17c.11,0,.07-.17,0-.18a25.08,25.08,0,0,0-5.74.18.09.09,0,0,0,0,.17Z"/><path class="cls-4" d="M171.77,141.55a9.09,9.09,0,0,0-1,1.19,13.32,13.32,0,0,0-1,1.37.14.14,0,0,0,.22.16,12.14,12.14,0,0,0,.93-1.21,10.11,10.11,0,0,0,1-1.39.1.1,0,0,0-.15-.12Z"/><path class="cls-4" d="M173.23,141.09c-.44.38-.86.78-1.28,1.19a10,10,0,0,0-1.12,1.14c-.1.12.09.3.21.21a10.06,10.06,0,0,0,1.16-1.1c.42-.41.83-.82,1.21-1.26a.13.13,0,1,0-.18-.18Z"/><path class="cls-4" d="M174.37,140.74a27.44,27.44,0,0,0-2.69,2.91c-.11.15.13.31.26.19a29,29,0,0,0,2.6-2.93c.1-.12-.06-.29-.17-.17Z"/><path class="cls-4" d="M174.59,141.38c-.41.42-.79.87-1.17,1.31a7.87,7.87,0,0,0-1,1.24.13.13,0,0,0,.2.16,8.06,8.06,0,0,0,1.16-1.31c.34-.41.68-.82,1-1.25.08-.11-.09-.24-.19-.15Z"/><path class="cls-4" d="M174.56,142.67a6.94,6.94,0,0,1-.58.76c-.16.17-.4.32-.47.55a.08.08,0,0,0,.1.1c.26,0,.46-.33.61-.52a3.49,3.49,0,0,0,.49-.83c0-.09-.1-.13-.15-.06Z"/><polygon class="cls-4" points="131.52 145.69 131.52 145.69 131.52 145.69 131.52 145.69"/><path class="cls-4" d="M130.79,145.05c-1,4.56-3.57,8.1-5.7,12.18a18.13,18.13,0,0,0-2,10.75.07.07,0,0,0,.14,0,23,23,0,0,1,.67-7.25,32.36,32.36,0,0,1,3-6.26c1.72-3,3.57-5.94,3.92-9.42,0,0,0,0,0,0Z"/><path class="cls-4" d="M122.6,170.34c-.53,10,0,20.64,2.45,30.4,0,.06.11,0,.1,0-1.53-10.19-2.68-20-2.45-30.37a.05.05,0,0,0-.1,0Z"/><path class="cls-4" d="M125.34,202c.8,13.08,2.56,26.33,4.31,39.32a.1.1,0,0,0,.2,0c-1.16-13.05-2.37-26.36-4.47-39.3a0,0,0,0,0,0,0Z"/><path class="cls-4" d="M174.12,145.62c1.22,9.58,8.93,16.94,7.67,27,0,.08.12.09.13,0,2.06-9.57-5.86-18.12-7.78-27.07Z"/><path class="cls-4" d="M127.21,155.64a23,23,0,0,0-3.12,12.79s.07,0,.07,0a35.9,35.9,0,0,1,3.07-12.78s0,0,0,0Z"/><path class="cls-4" d="M182.14,174c-.48,6.52-1.08,13-1.62,19.54a.06.06,0,0,0,.11,0A131.9,131.9,0,0,0,182.28,174a.07.07,0,0,0-.14,0Z"/><path class="cls-4" d="M180.64,194.74c-2.43,16.21-3.31,32.64-5.68,48.87,0,0,.06.06.07,0,1.42-8,2.26-16.08,3.11-24.15.87-8.23,2-16.47,2.54-24.73,0,0,0,0,0,0Z"/><path class="cls-4" d="M131.52,144.63a21.16,21.16,0,0,1-2.45,7.37s0,.08.06,0a16,16,0,0,0,2.46-7.4s-.06,0-.07,0Z"/><path class="cls-4" d="M132.73,144.42a25.84,25.84,0,0,1-1.89,7c0,.06.07.09.1,0a16.31,16.31,0,0,0,1.91-7c0-.08-.11-.07-.12,0Z"/><path class="cls-4" d="M134,144.2a25.13,25.13,0,0,1-1.83,6.82s0,.08.08,0a14.69,14.69,0,0,0,1.87-6.86c0-.07-.11-.07-.12,0Z"/><path class="cls-4" d="M134.89,144.63a31.12,31.12,0,0,1-.86,5.51.06.06,0,0,0,.12,0,13.6,13.6,0,0,0,.81-5.55,0,0,0,1,0-.07,0Z"/><path class="cls-4" d="M136,145.26a23.29,23.29,0,0,0-.67,4.05c0,.07.11.08.13,0a23,23,0,0,0,.66-4.05c0-.07-.1-.08-.12,0Z"/><path class="cls-4" d="M186.48,79.81c.37,5.35-1.7,9.84-3.75,14.63,0,0,0,.06.05,0,2.31-4.52,4.35-9.49,3.73-14.66a0,0,0,1,0,0,0Z"/><path class="cls-4" d="M117.28,78.54a95.31,95.31,0,0,0,13.83-4.37c.08,0,0-.17,0-.14-4.54,1.75-9.13,3.16-13.82,4.45,0,0,0,.07,0,.06Z"/><path class="cls-4" d="M169.08,74c5.57,2.12,11.22,4,16.85,6,.1,0,.14-.11,0-.14-5.59-2-11.21-4.06-16.87-5.89,0,0,0,0,0,.06Z"/><path class="cls-4" d="M133.19,132.52c0,2.55-.09,5.1-.05,7.65a.08.08,0,0,0,.15,0c0-2.55,0-5.1,0-7.65a0,0,0,0,0-.05,0Z"/><path class="cls-4" d="M133.82,132.73c.06,2.41.12,4.82.23,7.22,0,.1.16.1.16,0-.07-2.41-.19-4.81-.31-7.22,0,0-.08,0-.08,0Z"/><path class="cls-4" d="M134.89,134a49.5,49.5,0,0,0,0,5.31.06.06,0,1,0,.12,0,52.25,52.25,0,0,0,0-5.31s-.05,0-.05,0Z"/><path class="cls-4" d="M131.31,241.72c11.8.74,23.86,1.19,35.69,1.08a.07.07,0,0,0,0-.13c-11.8-.79-23.86-1-35.69-1,0,0,0,0,0,0Z"/><path class="cls-4" d="M130.24,240.26c5.19-.1,10.32-.11,15.51,0a.07.07,0,0,0,0-.13,78,78,0,0,0-15.51,0c-.05,0-.06.09,0,.09Z"/><path class="cls-4" d="M152.06,144.63a11.53,11.53,0,0,0,0,2.56,0,0,0,0,0,.09,0,11.53,11.53,0,0,0,0-2.56.07.07,0,1,0-.13,0Z"/><path class="cls-4" d="M152.92,145.05a14.18,14.18,0,0,0,0,2.35s.06,0,.07,0a14.18,14.18,0,0,0,0-2.35c0-.06-.11-.06-.11,0Z"/><path class="cls-4" d="M153.78,144.84a10.26,10.26,0,0,0,0,2.35,0,0,0,0,0,.09,0,10.26,10.26,0,0,0,0-2.35,0,0,0,0,0-.09,0Z"/><path class="cls-4" d="M154.88,145.05a2.77,2.77,0,0,1,.36,1.91s.07.07.09,0a2,2,0,0,0-.36-2c0-.05-.12,0-.09.05Z"/><path class="cls-4" d="M129.44,223.72c.69,5.12,1.14,10.19,1.42,15.35,0,0,.08,0,.08,0a86.92,86.92,0,0,0-1.43-15.36,0,0,0,0,0-.07,0Z"/><path class="cls-4" d="M130.92,224.09c.44,4.78.87,9.56,1.33,14.34,0,.1.17.1.16,0q-.67-7.17-1.39-14.34c0-.06-.1-.06-.1,0Z"/><path class="cls-4" d="M133.23,227.59c.32,3.82.55,7.67,1,11.47a.05.05,0,0,0,.1,0c-.22-3.83-.7-7.65-1.08-11.47,0,0-.07,0-.06,0Z"/><path class="cls-4" d="M124,171.5a37.73,37.73,0,0,0,.46,7.36,0,0,0,0,0,.07,0c-.06-2.43-.29-4.92-.51-7.35Z"/><path class="cls-4" d="M125.3,169.91c.27,2.77.5,5.55.9,8.3a0,0,0,0,0,.09,0c-.21-2.77-.6-5.53-.94-8.29a0,0,0,0,0,0,0Z"/><path class="cls-4" d="M127.45,171.19c.16,2.13.28,4.28.56,6.39a0,0,0,0,0,.07,0c-.07-2.12-.32-4.26-.52-6.38,0-.07-.11-.07-.11,0Z"/><path class="cls-4" d="M128.85,172.15a19.48,19.48,0,0,1,.26,4.45c0,.05.09.07.1,0a11.68,11.68,0,0,0-.29-4.48s-.08,0-.07,0Z"/><path class="cls-4" d="M180.05,175c-.26,5.14-.62,10.22-1.22,15.34,0,.06.1.07.1,0A98.6,98.6,0,0,0,180.08,175Z"/><path class="cls-4" d="M178.48,192.86a17.44,17.44,0,0,1-1.19,8.92c0,.05.07.09.09,0a16.38,16.38,0,0,0,1.16-9,0,0,0,0,0-.06,0Z"/><path class="cls-4" d="M177.25,192.54c.09,2.68-.13,5.29-.3,8,0,0,.06.05.06,0a28,28,0,0,0,.28-8,0,0,0,1,0,0,0Z"/><path class="cls-4" d="M179.29,164.79a23,23,0,0,1,.44,7.66c0,.08.11.08.12,0a19.28,19.28,0,0,0-.54-7.67s0,0,0,0Z"/><path class="cls-4" d="M175.46,224.73c-.48,5.3-1,10.61-1.38,15.92,0,0,0,0,0,0,.52-5.3,1-10.61,1.39-15.92a0,0,0,0,0,0,0Z"/><path class="cls-4" d="M173.86,224.08a168.53,168.53,0,0,1-1.59,17.81,0,0,0,0,0,.08,0,100.31,100.31,0,0,0,1.57-17.82,0,0,0,0,0-.06,0Z"/><path class="cls-4" d="M173,224.07a114.06,114.06,0,0,0-.5,14.67.05.05,0,1,0,.1,0c.14-4.89.18-9.78.49-14.67,0,0-.08,0-.09,0Z"/><path class="cls-4" d="M172.47,131.67a68.2,68.2,0,0,1-.39,8.92c0,.09.14.09.15,0a49.27,49.27,0,0,0,.31-8.92,0,0,0,1,0-.07,0Z"/><path class="cls-4" d="M171.17,133.26c.07,2.58-.1,5.09-.22,7.66,0,.06.09.07.1,0a27.75,27.75,0,0,0,.21-7.67c0-.06-.1-.06-.09,0Z"/><path class="cls-4" d="M169.32,134.54c0,2.33-.13,4.68,0,7,0,0,.06,0,.06,0,.12-2.33,0-4.68,0-7,0,0,0,0,0,0Z"/><path class="cls-4" d="M175.24,120.15a42.2,42.2,0,0,0-1.85,11.2c0,.07.11.07.12,0a81.35,81.35,0,0,1,1.8-11.18s-.06-.06-.07,0Z"/><path class="cls-4" d="M181.35,78.11a32.43,32.43,0,0,0-1.3,4.45,0,0,0,0,0,.09,0,33.35,33.35,0,0,0,1.22-4.48s0,0,0,0Z"/><path class="cls-4" d="M182.3,78.75c-.34,1.26-.75,2.53-1,3.81,0,0,.05.06.06,0,.41-1.24.66-2.55,1-3.82,0,0,0,0,0,0Z"/><path class="cls-4" d="M183.28,79.7a28.9,28.9,0,0,0-1,3.5,0,0,0,0,0,.09,0,28.31,28.31,0,0,0,1-3.5s-.06-.07-.07,0Z"/><path class="cls-4" d="M184.57,80a8.77,8.77,0,0,1-.94,2.85,0,0,0,1,0,.08,0,5,5,0,0,0,.9-2.9s0,0,0,0Z"/><path class="cls-4" d="M117.72,77.81a37.21,37.21,0,0,0,1.22,3.84,0,0,0,0,0,.09,0,37.16,37.16,0,0,0-1.18-3.85.07.07,0,0,0-.13,0Z"/><path class="cls-4" d="M118.88,77.84c.31,1,.58,2,1,2.87,0,0,.08,0,.07,0-.25-1-.63-1.92-.94-2.87,0,0-.11,0-.09,0Z"/><path class="cls-4" d="M119.91,77.85a4.58,4.58,0,0,1,1,2.83s.06,0,.06,0a3.83,3.83,0,0,0-1-2.9s-.09,0,0,.06Z"/><path class="cls-4" d="M121.2,77.5c.31.84.59,1.73,1,2.55,0,0,0,0,0,0-.25-.87-.63-1.71-1-2.55,0,0-.08,0-.07,0Z"/><path class="cls-4" d="M122.83,76.85c.2,1,.37,1.93.65,2.87,0,0,.08,0,.07,0-.15-1-.42-1.92-.66-2.86,0,0-.07,0-.06,0Z"/><path class="cls-4" d="M124.43,76.83a5.18,5.18,0,0,1,.88,2.58,0,0,0,0,0,0,0,4.39,4.39,0,0,0-.88-2.61s-.07,0,0,0Z"/></g></g></svg>