<?xml version="1.0" encoding="UTF-8" standalone="no"?><!-- Generator: Gravit.io --><svg xmlns="http://www.w3.org/2000/svg" xmlns:xlink="http://www.w3.org/1999/xlink" style="isolation:isolate" viewBox="0 0 316 316" width="316pt" height="316pt"><defs><clipPath id="_clipPath_Jx7RpwabBj0XenrqPz8mbropO0REbyFJ"><rect width="316" height="316"/></clipPath></defs><g clip-path="url(#_clipPath_Jx7RpwabBj0XenrqPz8mbropO0REbyFJ)"><circle vector-effect="non-scaling-stroke" cx="158" cy="158" r="158" fill="rgb(229,229,229)"/><clipPath id="_clipPath_m8au37o33f8dK81Zcp84VFEnT5VDIddB"><circle vector-effect="non-scaling-stroke" cx="157.77" cy="158.1" r="140.1" fill="rgb(255,255,255)"/></clipPath><g clip-path="url(#_clipPath_m8au37o33f8dK81Zcp84VFEnT5VDIddB)"><g><path d=" M 119.77 94.982 C 113.54 94.402 105.99 99.922 105.54 106.362 C 105.54 106.672 105.93 106.672 106.02 106.432 C 108.64 99.972 112.62 96.182 119.77 95.512 C 119.897 95.487 119.988 95.376 119.988 95.247 C 119.988 95.117 119.897 95.006 119.77 94.982 Z " fill="rgb(20,33,61)"/><path d=" M 105.72 107.732 C 101.413 126.868 99.399 146.449 99.72 166.062 C 99.95 185.892 95.98 205.372 96.9 225.272 C 96.9 225.862 97.84 225.872 97.82 225.272 C 97.476 215.498 97.733 205.713 98.59 195.972 C 99.49 186.242 100.79 176.702 100.67 166.902 C 100.525 157.162 100.946 147.422 101.93 137.732 C 102.98 127.732 105.01 117.732 105.93 107.732 C 105.93 107.632 105.79 107.612 105.76 107.732 L 105.72 107.732 Z " fill="rgb(20,33,61)"/><path d=" M 97.41 226.212 C 101.31 228.052 106.97 229.342 111.21 228.052 C 111.316 228.008 111.379 227.898 111.362 227.784 C 111.346 227.671 111.254 227.583 111.14 227.572 C 108.86 227.342 106.58 227.572 104.29 227.292 C 102.031 226.93 99.804 226.392 97.63 225.682 C 97.32 225.582 97.1 226.072 97.41 226.212 L 97.41 226.212 Z " fill="rgb(20,33,61)"/><path d=" M 111.39 227.622 C 112.55 218.262 113.12 208.792 113.89 199.392 C 114.66 189.992 116.11 180.512 115.94 171.162 C 115.94 170.872 115.48 170.782 115.42 171.092 C 113.82 180.092 113.73 189.442 113.02 198.512 C 112.26 208.192 111.28 217.912 110.93 227.622 C 110.93 227.922 111.35 227.902 111.39 227.622 L 111.39 227.622 Z " fill="rgb(20,33,61)"/><path d=" M 115.61 174.452 C 116.77 167.092 119.1 159.992 120.33 152.622 C 121.33 146.542 123.27 139.502 122.45 133.332 C 122.45 132.972 121.78 132.982 121.73 133.332 C 120.57 140.442 120.21 147.682 118.99 154.802 C 117.89 161.212 115.18 167.892 115.43 174.432 C 115.43 174.532 115.59 174.562 115.61 174.432 L 115.61 174.452 Z " fill="rgb(20,33,61)"/><path d=" M 106.83 103.252 C 108.217 108.411 110.075 113.432 112.38 118.252 C 115.03 123.422 119.17 127.592 121.38 133.012 C 121.5 133.292 121.96 133.172 121.85 132.882 C 119.96 128.282 116.78 124.602 114.15 120.432 C 110.85 115.172 109.31 108.962 106.99 103.242 C 106.99 103.192 106.95 103.152 106.9 103.152 C 106.85 103.152 106.81 103.192 106.81 103.242 L 106.83 103.252 Z " fill="rgb(20,33,61)"/><path d=" M 108.18 102.502 C 110.81 113.062 116.41 124.022 122.65 132.862 C 122.81 133.092 123.17 132.862 123.02 132.652 C 120.17 127.792 117.25 123.042 114.79 117.962 C 112.33 112.882 110.51 107.612 108.3 102.452 C 108.3 102.392 108.17 102.452 108.18 102.452 L 108.18 102.502 Z " fill="rgb(20,33,61)"/><path d=" M 153.26 102.342 C 148.57 99.672 142.96 98.402 137.71 97.412 C 131.14 96.172 126.1 94.832 120.59 90.852 C 120.28 90.632 119.88 91.062 120.08 91.362 C 122.88 95.672 128.6 97.002 133.34 97.892 C 140.07 99.152 146.49 101.092 153.14 102.612 C 153.3 102.612 153.41 102.422 153.26 102.342 Z " fill="rgb(20,33,61)"/><path d=" M 120.23 91.172 C 119.671 89.593 119.41 87.925 119.46 86.252 C 119.69 84.606 120.158 83.003 120.85 81.492 C 120.863 81.445 120.843 81.395 120.801 81.369 C 120.76 81.344 120.706 81.349 120.67 81.382 C 118.37 83.852 118.27 88.482 119.93 91.292 C 119.963 91.375 120.057 91.415 120.14 91.382 C 120.223 91.349 120.263 91.255 120.23 91.172 L 120.23 91.172 Z " fill="rgb(20,33,61)"/><path d=" M 121.64 79.812 C 119.64 85.412 122.74 90.712 127.86 93.152 C 135.86 96.972 144.66 98.732 152.68 102.692 C 152.855 102.764 153.058 102.696 153.153 102.532 C 153.249 102.368 153.209 102.159 153.06 102.042 C 148.06 98.742 142.06 97.042 136.36 95.242 C 128.57 92.762 120.03 90.002 121.9 79.892 C 121.904 79.827 121.863 79.769 121.801 79.75 C 121.74 79.731 121.673 79.756 121.64 79.812 L 121.64 79.812 Z " fill="rgb(20,33,61)"/><path d=" M 154.04 102.992 C 162.48 97.992 172.14 97.332 181.04 93.542 C 186.84 91.072 192.04 85.032 187.76 78.732 C 187.56 78.442 187 78.612 187.15 78.992 C 191.44 89.992 179.95 93.322 171.75 95.512 C 165.52 97.182 159.06 98.612 153.75 102.432 C 153.43 102.672 153.75 103.202 154.08 102.992 L 154.04 102.992 Z " fill="rgb(20,33,61)"/><path d=" M 187.72 79.442 C 191.58 83.832 190.72 89.282 186.59 93.152 C 183.3 96.212 178.81 97.222 174.51 97.942 C 167.36 99.132 160.31 100.302 153.6 103.162 C 153.2 103.332 153.48 103.992 153.89 103.862 C 159.48 101.898 165.219 100.383 171.05 99.332 C 175.8 98.552 180.92 97.982 185.05 95.262 C 190.45 91.712 193.41 84.082 187.84 79.332 C 187.808 79.312 187.768 79.317 187.742 79.343 C 187.716 79.369 187.711 79.41 187.73 79.442 L 187.72 79.442 Z " fill="rgb(20,33,61)"/><path d=" M 121.53 80.792 L 121.24 81.092 L 121.54 80.802 C 121.54 80.802 121.54 80.742 121.54 80.802 L 121.53 80.792 Z " fill="rgb(20,33,61)"/><path d=" M 120.41 82.902 C 120.723 82.055 121.165 81.263 121.72 80.552 C 122.24 79.892 122.92 79.442 123.48 78.832 C 123.57 78.742 123.48 78.572 123.36 78.622 C 121.76 79.192 120.51 81.232 120.15 82.822 C 120.128 82.907 120.179 82.995 120.265 83.017 C 120.351 83.039 120.438 82.987 120.46 82.902 L 120.41 82.902 Z " fill="rgb(20,33,61)"/><path d=" M 120.64 81.082 C 129.93 73.422 140.99 72.232 152.71 72.272 C 164.43 72.312 178.18 73.042 188.33 79.482 C 188.71 79.722 189.05 79.122 188.68 78.882 C 178.32 71.882 163.14 71.302 151.06 71.542 C 141.06 71.742 127.34 72.382 120.5 80.952 C 120.481 80.991 120.49 81.038 120.522 81.068 C 120.554 81.098 120.602 81.104 120.64 81.082 L 120.64 81.082 Z " fill="rgb(20,33,61)"/><path d=" M 121.96 85.562 C 122.12 78.912 132.96 77.612 137.9 76.882 C 143.281 76.125 148.722 75.878 154.15 76.142 C 165.22 76.582 176.06 78.822 186.91 80.882 C 187.4 80.972 187.61 80.242 187.12 80.132 C 173.72 77.262 159.72 74.552 145.96 75.332 C 139.76 75.682 132.9 76.522 127.16 78.992 C 124.26 80.242 121.56 82.162 121.68 85.562 C 121.68 85.639 121.743 85.702 121.82 85.702 C 121.897 85.702 121.96 85.639 121.96 85.562 Z " fill="rgb(20,33,61)"/><path d=" M 132.55 93.872 L 131.07 93.572 L 132.56 93.862 C 132.56 93.862 132.56 93.862 132.56 93.862 L 132.55 93.872 Z " fill="rgb(20,33,61)"/><path d=" M 132.04 94.172 C 132.04 92.312 131.89 90.832 132.89 89.172 C 133.881 87.56 135.489 86.425 137.34 86.032 C 137.44 86.032 137.42 85.832 137.34 85.842 C 133.92 86.112 130.22 90.842 132.03 94.202 L 132.04 94.172 Z " fill="rgb(20,33,61)"/><path d=" M 140.66 85.082 C 146.34 84.242 151.9 83.322 157.66 84.082 C 162.05 84.642 166.29 85.942 170.66 86.702 C 170.732 86.721 170.806 86.678 170.825 86.607 C 170.844 86.535 170.802 86.461 170.73 86.442 C 160.975 83.512 150.653 83.011 140.66 84.982 C 140.57 84.982 140.61 85.132 140.66 85.122 L 140.66 85.082 Z " fill="rgb(20,33,61)"/><path d=" M 174.94 87.852 C 176.919 89.036 177.627 91.562 176.55 93.602 C 176.523 93.648 176.523 93.705 176.55 93.752 C 176.577 93.798 176.626 93.827 176.68 93.827 C 176.734 93.827 176.783 93.798 176.81 93.752 C 177.375 92.712 177.504 91.49 177.169 90.356 C 176.833 89.221 176.06 88.266 175.02 87.702 C 174.93 87.702 174.85 87.792 174.94 87.852 Z " fill="rgb(20,33,61)"/><path d=" M 122.37 132.812 C 120.87 138.812 121.29 147.112 122.93 153.102 C 122.93 153.212 123.02 153.302 123.13 153.302 C 123.24 153.302 123.33 153.212 123.33 153.102 C 123.53 149.492 123.09 145.832 122.95 142.222 C 122.991 139.094 122.821 135.967 122.44 132.862 L 122.37 132.812 Z " fill="rgb(20,33,61)"/><path d=" M 123.53 138.472 C 123.256 143.344 123.464 148.231 124.15 153.062 C 124.15 153.242 124.48 153.202 124.46 153.062 C 123.914 148.232 123.687 143.371 123.78 138.512 C 123.78 138.342 123.54 138.342 123.53 138.512 L 123.53 138.472 Z " fill="rgb(20,33,61)"/><path d=" M 124.77 143.522 C 124.621 146.186 124.621 148.857 124.77 151.522 C 124.783 151.563 124.822 151.59 124.865 151.59 C 124.908 151.59 124.947 151.563 124.96 151.522 C 125.114 148.857 125.114 146.186 124.96 143.522 C 124.96 143.452 124.87 143.452 124.86 143.522 L 124.77 143.522 Z " fill="rgb(20,33,61)"/><path d=" M 119.91 150.132 C 119.541 153.42 119.778 156.749 120.61 159.952 C 122.09 164.902 123.83 167.512 121.33 172.862 C 118.54 178.812 115.6 184.422 114.88 191.092 C 114.88 191.262 115.14 191.332 115.21 191.182 C 116.73 187.672 117.65 183.962 119.06 180.412 C 120.34 177.182 122.6 174.162 123.63 170.872 C 124.297 168.516 124.153 166.005 123.22 163.742 C 121.64 159.022 120.48 155.202 120.22 150.132 C 120.22 150.043 120.148 149.972 120.06 149.972 C 119.972 149.972 119.9 150.043 119.9 150.132 L 119.91 150.132 Z " fill="rgb(20,33,61)"/><path d=" M 112.08 219.892 C 111.74 222.482 111.75 225.152 111.64 227.762 C 111.395 230.381 111.355 233.016 111.52 235.642 C 111.52 235.832 111.85 235.912 111.88 235.692 C 112.187 233.265 112.294 230.816 112.2 228.372 C 112.2 225.552 112.42 222.692 112.2 219.892 C 112.212 219.862 112.202 219.829 112.177 219.81 C 112.152 219.791 112.118 219.791 112.093 219.81 C 112.068 219.829 112.058 219.862 112.07 219.892 L 112.08 219.892 Z " fill="rgb(20,33,61)"/><path d=" M 111.85 236.242 C 125.85 241.682 141.41 243.932 156.38 244.352 C 169.38 244.722 186.31 245.002 197.54 237.352 C 197.745 237.192 197.801 236.904 197.669 236.679 C 197.538 236.454 197.26 236.361 197.02 236.462 C 183.87 242.622 169.08 243.302 154.74 242.802 C 140.1 242.282 126.13 239.282 111.99 235.712 C 111.851 235.685 111.715 235.77 111.679 235.907 C 111.642 236.043 111.717 236.185 111.85 236.232 L 111.85 236.242 Z " fill="rgb(20,33,61)"/><path d=" M 189.29 146.702 C 189.29 154.062 186.16 161.042 187.99 168.352 C 188.9 171.992 190.08 175.542 190.89 179.202 C 191.89 183.442 192.27 187.882 193.61 192.002 C 193.651 192.165 193.808 192.272 193.975 192.249 C 194.142 192.225 194.265 192.08 194.26 191.912 C 194.04 184.392 191.64 176.692 189.59 169.492 C 188.24 164.752 188.46 160.862 189.21 156.062 C 189.71 152.872 190.3 149.862 189.65 146.652 C 189.65 146.442 189.29 146.492 189.29 146.702 L 189.29 146.702 Z " fill="rgb(20,33,61)"/><path d=" M 194.08 193.742 L 194.08 193.442 C 194.08 193.442 194.08 193.442 194.08 193.442 L 194.08 193.742 Z " fill="rgb(20,33,61)"/><path d=" M 124 94.762 C 120.585 93.871 116.952 94.467 114 96.402 C 113.85 96.512 113.93 96.782 114.13 96.722 C 115.603 96.177 117.105 95.717 118.63 95.342 C 120.386 95.149 122.154 95.075 123.92 95.122 C 124.019 95.135 124.111 95.066 124.125 94.967 C 124.139 94.867 124.069 94.775 123.97 94.762 L 124 94.762 Z " fill="rgb(20,33,61)"/><path d=" M 186.62 94.552 C 189.71 95.252 193.11 95.682 195.89 97.312 C 198.1 98.602 200.09 101.572 201.76 103.632 C 205.62 108.422 205.3 115.852 206.76 121.632 C 206.84 121.982 207.43 121.922 207.39 121.552 C 206.83 115.212 206.5 107.432 202.21 102.422 C 200.1 99.962 198.89 97.642 195.93 96.192 C 193.07 94.774 189.886 94.135 186.7 94.342 C 186.59 94.342 186.55 94.522 186.7 94.552 L 186.62 94.552 Z " fill="rgb(20,33,61)"/><path d=" M 206.43 120.622 C 208.73 139.392 210.23 158.032 210.73 176.952 C 211.23 195.552 210.8 214.122 210.98 232.732 C 210.98 233.008 211.204 233.232 211.48 233.232 C 211.756 233.232 211.98 233.008 211.98 232.732 C 212.66 213.862 212.32 194.952 211.8 176.092 C 211.28 157.632 210.73 138.692 206.87 120.562 C 206.82 120.342 206.43 120.382 206.46 120.622 L 206.43 120.622 Z " fill="rgb(20,33,61)"/><path d=" M 189.72 145.562 C 188.77 153.392 189.51 161.472 190.54 169.262 C 191.54 176.512 192.44 184.142 194.54 191.172 C 194.64 191.512 195.22 191.462 195.19 191.082 C 194.5 183.752 192.63 176.502 191.67 169.182 C 190.767 161.34 190.293 153.455 190.25 145.562 C 190.25 145.429 190.143 145.322 190.01 145.322 C 189.877 145.322 189.77 145.429 189.77 145.562 L 189.72 145.562 Z " fill="rgb(20,33,61)"/><path d=" M 199.15 99.182 C 196.919 109.156 193.211 118.742 188.15 127.622 C 188.081 127.743 188.123 127.898 188.245 127.967 C 188.367 128.036 188.521 127.993 188.59 127.872 C 194.148 119.183 197.802 109.415 199.31 99.212 C 199.31 99.102 199.15 99.082 199.13 99.212 L 199.15 99.182 Z " fill="rgb(20,33,61)"/><path d=" M 200.18 100.952 C 197.53 111.182 194.95 121.242 188.91 130.132 C 188.73 130.392 189.15 130.722 189.34 130.472 C 195.4 122.642 199.54 110.752 200.34 100.962 C 200.34 100.929 200.313 100.902 200.28 100.902 C 200.247 100.902 200.22 100.929 200.22 100.962 L 200.18 100.952 Z " fill="rgb(20,33,61)"/><path d=" M 189.39 125.082 C 188.46 127.142 187.39 129.902 187.59 132.182 C 187.604 132.228 187.647 132.259 187.695 132.259 C 187.743 132.259 187.786 132.228 187.8 132.182 C 188.168 131.024 188.449 129.841 188.64 128.642 C 188.91 127.462 189.25 126.292 189.54 125.122 C 189.54 125.032 189.43 124.972 189.39 125.052 L 189.39 125.082 Z " fill="rgb(20,33,61)"/><path d=" M 188.42 128.362 C 187.534 131.631 186.981 134.981 186.77 138.362 C 186.62 140.422 185.98 143.122 187.35 144.862 C 187.49 145.032 187.74 144.862 187.64 144.632 C 186.51 142.412 187.23 138.962 187.45 136.572 C 187.7 133.822 188.16 131.092 188.59 128.362 C 188.59 128.252 188.45 128.202 188.42 128.362 Z " fill="rgb(20,33,61)"/><path d=" M 190.09 128.252 C 188.5 132.252 187.09 138.082 187.8 142.392 C 187.8 142.602 188.14 142.572 188.19 142.392 C 188.86 140.162 188.84 137.682 189.19 135.392 C 189.54 133.102 190.1 130.712 190.44 128.392 C 190.448 128.3 190.39 128.216 190.302 128.192 C 190.213 128.167 190.12 128.209 190.08 128.292 L 190.09 128.252 Z " fill="rgb(20,33,61)"/><path d=" M 188.38 130.082 C 187.373 133.999 187.139 138.075 187.69 142.082 C 187.75 142.532 188.38 142.362 188.43 141.982 C 188.65 139.982 188.53 137.982 188.58 135.982 C 188.745 134.02 188.791 132.049 188.72 130.082 C 188.72 129.999 188.653 129.932 188.57 129.932 C 188.487 129.932 188.42 129.999 188.42 130.082 L 188.38 130.082 Z " fill="rgb(20,33,61)"/><path d=" M 189.84 131.082 C 189.269 135.415 188.992 139.781 189.01 144.152 C 189.033 144.263 189.131 144.343 189.245 144.343 C 189.359 144.343 189.457 144.263 189.48 144.152 C 189.86 139.812 189.9 135.432 190.19 131.082 C 190.19 130.862 189.86 130.872 189.84 131.082 Z " fill="rgb(20,33,61)"/><path d=" M 189.84 140.542 C 189.805 140.944 189.805 141.349 189.84 141.752 C 189.852 141.783 189.882 141.804 189.915 141.804 C 189.948 141.804 189.978 141.783 189.99 141.752 C 190.025 141.349 190.025 140.944 189.99 140.542 C 189.99 140.462 189.87 140.462 189.86 140.542 L 189.84 140.542 Z " fill="rgb(20,33,61)"/><path d=" M 194.51 186.902 C 194.562 202.362 195.758 217.798 198.09 233.082 C 198.09 233.442 198.76 233.362 198.73 232.992 C 197.39 217.652 196.39 202.232 194.86 186.912 C 194.841 186.831 194.768 186.774 194.685 186.774 C 194.602 186.774 194.529 186.831 194.51 186.912 L 194.51 186.902 Z " fill="rgb(20,33,61)"/><path d=" M 198.32 232.462 C 202.48 234.242 207.67 234.972 212.01 233.382 C 212.39 233.242 212.37 232.562 211.91 232.622 C 207.19 233.242 203.16 233.432 198.56 231.902 C 198.23 231.792 198 232.332 198.32 232.462 Z " fill="rgb(20,33,61)"/><path d=" M 192.95 188.742 C 193.58 192.792 193.95 196.912 194.72 200.932 C 194.741 201.023 194.822 201.087 194.915 201.087 C 195.008 201.087 195.089 201.023 195.11 200.932 C 194.966 196.801 194.332 192.702 193.22 188.722 C 193.196 188.653 193.123 188.615 193.053 188.633 C 192.983 188.651 192.938 188.72 192.95 188.792 L 192.95 188.742 Z " fill="rgb(20,33,61)"/><path d=" M 198.2 233.262 C 198.2 233.512 198.07 233.582 198.05 233.812 C 198.03 234.042 198.05 234.182 198.05 234.362 C 198.02 234.788 198.02 235.216 198.05 235.642 C 198.069 235.723 198.142 235.78 198.225 235.78 C 198.308 235.78 198.381 235.723 198.4 235.642 C 198.425 235.215 198.425 234.788 198.4 234.362 C 198.4 234.182 198.4 234.002 198.4 233.812 C 198.4 233.622 198.29 233.512 198.25 233.262 L 198.2 233.262 Z " fill="rgb(20,33,61)"/><path d=" M 198.15 232.082 C 198.004 233.262 197.967 234.454 198.04 235.642 C 198.04 235.747 198.125 235.832 198.23 235.832 C 198.335 235.832 198.42 235.747 198.42 235.642 C 198.485 234.454 198.445 233.262 198.3 232.082 C 198.3 232.055 198.286 232.03 198.263 232.017 C 198.239 232.003 198.211 232.003 198.188 232.017 C 198.164 232.03 198.15 232.055 198.15 232.082 L 198.15 232.082 Z " fill="rgb(20,33,61)"/><path d=" M 198.32 235.452 C 197.81 235.932 197.238 236.342 196.62 236.672 C 195.98 236.982 195.28 237.082 194.62 237.332 C 194.51 237.332 194.48 237.552 194.62 237.582 C 196.197 237.71 197.723 236.985 198.62 235.682 C 198.75 235.492 198.47 235.312 198.31 235.452 L 198.32 235.452 Z " fill="rgb(20,33,61)"/><path d=" M 150.14 104.292 C 149.96 119.692 149.24 135.292 149.55 150.652 C 149.55 150.735 149.617 150.802 149.7 150.802 C 149.783 150.802 149.85 150.735 149.85 150.652 C 151.23 135.432 150.85 119.542 150.21 104.292 L 150.14 104.292 Z " fill="rgb(20,33,61)"/><path d=" M 149.22 152.442 C 148.29 167.282 148.54 182.292 148.63 197.162 C 148.72 212.032 148.28 227.162 150.06 241.862 C 150.085 241.988 150.196 242.08 150.325 242.08 C 150.454 242.08 150.565 241.988 150.59 241.862 C 151.04 227.042 149.69 211.992 149.47 197.162 C 149.25 182.332 149.71 167.332 149.47 152.442 C 149.47 152.364 149.407 152.302 149.33 152.302 C 149.253 152.302 149.19 152.364 149.19 152.442 L 149.22 152.442 Z " fill="rgb(20,33,61)"/><path d=" M 162.26 103.392 C 162.02 115.722 162.35 128.082 162.26 140.392 C 162.17 152.702 161.35 165.072 161.38 177.392 C 161.38 177.458 161.434 177.512 161.5 177.512 C 161.566 177.512 161.62 177.458 161.62 177.392 C 162.75 165.152 162.74 152.682 162.9 140.392 C 163.06 128.102 163.28 115.652 162.55 103.392 C 162.55 103.325 162.496 103.272 162.43 103.272 C 162.364 103.272 162.31 103.325 162.31 103.392 L 162.26 103.392 Z " fill="rgb(20,33,61)"/><path d=" M 162.17 178.492 C 161.27 199.762 165.68 220.912 164.46 242.222 C 164.46 242.572 164.97 242.562 164.99 242.222 C 166.36 221.022 163.19 199.672 162.29 178.492 C 162.29 178.459 162.263 178.432 162.23 178.432 C 162.197 178.432 162.17 178.459 162.17 178.492 Z " fill="rgb(20,33,61)"/><path d=" M 135.84 100.082 C 134.75 105.567 134.331 111.165 134.59 116.752 C 134.59 117.022 135.03 117.112 135.08 116.822 C 136.074 111.301 136.389 105.679 136.02 100.082 C 136.02 99.982 135.86 99.942 135.84 100.082 Z " fill="rgb(20,33,61)"/><path d=" M 136.36 100.992 C 135.668 104.425 135.333 107.92 135.36 111.422 C 135.376 111.477 135.427 111.516 135.485 111.516 C 135.543 111.516 135.594 111.477 135.61 111.422 C 136.307 107.993 136.642 104.5 136.61 101.002 C 136.61 100.842 136.37 100.802 136.34 101.002 L 136.36 100.992 Z " fill="rgb(20,33,61)"/><path d=" M 134.23 115.252 C 133.688 116.487 133.259 117.769 132.95 119.082 C 132.95 119.262 133.18 119.402 133.26 119.212 C 133.77 117.945 134.155 116.633 134.41 115.292 C 134.41 115.242 134.37 115.202 134.32 115.202 C 134.27 115.202 134.23 115.242 134.23 115.292 L 134.23 115.252 Z " fill="rgb(20,33,61)"/><path d=" M 134.78 116.132 C 134.308 117.181 133.988 118.292 133.83 119.432 C 133.835 119.492 133.879 119.543 133.938 119.557 C 133.997 119.57 134.059 119.544 134.09 119.492 C 134.539 118.439 134.836 117.328 134.97 116.192 C 134.981 116.141 134.952 116.09 134.903 116.075 C 134.853 116.059 134.8 116.084 134.78 116.132 Z " fill="rgb(20,33,61)"/><path d=" M 135.32 116.182 C 135.32 116.692 135.32 117.182 135.32 117.722 C 135.254 118.125 135.295 118.539 135.44 118.922 C 135.464 118.959 135.505 118.982 135.55 118.982 C 135.595 118.982 135.636 118.959 135.66 118.922 C 135.805 118.539 135.846 118.125 135.78 117.722 C 135.78 117.202 135.78 116.722 135.78 116.182 C 135.759 116.086 135.673 116.017 135.575 116.017 C 135.477 116.017 135.391 116.086 135.37 116.182 L 135.32 116.182 Z " fill="rgb(20,33,61)"/><path d=" M 135.72 116.742 C 135.593 117.431 135.835 118.137 136.36 118.602 C 136.43 118.662 136.53 118.602 136.48 118.512 C 136.117 118.004 135.921 117.396 135.92 116.772 C 135.92 116.662 135.74 116.632 135.72 116.772 L 135.72 116.742 Z " fill="rgb(20,33,61)"/><path d=" M 172.1 102.082 C 173.1 104.892 171.72 107.712 172.16 110.582 C 172.408 112.226 173.131 113.763 174.24 115.002 C 174.287 115.043 174.358 115.045 174.407 115.006 C 174.457 114.966 174.47 114.897 174.44 114.842 C 172.59 111.972 172.38 109.672 172.72 106.362 C 172.981 104.896 172.833 103.388 172.29 102.002 C 172.29 101.902 172.07 102.002 172.1 102.082 Z " fill="rgb(20,33,61)"/><path d=" M 172.33 101.932 C 172.77 105.602 170.48 113.452 174.88 115.592 C 175.01 115.652 175.19 115.512 175.09 115.382 C 173.638 113.603 172.847 111.377 172.85 109.082 C 172.85 106.662 173.25 104.312 172.57 101.942 C 172.57 101.812 172.32 101.832 172.33 101.942 L 172.33 101.932 Z " fill="rgb(20,33,61)"/><path d=" M 174.28 114.942 C 174.1 115.652 174.19 116.852 174.96 117.202 C 175.01 117.234 175.074 117.232 175.122 117.196 C 175.169 117.16 175.188 117.098 175.17 117.042 C 175.061 116.718 174.934 116.401 174.79 116.092 C 174.684 115.735 174.637 115.364 174.65 114.992 C 174.63 114.906 174.553 114.845 174.465 114.845 C 174.377 114.845 174.3 114.906 174.28 114.992 L 174.28 114.942 Z " fill="rgb(20,33,61)"/><path d=" M 174.87 115.082 C 175 115.402 175.13 115.722 175.28 116.082 C 175.373 116.416 175.548 116.722 175.79 116.972 C 175.831 117.006 175.887 117.014 175.936 116.993 C 175.985 116.972 176.017 116.925 176.02 116.872 C 175.991 116.566 175.884 116.274 175.71 116.022 C 175.54 115.672 175.36 115.332 175.16 115.022 C 175.08 114.862 174.8 115.022 174.87 115.142 L 174.87 115.082 Z " fill="rgb(20,33,61)"/><path d=" M 174.62 115.512 C 174.95 115.712 175.28 115.902 175.62 116.082 C 175.874 116.27 176.175 116.385 176.49 116.412 C 176.553 116.408 176.609 116.373 176.641 116.319 C 176.673 116.265 176.677 116.199 176.65 116.142 C 176.45 115.899 176.187 115.715 175.89 115.612 C 175.55 115.432 175.2 115.272 174.84 115.122 C 174.736 115.083 174.618 115.125 174.562 115.22 C 174.505 115.316 174.526 115.439 174.61 115.512 L 174.62 115.512 Z " fill="rgb(20,33,61)"/><path d=" M 174.72 114.482 C 175.199 114.428 175.684 114.466 176.15 114.592 C 176.58 114.712 176.95 114.952 177.37 115.082 C 177.45 115.082 177.55 115.002 177.49 114.922 C 176.756 114.194 175.661 113.97 174.7 114.352 C 174.64 114.352 174.64 114.492 174.7 114.482 L 174.72 114.482 Z " fill="rgb(20,33,61)"/><path d=" M 135.88 87.082 C 134.297 88.679 133.031 90.562 132.15 92.632 C 132.15 92.702 132.23 92.742 132.27 92.682 C 133.375 90.749 134.587 88.88 135.9 87.082 C 135.9 87.082 135.9 87.082 135.9 87.082 L 135.88 87.082 Z " fill="rgb(20,33,61)"/><path d=" M 138.42 85.822 C 136.8 88.352 135.1 90.912 133.72 93.582 C 133.72 93.582 133.72 93.652 133.77 93.582 C 135.5 91.122 136.98 88.422 138.47 85.822 C 138.47 85.822 138.47 85.762 138.42 85.822 Z " fill="rgb(20,33,61)"/><path d=" M 138.41 87.892 C 136.941 89.81 135.74 91.92 134.84 94.162 C 134.84 94.222 134.92 94.262 134.95 94.162 C 136.13 92.062 137.14 89.912 138.5 87.902 C 138.5 87.902 138.45 87.792 138.41 87.902 L 138.41 87.892 Z " fill="rgb(20,33,61)"/><path d=" M 108.82 102.852 C 110.62 98.092 119.48 96.482 123.93 96.332 C 124.07 96.332 124.08 96.102 123.93 96.102 C 120.206 96.306 116.552 97.195 113.15 98.722 C 111.15 99.562 109.37 100.642 108.64 102.802 C 108.64 102.912 108.78 102.962 108.82 102.802 L 108.82 102.852 Z " fill="rgb(20,33,61)"/><path d=" M 151.22 102.512 C 150.99 106.332 150.7 110.262 150.84 114.092 C 150.828 114.121 150.838 114.154 150.863 114.173 C 150.888 114.192 150.922 114.192 150.947 114.173 C 150.972 114.154 150.982 114.121 150.97 114.092 C 151.36 110.282 151.35 106.342 151.38 102.512 C 151.38 102.412 151.23 102.412 151.22 102.512 Z " fill="rgb(20,33,61)"/><path d=" M 152.38 102.802 C 152.22 106.362 152.23 109.942 152.3 113.502 C 152.319 113.578 152.387 113.631 152.465 113.631 C 152.543 113.631 152.611 113.578 152.63 113.502 C 152.7 109.952 152.7 106.362 152.54 102.802 C 152.54 102.757 152.504 102.722 152.46 102.722 C 152.416 102.722 152.38 102.757 152.38 102.802 L 152.38 102.802 Z " fill="rgb(20,33,61)"/><path d=" M 167.6 120.932 C 167.359 125.29 167.4 129.659 167.72 134.012 C 167.72 133.973 167.689 133.942 167.65 133.942 C 167.611 133.942 167.58 133.973 167.58 134.012 L 167.49 134.812 C 167.49 135.002 167.8 135.012 167.8 134.812 C 167.8 130.182 167.8 125.562 167.66 120.932 L 167.6 120.932 Z " fill="rgb(20,33,61)"/><path d=" M 168.5 122.712 C 168.74 126.478 168.74 130.255 168.5 134.022 C 168.5 134.182 168.73 134.172 168.75 134.022 C 169.13 130.253 169.06 126.453 168.54 122.702 L 168.5 122.712 Z " fill="rgb(20,33,61)"/><path d=" M 169.72 125.692 C 169.72 128.432 169.64 131.172 169.66 133.922 C 169.66 134.042 169.85 134.032 169.84 133.922 L 169.72 133.082 C 169.72 133.082 169.66 133.082 169.65 133.082 C 169.65 133.352 169.65 133.622 169.6 133.892 C 169.6 134.002 169.78 134.012 169.78 133.892 C 169.78 131.142 169.78 128.402 169.72 125.662 C 169.72 125.662 169.66 125.662 169.66 125.662 L 169.72 125.692 Z " fill="rgb(20,33,61)"/><path d=" M 170.8 127.472 C 170.8 129.342 170.67 131.252 170.8 133.112 C 170.788 133.141 170.798 133.174 170.823 133.193 C 170.848 133.212 170.882 133.212 170.907 133.193 C 170.932 133.174 170.942 133.141 170.93 133.112 C 171.08 131.252 170.93 129.342 170.93 127.472 C 170.917 127.435 170.883 127.411 170.845 127.411 C 170.807 127.411 170.773 127.435 170.76 127.472 L 170.8 127.472 Z " fill="rgb(20,33,61)"/><path d=" M 201.26 105.182 C 199.565 114.011 196.257 122.452 191.5 130.082 C 191.4 130.242 191.65 130.382 191.75 130.232 C 196.767 122.722 200.081 114.207 201.46 105.282 C 201.46 105.152 201.29 105.092 201.26 105.232 L 201.26 105.182 Z " fill="rgb(20,33,61)"/><path d=" M 200.8 114.082 C 198.88 119.452 196.1 123.862 193.11 128.642 C 193.091 128.669 193.097 128.707 193.125 128.727 C 193.153 128.746 193.191 128.739 193.21 128.712 C 196.9 124.712 199.35 119.272 200.9 114.112 C 200.9 114.052 200.82 114.022 200.8 114.112 L 200.8 114.082 Z " fill="rgb(20,33,61)"/><path d=" M 199.9 118.832 C 199.029 122.004 197.64 125.011 195.79 127.732 C 195.79 127.802 195.85 127.882 195.9 127.822 C 197.98 125.212 199.357 122.114 199.9 118.822 L 199.9 118.832 Z " fill="rgb(20,33,61)"/><path d=" M 201.36 106.742 C 203.617 111.56 204.921 116.769 205.2 122.082 C 205.212 122.113 205.242 122.134 205.275 122.134 C 205.308 122.134 205.338 122.113 205.35 122.082 C 205.513 116.674 204.166 111.327 201.46 106.642 C 201.46 106.582 201.33 106.642 201.36 106.702 L 201.36 106.742 Z " fill="rgb(20,33,61)"/><path d=" M 206.44 125.682 C 206.94 135.102 207.44 144.912 209.13 154.192 C 209.13 154.23 209.161 154.262 209.2 154.262 C 209.239 154.262 209.27 154.23 209.27 154.192 C 208.43 144.702 207.65 135.192 206.58 125.692 C 206.58 125.602 206.43 125.602 206.44 125.692 L 206.44 125.682 Z " fill="rgb(20,33,61)"/><path d=" M 191.95 131.632 C 191.8 138.842 191.66 146.112 191.95 153.322 C 191.95 153.355 191.977 153.382 192.01 153.382 C 192.043 153.382 192.07 153.355 192.07 153.322 C 192.34 146.112 192.2 138.842 192.07 131.632 C 192.07 131.632 192.01 131.632 192 131.632 L 191.95 131.632 Z " fill="rgb(20,33,61)"/><path d=" M 193.11 134.302 C 193 139.722 192.76 145.242 193.11 150.652 C 193.123 150.688 193.157 150.712 193.195 150.712 C 193.233 150.712 193.267 150.688 193.28 150.652 C 193.6 145.242 193.37 139.722 193.28 134.302 C 193.269 134.275 193.244 134.258 193.215 134.258 C 193.186 134.258 193.161 134.275 193.15 134.302 L 193.11 134.302 Z " fill="rgb(20,33,61)"/><path d=" M 194.4 138.172 C 194.21 142.292 193.82 146.522 194.04 150.652 C 194.04 150.742 194.16 150.732 194.17 150.652 C 194.62 146.542 194.48 142.302 194.53 138.172 C 194.519 138.145 194.494 138.128 194.465 138.128 C 194.436 138.128 194.411 138.145 194.4 138.172 Z " fill="rgb(20,33,61)"/><path d=" M 195.48 140.842 C 195.305 143.712 195.305 146.591 195.48 149.462 C 195.494 149.508 195.537 149.539 195.585 149.539 C 195.633 149.539 195.676 149.508 195.69 149.462 C 195.865 146.591 195.865 143.712 195.69 140.842 C 195.69 140.803 195.659 140.772 195.62 140.772 C 195.581 140.772 195.55 140.803 195.55 140.842 L 195.48 140.842 Z " fill="rgb(20,33,61)"/><path d=" M 196.94 143.522 C 196.82 145.4 196.82 147.284 196.94 149.162 C 196.928 149.195 196.939 149.232 196.967 149.254 C 196.995 149.275 197.035 149.275 197.063 149.254 C 197.091 149.232 197.102 149.195 197.09 149.162 C 197.215 147.284 197.215 145.4 197.09 143.522 C 197.09 143.466 197.045 143.422 196.99 143.422 C 196.935 143.422 196.89 143.466 196.89 143.522 L 196.94 143.522 Z " fill="rgb(20,33,61)"/><path d=" M 191.5 154.572 C 193.24 169.182 195.1 183.972 197.68 198.462 C 197.68 198.542 197.85 198.522 197.84 198.462 C 196.38 183.822 194.06 169.082 191.6 154.582 C 191.6 154.582 191.49 154.582 191.5 154.582 L 191.5 154.572 Z " fill="rgb(20,33,61)"/><path d=" M 197.48 200.282 C 197.53 211.332 197.55 222.552 198.62 233.572 C 198.63 233.594 198.651 233.608 198.675 233.608 C 198.699 233.608 198.72 233.594 198.73 233.572 C 198.57 222.472 197.85 211.382 197.65 200.282 C 197.663 200.244 197.65 200.203 197.618 200.18 C 197.587 200.156 197.543 200.156 197.512 200.18 C 197.48 200.203 197.467 200.244 197.48 200.282 Z " fill="rgb(20,33,61)"/><path d=" M 198.72 217.812 C 198.95 222.812 199.09 227.752 199.62 232.672 C 199.608 232.701 199.618 232.734 199.643 232.753 C 199.668 232.772 199.702 232.772 199.727 232.753 C 199.752 232.734 199.762 232.701 199.75 232.672 C 199.68 227.672 199.22 222.752 198.85 217.812 C 198.85 217.732 198.72 217.732 198.72 217.812 L 198.72 217.812 Z " fill="rgb(20,33,61)"/><path d=" M 200.23 218.082 C 200.015 222.753 200.165 227.434 200.68 232.082 C 200.68 232.152 200.81 232.132 200.81 232.082 C 200.81 227.432 200.43 222.752 200.35 218.082 C 200.35 218.049 200.323 218.022 200.29 218.022 C 200.257 218.022 200.23 218.049 200.23 218.082 L 200.23 218.082 Z " fill="rgb(20,33,61)"/><path d=" M 202.02 219.592 C 202.54 224.062 202.93 228.592 203.68 233.012 C 203.68 233.142 203.93 233.112 203.92 233.012 C 203.55 228.532 202.8 224.072 202.21 219.622 C 202.21 219.502 202 219.502 202.02 219.622 L 202.02 219.592 Z " fill="rgb(20,33,61)"/><path d=" M 209.37 213.952 C 209.24 220.082 209.37 226.252 209.59 232.372 C 209.59 232.432 209.639 232.482 209.7 232.482 C 209.761 232.482 209.81 232.432 209.81 232.372 C 209.86 226.242 209.81 220.072 209.48 213.952 C 209.47 213.93 209.449 213.916 209.425 213.916 C 209.401 213.916 209.38 213.93 209.37 213.952 L 209.37 213.952 Z " fill="rgb(20,33,61)"/><path d=" M 107.99 108.162 C 105.152 122.449 103.629 136.966 103.44 151.532 C 103.44 151.632 103.58 151.632 103.58 151.532 C 104.71 136.982 106.04 122.662 108.09 108.192 C 108.09 108.132 108 108.102 107.99 108.192 L 107.99 108.162 Z " fill="rgb(20,33,61)"/><path d=" M 102.72 154.162 C 102.03 159.312 101.24 164.422 101.98 169.582 C 102.98 176.482 100.12 182.982 100.77 189.852 C 100.77 189.942 100.93 189.942 100.92 189.852 C 100.66 183.742 103.08 177.852 102.54 171.762 C 102.29 168.862 101.7 166.202 101.94 163.262 C 102.18 160.322 102.59 157.212 102.82 154.172 C 102.82 154.172 102.73 154.102 102.72 154.172 L 102.72 154.162 Z " fill="rgb(20,33,61)"/><path d=" M 100.37 192.552 C 99.86 203.692 99.37 214.992 99.99 226.132 C 100 226.154 100.021 226.168 100.045 226.168 C 100.069 226.168 100.09 226.154 100.1 226.132 C 100.4 214.942 100.21 203.742 100.5 192.552 C 100.5 192.472 100.38 192.472 100.37 192.552 L 100.37 192.552 Z " fill="rgb(20,33,61)"/><path d=" M 101.23 212.752 C 100.85 217.092 100.4 221.482 100.34 225.832 C 100.34 225.932 100.47 225.922 100.48 225.832 C 100.99 221.512 101.11 217.102 101.3 212.752 C 101.3 212.752 101.23 212.752 101.23 212.752 Z " fill="rgb(20,33,61)"/><path d=" M 103.1 216.612 C 102.468 219.844 102.253 223.144 102.46 226.432 C 102.471 226.458 102.496 226.476 102.525 226.476 C 102.554 226.476 102.579 226.458 102.59 226.432 C 102.79 223.152 102.83 219.932 103.3 216.662 C 103.3 216.532 103.13 216.482 103.1 216.612 L 103.1 216.612 Z " fill="rgb(20,33,61)"/><path d=" M 104.25 218.412 C 104.14 221.092 103.76 223.752 103.62 226.412 C 103.631 226.438 103.656 226.456 103.685 226.456 C 103.714 226.456 103.739 226.438 103.75 226.412 C 104.241 223.774 104.475 221.095 104.45 218.412 C 104.45 218.356 104.405 218.312 104.35 218.312 C 104.295 218.312 104.25 218.356 104.25 218.412 L 104.25 218.412 Z " fill="rgb(20,33,61)"/><path d=" M 110.5 212.462 C 110.08 216.932 109.5 221.382 109.03 225.852 C 109.03 225.992 109.25 226.022 109.28 225.852 C 110.044 221.417 110.465 216.931 110.54 212.432 L 110.5 212.462 Z " fill="rgb(20,33,61)"/><path d=" M 120.89 132.262 C 119.89 136.582 119.33 140.992 118.78 145.382 C 118.17 150.232 118.31 155.522 116.78 160.182 C 116.78 160.262 116.88 160.322 116.91 160.242 C 118.32 156.932 118.16 153.022 118.55 149.492 C 119.19 143.732 120.2 138.032 120.98 132.292 C 120.98 132.222 120.88 132.182 120.86 132.292 L 120.89 132.262 Z " fill="rgb(20,33,61)"/><path d=" M 121.98 151.872 C 123.13 157.622 125.4 163.432 124.98 169.362 C 124.98 169.432 125.08 169.442 125.1 169.362 C 126.21 163.792 123.65 157.122 122.18 151.812 C 122.158 151.764 122.106 151.738 122.054 151.75 C 122.003 151.762 121.968 151.809 121.97 151.862 L 121.98 151.872 Z " fill="rgb(20,33,61)"/><path d=" M 125.04 171.132 C 124.723 171.998 124.502 172.897 124.38 173.812 C 124.391 173.838 124.416 173.856 124.445 173.856 C 124.474 173.856 124.499 173.838 124.51 173.812 C 124.847 172.954 125.088 172.062 125.23 171.152 C 125.23 171.032 125.07 170.982 125.04 171.152 L 125.04 171.132 Z " fill="rgb(20,33,61)"/><path d=" M 126 171.152 C 125.84 171.722 125.72 172.302 125.6 172.892 C 125.455 173.393 125.375 173.91 125.36 174.432 C 125.36 174.492 125.47 174.542 125.5 174.432 C 125.872 173.372 126.091 172.264 126.15 171.142 C 126.15 171.052 126.03 171.042 126 171.142 L 126 171.152 Z " fill="rgb(20,33,61)"/><path d=" M 187.66 145.902 C 187.61 155.252 183.19 164.322 188.41 173.092 C 188.441 173.129 188.495 173.138 188.537 173.114 C 188.579 173.089 188.597 173.037 188.58 172.992 C 186.254 167.998 185.585 162.392 186.67 156.992 C 187.29 153.242 188.1 149.702 187.83 145.892 C 187.817 145.855 187.783 145.831 187.745 145.831 C 187.707 145.831 187.673 145.855 187.66 145.892 L 187.66 145.902 Z " fill="rgb(20,33,61)"/><path d=" M 194.35 214.832 C 195.23 222.482 195.84 230.042 196.35 237.722 C 196.363 237.758 196.397 237.782 196.435 237.782 C 196.473 237.782 196.507 237.758 196.52 237.722 C 196.746 230.033 196.074 222.345 194.52 214.812 C 194.52 214.722 194.35 214.742 194.36 214.812 L 194.35 214.832 Z " fill="rgb(20,33,61)"/><path d=" M 114.83 213.322 C 113.724 221.115 113.056 228.964 112.83 236.832 C 112.83 236.903 112.888 236.962 112.96 236.962 C 113.032 236.962 113.09 236.903 113.09 236.832 C 113.43 228.982 113.99 221.132 114.93 213.332 C 114.93 213.332 114.87 213.332 114.86 213.332 L 114.83 213.322 Z " fill="rgb(20,33,61)"/><path d=" M 115.72 221.992 C 114.883 226.792 114.478 231.659 114.51 236.532 C 114.525 236.583 114.572 236.617 114.625 236.617 C 114.678 236.617 114.725 236.583 114.74 236.532 C 114.783 231.676 115.117 226.827 115.74 222.012 C 115.74 222.012 115.68 221.952 115.68 222.012 L 115.72 221.992 Z " fill="rgb(20,33,61)"/><path d=" M 116.81 225.522 C 116.221 229.158 115.94 232.838 115.97 236.522 C 115.97 236.605 116.037 236.672 116.12 236.672 C 116.203 236.672 116.27 236.605 116.27 236.522 C 116.71 232.912 116.85 229.182 117.03 225.522 C 117.03 225.402 116.83 225.372 116.81 225.522 Z " fill="rgb(20,33,61)"/><path d=" M 119.52 226.082 C 119.109 229.541 118.872 233.019 118.81 236.502 C 118.81 236.632 119.03 236.672 119.05 236.502 C 119.472 233.033 119.719 229.545 119.79 226.052 C 119.79 225.882 119.53 225.882 119.52 226.052 L 119.52 226.082 Z " fill="rgb(20,33,61)"/><path d=" M 120.83 229.402 C 120.83 231.782 120.52 234.162 120.5 236.532 C 120.5 236.592 120.549 236.642 120.61 236.642 C 120.671 236.642 120.72 236.592 120.72 236.532 C 121.209 234.178 121.331 231.763 121.08 229.372 C 121.064 229.316 121.013 229.277 120.955 229.277 C 120.897 229.277 120.846 229.316 120.83 229.372 L 120.83 229.402 Z " fill="rgb(20,33,61)"/><path d=" M 119.36 185.682 C 116.574 193.198 115.257 201.179 115.48 209.192 C 115.48 209.275 115.547 209.342 115.63 209.342 C 115.713 209.342 115.78 209.275 115.78 209.192 C 116.145 201.253 117.386 193.378 119.48 185.712 C 119.48 185.642 119.39 185.612 119.36 185.712 L 119.36 185.682 Z " fill="rgb(20,33,61)"/><path d=" M 120.01 189.272 C 118.176 195.439 117.229 201.837 117.2 208.272 C 117.2 208.338 117.254 208.392 117.32 208.392 C 117.386 208.392 117.44 208.338 117.44 208.272 C 117.74 201.865 118.658 195.502 120.18 189.272 C 120.18 189.162 120.05 189.122 120.01 189.272 L 120.01 189.272 Z " fill="rgb(20,33,61)"/><path d=" M 164.07 101.082 C 161.266 101.677 158.55 102.631 155.99 103.922 C 155.93 103.922 155.99 104.062 156.05 104.042 C 158.76 103.162 161.33 101.972 164.11 101.222 C 164.2 101.222 164.16 101.062 164.11 101.082 L 164.07 101.082 Z " fill="rgb(20,33,61)"/><path d=" M 156.87 103.562 C 161.05 102.422 165.19 101.672 169.43 100.862 C 169.481 100.847 169.516 100.8 169.516 100.747 C 169.516 100.694 169.481 100.647 169.43 100.632 C 165.116 100.871 160.874 101.834 156.88 103.482 C 156.88 103.482 156.88 103.582 156.88 103.562 L 156.87 103.562 Z " fill="rgb(20,33,61)"/><path d=" M 169.99 100.302 C 166.37 100.302 161.99 100.572 158.63 101.952 C 158.54 101.952 158.53 102.162 158.63 102.152 C 162.42 101.722 166.14 100.842 169.96 100.472 C 169.996 100.459 170.02 100.425 170.02 100.387 C 170.02 100.348 169.996 100.314 169.96 100.302 L 169.99 100.302 Z " fill="rgb(20,33,61)"/><path d=" M 173.87 100.372 C 179.076 100.868 184.288 99.5 188.58 96.512 C 188.624 96.484 188.638 96.426 188.61 96.382 C 188.582 96.337 188.524 96.324 188.48 96.352 C 184.042 98.916 178.995 100.239 173.87 100.182 C 173.829 100.195 173.801 100.233 173.801 100.277 C 173.801 100.32 173.829 100.358 173.87 100.372 L 173.87 100.372 Z " fill="rgb(20,33,61)"/><path d=" M 186.91 94.732 C 184.01 96.719 180.78 98.175 177.37 99.032 C 177.268 99.059 177.207 99.165 177.235 99.267 C 177.263 99.369 177.368 99.429 177.47 99.402 C 180.97 98.685 184.242 97.123 187 94.852 C 187.06 94.802 187 94.682 186.91 94.732 Z " fill="rgb(20,33,61)"/><path d=" M 188.55 94.842 C 187.15 95.652 185.83 96.582 184.41 97.362 C 182.99 98.142 181.48 98.722 180.06 99.482 C 180.013 99.501 179.991 99.555 180.01 99.602 C 180.029 99.649 180.083 99.671 180.13 99.652 C 183.275 98.73 186.173 97.114 188.61 94.922 C 188.66 94.922 188.61 94.812 188.55 94.842 Z " fill="rgb(20,33,61)"/><path d=" M 189.56 94.992 C 187.677 96.156 185.888 97.467 184.21 98.912 C 184.144 98.961 184.13 99.055 184.18 99.122 C 184.23 99.188 184.324 99.201 184.39 99.152 C 186.254 97.979 188.026 96.665 189.69 95.222 C 189.83 95.122 189.69 94.892 189.56 94.992 L 189.56 94.992 Z " fill="rgb(20,33,61)"/><path d=" M 145.6 83.472 C 143.104 86.777 140.959 90.333 139.2 94.082 C 139.198 94.106 139.211 94.13 139.233 94.141 C 139.255 94.152 139.282 94.148 139.3 94.132 C 141.43 90.582 143.36 86.952 145.64 83.492 C 145.64 83.492 145.64 83.432 145.64 83.492 L 145.6 83.472 Z " fill="rgb(20,33,61)"/><path d=" M 125.16 78.442 C 124.619 79.082 124.112 79.749 123.64 80.442 C 123.078 81.061 122.619 81.767 122.28 82.532 C 122.28 82.612 122.36 82.702 122.43 82.652 C 122.987 82.151 123.453 81.56 123.81 80.902 C 124.362 80.158 124.876 79.387 125.35 78.592 C 125.41 78.482 125.25 78.342 125.16 78.452 L 125.16 78.442 Z " fill="rgb(20,33,61)"/><path d=" M 125.28 77.692 C 123.736 78.961 122.584 80.643 121.96 82.542 C 121.89 82.742 122.19 82.812 122.27 82.622 C 122.981 80.824 124.041 79.186 125.39 77.802 C 125.46 77.732 125.39 77.632 125.28 77.692 Z " fill="rgb(20,33,61)"/><path d=" M 125.1 76.932 C 123.66 78.262 121.92 80.202 121.6 82.222 C 121.591 82.273 121.619 82.324 121.667 82.343 C 121.716 82.362 121.771 82.345 121.8 82.302 C 122.33 81.462 122.64 80.492 123.17 79.642 C 123.731 78.699 124.403 77.826 125.17 77.042 C 125.189 77.01 125.184 76.969 125.158 76.943 C 125.132 76.917 125.092 76.912 125.06 76.932 L 125.1 76.932 Z " fill="rgb(20,33,61)"/><path d=" M 128.55 75.922 C 126.959 77.327 125.608 78.982 124.55 80.822 C 124.538 80.852 124.547 80.886 124.574 80.905 C 124.6 80.924 124.635 80.923 124.66 80.902 C 125.37 80.142 125.94 79.232 126.6 78.422 C 127.26 77.612 127.98 76.822 128.68 76.032 C 128.699 76 128.694 75.959 128.668 75.933 C 128.642 75.907 128.602 75.902 128.57 75.922 L 128.55 75.922 Z " fill="rgb(20,33,61)"/><path d=" M 130.79 74.572 C 129.652 75.845 128.625 77.213 127.72 78.662 C 127.687 78.706 127.696 78.769 127.74 78.802 C 127.784 78.835 127.847 78.826 127.88 78.782 C 129.026 77.507 130.06 76.135 130.97 74.682 C 131.03 74.602 130.89 74.492 130.83 74.572 L 130.79 74.572 Z " fill="rgb(20,33,61)"/><path d=" M 133.04 74.212 C 132.54 74.882 132.09 75.592 131.62 76.282 C 131.167 76.866 130.781 77.5 130.47 78.172 C 130.468 78.206 130.486 78.238 130.515 78.255 C 130.545 78.272 130.582 78.271 130.61 78.252 C 131.105 77.698 131.538 77.091 131.9 76.442 C 132.36 75.752 132.83 75.052 133.25 74.332 C 133.32 74.202 133.13 74.102 133.04 74.212 L 133.04 74.212 Z " fill="rgb(20,33,61)"/><path d=" M 136.62 73.242 C 135.38 74.242 133.77 75.642 133.35 77.242 C 133.35 77.322 133.44 77.392 133.49 77.322 C 134.04 76.682 134.41 75.892 134.95 75.242 C 135.492 74.583 136.098 73.98 136.76 73.442 C 136.86 73.362 136.76 73.172 136.62 73.262 L 136.62 73.242 Z " fill="rgb(20,33,61)"/><path d=" M 139.28 72.982 C 138.106 74.105 137.023 75.318 136.04 76.612 C 135.98 76.702 136.11 76.782 136.18 76.722 C 137.36 75.618 138.457 74.428 139.46 73.162 C 139.56 73.042 139.39 72.872 139.28 72.982 L 139.28 72.982 Z " fill="rgb(20,33,61)"/><path d=" M 173.72 74.492 C 173.81 74.652 172.72 76.002 172.54 76.192 C 172.034 76.838 171.585 77.527 171.2 78.252 C 171.11 78.422 171.33 78.622 171.48 78.462 C 171.964 77.907 172.399 77.312 172.78 76.682 C 173.253 76.117 173.659 75.499 173.99 74.842 C 174.09 74.542 173.87 73.992 173.6 74.422 L 173.6 74.492 C 173.6 74.492 173.7 74.492 173.68 74.492 L 173.72 74.492 Z " fill="rgb(20,33,61)"/><path d=" M 176.21 74.802 C 175.898 74.905 175.605 75.057 175.34 75.252 C 174.974 75.529 174.639 75.844 174.34 76.192 C 173.799 76.708 173.447 77.391 173.34 78.132 C 173.343 78.177 173.373 78.217 173.415 78.234 C 173.458 78.251 173.506 78.242 173.54 78.212 C 173.963 77.652 174.357 77.072 174.72 76.472 C 175.191 75.896 175.713 75.364 176.28 74.882 C 176.28 74.882 176.28 74.792 176.28 74.802 L 176.21 74.802 Z " fill="rgb(20,33,61)"/><path d=" M 178.89 74.532 C 178.115 74.924 177.415 75.449 176.82 76.082 C 176.205 76.633 175.723 77.317 175.41 78.082 C 175.385 78.154 175.414 78.234 175.479 78.272 C 175.545 78.311 175.629 78.298 175.68 78.242 C 176.24 77.672 176.63 76.912 177.18 76.322 C 177.752 75.745 178.356 75.2 178.99 74.692 C 179.07 74.632 178.99 74.522 178.89 74.562 L 178.89 74.532 Z " fill="rgb(20,33,61)"/><path d=" M 180.89 75.662 C 180.31 76.182 179.77 76.742 179.19 77.262 C 178.616 77.677 178.102 78.168 177.66 78.722 C 177.64 78.762 177.645 78.811 177.673 78.847 C 177.7 78.882 177.746 78.9 177.79 78.892 C 178.459 78.592 179.056 78.152 179.54 77.602 C 180.121 77.066 180.65 76.477 181.12 75.842 C 181.22 75.702 181.01 75.562 180.89 75.662 L 180.89 75.662 Z " fill="rgb(20,33,61)"/><path d=" M 183.03 76.612 C 182.572 77.03 182.135 77.47 181.72 77.932 C 181.293 78.316 180.929 78.765 180.64 79.262 C 180.613 79.311 180.621 79.373 180.659 79.414 C 180.698 79.455 180.759 79.466 180.81 79.442 C 181.3 79.08 181.735 78.649 182.1 78.162 C 182.5 77.702 182.9 77.232 183.25 76.742 C 183.32 76.632 183.17 76.532 183.08 76.612 L 183.03 76.612 Z " fill="rgb(20,33,61)"/><path d=" M 185.97 76.932 C 185.686 77.575 185.282 78.159 184.78 78.652 C 184.69 78.732 184.78 78.852 184.9 78.812 C 185.614 78.465 186.103 77.78 186.2 76.992 C 186.207 76.932 186.169 76.877 186.111 76.862 C 186.053 76.846 185.993 76.876 185.97 76.932 Z " fill="rgb(20,33,61)"/><path d=" M 163.61 148.572 Q 163.9 162.572 164.38 176.502 C 164.38 176.702 164.7 176.702 164.69 176.502 Q 164.26 162.502 163.69 148.572 C 163.12 134.642 163.69 148.572 163.69 148.572 L 163.61 148.572 Z " fill="rgb(20,33,61)"/><path d=" M 165.48 157.192 C 165.42 162.422 165.2 167.712 165.36 172.942 C 165.373 172.978 165.407 173.002 165.445 173.002 C 165.483 173.002 165.517 172.978 165.53 172.942 C 165.855 167.697 165.855 162.437 165.53 157.192 L 165.48 157.192 Z " fill="rgb(20,33,61)"/><path d=" M 166.97 162.242 C 166.91 165.602 166.83 168.982 166.91 172.342 C 166.91 172.381 166.931 172.417 166.965 172.437 C 166.999 172.457 167.041 172.457 167.075 172.437 C 167.109 172.417 167.13 172.381 167.13 172.342 C 167.21 168.982 167.13 165.602 167.07 162.242 C 167.07 162.224 167.06 162.207 167.045 162.198 C 167.03 162.189 167.01 162.189 166.995 162.198 C 166.98 162.207 166.97 162.224 166.97 162.242 L 166.97 162.242 Z " fill="rgb(20,33,61)"/><path d=" M 168.72 163.722 C 168.54 166.098 168.54 168.485 168.72 170.862 C 168.733 170.898 168.767 170.922 168.805 170.922 C 168.843 170.922 168.877 170.898 168.89 170.862 C 169.075 168.485 169.075 166.098 168.89 163.722 C 168.877 163.685 168.843 163.661 168.805 163.661 C 168.767 163.661 168.733 163.685 168.72 163.722 Z " fill="rgb(20,33,61)"/><path d=" M 170.2 164.912 C 170.08 166.693 170.08 168.48 170.2 170.262 C 170.2 170.306 170.236 170.342 170.28 170.342 C 170.324 170.342 170.36 170.306 170.36 170.262 C 170.49 168.481 170.49 166.693 170.36 164.912 C 170.36 164.802 170.19 164.802 170.18 164.912 L 170.2 164.912 Z " fill="rgb(20,33,61)"/><path d=" M 171.72 165.212 C 171.72 166.692 171.6 168.212 171.72 169.672 C 171.72 169.705 171.747 169.732 171.78 169.732 C 171.813 169.732 171.84 169.705 171.84 169.672 C 171.96 168.202 171.84 166.672 171.84 165.212 C 171.83 165.19 171.809 165.176 171.785 165.176 C 171.761 165.176 171.74 165.19 171.73 165.212 L 171.72 165.212 Z " fill="rgb(20,33,61)"/><path d=" M 173.81 165.212 C 173.75 166.004 173.75 166.799 173.81 167.592 C 173.81 167.619 173.832 167.642 173.86 167.642 C 173.888 167.642 173.91 167.619 173.91 167.592 C 173.965 166.799 173.965 166.004 173.91 165.212 C 173.91 165.194 173.9 165.177 173.885 165.168 C 173.87 165.159 173.85 165.159 173.835 165.168 C 173.82 165.177 173.81 165.194 173.81 165.212 L 173.81 165.212 Z " fill="rgb(20,33,61)"/><path d=" M 126.88 160.162 C 126.429 163.311 126.332 166.501 126.59 169.672 C 126.59 169.672 126.68 169.672 126.68 169.672 C 126.68 166.482 126.62 163.342 126.94 160.162 C 126.94 160.162 126.89 160.162 126.88 160.162 Z " fill="rgb(20,33,61)"/><path d=" M 128.03 161.082 C 128.03 163.642 127.86 166.252 128.03 168.812 C 128.03 168.882 128.15 168.882 128.15 168.812 C 128.33 166.252 128.15 163.642 128.15 161.082 C 128.15 161.049 128.123 161.022 128.09 161.022 C 128.057 161.022 128.03 161.049 128.03 161.082 L 128.03 161.082 Z " fill="rgb(20,33,61)"/><path d=" M 130.24 160.442 C 129.925 163.014 129.895 165.613 130.15 168.192 C 130.15 168.219 130.172 168.242 130.2 168.242 C 130.228 168.242 130.25 168.219 130.25 168.192 C 130.36 165.612 130.25 163.042 130.4 160.452 C 130.4 160.352 130.25 160.352 130.24 160.452 L 130.24 160.442 Z " fill="rgb(20,33,61)"/><path d=" M 132.48 161.642 C 132.385 163.524 132.385 165.41 132.48 167.292 C 132.48 167.325 132.507 167.352 132.54 167.352 C 132.573 167.352 132.6 167.325 132.6 167.292 C 132.7 165.41 132.7 163.524 132.6 161.642 C 132.6 161.603 132.569 161.572 132.53 161.572 C 132.491 161.572 132.46 161.603 132.46 161.642 L 132.48 161.642 Z " fill="rgb(20,33,61)"/><path d=" M 134.5 162.242 C 134.35 164.129 134.35 166.025 134.5 167.912 C 134.5 168.002 134.67 168.002 134.68 167.912 C 134.83 166.025 134.83 164.129 134.68 162.242 C 134.68 162.17 134.622 162.112 134.55 162.112 C 134.478 162.112 134.42 162.17 134.42 162.242 L 134.5 162.242 Z " fill="rgb(20,33,61)"/><path d=" M 136.03 163.132 C 135.915 164.523 135.915 165.921 136.03 167.312 C 136.03 167.392 136.19 167.392 136.2 167.312 C 136.315 165.921 136.315 164.523 136.2 163.132 C 136.2 163.082 136.16 163.042 136.11 163.042 C 136.06 163.042 136.02 163.082 136.02 163.132 L 136.03 163.132 Z " fill="rgb(20,33,61)"/><path d=" M 139.02 163.132 C 138.783 164.924 138.827 166.743 139.15 168.522 C 139.163 168.558 139.197 168.582 139.235 168.582 C 139.273 168.582 139.307 168.558 139.32 168.522 C 139.32 166.732 139.12 164.952 139.21 163.152 C 139.21 163.032 139.03 163.032 139.02 163.152 L 139.02 163.132 Z " fill="rgb(20,33,61)"/><path d=" M 141.99 165.512 C 141.779 166.889 141.662 168.279 141.64 169.672 C 141.64 169.762 141.79 169.792 141.81 169.672 C 142.033 168.289 142.157 166.892 142.18 165.492 C 142.18 165.362 142 165.362 141.99 165.492 L 141.99 165.512 Z " fill="rgb(20,33,61)"/><path d=" M 156.78 208.302 C 156.72 219.302 156.63 230.302 157.02 241.302 C 157.02 241.36 157.067 241.407 157.125 241.407 C 157.183 241.407 157.23 241.36 157.23 241.302 C 157.41 230.302 157.11 219.302 156.84 208.302 L 156.78 208.302 Z " fill="rgb(20,33,61)"/><path d=" M 157.2 105.192 C 156.32 117.842 156.05 130.552 155.62 143.192 C 155.19 155.832 154.32 168.582 154.48 181.192 C 154.493 181.228 154.527 181.252 154.565 181.252 C 154.603 181.252 154.637 181.228 154.65 181.192 C 155.55 168.562 155.51 155.812 155.96 143.192 C 156.41 130.572 157.09 117.842 157.23 105.192 L 157.2 105.192 Z " fill="rgb(20,33,61)"/><path d=" M 155.38 184.232 C 155.29 189.672 155.53 195.142 155.72 200.582 C 155.72 200.642 155.769 200.692 155.83 200.692 C 155.891 200.692 155.94 200.642 155.94 200.582 C 155.86 195.142 155.83 189.662 155.47 184.232 L 155.38 184.232 Z " fill="rgb(20,33,61)"/><path d=" M 38.63 151.362 L 38.79 151.072 C 38.721 151.09 38.663 151.136 38.629 151.198 C 38.595 151.261 38.588 151.334 38.61 151.402 C 38.61 151.402 38.61 151.402 38.61 151.402 L 38.63 151.362 Z " fill="rgb(20,33,61)"/><path d=" M 99.28 158.762 C 100.91 165.912 101.6 173.242 102.87 180.462 C 101.97 173.272 101.15 165.772 99.28 158.752 C 99.28 158.752 99.22 158.752 99.23 158.752 L 99.28 158.762 Z " fill="rgb(20,33,61)"/><path d=" M 50.79 151.922 C 50.623 152.235 50.505 152.572 50.44 152.922 C 50.44 152.922 50.5 152.922 50.52 152.922 C 50.679 152.623 50.794 152.303 50.86 151.972 L 50.79 151.922 Z " fill="rgb(20,33,61)"/><path d=" M 12.63 187.002 C 12.41 190.002 12.18 193.002 12 196.002 C 12 196.002 12 196.002 12 196.002 C 12.424 193.02 12.634 190.013 12.63 187.002 L 12.63 187.002 Z " fill="rgb(20,33,61)"/><path d=" M 56.27 200.842 C 56.728 201 57.039 201.427 57.05 201.912 C 57.05 201.912 57.05 201.912 57.05 201.912 C 57.135 201.375 56.775 200.868 56.24 200.772 L 56.27 200.842 Z " fill="rgb(20,33,61)"/></g></g></g></svg>