<?xml version="1.0" encoding="UTF-8"?><svg xmlns="http://www.w3.org/2000/svg" viewBox="0 0 316 316"><defs><style>.d{fill:#fff;}.d,.e{fill-rule:evenodd;}.f,.e{fill:#14213d;}.g{fill:#c9b194;}.h{fill:none;}</style></defs><g id="a"/><g id="b"><g id="c"><g><g><g><path class="e" d="M231.77,171.01c4.53-.51,9.41-2.6,13.64-4.75,5.57-2.81,12.13-4.76,12.46-10.09-8.72,6.31-18.96,13.6-34.71,12.46-5.52-.4-9.38-2.62-14.83-3.56-4.54-6.48-9.57-12.47-16.44-16.61,.03,0,.07,.01,.12,0,13.07,2.71,27.51,10.59,43.61,7.71,6.9-1.23,15.62-5.28,18.09-10.98-8.7,5.81-17.02,10.87-30.55,9.2-4.43-.55-9.03-3.51-14.24-5.04-4.98-1.47-10.23-3.19-15.42-3.86-2.93-.37-5.9,.58-8.31,.3-2.77-.33-6.39-2.21-10.09-2.67-1.66-.21-3.22,.12-4.75-.59-.13-1.32,.76-1.61,2.08-1.48-.48-1.1-.25-2.92-.3-4.45,20.56-1.74,34.25,10.98,55.18,8.9,9.22-.92,18.29-5.34,21.36-13.05-2.71,1.08-2.86,2.85-4.45,4.15-5.51,4.5-12.76,5.89-20.17,6.23-18.05,.82-35.01-10.72-54.29-8.6,1.29-1.97,3.16-3.36,2.37-7.42-2.07-.94-3.77-.61-3.56-2.67,.15-1.44,1.62-.61,2.37-2.08,.73-1.42,.09-1.96,.3-3.86-.78-1.29-2.84-1.31-2.97-3.26,2.35-.27,2.08-4.42,1.19-6.23-1.32-.36-3.04-.32-4.75-.3-.74,.65-.52,2.25-2.08,2.08-1.76,.47-.94-1.63-2.07-1.78-2.03-.05-3.97-.02-5.64,.3-.13,.96,.39,2.57-.59,2.67-2.22,.24-2.42-1.53-3.56-2.37-1.61,.07-2.88,.48-4.74,.3-2.5,4.99-4.19-1.49-8.9-.3-.47,2.9-4.91,3.05-5.64,.3-.8,.58-2.59,.18-3.85,.3-.28,3.54-3.78,3.44-4.75,.59-1.94-.21-2.98,.5-4.45,0-.59,2.57-4.15,3.09-5.64,.89-3.56-.59-4.75,1.18-6.53,2.37-1.4,.11-1-1.57-2.08-1.78-3.73-.67-4.9,1.23-6.82,2.37-.22,.02-.38-.01-.52-.07-.15-.18-.3-.33-.47-.46-.27-.51-.35-1.2-1.09-1.24-1.61-.03-2.71,.45-3.86,.89v3.26c.87,.36,1.43,.69,1.79,1.02,.14,.22,.29,.45,.44,.67,.41,1.55-2.95,3.21-1.93,6.91,3.95-.81,3.63,4.56,.3,4.15,.33,1.75,.58,3.57,.59,5.64,1.09,.3,2.48,.28,2.67,1.48,.24,1.92-1.93,1.43-2.37,2.67v5.34c.46,1.03,2.21,.75,2.67,1.78-.24,1.64-2.16,1.59-2.67,2.97-.07,1.95,.52,3.23,.3,5.34,5.11,.36,2.1,3.73,.3,4.75-.14,1.83,.53,2.83,.3,4.75,1.85-.27,2.65,.51,2.67,2.08-.68,.7-1.82,.95-2.67,1.48v5.04c1.7-.12,3.04,.13,2.67,2.08-.11,1.17-1.55,1.02-2.37,1.48,.16,1.82-.34,4.29,.29,5.64,3.67,.04,2.96,4.19,0,4.45,.08,1.31,.47,2.29,.3,3.86,1.27,.51,3.02,.54,2.97,2.37-1.44,1.75-4.03,4.19-1.78,7.12,.68-.71,1.8-.96,3.26-.89,.88,.7,1.62,1.54,1.48,3.26,2.23,.06,3.83-.52,6.23-.3-.31-1.99,.27-3.09,1.78-3.26,1.59,.28,1.5,2.26,2.67,2.97,1.61,.23,2.4-.37,3.86-.3,.52-3.39,3.59-3.5,4.75-.59h4.15c.64-.94,.47-2.7,2.08-2.67,1.38,.8,1.43,2.92,3.26,3.26,2.97,7.19,9.22,12.98,16.02,17.5,10.14,6.74,26.48,13.83,41.53,8.01,14.07-5.44,27.53-25.08,27.88-42.42,15.6,2.66,30.69-1.59,37.38-10.68-6.91,3.56-12.53,8.02-22.25,8.6-5.37,.32-10.15,.67-15.43-.3-.12-6.11-2.38-10.08-4.45-14.24,6.14,2.13,13.53,4.17,21.66,3.26Z"/><path class="d" d="M159.09,110.49c1.67,1.36,1.78,2.99,3.86,2.97,2.38-.02,2.32-3.2,5.04-2.97,.73,2.97-2.16,2.72-1.78,5.64,.25,1.84,2.99,2.5,2.97,4.15-.02,1.6-3.23,2.48-3.26,4.75-.04,2.56,2.38,2.63,3.85,4.45-.27,2.6-3.31,2.42-2.67,5.93-2.82,.25-4.79,1.34-7.42,1.78-.1-6.82-.8-13.04-1.48-19.28-18.09-1.46-37.69,2.13-55.77,2.67-2.29,2.02-.85,11.63-.89,16.91-.07,8.74,.9,23.02,1.48,34.11,.3,5.66,1.38,17.76,4.15,18.09,5.44,.67,12.93-1.33,19.58-.59-.06,2.44,.22,4.52,.59,6.53-2.94-1.1-3.74,1.81-5.64,2.67-1.98-.18-1.83-2.08-3.56-2.37-3.04-.51-3.72,3.33-5.64,3.26-1.15-.04-1.76-2.32-2.97-2.67-3.9-1.14-3.96,2.2-6.23,3.56-1.94-.83-1.66-3.88-4.75-3.56,2.42-2.6,.65-6.85-1.78-8.01,.36-1.77,2.17-1.19,2.67-2.97,.76-2.66-1.1-4.83-2.97-5.93,.16-2.5,3.28-3.25,2.67-5.93-.37-1.62-1.85-1.51-3.26-2.67-1.16-2.2,2.24-2.48,2.67-3.86,.71-2.25-.61-3.92-2.67-4.75-1.27-3.86,2.9-4.23,2.67-6.82-.22-2.49-3.89-1.76-3.26-5.64,.74-1.28,2.42-1.84,2.08-4.15-.33-2.21-3.34-2.05-2.67-5.34,.43-2.14,2.92-2.25,2.67-4.45-.21-1.88-2.4-2-2.97-3.26-.44-1.89,2.27-2.41,2.67-4.15,.66-2.86-.64-4.83-3.26-5.64,.14-2.44,2.4-2.62,2.08-5.04-.27-1.98-1.68-1.4-2.67-3.26,1.72-1.53,2.44,1.62,4.75,1.48,1.78-.11,1.82-1.17,3.26-2.37,2.46,.39,2.04,2.41,4.15,2.67,2.86,.35,3.34-3.27,6.82-2.97,1.81,3.71,6.61,2.06,8.01-.89,2.47,.08,3.19,2.58,5.64,2.37,1.48-.12,2.45-2.23,4.15-2.37,1.3-.11,3.15,1.79,4.75,1.78,2.09,0,3.6-2.41,4.75-2.37,1.29,.04,2.56,2.3,3.86,2.37,1.94,.12,2.88-1.4,3.86-2.67,3.4-.93,3.95,2.34,6.23,2.37,1.78,.02,3.38-1.55,3.86-2.67,.32-.76,.12-1.13,1.78-.89Zm-62.3,21.65c.23,1.06,.77,1.81,1.48,2.37,.29-1.47-.79-1.58-.89-2.67,1.45-1.23,3.01-4.65,1.19-6.53,.42,3.29-.78,4.96-1.78,6.82Z"/><path class="d" d="M156.12,119.1c.25-.05,.28,.11,.3,.3,.32,2.97,.39,6.58,.59,10.09,.19,3.26,1.02,7.22-.3,9.2-1.14-4.99-.67-11.59-1.19-17.2-15.13,0-31.6,1.23-45.39,3.56,14.53,.09,28.99-2.45,44.2-2.67-.79,4.54,1.72,12.01,.59,16.02-.43,1.52-1.75,1.52-2.37,2.67,1.21,.54,2.11-.37,2.67,.59v3.26c-1.13,.46-2.31,.86-3.56,1.19-.35-6.37-.95-12.49-1.19-18.98-13.09-.99-28.23,1.02-41.53,1.78-.42,17.13,.16,35.83,2.67,51.02,4.62,1.16,10.95-.05,16.02-.3-.14,1.54-.67,2.69-.59,4.45-6.33-.1-11.51,.95-17.5,1.19-2.6-18.97-1.54-41.73-4.15-60.81-1.33,15.28,.96,32.06,1.19,47.76-2.48-14.74-3.45-31.84-2.67-48.95,17.4-2.05,35.45-1.69,52.21-4.15Z"/><path class="e" d="M251.94,125.33c.25,.95-.47,.92-.59,1.48-3.92,.44-.91-4.41,.59-1.48Z"/><path class="e" d="M250.46,129.18c.16,1.05-.25,1.53-.89,1.78-.81,.22-.6-.59-1.19-.59,.05-1.24,1.05-1.72,2.08-1.19Z"/><path class="d" d="M147.22,129.78h.59c-4.48,8.68-10.71,16.33-16.31,24.32-4.18,5.96-7.98,12.05-12.16,18.39-1.17,1.78-2.21,5.29-5.34,4.75,9.62-16.78,21.23-31.57,32.04-47.17,.62,.13,.78-.2,1.18-.3Z"/><path class="d" d="M144.26,130.07c.67,.98-.71,2.05-1.19,2.67-9.91,12.98-20.43,27.62-29.07,42.12-1.49-4.26,3.72-9.48,6.23-13.35,6.75-10.43,14.13-21.29,20.47-31.15,1.4,.12,2.48-.09,3.56-.3Z"/><path class="d" d="M135.06,130.37c.44,.88-1.12,2.56-2.08,3.86-6.76,9.15-14.38,19.36-19.88,29.96-1.96-3.92,2.12-7.29,4.45-10.68,4.89-7.1,11.35-16.47,15.42-22.54,.29-.6,1.14-.64,2.08-.59Z"/><path class="d" d="M139.81,130.37c-9.4,12.75-18,26.3-26.7,39.75,.09-1.48-.05-2.72-.3-3.86,7.59-12.38,16.01-23.94,24.03-35.89h2.97Z"/><path class="d" d="M128.54,130.67c-5.21,8.14-11.17,15.53-16.02,24.03-.48-3.94,3.41-8.21,6.52-12.76,2.86-4.18,5.17-7.64,7.12-10.38,.39-.55,.83-1.18,2.37-.89Z"/><path class="d" d="M132.1,130.67c-6.43,9.29-13.41,18.03-19.28,27.88-1.34-2.77,1.64-5.15,2.97-7.12,4.47-6.62,9.52-13.93,13.94-20.76h2.37Z"/><path class="e" d="M180.45,131.56c.14,1.33-.89,1.48-2.08,1.48-.26-.53-.83-.75-.59-1.78,.74-.68,2.17-.7,2.67,.3Z"/><path class="d" d="M121.42,130.96c-3.28,4.83-7.08,9.13-9.49,14.83-.68-.6-.11-2.46-.3-3.56,2.71-3.42,4.7-7.56,7.42-10.98,.43-.46,1.52-.26,2.37-.3Z"/><path class="d" d="M125.27,130.96c-4.14,6.84-9.33,12.62-13.05,19.88-1.62-4.54,1.83-7.76,4.45-11.57,2.19-3.19,4.16-5.79,5.64-8.31h2.97Z"/><path class="d" d="M114.59,131.26c-.5,1.97-2.08,2.87-2.67,4.75-.66-1.02-.04-3.32-.59-4.45,1.33,.15,2.22-.15,3.26-.3Z"/><path class="d" d="M117.86,131.26c-1.88,3.26-4.25,6.03-5.93,9.49-.68-.41-.11-2.06-.3-2.97,2.25-2,2.02-6.48,6.23-6.53Z"/><path class="d" d="M147.52,132.45c1.97,5.3-3.41,10.31-6.23,14.24-7.03,9.8-14.31,20.37-20.47,30.26h-2.67c-.14-1.5,1.64-3.41,2.97-5.34,3.59-5.21,7.39-10.71,11.27-16.32,5.21-7.52,10.85-15.04,15.13-22.84Z"/><path class="d" d="M170.07,137.49v2.08c-.77,1.11-2.36,1.4-2.37,3.26-2.98-.21-5.08,.45-7.42,.89-.62-1.07-.15-3.21-.3-4.75,3.35-.33,6.61-2.26,10.09-1.48Z"/><path class="d" d="M148.12,138.38c1.48,5.35-3.06,8.77-5.64,12.46-6.05,8.67-11.57,17.79-17.21,26.1h-2.97c7.97-13.49,17.33-25.59,25.81-38.56Z"/><path class="e" d="M257.58,139.56c.32,1.93-2.18,1.65-2.97,.89-.61-2.21,2.53-2.19,2.97-.89Z"/><path class="d" d="M157.61,140.16c-.07,1.55,0,2.96,.3,4.15-.48-.08-.51,.28-.89,.3-1.22-.27-1.7-5.04,.59-4.45Z"/><path class="d" d="M168.29,151.13c-1.34,2.51-5.23,2.49-6.82,4.75-.48-.8-.38-2.19-.59-3.26,2.03-.74,4.9-2.21,7.42-1.48Z"/><path class="d" d="M197.36,163.3c-3.15-1.2-5.65,.66-8.01,.3-2.22-.35-4.75-2.98-7.12-4.15-2.66-1.32-4.91-2.18-8.9-2.08-.03-2.05-.16-4-1.19-5.04,1.22-.07,1.94-.63,2.67-1.19,9.48,1.89,17.53,6.8,22.55,12.16Z"/><path class="d" d="M157.9,153.8c.53,2.04,1.2,6.43,0,8.31-.8-1.7-1.08-6.66,0-8.31Z"/><path class="d" d="M170.96,154.1c.31,5.35-6.85,3.24-9.49,5.64,1.55-3.33,5.7-5.52,9.49-5.64Z"/><path class="d" d="M155.53,155.29c.83,2.03,.54,5.19,.59,8.01-1.16,.52-2.3,1.06-3.26,1.78-.81-1.96-.56-4.98-.59-7.71,1.16-.62,2.22-1.34,3.26-2.08Z"/><path class="d" d="M185.49,163.89c-2.31,1.45-5.71,1.8-7.71,3.56-1.33-.15-1.21-1.75-2.08-2.37,.31-.97,1.37-1.2,1.78-2.08-.52-.87-.88-1.89-1.78-2.37-1.78,.82-3.7,.49-4.75-.89,5.29-2.37,10.9,1.97,14.54,4.15Z"/><path class="d" d="M170.96,162.41c-.63,1.05-1.95,1.41-2.67,2.37,.52,.87,.88,1.89,1.78,2.37,1.25,.16,1.66-.52,2.67-.59,.13,.76,.42,1.36,.89,1.78-2.95,2.17-6.93-.24-8.31-2.37-1.09-.1-1.65,.33-2.37,.59-1.94,4.69,3.47,4.38,5.04,6.53,.06,1.25-1.54,.83-2.08,1.48,.36,1.12,.43,2.54,1.78,2.67-.31,1.17-1.83,1.13-2.67,1.78,.21-3.8-1.69-8.69-5.04-9.2-7.02-1.06-3.85,9.22-.89,10.68-1.72,.05-2.67-.56-4.15,0,3.95-5.04-5.23-8.83-6.82-3.56,1.2,4.44,3.55,7.72,5.93,10.98,1.46-.42,2.2-1.56,2.97-2.67-.07-1.41-.83-2.14-1.48-2.97,11.55,.18,14.88-7.86,25.81-8.31-1.84,6.32,7.71,9.68,8.31,3.26-.64-.65-1.63-.94-2.97-.89,2.77-1.98,6.76,1.46,9.79,2.08,2.53,6.23-1.66,15.73-5.93,20.17-4.65,4.84-14.47,10.32-23.14,10.38-11.69,.08-20.38-9.7-22.84-20.76,2.01-.36,4.2-.54,6.53-.59,1.03-2.84-5.1-1.9-6.82-2.08-.51-2.68,4.34,0,4.75-1.78-.63-1.19-2.95,.18-4.75-.3-.1-1.88,.55-3.01,.59-4.75,.84,.25,.77-.42,1.48-.3-.18-3.54,1.87-4.86,2.97-7.12,.44,.25,.64,.75,.59,1.48,.74-.25,1.59-.39,2.67-.3v-4.15c1.25-.82,2.44-1.71,3.56-2.67,.56,.72,.64,1.93,.59,3.26,2.62-.24-.36-4.79,2.08-4.75-.03,1.22,.52,1.86,.3,3.26h2.97c-.31-1.66-.35-3.6-.3-5.64,2-.86,4.5-1.24,6.53-2.08,1.25,.53,1.04,2.52,2.67,2.67Zm6.82,23.14c3.18,.5,7.24-4.01,3.56-6.23-1.26-.45-1.78,1.36-2.67,.3,0-1.38,1.13-1.64,.89-3.26-7.13-3-7.04,8.37-1.78,9.2Zm-7.12-5.64c-.34,1.04-1.5,1.27-1.48,2.67,1.46,2.3,2.7,4.82,4.15,7.12,5.64-1.65-.27-8.07-2.67-9.79Zm-9.19,6.53c1.44,4.1,3.37,7.7,6.23,10.38,4.07-.39,1.3-4.08,.3-5.93,.65-.63,1.73-.84,1.78-2.08-.52-1.21-1.05-2.44-2.67-1.78,.6-.88,1.23-1.74,1.19-3.26-2.33-3.29-5.76,.34-6.82,2.67Zm-.59,2.67c-.04-4.38-5.31-.59-6.82,1.48,2.25,2.47,6.01,13.37,9.79,9.2,.16-2.43-1.47-3.08-2.08-4.75,0-.89,.77-1.01,.89-1.78-.35-.45-.86-.73-.89-1.48-.94-.45-1.3-.1-2.37,0,.76-1.2,1.5-1.17,1.48-2.67Zm-10.68,4.75c-1.57,3.11,1.03,7.25,5.04,5.64,2.89-3.44-1.33-8.61-5.04-5.64Z"/><path class="d" d="M149.01,160.03c.53-.08,.61,.28,.3,.3-3.25,5.55-6.66,10.94-10.68,15.72,2.19-6.61,5.75-11.85,10.38-16.02Z"/><path class="d" d="M175.41,162.11c-.03,1.16-1.45,.93-1.48,2.08,.53,2.56,3.03,4.64,2.97,6.82-1.33-1.93-2.68-3.84-3.56-6.23-1.65-.42-2,1.57-3.26,.59,1.49-1.38,3.12-2.61,5.34-3.26Z"/><path class="d" d="M149.3,162.41c.67,.32,.11,1.86,.3,2.67-1.22,1.89-2.85,3.68-4.15,5.64-1.25,1.86-1.93,4.7-4.45,5.34-.13-2.04,2.34-4.27,3.86-6.53,1.59-2.38,2.98-5.04,4.45-7.12Z"/><path class="d" d="M207.15,180.8c-3.09-.87-5.26-2.65-8.6-3.26-1.75-4.58-4.26-8.4-7.12-11.87,3.29-1.02,5.98,.6,9.19,.59,2.88,4.14,5.89,8.15,6.53,14.54Z"/><path class="d" d="M195.28,176.05c-2.11-.66-3.86-1.68-6.53-1.78-.08-2.73-2.18-3.4-3.86-3.26-2.07,.17-3.96,3.27-7.12,1.78,.95-.96,1.78-2.78,.3-3.86,2.67-1.68,6.42-2.28,10.08-2.97,2.77,2.97,5.49,5.98,7.12,10.09Z"/><path class="d" d="M205.96,166.26c.85,.64,1.02,1.94,1.78,2.67-.17,.72-1.92-.14-1.78,.89-.79-.3-.8-1.37-1.48-1.78,.59-.5,1.97-.21,1.48-1.78Z"/><path class="d" d="M164.73,167.45c1.89,2.46,6.21,2.49,6.23,6.82-.67,.51-1.06,1.31-2.37,1.19,3.98-4.66-4.58-4.75-3.85-8.01Z"/><path class="e" d="M256.39,170.71c-.07,1.12-.77,1.6-2.08,1.48-.13-.26-.26-.53-.59-.59-.41-1.83,2.29-2.4,2.67-.89Z"/><path class="d" d="M174.52,170.12c.43,1.05,1.05,1.91,1.78,2.67-1.13,.65-2.55,1.01-3.56,1.78-.58-1.3-1.12-2.64-1.48-4.15,1.41,.22,2.04-.33,3.26-.3Z"/><path class="d" d="M208.04,170.71c2.14,2.81,3.54,6.35,3.86,10.98-1.19,.2-1.69-.28-2.67-.3-.28-3.57-1.41-6.31-2.67-8.9-.11-1.2,1.71-.46,1.48-1.78Z"/><path class="d" d="M161.46,179.02c-2.8-.86-4.26-3.05-4.45-6.53,3.06-3.94,8.4,4.32,4.45,6.53Zm-.3-2.37c.6-.89-.09-2.54-1.19-2.67h-.59c-.06,1.54,0,2.96,1.78,2.67Z"/><path class="d" d="M186.98,173.38c-.14,1.65-2.24,1.32-2.38,2.97,.22,1.56,1.45,2.11,3.26,2.08-4.62,5.19-7.65-8.39-.89-5.04Zm-2.67,1.19c.78,.08,1.28-.11,1.19-.89-.38-.02-.41-.38-.89-.3-.09,.4-.42,.57-.3,1.19Z"/><path class="d" d="M154.05,177.24c-2.28,2.98,.87,5.83,.59,8.31-2.6-1.55-2.97-5.33-5.04-7.42,.45-2.11,3.49-3.24,4.45-.89Zm-3.26,.3c.04,.75,.43,1.15,1.19,1.19,0-.59,.81-.38,.59-1.19-.38-.41-1.4-.41-1.78,0Z"/><path class="d" d="M177.78,177.54c-1.59,2.09,.28,4.97,2.97,3.56,.19,1.08-.2,1.58-.59,2.08-3.77,.99-5.79-4.72-2.37-5.64Z"/><path class="d" d="M142.48,179.02c-.24,1.64-.3,3.46-.89,4.75h-4.75c.32-1.36,.46-2.9,.59-4.45,1.96,.18,3.04-.52,5.04-.3Z"/><path class="d" d="M199.14,180.2c2.53-.05,5.49,2.02,8.31,2.67,.02,6.82-1.96,12.25-4.45,17.2-5.94,11.84-15.08,21.23-32.63,19.28-7.08-.79-13.13-3.91-18.39-7.12-5.23-3.2-10.45-6.95-13.05-12.46,2.76,.88,1.5-2.26,3.56-2.08,2.35-.31,1.67,3.44,4.45,1.78,5.16,7.23,11.33,13.34,24.32,11.57,4.48-.61,9.79-2.44,14.24-5.64,3.86-2.78,9.89-6.72,10.98-9.79,1.58-4.44,5-9.94,2.67-15.43Z"/><path class="d" d="M170.96,181.69c1.19,1.71,3.18,4.09,3.26,5.93-1.11-1.79-3.49-3.78-3.26-5.93Z"/><path class="d" d="M209.52,183.47c1.1-.21,1.27,.51,2.37,.3,.17,8.97-2.67,14.93-6.23,20.17-2.08-2.36,.51-5.59,1.48-8.31,1.25-3.49,2.47-6.55,2.37-11.27v-.89Z"/><path class="d" d="M141.89,185.25c-.76,.93-4.01,.93-5.04,.59,.1-1.45,4.35-1.68,5.04-.59Z"/><path class="d" d="M127.05,185.84c-.62,1.64-2.81,.8-4.15,.89-4.71,.32-10.57,1.36-13.94,.59,.97-1.58,3.28-.81,5.04-.89,4.2-.19,9.29-1.23,13.05-.59Z"/><path class="d" d="M144.56,195.04c-.55,.72-1.75-.41-2.97,0-1.74,.24-1.07,2.88-3.26,2.67-1.44-1.85-1.7-6.38-1.19-9.2,1.39-.19,3.55,.39,4.45-.3,1.45,1.81,1.4,5.12,2.97,6.82Z"/><path class="d" d="M159.39,189.1c-.13,1.25-1.4,1.37-1.78,2.37,0,1.63,1.28,2.73,2.67,2.08-1.58,2.09,1.26,3.53,1.48,5.64-2.35-2.19-3.7-5.4-5.93-7.71,.69-1.1,2.52-2.62,3.56-2.37Z"/><path class="d" d="M154.64,197.41c-.7,.09-1.11,.47-2.08,.3-.25-.83-.96-1.22-.89-2.37,1.45-1.09,3.34-.27,2.97,2.08Z"/><path class="d" d="M148.41,143.72c1.32,5.18-3.77,6.51-5.64,9.49,1.04-2.82,4.13-6.15,5.64-9.49Z"/><path class="d" d="M135.06,183.47c-.78,.8-3.58-.41-3.56,1.19,.23,1.68,2.76-.43,3.26,.59-.81,1.69-4.02,.78-4.15,2.97-.04,.72,.43,1.31,1.18,2.08,1.42,.13,1.49-1.08,2.37-1.48,1.54,2.41,.68,4.76,1.19,7.42,.72,3.81,3.53,8.15,6.23,10.98,6.92,7.23,18.64,13.52,28.48,14.24,12.97,.94,21.6-2.73,27.59-10.09,.63-.76,1.32,.88,2.08,0,.85-.59-.1-1.85,0-2.67,.75-.89,1.33-.12,2.37-.59,.36-1.55-.62-2.23,.59-3.56,.92-.03,.85,.93,2.08,.59-7.01,10.7-14.75,22.22-32.33,21.06-9.77-.65-22.34-5.99-29.07-11.27-11.94-9.36-19.15-27.74-10.09-43.61,.79,.4,.81,1.56,2.08,1.48,.39-.1,.47-.52,.89-.59,.43-1.91-1.06-2.47-2.37-1.78,7.4-13.62,17.67-26.2,39.75-24.62,2.49,.18,5.06,.58,7.12,1.78,1.26-.17,1.96,.21,2.97,.3-.7,.27-1.55,2.25-.3,2.67,1.56,.41,2.03-1.97,.59-2.08,8.37,1.12,13.82,7.74,18.98,13.05-.45,.36-2.48,.66-1.48,1.48-8.96-6.18-19.9-16.16-36.49-13.94-6.62,.89-14.38,5.92-18.69,10.09-6.27,6.07-10.31,14.56-11.27,24.32Zm6.82-24.32c-.04,.73-.05,1.43,.3,1.78,3.3-.45,4.29-3.23,5.93-5.34-.23-.76-.72-1.26-1.49-1.48-1.76,1.51-2.65,3.87-4.74,5.04Zm38.56-9.2c.84,.24,.77-.42,1.48-.3,.12-1.21-.3-1.87-1.48-1.78-.58,.81-.58,1.27,0,2.08Zm-24.62,.3c.52,.27,.87,.72,1.48,.89,2.59-1.13-1.76-4.54-1.48-.89Zm-7.42,3.26c.01,1.08,.87,1.3,2.08,1.19,1.38-1.77-1.82-3.59-2.08-1.19Zm4.45-.59c.19-1.18-.38-1.6-.89-2.08-.86,.13-1.35,.62-1.48,1.48,.26,1.24,1.54,1.36,2.37,.59Zm41.23,2.67c.07,1.01,.64,1.54,1.78,1.48,.58-.55,.09-1.09,0-1.78-.73-.04-1.43-.04-1.78,.3Zm-62,21.06c-.17,1.65,.28,2.68,1.78,2.67,1.48-1.37-.09-4.47-1.78-2.67Zm.3,6.82c1.21,.02,1.28-1.1,1.19-2.37-1.66-2.14-3.77,2.04-1.19,2.37Zm-.89,10.09c1.11,.12,1.74-.24,1.78-1.19-.22-.76-.95-1.03-2.08-.89-.42,.91-.13,1.33,.3,2.08Zm.89,3.86c.73,.04,1.43,.05,1.78-.3,.15-1.53-.41-2.36-1.78-2.37-.68,.79-.68,1.88,0,2.67Zm1.78,5.04c1.21,.12,2.07-.11,2.08-1.19-.33-2.85-4.2-.77-2.08,1.19Zm3.26,3.26c-.12,1.21,.3,1.87,1.48,1.78,.58-.81,.58-1.26,0-2.08-.69-.09-1.14,.05-1.48,.3Zm6.52,8.01c1.71,.27,1.9,2.05,3.86,2.08,.41-.38,.29-1.29,.3-2.08-1.42-.34-4.04-3.49-4.15,0Zm5.34,3.86c.73,.04,1.43,.05,1.78-.3,.16-1.34-.44-1.94-1.78-1.78-.59,.56-.14,1.4,0,2.08Zm5.64,.89c-.16,1.34,.44,1.94,1.78,1.78,.98-1.4-.72-3.1-1.78-1.78Zm9.49,2.97c-.12,.57-1.15,.23-.89,1.19,1.65,2.1,3.61,1.21,5.93,1.78,.93-3.07-3.49-1.92-5.04-2.97Zm15.42,2.08c.72,.49,1.44,.76,2.37,.3v-1.78c-.95-.93-2.82-.58-2.37,1.48Zm-7.42,1.48c.08-.42,.65-.34,.89-.59,.21-1.49-.62-1.96-2.08-1.78-.71,1.24,.14,2.07,1.19,2.37Zm2.67-.3c.73,.04,1.43,.04,1.78-.3,.21-.91-.3-1.08-.3-1.78-1.95-.38-2.47,1.07-1.48,2.08Z"/><path class="d" d="M202.99,162.41c1.06-.16,1.81,2.53,2.97,3.26-.02,.46-2.42-.7-2.08,.89-.91-.38-.87-1.7-1.78-2.08,.7-.12,1.88-1.26,.89-2.08Z"/><path class="d" d="M131.5,169.23c-.6,2.08-1.69,6.22-4.15,7.42-.3-1.81,3.07-5.02,4.15-7.42Z"/><path class="d" d="M162.95,187.62c.83-1.3,2.25-3.41,3.56-3.26-1.02,.97-2.15,4.45,.3,4.75-.79,1.04-.79,3.13,.3,3.86-1.67-.32-2.54-3.98-4.15-5.34Z"/></g><path class="g" d="M61.22,66.99c-3.27,2.73-6.7,5.35-9.8,8.28-1,.94,.36,2.82,1.5,1.95,3.48-2.64,6.69-5.67,10-8.53,1.18-1.02-.53-2.69-1.7-1.7h0Z"/><path class="g" d="M61.46,73.73c-3.28,2.47-6.36,5.16-9.06,8.26-1.04,1.2,.64,2.93,1.76,1.76,2.76-2.88,5.64-5.63,8.78-8.1,1.08-.85-.37-2.76-1.48-1.92h0Z"/><path class="g" d="M62.66,79.89c-3.12,2.82-6.11,5.77-8.77,9.03-1,1.23,.67,2.99,1.77,1.77,2.82-3.11,5.66-6.2,8.71-9.09,1.14-1.08-.56-2.76-1.72-1.72h0Z"/><path class="g" d="M62.42,87.47c-3.09,3.81-6.23,7.62-8.99,11.68-.83,1.21,1.09,2.71,2.05,1.58,3.17-3.75,6.01-7.79,8.86-11.78,.8-1.12-1.04-2.55-1.91-1.48h0Z"/><path class="g" d="M61.41,101.55c-3.45,3.04-6.83,6.33-9.65,9.97-.94,1.22,.64,2.95,1.75,1.75,3.14-3.42,6.21-6.84,9.59-10.04,1.12-1.06-.54-2.69-1.69-1.69h0Z"/><path class="g" d="M61.86,108.65c-3.42,2.99-6.68,6.23-9.52,9.79-1.01,1.26,.67,3.06,1.82,1.82,3.09-3.35,6.16-6.7,9.4-9.91,1.11-1.1-.54-2.71-1.7-1.7h0Z"/><path class="g" d="M62.91,115.74c-3.16,3.58-6.34,7.15-9.35,10.86-1,1.23,.68,3,1.78,1.78,3.2-3.55,6.24-7.24,9.28-10.92,.98-1.19-.67-2.9-1.72-1.72h0Z"/><path class="g" d="M63.56,123.62c-3.98,4.06-8.07,8.04-11.82,12.31-1.09,1.24,.62,2.99,1.82,1.83,4.09-3.95,7.88-8.22,11.74-12.39,1.08-1.16-.63-2.89-1.75-1.75h0Z"/><path class="g" d="M61.42,136.56c-4.14,3.71-8.09,7.65-11.57,12-.96,1.2,.66,2.92,1.72,1.72,3.7-4.16,7.46-8.23,11.53-12.03,1.13-1.06-.55-2.71-1.69-1.69h0Z"/><path class="g" d="M60.16,145.83c-3.3,3.75-6.71,7.37-10.2,10.95-1.15,1.18,.59,2.89,1.79,1.79,3.76-3.43,7.19-7.26,10.29-11.29,.83-1.08-.99-2.47-1.89-1.46h0Z"/><path class="g" d="M62.22,153.64c-3.61,3.93-7.29,7.83-10.76,11.88-1.05,1.22,.63,2.96,1.79,1.79,3.75-3.8,7.25-7.88,10.68-11.96,.98-1.17-.64-2.86-1.7-1.7h0Z"/><path class="g" d="M61.26,161.74c-4.15,4.62-8.28,9.24-12.23,14.03-1.03,1.25,.68,3.04,1.81,1.81,4.18-4.59,8.17-9.35,12.15-14.11,.99-1.19-.66-2.9-1.72-1.72h0Z"/><path class="g" d="M60.28,171.33c-3.53,4.26-7.05,8.55-10.41,12.95-.85,1.12,1.05,2.59,1.96,1.51,3.55-4.25,6.94-8.63,10.32-13.02,.82-1.06-1.01-2.48-1.86-1.44h0Z"/><path class="g" d="M59.72,181.77c.11,.64-2.31,2.9-2.73,3.42-.91,1.11-1.82,2.22-2.72,3.33-1.65,2.04-3.31,4.06-4.88,6.16-.85,1.13,1.03,2.57,1.96,1.51,2.48-2.83,4.82-5.79,7.16-8.73,1.34-1.68,4.17-3.96,3.49-6.32-.43-1.49-2.52-.84-2.27,.63h0Z"/><path class="g" d="M60.6,190.5c-3.35,4.61-6.69,9.22-9.88,13.93-.91,1.35,1.22,2.53,2.15,1.26,3.37-4.59,6.6-9.28,9.82-13.97,.89-1.3-1.19-2.46-2.09-1.22h0Z"/><path class="g" d="M59.52,200.85c-3.19,4.18-6.08,8.57-8.57,13.2-.78,1.44,1.36,2.7,2.2,1.28,2.69-4.51,5.47-8.94,8.43-13.28,.88-1.29-1.15-2.39-2.06-1.2h0Z"/><path class="g" d="M61.29,211.24c-3.84,4-7.75,7.97-11.37,12.17-1.09,1.27,.65,3.07,1.86,1.86,3.92-3.93,7.58-8.12,11.29-12.25,1.07-1.19-.65-2.95-1.77-1.77h0Z"/><path class="g" d="M59.94,223.18c-3.78,4.43-7.29,9.14-10.74,13.83-.84,1.14,1.08,2.64,1.98,1.53,3.67-4.52,7.34-9.11,10.67-13.89,.78-1.12-1.01-2.51-1.9-1.47h0Z"/><path class="g" d="M60.66,234.74c-3.89,4.16-7.58,8.56-10.69,13.34-.92,1.41,1.25,2.58,2.21,1.29,3.29-4.4,6.58-8.77,10.21-12.9,1.04-1.18-.65-2.9-1.74-1.74h0Z"/><path class="g" d="M61.58,243.05c-3.88,5.39-7.82,10.74-11.47,16.29-.9,1.36,1.21,2.5,2.14,1.25,3.98-5.31,7.67-10.84,11.43-16.31,.89-1.3-1.2-2.48-2.1-1.23h0Z"/><path class="g" d="M72.05,58.68c-.2,4.42-.37,8.84-.47,13.27-.04,1.56,2.34,1.54,2.41,0,.2-4.42,.33-8.84,.44-13.27,.04-1.53-2.31-1.52-2.38,0h0Z"/><path class="g" d="M76.69,59.86c.61,12.33,.62,24.65,.05,36.98-.07,1.62,2.41,1.6,2.51,0,.75-12.34,.67-24.65-.18-36.98-.1-1.52-2.46-1.54-2.38,0h0Z"/><path class="g" d="M81.96,60.69c.2,3.09,.46,6.17,.74,9.25,.14,1.51,2.5,1.55,2.39,0-.22-3.09-.46-6.17-.75-9.25-.14-1.5-2.47-1.54-2.37,0h0Z"/><path class="g" d="M253.36,59.88c.37,7.64,.45,15.28,.27,22.92-.04,1.59,2.42,1.58,2.46,0,.23-7.65,.11-15.28-.33-22.92-.09-1.54-2.49-1.56-2.41,0h0Z"/><g><path class="g" d="M167.98,27.66c-6.32-2.85-8.68,5.47-8.18,10.22,.42,4.01,7.09,12.27,11.04,7.25,1.03-1.3-.62-3.09-1.87-1.87-2.56,2.49-6.24-4.82-6.31-6.36-.12-2.79,.48-7.94,4.41-7.11,1.22,.26,2.18-1.56,.9-2.14h0Z"/><path class="g" d="M156.46,37.96c1.42-.18,2.83-.43,4.22-.78,1.56-.39,.86-2.56-.65-2.35-1.3,.18-2.61,.45-3.89,.78-1.26,.33-1.05,2.53,.32,2.35h0Z"/><path class="g" d="M158.83,41.51c.96-.79,1.99-1.32,3.07-1.92,1.2-.66,.39-2.7-.95-2.25-1.47,.49-2.73,1.38-3.86,2.43-1.17,1.1,.54,2.72,1.74,1.74h0Z"/><path class="g" d="M160.81,44.26c.78-.48,1.5-1.03,2.2-1.61,1.06-.88-.33-2.69-1.48-1.92-.76,.51-1.48,1.05-2.16,1.66-1.01,.91,.29,2.58,1.44,1.87h0Z"/><path class="g" d="M161.1,46.66c1.71,4.73,3.3,9.49,4.92,14.25,.51,1.51,2.81,.91,2.4-.66-1.28-4.97-3.08-9.81-5.15-14.5-.54-1.22-2.63-.35-2.17,.92h0Z"/><path class="g" d="M163.57,47.27c1.97,3.78,3.33,7.59,4.01,11.81,.22,1.38,2.62,1.07,2.46-.33-.5-4.5-1.91-8.88-4.44-12.66-.84-1.26-2.74-.16-2.04,1.19h0Z"/><path class="g" d="M162.28,54.51c-1.64,1.26-3.14,2.97-3.53,5.07-.24,1.29,1.7,2.38,2.3,.97,.69-1.62,1.33-2.97,2.7-4.14,1.03-.88-.37-2.74-1.47-1.9h0Z"/><path class="g" d="M163.65,57.59c-1.24,1.62-2.28,3.63-2.77,5.61-.33,1.33,1.62,2.27,2.29,.96,.89-1.76,1.7-3.57,2.59-5.35,.71-1.43-1.16-2.45-2.1-1.23h0Z"/><path class="g" d="M165.25,59.59c-.99,2.25-1.54,4.83-1.28,7.29,.16,1.56,2.36,1.61,2.46,0,.14-2.21,.44-4.22,1.05-6.35,.37-1.29-1.66-2.23-2.23-.94h0Z"/><path class="g" d="M167.33,60.25c-.24,2.13-.22,4.27,.17,6.38,.25,1.37,2.49,1.06,2.43-.33-.08-2.02-.19-4.02-.15-6.05,.03-1.61-2.27-1.52-2.45,0h0Z"/><path class="g" d="M170.24,59.62c.11,2.64,.95,5.34,2.25,7.63,.83,1.45,2.83,.18,2.19-1.28-.96-2.19-1.57-4.35-2.12-6.67-.3-1.29-2.38-1.03-2.32,.31h0Z"/><path class="g" d="M173.68,59.94c.2,2.79,1.54,5.26,3.82,6.88,1.16,.82,2.57-1.02,1.52-1.97-1.6-1.46-2.57-3.09-2.96-5.23-.25-1.33-2.47-1.04-2.38,.32h0Z"/><path class="g" d="M176.02,59.37c1.16,1.48,2.78,2.62,4.55,3.25,1.31,.47,2.17-1.6,.95-2.24-1.43-.76-2.62-1.58-3.78-2.72-1.14-1.13-2.65,.52-1.72,1.72h0Z"/><path class="g" d="M178.17,57.67c1.42,.77,2.91,1.29,4.53,1.39,1.36,.08,1.68-2.13,.32-2.39-1.27-.25-2.45-.51-3.63-1.08-1.39-.67-2.6,1.34-1.22,2.09h0Z"/><path class="g" d="M179.06,53.86c1.17,.45,2.38,.68,3.64,.66,1.56-.02,1.56-2.39,0-2.42-1.06-.02-2.01-.2-3-.57-1.46-.55-2.07,1.77-.64,2.32h0Z"/><g><path class="g" d="M61.44,63.45c-2.84,.12-5.69,.24-8.53,.36-.76,.03-1.32,.6-1.35,1.35-3.5,73.63-4.29,147.36-3,221.06,.02,1.13,1.12,2.06,2.25,1.71,15.98-4.85,32.32-3.64,48.73-2.44,16.81,1.23,33.64,2.2,50.49,2.84,33.7,1.29,67.41,1.28,101.11,.21,1.05-.03,1.75-.81,1.83-1.83,.34-4.19,.66-8.39,.97-12.58,.17-2.37-3.51-2.35-3.69,0-.33,4.19-.64,8.39-.93,12.58,.61-.61,1.22-1.22,1.83-1.83-34.82,1.21-69.67,1.12-104.48-.28-16.76-.67-33.49-1.72-50.22-2.92-15.72-1.13-31.32-1.81-46.57,2.82,.75,.57,1.5,1.14,2.25,1.71-.69-37.98-.86-75.97-.4-113.95,.23-18.71,.57-37.41,1.04-56.12,.23-9.07,.46-18.13,.73-27.2,.15-5.1,.31-10.2,.48-15.3,.23-6.51,1.04-7.28,7.48-7.69,1.6-.1,1.63-2.59,0-2.52h0Z"/><path class="g" d="M59.79,254.53c-3.16,4.97-6.72,9.58-10.1,14.38-.83,1.18,1.03,2.6,1.99,1.54,3.98-4.37,7.28-9.58,10.2-14.69,.78-1.36-1.26-2.53-2.09-1.22h0Z"/><path class="g" d="M59.82,263.6c-3.97,5.67-8.19,11.16-12.18,16.82-.84,1.19,1.11,2.72,2.04,1.57,4.43-5.45,8.4-11.3,12.29-17.14,.9-1.35-1.25-2.57-2.16-1.26h0Z"/><path class="g" d="M61.04,272.06c-2.91,3.85-5.78,7.75-8.57,11.69-.83,1.17,1.09,2.67,2.01,1.55,3.12-3.81,6.03-7.84,8.68-11.99,.87-1.37-1.2-2.47-2.12-1.24h0Z"/><path class="g" d="M71.73,272.98c-2.27,2.73-3.99,5.82-4.87,9.27-.39,1.53,1.87,2.14,2.36,.65,1.01-3.08,2.43-5.89,4.41-8.46,.83-1.08-1.02-2.52-1.9-1.47h0Z"/><path class="g" d="M79.36,272.6c-1.69,2.32-3.54,4.66-4.94,7.17-.66,1.18,1.02,2.63,1.95,1.5,1.9-2.3,3.47-4.94,5.08-7.45,.86-1.33-1.19-2.46-2.09-1.22h0Z"/><path class="g" d="M87.34,273.3c-1.63,2.35-3.17,4.94-4.05,7.68-.43,1.31,1.61,2.19,2.24,.95,1.28-2.5,2.42-5.01,3.89-7.41,.82-1.34-1.21-2.47-2.08-1.22h0Z"/><path class="g" d="M96.07,273.27c-1.48,2.72-2.88,5.51-4.17,8.32-.65,1.42,1.37,2.67,2.13,1.24,1.46-2.73,2.84-5.53,4.11-8.36,.62-1.37-1.31-2.59-2.07-1.21h0Z"/><path class="g" d="M106.62,274.68l.52-.53c-.64-.49-1.28-.98-1.91-1.48-1.88,2.99-3.37,6.46-4.35,9.85-.46,1.6,1.84,2.14,2.44,.67,1.27-3.14,2.64-6.2,4.01-9.29,.52-1.16-.91-2.6-1.91-1.48-.16,.18-.33,.37-.49,.55-1.02,1.15,.61,2.81,1.7,1.7h0Z"/><path class="g" d="M111.43,272.96c-1.64,2.93-3.08,6.02-3.88,9.28-.4,1.62,1.91,2.21,2.47,.68,1.09-2.96,2.14-5.89,3.56-8.71,.71-1.42-1.36-2.67-2.15-1.26h0Z"/><path class="g" d="M119.93,272.67c-1.64,3.54-2.92,7.24-3.65,11.07-.29,1.51,1.95,2.17,2.33,.64,.93-3.7,2.04-7.27,3.5-10.8,.51-1.24-1.61-2.14-2.18-.92h0Z"/><path class="g" d="M127.99,272.94c-1.7,4.02-3.26,8.11-4.38,12.34-.4,1.51,1.85,2.11,2.32,.64,1.3-4.07,2.64-8.1,4.27-12.05,.52-1.26-1.68-2.19-2.21-.93h0Z"/><path class="g" d="M136.88,272c-1.56,3.83-2.94,7.75-3.93,11.77-.37,1.51,1.9,2.13,2.32,.64,1.15-3.99,2.38-7.91,3.92-11.77,.57-1.44-1.74-2.05-2.32-.64h0Z"/><path class="g" d="M143.43,274.49c-1.46,3.71-3.18,7.66-3.17,11.71,0,1.63,2.28,1.53,2.46,0,.46-3.85,1.85-7.4,2.99-11.08,.46-1.48-1.74-2.01-2.28-.63h0Z"/><path class="g" d="M149.61,273.83c-1.71,4.42-2.93,9.1-3.1,13.85-.05,1.36,2.22,1.73,2.43,.33,.69-4.63,1.5-9.1,3.02-13.53,.52-1.5-1.79-2.09-2.35-.65h0Z"/><path class="g" d="M157.64,274.5c-2.17,3.29-3.48,7.16-4.03,11.04-.22,1.57,2.11,2.32,2.45,.68,.79-3.71,2.07-7.06,3.71-10.47,.69-1.43-1.25-2.59-2.14-1.25h0Z"/><path class="g" d="M164.82,272.96c-1.08,3.39-2.17,6.79-3.12,10.23-.42,1.51,1.84,2.11,2.32,.64,1.12-3.38,2.11-6.81,3.1-10.23,.43-1.48-1.83-2.09-2.3-.63h0Z"/><path class="g" d="M172.85,273.23c-1.31,3.85-2.6,7.75-3.48,11.72-.34,1.53,1.9,2.16,2.36,.65,1.18-3.9,2.21-7.84,3.43-11.73,.47-1.48-1.82-2.09-2.32-.64h0Z"/><path class="g" d="M179.58,272.34c-2.26,4.06-3.52,8.6-3.19,13.27,.11,1.59,2.46,1.63,2.5,0,.1-4.25,.88-8.22,2.83-12.02,.73-1.41-1.36-2.66-2.14-1.25h0Z"/><path class="g" d="M185.58,271.64c-1.58,4.27-4.55,9.36-3.6,14.02,.27,1.32,2.53,1.05,2.39-.32-.45-4.27,2.22-9.07,3.61-13.03,.54-1.52-1.85-2.15-2.4-.66h0Z"/><path class="g" d="M192.03,272.36c-2.02,4.31-3.98,8.78-5.06,13.43-.4,1.7,1.96,2.29,2.57,.71,1.67-4.36,3.03-8.84,4.76-13.18,.51-1.29-1.67-2.22-2.26-.95h0Z"/><path class="g" d="M200.6,272.62c-1.24,3.87-2.42,7.79-3.45,11.73-.4,1.53,1.88,2.15,2.36,.65,1.24-3.87,2.34-7.82,3.36-11.75,.38-1.48-1.81-2.07-2.27-.63h0Z"/><path class="g" d="M209.8,274.37c.27-.18,.54-.35,.8-.53-.46-.59-.91-1.19-1.37-1.78-1.95,4.22-3.63,8.81-4.32,13.42-.23,1.55,1.95,2.25,2.41,.66,1.3-4.44,2.5-8.81,4.13-13.15,.33-.87-.66-1.75-1.49-1.49-.92,.29-1.43,.68-2,1.45-.79,1.06,1.02,2.47,1.84,1.42h0Z"/><path class="g" d="M215.28,272.36c-1.11,4.53-2.26,9.14-2.94,13.76-.23,1.56,1.99,2.28,2.43,.67,1.23-4.51,2.03-9.19,2.83-13.79,.26-1.5-1.94-2.17-2.32-.64h0Z"/><path class="g" d="M221.81,271.73c-1.14,2.28-2.1,4.64-2.84,7.08-.67,2.22-1.5,4.61-.84,6.9,.46,1.62,2.66,.89,2.45-.67-.28-2.02,.68-4.47,1.27-6.37,.6-1.93,1.31-3.81,2.1-5.67,.61-1.43-1.42-2.71-2.14-1.25h0Z"/><path class="g" d="M227.16,272.63c-.88,2.8-1.8,5.59-2.6,8.42-.62,2.19-1.03,4.21-.24,6.4,.53,1.46,2.79,.9,2.37-.65-.67-2.44,.34-4.83,1.02-7.16,.62-2.11,1.23-4.23,1.82-6.35,.43-1.53-1.9-2.16-2.38-.66h0Z"/><path class="g" d="M232.91,273.84c-1.68,4.33-2.71,8.92-2.99,13.56-.09,1.4,2.25,1.75,2.48,.34,.74-4.48,1.64-8.87,2.83-13.25,.41-1.52-1.77-2.05-2.32-.64h0Z"/><path class="g" d="M239.95,273.78c-1.36,3.91-2.54,7.95-3.11,12.06-.21,1.56,2.01,2.3,2.44,.67,1.05-4.02,1.93-8.07,3.04-12.08,.43-1.54-1.85-2.13-2.37-.65h0Z"/><path class="g" d="M245.83,274.12c-1.09,3.76-1.91,7.56-2.32,11.46-.15,1.41,2.21,1.73,2.48,.34,.72-3.72,1.37-7.45,2.13-11.16,.31-1.49-1.87-2.12-2.3-.63h0Z"/><path class="g" d="M250.16,240.01c-.2,10.18-.46,20.37-.49,30.56,0,1.56,2.37,1.56,2.42,0,.3-10.18,.36-20.37,.49-30.56,.02-1.56-2.39-1.56-2.42,0h0Z"/><path class="g" d="M246.46,258.1c-.22,4.42-.51,8.85-.59,13.28-.03,1.57,2.31,1.54,2.42,0,.31-4.42,.42-8.85,.59-13.28,.06-1.56-2.34-1.55-2.42,0h0Z"/><path class="g" d="M240.02,265.33c0,2.14-.01,4.29,.02,6.43,.02,1.54,2.37,1.54,2.39,0,.03-2.14,.02-4.29,.02-6.43,0-1.56-2.43-1.57-2.43,0h0Z"/><path class="f" d="M268.56,59.61c0-.53-.3-.86-.67-1,.14-.7-.23-1.51-1.15-1.48-26.55,.97-53.11,1.23-79.68,1.23,.12-.53,.26-1.06,.3-1.63,.39-5.35-3.44-9.5-8.66-9.94-.14-2.49-.33-4.98-.54-7.46,.48-2.19,.14-4.6-1.3-6.96-3.88-6.35-12.22-6.84-18.46-4.19-.35,.15-.55,.4-.63,.69-3.9,1.77-6.06,6.44-4.64,10.89-.01,.2,.01,.4,.11,.62,1.78,3.75,3.79,7.39,5.9,10.98-1.91,1.62-2.64,4.25-2.48,6.9-31.17-.19-62.35-.55-93.52-.45-.68-.27-1.6,.05-1.58,1,1.57,71.52-4.05,143.11-.03,214.58,.07,1.16,1.38,1.48,2.08,.97,67.32-.05,134.66-.53,201.98-1.25,1-.01,1.37-.98,1.12-1.71,.1-.18,.17-.38,.17-.63,.63-70.39,1.66-140.79,1.68-211.18Zm-103.05-3.01c-2.08-3.3-4.04-6.66-5.97-10.04,3.43,1.45,7.55,1.55,11.14,.4,1.96-.63,3.65-1.68,4.95-3.02,.12,3.63,.31,7.27,.71,10.84,.01,.12,.06,.22,.1,.33-.82,4-7.81,2.84-10.93,1.49Zm-3.55-26.02c.64,.03,.99-.34,1.11-.8,2.83-.44,5.69-.32,8.27,1.25,5.37,3.27,5.38,10.39-.76,12.86-4.17,1.68-9.71,1.42-12.93-2.02-3.92-4.19-2.09-11.61,4.31-11.29Zm.85,26.88c-.02,.43,.15,.88,.62,1.19,3.1,2.03,7.04,2.73,10.64,1.74,2.86-.79,6.27-3.32,4.97-6.66-.03-.09-.09-.16-.14-.23,0-1.19-.02-2.38-.06-3.58,8.19,1.03,5.54,10.35,1.06,13.53-2.51,1.78-5.93,2.56-8.96,2.67-3.22,.12-6.68-.47-9.06-2.85-2.08-2.08-3.43-6.96-1.41-9.63,.77,1.28,1.56,2.55,2.34,3.82Zm-4.28,6.62c3.41,4.87,9.88,5.74,15.34,4.85,.79,2.22,1.73,4.45,2.76,6.55,.7,1.44,3.23,.41,2.62-1.1-.82-2.04-1.77-4.08-2.8-6.04,4.02-1.18,7.74-3.6,9.63-7.22,26.76-.11,53.5-.52,80.2-1.5-1.24,70.33-1.47,140.69-2.1,211.03-66.73,.16-133.48,.57-200.2,1.39-3.73-70.62,2.34-141.26-.12-211.89,31.06,.45,62.18,.87,93.3,.98,.33,1.09,.78,2.11,1.37,2.95Z"/></g><path class="f" d="M183.74,78.34c.81-1.46-1.28-2.63-2.21-1.29-1.15,1.64-3.38,1.97-5,.87-1.13-.77-2.56,1.04-1.48,1.92,2.69,2.18,6.95,1.67,8.69-1.49Z"/></g></g><rect class="h" width="316" height="316"/></g></g></g></svg>