<svg id="Warstwa_3" data-name="Warstwa 3" xmlns="http://www.w3.org/2000/svg" viewBox="0 0 316 316"><defs><style>.cls-1{fill:#e5e5e5;}.cls-2{fill:#14213d;}.cls-3{fill:#fff;}</style></defs><g id="twoje_materiay" data-name="twoje materiay"><circle id="Ellipse_55" data-name="Ellipse 55" class="cls-1" cx="158" cy="158" r="158"/><g id="_6" data-name="6"><path class="cls-2" d="M249.83,60.85v-4a3.64,3.64,0,0,1-3.63-3.64h-4.76a3.63,3.63,0,1,1-7.26,0h-4.77a3.63,3.63,0,1,1-7.26,0h-4.76a3.64,3.64,0,1,1-7.27,0h-4.76a3.64,3.64,0,1,1-7.27,0h-4.76a3.63,3.63,0,1,1-7.26,0H181.3a3.63,3.63,0,1,1-7.26,0h-4.76a3.64,3.64,0,1,1-7.27,0h-4.76a3.64,3.64,0,1,1-7.27,0h-4.76a3.63,3.63,0,1,1-7.26,0h-4.77a3.63,3.63,0,0,1-3.63,3.64v4a3.63,3.63,0,0,1,0,7.26v4a3.64,3.64,0,0,1,0,7.27v4a3.63,3.63,0,0,1,0,7.26v4a3.64,3.64,0,0,1,0,7.27v4a3.63,3.63,0,0,1,0,7.26v4a3.64,3.64,0,0,1,0,7.27v4a3.63,3.63,0,0,1,0,7.26v4a3.64,3.64,0,0,1,0,7.27v4a3.63,3.63,0,0,1,0,7.26v4a3.64,3.64,0,0,1,0,7.27v4a3.63,3.63,0,0,1,0,7.26v4a3.64,3.64,0,0,1,0,7.27v4a3.63,3.63,0,1,1,0,7.26v4a3.63,3.63,0,0,1,3.63,3.63H138a3.63,3.63,0,0,1,7.26,0H150a3.64,3.64,0,0,1,7.27,0H162a3.64,3.64,0,0,1,7.27,0H174a3.63,3.63,0,0,1,7.26,0h4.77a3.63,3.63,0,0,1,7.26,0h4.76a3.64,3.64,0,0,1,7.27,0h4.76a3.64,3.64,0,0,1,7.27,0h4.76a3.63,3.63,0,0,1,7.26,0h4.77a3.63,3.63,0,0,1,7.26,0h4.76a3.64,3.64,0,0,1,3.63-3.63v-4a3.63,3.63,0,0,1,0-7.26v-4a3.64,3.64,0,0,1,0-7.27v-4a3.63,3.63,0,0,1,0-7.26v-4a3.64,3.64,0,0,1,0-7.27v-4a3.63,3.63,0,1,1,0-7.26v-4a3.64,3.64,0,0,1,0-7.27v-4a3.63,3.63,0,0,1,0-7.26v-4a3.64,3.64,0,0,1,0-7.27v-4a3.63,3.63,0,0,1,0-7.26v-4a3.64,3.64,0,0,1,0-7.27v-4a3.63,3.63,0,0,1,0-7.26v-4a3.64,3.64,0,0,1,0-7.27v-4a3.63,3.63,0,0,1,0-7.26Z"/><path class="cls-3" d="M248.05,61.63v-4a3.56,3.56,0,0,1-3.56-3.57h-4.68a3.56,3.56,0,1,1-7.12,0H228a3.56,3.56,0,1,1-7.12,0h-4.68a3.56,3.56,0,1,1-7.12,0h-4.68a3.56,3.56,0,1,1-7.12,0h-4.68a3.56,3.56,0,1,1-7.12,0h-4.68a3.56,3.56,0,1,1-7.12,0H169a3.57,3.57,0,1,1-7.13,0h-4.68a3.56,3.56,0,1,1-7.12,0h-4.68a3.56,3.56,0,1,1-7.12,0h-4.68a3.56,3.56,0,0,1-3.56,3.57v4a3.57,3.57,0,0,1,0,7.13v4a3.56,3.56,0,0,1,0,7.12v4a3.57,3.57,0,0,1,0,7.13v4a3.57,3.57,0,0,1,0,7.13v4a3.56,3.56,0,1,1,0,7.12v4a3.57,3.57,0,0,1,0,7.13v4a3.57,3.57,0,0,1,0,7.13v4a3.57,3.57,0,0,1,0,7.13v4a3.56,3.56,0,1,1,0,7.12v4a3.57,3.57,0,0,1,0,7.13v4a3.57,3.57,0,0,1,0,7.13v4a3.57,3.57,0,0,1,0,7.13v4a3.56,3.56,0,0,1,0,7.12v4a3.56,3.56,0,0,1,3.56,3.57h4.68a3.56,3.56,0,1,1,7.12,0h4.68a3.56,3.56,0,1,1,7.12,0h4.68a3.57,3.57,0,1,1,7.13,0h4.67a3.56,3.56,0,1,1,7.12,0h4.68a3.56,3.56,0,1,1,7.12,0h4.68a3.56,3.56,0,1,1,7.12,0h4.68a3.56,3.56,0,1,1,7.12,0h4.68a3.56,3.56,0,1,1,7.12,0h4.68a3.56,3.56,0,1,1,7.12,0h4.68a3.56,3.56,0,0,1,3.56-3.57v-4a3.56,3.56,0,0,1,0-7.12v-4a3.57,3.57,0,0,1,0-7.13v-4a3.57,3.57,0,0,1,0-7.13v-4a3.57,3.57,0,0,1,0-7.13v-4a3.56,3.56,0,1,1,0-7.12v-4a3.57,3.57,0,0,1,0-7.13v-4a3.57,3.57,0,0,1,0-7.13v-4a3.57,3.57,0,0,1,0-7.13v-4a3.56,3.56,0,0,1,0-7.12v-4a3.57,3.57,0,0,1,0-7.13v-4a3.57,3.57,0,0,1,0-7.13v-4a3.56,3.56,0,0,1,0-7.12v-4a3.57,3.57,0,0,1,0-7.13Z"/><rect class="cls-1" x="138.87" y="62.37" width="101.18" height="139.02"/></g><g id="_5" data-name="5"><path class="cls-2" d="M61.88,132.65a1.79,1.79,0,0,0,.49.55c2.42-.3,4.85-.74,7.27-1.26a1.39,1.39,0,0,0,.19-.39l-.49-.69c.45.21.54.44.49.69l.21.3.49-.11a3.65,3.65,0,0,1,2.37-1.43.74.74,0,0,0,.33.8c19.88-4.91,39.69-14.23,58.69-2.91,2.39-.55.05-.92,2.81-1-25.17-13.5-48.75,1.67-72.63,4.84a1.8,1.8,0,0,1,.27.45Z"/><path class="cls-2" d="M32.46,127.1c-.83.33,1.16.77,2.2,1.17.56.32,1.12.62,1.68.91a.88.88,0,0,0,0-.15C35.08,128.46,33.77,127.83,32.46,127.1Z"/><path class="cls-2" d="M48.69,133v.16a49.47,49.47,0,0,0,12.75.12,4.52,4.52,0,0,0-.51-.34c.37-.12.57-.6.77-.86-1.79.23-3.58.39-5.37.46,0,.31-.33.2-.68,0-1.51,0-3,0-4.54-.07l.34.86-.93-.9-.94-.08c.11.22.21.43.29.63A11.55,11.55,0,0,1,48.69,133Z"/><path class="cls-2" d="M48.69,133a2.91,2.91,0,0,0-.24-.74,43.16,43.16,0,0,1-5.32-1l-.22.11.62.65a38.86,38.86,0,0,0,4.91,1.08C48.48,133.07,48.57,133,48.69,133Z"/><path class="cls-2" d="M31.75,140.74c.56.3,1.11.58,1.66.85C34.8,141.12,34.11,140.92,31.75,140.74Z"/><path class="cls-2" d="M97.59,137.72c11.65-2.22,23.53-2.32,35.76,4.23-1.22-.71,1.11-.71-1.41-1.35-9.67-5.86-19.64-6.18-29.87-4.44l0,.31-.72.23.17-.44c-1.46.25-2.91.55-4.37.88C97.43,137.3,97.62,137.44,97.59,137.72Z"/><path class="cls-2" d="M78.22,142.65l3.63-1a2.72,2.72,0,0,0-.16-.38l-3.7,1A.73.73,0,0,1,78.22,142.65Z"/><path class="cls-2" d="M96.79,137.88c-.13-.12-.14-.34-.1-.64-4.57,1-9.2,2.38-13.86,3.7-.11.19-.17.35-.26.49C87.28,140.12,92,138.83,96.79,137.88Z"/><path class="cls-2" d="M58.83,146.52a5.53,5.53,0,0,1,1.57-.42c0-.09,0-.16-.08-.24-1,.1-2,.19-3,.24a2.73,2.73,0,0,1,.75.8l1.11-.12C59.19,146.68,59.08,146.59,58.83,146.52Z"/><path class="cls-2" d="M33.41,141.59c-.32.11-.75.23-1.3.37a40.36,40.36,0,0,0,11.51,4.32,8.16,8.16,0,0,0,1.24-.89A45,45,0,0,1,33.41,141.59Z"/><path class="cls-2" d="M74.75,143.13c0,.1,0,.23.21.41l1.59-.43a4,4,0,0,0-.23-.39Z"/><path class="cls-2" d="M45.21,145.45a2.91,2.91,0,0,1-.6.75c.13.13.25.24.37.34.8.14,1.6.25,2.4.35a6.57,6.57,0,0,0,.79-1C47.18,145.77,46.19,145.62,45.21,145.45Z"/><path class="cls-2" d="M61.79,145.69l-.71.09.09.46a1,1,0,0,1,.29.25l.57-.09A1.29,1.29,0,0,0,61.79,145.69Z"/><path class="cls-2" d="M56.56,146.14l-.66,0c-.14.29-.28.57-.4.87a.31.31,0,0,0,.1.05l1.27-.08a.85.85,0,0,0,.29-.23Z"/><path class="cls-2" d="M63.41,145.67a.94.94,0,0,0-.84.64l.84-.14a2.82,2.82,0,0,0,.36-.33A2.92,2.92,0,0,0,63.41,145.67Z"/><path class="cls-2" d="M91.35,152.92l.17.12a99.46,99.46,0,0,1,13.31-2.77.15.15,0,0,1,0-.07s0,0,0,.07c8-1,15.92-.42,23.71,3.54,0-.24.23-.49.73-.74,0,.25-.18,1.06.31,1.17a1.73,1.73,0,0,0,.26-1.25c-9-4.31-17.87-4.67-26.83-3.35a.88.88,0,0,1-1.2.18l-.2,0v0c-3.37.56-6.75,1.33-10.14,2.21l.05,0C91.57,152.6,91.57,152.6,91.35,152.92Z"/><path class="cls-2" d="M79.33,156.48a.81.81,0,0,1,0-.16c0-.29,0-.6.07-.92-4.37,1.21-8.77,2.35-13.2,3.16l.37,1C70.87,158.75,75.12,157.65,79.33,156.48Z"/><path class="cls-2" d="M57.54,159.66l-1.67.08c.16.18.18.38-.3.66a2.43,2.43,0,0,0-2.72.29,56.41,56.41,0,0,0,5.82-.12,3.43,3.43,0,0,1-1.44-.44A5.41,5.41,0,0,0,57.54,159.66Z"/><path class="cls-2" d="M81.81,155.78c0-.32,0-.63.42-.76a3.72,3.72,0,0,0-.08.66c3-.85,5.9-1.7,8.83-2.49l-.6-.22c.2-.29.36-.56.51-.74-3.5.92-7,1.93-10.55,2.92a3.59,3.59,0,0,0,.49.91Z"/><path class="cls-2" d="M61.09,160.34c1-.12,2.09-.25,3.12-.41a.81.81,0,0,1-.45-1c-1,.16-2.06.3-3.09.41a1.85,1.85,0,0,1-.14.14Z"/><path class="cls-2" d="M65.54,158.68l-.51.09A.47.47,0,0,0,65.54,158.68Z"/><path class="cls-2" d="M59,160.54l1.22-.11a2,2,0,0,0,.23-.85A3,3,0,0,1,59,160.54Z"/><path class="cls-2" d="M130.06,153.59l-.45.78c.57.31,1.15.64,1.72,1,1-.22-.3-.71,1.26-1-.45-.25-.89-.5-1.34-.73a1.66,1.66,0,0,1-.2.36C130.6,154.43,130.57,153.94,130.06,153.59Z"/><path class="cls-2" d="M57.37,174.17c-.06-.25-.12-.51-.17-.76-1,.05-2.07.06-3.11.05l-.75.83C54.69,174.3,56,174.26,57.37,174.17Z"/><path class="cls-2" d="M100.9,164.35c10.34-1.73,20.93-1.52,32.06,3.9-.26-.17-.35-.35.18-.5-10.21-6-20.58-6.23-31.1-4.33A7,7,0,0,1,100.9,164.35Z"/><path class="cls-2" d="M58.57,174.08c14-1.22,27.58-7.13,41.61-9.6,0-.22,0-.45-.07-.69-11.63,2.36-23.45,7-35.47,8.86a1.15,1.15,0,0,1-.88.13c-1.48.22-3,.38-4.45.5l0,.1A1,1,0,0,0,58.57,174.08Z"/><path class="cls-2" d="M48.17,174l.38,0a13.48,13.48,0,0,0,2.34-.72c-1.22-.1-2.44-.25-3.67-.44A4.18,4.18,0,0,0,48.17,174Z"/><path class="cls-2" d="M133.46,168.49l.48.24C134,168.7,133.74,168.61,133.46,168.49Z"/><path class="cls-2" d="M133,168.25a2.9,2.9,0,0,0,.5.24Z"/><path class="cls-2" d="M131.3,181.35a10.28,10.28,0,0,0,3.57,1.24,49.79,49.79,0,0,0-6.18-2.7C129.56,180.33,130.43,180.82,131.3,181.35Z"/><path class="cls-2" d="M38.39,184.73a1.43,1.43,0,0,1,.65-.47c-.39-.15-.77-.31-1.16-.48C37.92,184.23,38,184.66,38.39,184.73Z"/><path class="cls-2" d="M109.93,176.13c-8,.33-16.25,2.53-24.57,4.87-.31.42-1,.76-1,1.14,8.15-2.27,16.34-4.45,24.7-4.92A2,2,0,0,0,109.93,176.13Z"/><path class="cls-2" d="M109.94,176.13l0,1a48.81,48.81,0,0,1,18.7,2.72A37.1,37.1,0,0,0,109.94,176.13Z"/><path class="cls-2" d="M33.3,181.74c-1.32.17.72.33-.79.93l1,.49A2.57,2.57,0,0,0,33.3,181.74Z"/><path class="cls-2" d="M48,186.63c.32.39,1.91,0,2,1.13,11.56.91,22.88-2.43,34.28-5.61l-.46-.72C71.87,184.82,59.76,188.28,48,186.63Z"/><path class="cls-2" d="M41.9,185.57c.57,0,1.23-.16.77.84l.13.19.5.13a2.73,2.73,0,0,0,.63-.88c-.92-.23-1.84-.5-2.76-.8C41.2,185.51,41.53,185.57,41.9,185.57Z"/><path class="cls-2" d="M35.77,183.46c-.32-.63-.68-.18-1,.31l1.16.52A2,2,0,0,0,35.77,183.46Z"/></g><g id="_4" data-name="4"><path class="cls-2" d="M142.85,102.34l-.54-.8c-.71-.75-1.68-1.09-2.34-2.07l-.92.14.92,1.3-1.45-1,.1-.22a54.36,54.36,0,0,0-6.72,1.62c-.06.2-.17.33-.43.26,0,0,0-.08,0-.12l-1.33.44c.14.86-.54.54-1.07.39a55.86,55.86,0,0,0-13.69,7.43,2.29,2.29,0,0,0,.33.43A49.32,49.32,0,0,1,142.85,102.34Z"/><path class="cls-2" d="M115.17,110.48c-.08-.19-.15-.34-.22-.47-.75.56-1.48,1.14-2.2,1.74l0,.09-.07,0a58.07,58.07,0,0,0-6.08,5.87A48.46,48.46,0,0,1,115.17,110.48Z"/><path class="cls-2" d="M92.72,151.41l-.29-.24c.27-.55.47-.68.66-.74a51.92,51.92,0,0,1,5-20.35,58.54,58.54,0,0,0-4.72,12.61l.22.27-.25-.15a58,58,0,0,0-1.49,9.09C92.38,152.35,92.61,152,92.72,151.41Z"/><path class="cls-2" d="M192.58,129.59l.3.45a3.4,3.4,0,0,1,.2.31l-.2-.31c-.5-.63-.94-.26-1.49-.27.4.8.78,1.62,1.15,2.45.18.05.34,0,.38-.27l-.4-.6a1.26,1.26,0,0,1-.6-.92l.6.92a1.94,1.94,0,0,1,.64.44c.41.62.26,1.59-.15,1.55.45,1.08.86,2.18,1.23,3.29a1.51,1.51,0,0,0-.27-1.06l1.14.92,0,0-.67-1.06a4.61,4.61,0,0,1,1,1.32,1,1,0,0,0-.3-.26v0l0,0c-.28-.11-.43.18-.23.85a1.69,1.69,0,0,1-.56-.49c.09.27.17.54.26.82a.5.5,0,0,1,0,.13,55.07,55.07,0,0,1,2.09,9.33l1,.82-.38,0c1.18,1,.93,2,.58,2.19l-.7-1.26a1,1,0,0,0-.26.24c0,.27.05.54.07.81a1.86,1.86,0,0,0,.38.32.36.36,0,0,1-.36-.06c0,.2,0,.39,0,.58l1.38.52.1.37a54.63,54.63,0,0,0-1.65-11.88c-.31,0,.24.93,0,.73l-1-1.7c.27.14.62.39.93.59a53.36,53.36,0,0,0-3.72-10A.5.5,0,0,1,192.58,129.59Z"/><path class="cls-2" d="M187.91,123.74c.29.25.59.47.72.21a1.28,1.28,0,0,1,.25-1.56c-.61-.86-1.24-1.71-1.89-2.53a3.41,3.41,0,0,1-1.3.81C186.46,121.66,187.2,122.69,187.91,123.74Z"/><path class="cls-2" d="M191.75,138.24a2.36,2.36,0,0,0,1,1.23c-.14-.45-.29-.9-.44-1.35A.41.41,0,0,0,191.75,138.24Z"/><path class="cls-2" d="M104.65,178.32c-.27-.9-1.28.56-1.24-.89.8.15,1.27.61,2,.26-.57-1-1.09-2.08-1.58-3.16a3.92,3.92,0,0,0-1.25,2.51l.2.75h0c.36.65.74,1.29,1.13,1.93l-.07-.66Z"/><path class="cls-2" d="M142.31,101.54a2.79,2.79,0,0,1,.56.8h.2l-.19,0a.54.54,0,0,1,.05.11l-.07-.1a52.17,52.17,0,0,0-17.28,4.9c.51.5.9,1.75,1.52,1.69a1,1,0,0,0,0-.12c0-.4.24-.15.39,0a.6.6,0,0,1-.34.15c.64,1.6.92.74,1.46,1.25l.54-.2c0-.43,0-.72.43-.15a38.13,38.13,0,0,1,15-2.1c1,0,2.08,0,3.11,0,.14-.45.19-1.14.76-.2,0,.08-.05.16-.07.23a45.48,45.48,0,0,1,12,2.35c.09-.2.28-.24.61,0-.52-1.8-.9-1.77-1.85-2-.09-.59-.41-1,0-1.52-.32.2-1.06-.87-1.81-2-.43-.13-.86-.27-1.3-.39-.62.76-2.21-.26-2.38,1.36,1.32,1.94-.12.07.37,1.69l-.58-1.34c-1,0-3.17-1.22-4.32-2.85a.67.67,0,0,0,0-.42c-.81-.14-1.62-.25-2.44-.35,1-.07,2-.09,3-.09l-.49-1.32-.8-.15c-.76-.79.21-.33-.58-1.33l1.92,1.57-1.15-1.93c-.78-.08-1.56-.15-2.35-.19-.51,0-1,0-1.54.07a1.13,1.13,0,0,0,.08,1.1l1.6,1.14c-.06-.4-.47-.56-.68-1.08l1,.34a.22.22,0,0,0,0-.08l.08.1,1.16.4c-.12.08,0,.2.21.52,0,.62-.88-.34-1.37-.92l-.07,0c.34,1.59-.53.89-1.27,1.14-.55-.45-1.06-2.22-1.78-2.57l-.86.08a14.42,14.42,0,0,1-.71,1.82Zm-14.23,5.15-.15,0c.07.48-.8-.2-.3.69.3.41.64,1.13.83.84l-.12-.42.17.31a.37.37,0,0,1,0,.11l.14.47a7.4,7.4,0,0,1-1.8-1.63l.23-.16c.27.13.57-.13.9-.21a1,1,0,0,0,0-.12.77.77,0,0,1,.18.1c.32,0,.68.24,1.06,1.26C128.45,108.18,128.68,107.13,128.08,106.69Zm1.3,1.11.48-.3-.77-.8a3,3,0,0,1,1.29,1.75Zm17-3.41-.53-1c.3-.62,1.86,1.18,1-.87l1,1.51c-.26,0-1.39.24-.45,1.35.77.81,1.16-.08,1.63,1.33-1.28-1.55-1.43,0-2-.24-.5-.75.59.48.19-.55-1.33-1.94-1.7,0-1.26,1.22-.35-.63-.31-2.15-1.06-1.9C145.8,105.16,145.09,103.89,146.34,104.39Z"/><path class="cls-2" d="M102.18,170.23A51.74,51.74,0,0,1,99.56,154a45.84,45.84,0,0,1,.14-5,5.5,5.5,0,0,0-.87-.41c.09.59.41,1.89.68,1.94-.27,0-1-1.32-1.45-1.88.19-.54.69-.65.13-1.79l-.12.07c-.11-.77,1.13.9,1.71,1.23a.45.45,0,0,0,0-.11,1.38,1.38,0,0,0-.06-.26l-.29-.43a1,1,0,0,1,.29.43l.08.12c0-.51.12-1,.19-1.53-.33-.52-.72-1-.4-.62.12-.07.29,0,.47.19.05-.35.11-.7.17-1.05a1.36,1.36,0,0,0-.58-.47l.51-.1-1.62-2.19c.24-.15,1.21,1.16.77-.06l-.29-.24c.33-.43.21-1.21.78-.92l.88,1.74a46.07,46.07,0,0,1,3.18-9.22l-.3-.66a1.16,1.16,0,0,0,.43.38l.12-.24a.09.09,0,0,0,0-.05,2.25,2.25,0,0,0-.62-.69l.86.27a46.24,46.24,0,0,1,17.14-18.82,4.82,4.82,0,0,0-2.57-.78c-.33-.44-1,.21-1.17,1-.28-.23-.63-.93-.88-1.18l-.29.23a1.92,1.92,0,0,0,.93,1.1c.08,1.22-.74-.3-1.28-.83a51.34,51.34,0,0,0-17,25.3,1.76,1.76,0,0,1,.25.34,1.11,1.11,0,0,0-.27-.27c-.07.25-.15.5-.22.76,0,0,0,0,0,0a55.36,55.36,0,0,0-1.76,9l1.27,1.54-1.31-1.2c-.18,1.76-.28,3.55-.29,5.35a45.72,45.72,0,0,0,2.29,15.55C100.25,168.6,101,170.13,102.18,170.23Zm2.14-42.16-.63.18,0-.2Zm-2.47,5.4a2.17,2.17,0,0,1,.64.88l-.68-.21Z"/><path class="cls-2" d="M163.48,108.56c1.48,2.07,1.78.6,2.79,1.25-.47-1.42-1.42-1.68-1.74-2.12l1.59,1.14a3.26,3.26,0,0,0,0-.5c-1-.53-2.09-1-3.17-1.5C163.46,107.7,163.11,107.76,163.48,108.56Z"/><path class="cls-2" d="M162.29,104c0,.09.08.16.11.24a46.17,46.17,0,0,1,4.53,1.67,3.31,3.31,0,0,1-.25-.39c-.27-1.89.91.29,1.7.82a3.05,3.05,0,0,0,.65-.8c0,.94-.3,1-.65.8a1.27,1.27,0,0,1-.22.13,48.45,48.45,0,0,1,4.8,2.62l.59-.2v.58c.55.36,1.09.73,1.63,1.11.38-.15.59-.63.84-1.07a56.62,56.62,0,0,0-11.47-6.33l.18.58C163.87,104.05,163.89,105.1,162.29,104Z"/><path class="cls-2" d="M159.51,102.72a5.13,5.13,0,0,1-.48-1c-.77-1.08-1.32.4-2.3-1.12.13.23.27.56.45.82a1.44,1.44,0,0,1,.22.25,1.79,1.79,0,0,1-.22-.25c-.54-.55-.45.25-.66.38a5.09,5.09,0,0,0,1.34,1.23c.87.17,1.73.37,2.58.59a3,3,0,0,0-.43-1c1,1.52,1.43.82,2.28,1.34l-1.62-2.18a.27.27,0,0,0,.25,0c-.7-.23-1.41-.45-2.11-.66a5.79,5.79,0,0,0,.22.62A4.56,4.56,0,0,1,159.51,102.72Z"/><path class="cls-2" d="M176.22,110.17c.76.8,1.14,2.49,1.56,1.8l-.86-1.39c.84.33.83,2,1.54,1.59a3,3,0,0,1-.35-1.13c-.62-.49-1.24-1-1.88-1.42A2.4,2.4,0,0,0,176.22,110.17Z"/><path class="cls-2" d="M150.09,99.3l-1.45-.17.91.47C150,99.93,150.06,99.68,150.09,99.3Z"/><path class="cls-2" d="M196.75,147.46c0,.11,0,.23.05.35a.68.68,0,0,0,.08-.19Z"/><path class="cls-2" d="M184.76,179.68a2.85,2.85,0,0,1,1.1.55l-.13.46a55.14,55.14,0,0,0,3.32-5.51,4.67,4.67,0,0,1-1.31-.62A44.1,44.1,0,0,1,184.76,179.68Z"/><path class="cls-2" d="M176.75,120.28a1.59,1.59,0,0,0,.13.13v-.18Z"/><path class="cls-2" d="M184.43,180.27s0-.05,0-.08a43,43,0,0,1-28.57,18c.16.1.27,0,.48.19,0,.2.5.75.42,1l-1-1.21a44.09,44.09,0,0,1-10.87.34,46.5,46.5,0,0,1-10.43-.41.89.89,0,0,1-.08.17c-.21.06-.26,0-.25-.22a40.72,40.72,0,0,1-5.62-1.32.88.88,0,0,0,.05.15l-.07-.15A38.88,38.88,0,0,1,112,186.61c.39,1.79-2.1-.67-2.62-.35.1-1.12.63-.18.37-1.94l1.27,1.56a3.58,3.58,0,0,1-.13-.47,41.19,41.19,0,0,1-5.36-7.57c-.16.15-.44,0-.66.12l.43,2.35c-.6.73-.47-.9-.74-1.44-.52-.48-.49.42-.48,1.07.36.57.74,1.14,1.12,1.71.33-.21.83.28,1.38.6a1,1,0,0,0-.84.16q1.36,1.92,2.91,3.7l-.1-.18c.29.51,1.24,1.13,1.78,2a53.13,53.13,0,0,0,6.39,5.69,4.58,4.58,0,0,0-.1-1.47c1.06,1.91,1.16-.09,2,2a5.25,5.25,0,0,1,.36,1.1,53.75,53.75,0,0,0,6.87,3.94l-.45-.54c.17-.55.83-.53,1.33-.63a5.72,5.72,0,0,0,.47.69,2.88,2.88,0,0,0,0-.32,2.37,2.37,0,0,0,.21.56.77.77,0,0,0,.32.17c.45-.12.87-1.54.64-.38a.49.49,0,0,0,0,.12c.24-.16.48-.21.9.55.3,1.23-1.09-.17-.79,1,.89.36,1.78.7,2.69,1-.39-.73.88.42.08-.88.39,0,.5.75.68,1.07h-.22a50,50,0,0,0,12.76,2.52c.8,0,1.59,0,2.38-.11-.78-1.25.58-.51.14-1.84a2.66,2.66,0,0,1,.85,1.75,47,47,0,0,0,5.82-.91c-1-1.09-1.85-.08-2.88-2.58l-.22,1.2-.59-1.34c.34-1.28,1.81.79,3,.7.56.29-.26-.9,0-.86,1,1.12,0,1.06.38,1.69.35.37.7.72,1,1a53,53,0,0,0,29.26-19.22v0h0c.6-.76,1.17-1.54,1.72-2.33C185,180.82,184.7,180.64,184.43,180.27Zm-65,15.06c.22-1.2,1-.2,1.55-.11C120.72,195.37,120.38,196.65,119.41,195.33Zm10.88,4.12-.25-1.63.47.54Zm10.22-.51c.27,0,.22-.34.54.1.17.32,1,.45,1.23,1.35C141.67,199.72,140.72,199.46,140.51,198.94Z"/><path class="cls-2" d="M161.86,106.38l0,0,0,0Z"/><path class="cls-2" d="M190.86,128.53l-.32-.4.16.29Z"/><path class="cls-2" d="M128.51,203.29c-.35-.63-.41-1-.58-1.34.45.68.8.72.78.15a50.78,50.78,0,0,1-10.51-5c-.23.33-.52.59-1.23-.69l.12,0a52.89,52.89,0,0,1-13-12.12,2.73,2.73,0,0,0-1.61.31,1.4,1.4,0,0,0-.06.43,60.44,60.44,0,0,0,11.7,11.44c.22-.35.23-1,.77-.86.54,1.19,0,1.1-.54,1q2.25,1.65,4.65,3.11c-.18-.62-.57-1.29,0-1a6.88,6.88,0,0,1,.59,1.31l.81.47,0-.11v.12a59.82,59.82,0,0,0,6.16,3.06C126.45,202.65,127.92,203.49,128.51,203.29Zm-13-7.86.91,1.79A2,2,0,0,1,115.52,195.43Z"/><path class="cls-2" d="M157.19,204.06a3.11,3.11,0,0,0,.49,1c-.34.22-.81-.41-1.23-.85-.18,0-.38.06-.57.09a3.79,3.79,0,0,0,.58.46c-.3.61-1.11.47-1.75.46-.09-.27-.18-.51-.26-.73a46.23,46.23,0,0,1-8.34.23,49.24,49.24,0,0,1-17.39-2.59c.12,1,.82.82,1.48,1.19l-.64-.86c.22,0,.71.75,1,.71,0-.15,0-.22.14-.15,0,.1-.08.15-.14.15a7.08,7.08,0,0,0,1.23,2c-.68-.21-.88-1.58-1.45-1,.59.8.56,1,.57,1.22a56.31,56.31,0,0,0,14.69,2.91c1.36-.12,2.7-.27,4-.46.14-.37.53-.3.95-.15a67.35,67.35,0,0,0,8.77-2c-.07-.07-.15-.07-.26,0l.21-.35.2.26.31-.09a7.77,7.77,0,0,1-.6-.76c.54.51.81.63,1,.64l1.07-.35c-.3-.39-.6-.63-.41-.48a3.25,3.25,0,0,1,3.23-.53l.69-.28-.08-.53a1.52,1.52,0,0,0,.42.4c.53-.22,1-.43,1.55-.66l-.24-.41.4.34,1-.43-.53-.43.6-.38.1.73a57.85,57.85,0,0,0,12-7.47l-1.15-.73A48.11,48.11,0,0,1,157.19,204.06Z"/><path class="cls-2" d="M194.26,159.12c-.63-.11-1.35-.92-2.11-1.58a43.07,43.07,0,0,1-2.77,13.26l.19,0-.21.14.21.72-.41-.33c-.18.45-.37.9-.56,1.35.17.15.35.33.54.53-.06.47.53.95,0,.86l.26.41c.23-.46.46-.92.68-1.38a1,1,0,0,0-.32-.26c-.05.1-.11.2-.25.15,0-.2.12-.22.25-.15.08-.17.14-.35.46,0a52.49,52.49,0,0,0,4.15-13.22,1.74,1.74,0,0,1-.58-.2Z"/><path class="cls-2" d="M192.47,177.07a50.52,50.52,0,0,1-3.64,6.24c.33.26.61.35.72-.07.73,1.47-.06.48,0,1.06l.1.18a48.54,48.54,0,0,0,3.81-6.41s0,0,0-.07Z"/><path class="cls-2" d="M197.75,152.65c.49,1.6-.35,2.13.65,3.64-.74-.38-.9.09-1.16.41a46.51,46.51,0,0,1-4.62,20.06,2.19,2.19,0,0,1,1,1,49.93,49.93,0,0,0,4.94-22.53c0-.5,0-1,0-1.51A5.8,5.8,0,0,1,197.75,152.65Z"/><path class="cls-2" d="M121.72,110.69c1,1.32-.06.47-.32.43a7.43,7.43,0,0,1,1,2,39.79,39.79,0,0,1,4.9-2.42,3.89,3.89,0,0,0-.64-.79l-.54.78c-.56-.29.16-.74-.2-1.37-.15.73-.92-.06-1.19.74-.38.42-1.15-.58-1.55-1.56-.49.26-1,.54-1.43.82.45,0,1.35.8.88-.28l1,.84-1,0,.44,1.22c-.45.49-1-1.31-1.53-1.6a.32.32,0,0,1,0-.09c-.51.31-1,.63-1.51.95C120.72,110.81,121.44,111.34,121.72,110.69Z"/><path class="cls-2" d="M179.43,193.63a1.53,1.53,0,0,0,.89.56l.09.3a51.61,51.61,0,0,0,8.67-9.19c-.25-.37-.5-.81-.76-1.25A50.78,50.78,0,0,1,179.43,193.63Z"/><path class="cls-2" d="M189.34,170.9l-.05.11.07,0Z"/><path class="cls-2" d="M127.7,204.12l.77.3-1-.92C127.25,203.56,127.48,203.83,127.7,204.12Z"/><path class="cls-2" d="M124.92,107.6l-.41.2a.61.61,0,0,0,.41-.19Z"/><path class="cls-2" d="M191.76,144.64l1.72,1.92c0-.93.34-.93.77-.58a51.43,51.43,0,0,0-1.3-5.74c-.15-.35-.2-.93-.5-.74l-.12.94.29.24-1.45-1c1.07.18.14-1.79.44-2.41l.53.44c-.39-1.12-.81-2.21-1.27-3.29l-.52-.42c.05-.14.15-.15.27-.14a47.53,47.53,0,0,0-2.31-4.56c-.28.07-.5.19,0,1.1-.31,1.47-1.48-2.07-1.81-.79.17.31.52.94.79,1,.23.71-.27-.05-.41-.17-.3-.23-.88-1.57-.52-1.8,1.6,2.5.51-.81,1.17-.72-.26-.43-.54-.86-.82-1.28-.58-.64-1.1-1-1,.07l.31.38c.15.06.3.23.5.62l-.5-.62c-.27-.12-.49.15-.78-.08l.4,1c0,.25-.43.22-.82.13l-.17,0a1.15,1.15,0,0,1-.31-.12l.31.12.17,0c.22,0,.34-.1.09-.73-.32-.44-1-1.31-1.24-1.36.21-.34.77-.06.63-1l.31,1.29.58-.56a6.31,6.31,0,0,0-1-1.38l-.11-.06s.06,0,.11.06a1.1,1.1,0,0,0,1,0c-.63-.87-1.3-1.71-2-2.54-.25,0-.31.27.19,1.4-.71-.41-1.72-.2-2.49-1l1.59,2-1.5-1-.07.05-.59-.48.66.43c.3-.32-.6-.94-.71-1.69-.58-.18-.52.78-.26,2.11,1.05,1.23,2.05,2.52,3,3.86a.64.64,0,0,0,.25-.78,6.75,6.75,0,0,1,1.1,2.83c.11.17.21.34.31.51.74.22.14-1,1.06.23H185l.5.76a.42.42,0,0,1-.22.18c.17.3.34.6.5.9l.12-.06-.08.13a53.07,53.07,0,0,1,5.09,13.64C191.33,145.79,191.94,145.88,191.76,144.64Zm-5.12-13.86h0c0-.1,0-.08,0,0l1.25,1.55C187.53,132.72,186.8,131.15,186.64,130.78Zm1.28,2.6c.41.17.12-.93.77-.06C188.78,133.91,188.19,133.43,187.92,133.38Zm1.25,1c-.07,0-.08.11,0,.39-.11-.32-.08-.42,0-.39s.9.83,1.05.57c-.12-.22-.06-.46-.17-.77l-.26-.45a1.35,1.35,0,0,1,.26.45l1.12,1.89C190.78,136.12,189.5,134.44,189.17,134.35Z"/><path class="cls-2" d="M98.79,178c-.18.52-.77,0-.9.21q.48.87,1,1.71a.41.41,0,0,1,.05-.09l.18.46c.11.19.23.38.35.57h.23a1.47,1.47,0,0,0,.06-1c.23-.51.41-.87.57-1.16-.21-.35-.41-.71-.61-1.06-.06.25-.24.34-.71,0,.45-.5-1.08-2.09-1.68-1.72.46,1.24-.18.43-.4.47l.67,1.28A1.14,1.14,0,0,1,98.79,178Z"/><path class="cls-2" d="M97.89,174.46c-.35-.63-.5.1-.78,0,.06-.46.63-.17-.16-1.16a3.67,3.67,0,0,1,.86.46A53.5,53.5,0,0,1,93.52,159h0l-.36-.17a.55.55,0,0,1,.36.17h0c-.22-1.61-.38-3.24-.45-4.88,0-.35,0-.7,0-1-.53-1.3-.26.78-1-.17l-.23-.49c0,.57-.08,1.14-.1,1.72a44.32,44.32,0,0,0,1.61,13l.48.44a1.72,1.72,0,0,1-.21.48,49.94,49.94,0,0,0,2.63,6.88C96.87,175.05,97.75,175.24,97.89,174.46Z"/><path class="cls-2" d="M100.69,181.37a5.68,5.68,0,0,0,3,2.43c-.83-1.11-1.61-2.26-2.36-3.44A2.5,2.5,0,0,0,100.69,181.37Z"/><path class="cls-2" d="M193.11,153c.52,1.8.74-.26,1.21,1.16.16,0,.38,0,.61.05,0-1,0-2-.1-3a2.66,2.66,0,0,0-.61-.42c.09-.27.3-.29.57-.18,0-.48-.07-1-.12-1.42-.28.35-.49.93-1.24-.25,0,.66-1.13.28-.55,1.62-.74-1.34-.63,0-1.14-.13.18,1.26.31,2.53.41,3.82A3.94,3.94,0,0,0,193.11,153Z"/><path class="cls-2" d="M103.5,173.7a.42.42,0,0,1,0-.1l-.48-.85c.13.22.24.37.32.49-.28-.7-.56-1.4-.81-2.11a4.94,4.94,0,0,1-2.88-.33c.39,1.1.83,2.19,1.31,3.25A2.73,2.73,0,0,1,103.5,173.7Z"/><path class="cls-2" d="M98.09,130.08a58.73,58.73,0,0,1,8.53-12.42A48.77,48.77,0,0,0,98.09,130.08Z"/></g></g></svg>