<?xml version="1.0" encoding="UTF-8"?><svg xmlns="http://www.w3.org/2000/svg" viewBox="0 0 316 316"><defs><style>.d{fill:#14213d;fill-rule:evenodd;stroke:#14213d;stroke-miterlimit:10;}.e{fill:none;}</style></defs><g id="a"/><g id="b"><g id="c"><g><path class="d" d="M257.55,111.43c-.78-1.59-13.49-22.18-23.59-33.97-1-1.16-11.26-10.97-26.91-20.28-.93-.55-.56-2.71-.06-3.88,.44-1,.66-2.09,1.42-1.99,2.55,.34,3.71,.94,3.06-2.66-.03-.18-1.58-9.78-1.61-9.97-.52-3.14-2.77-.03-8.66,5.84-.67,.66-3.65,3.16-3.36,4.02,.39,1.12,2.28,1.06,3.5,1.65,1.39,.68,.28,2.55-.11,4.11-.56,2.28-.81,1.5-16.1-1.79-15.26-3.27-7.11-2.91-35.27-.9-3.75,.26-12.51,1.58-16.18,2.47-9.15,2.23-36.11,6.38-65.04,42.93-36.11,45.61-17.39,105.79-7.03,122.46,2.67,4.3,37.06,63.39,98.12,58.84,1.49-.11,5.42,.03,6.85-.25,2.22-.46,5.09-.53,7.3-1.06,4.93-1.17,12.36-3.39,15.43-4.53,11.01-4.09,15.41-4.02,25.31-10.41,13.11-8.45,19.37-11.45,29.09-24.96,16.76-23.31,16.12-25.92,22.17-54.35,3.8-17.83,4-16.32-2.32-49.49-.48-2.5-4.42-18.58-6.02-21.85Zm-53.98-62.83c-2.9-1.58-2.94-1.6,3.17-7.01,1.36-1.2,1.33-.47,1.55,.6,1.16,5.6,2.33,8.63-.62,7.4-1.67-.7-2.11,3.4-6.56,17.97-20.96,68.65-22.57,85.3-23.72,85.4-1.15,.1-.68-4.01-3.55-1.18-5.17,5.1,32.59-101.61,29.73-103.17Zm20.78,60.94c5.97-2.89,7.02-7.96,8.76-5.21,10.28,16.17,7.62,9.43,16.48,32.8,1.68,4.41-10.41,5.65-15.88,8.32-1.5,.74-1.46,2.74-.16,4.87,.79,1.29,2.35,.93,3.02,.78,17.63-4.04,15.56-4.35,15.64,1.53,0,0,.26,12.08,.16,22.01-.11,9.92,0,7.73-9.53,8.3-2.06,.12-1.43,1.44-.2,2.11,.14,.07,7.79,.38,7.96,.4,1.66,.13-1.23,5.94-2.81,14.86-1.94,10.99-9.68,21.51-15.1,28.55-.99,1.29-3.06-2.12-5.6-5.01-1.33-1.51-2.62,.05-1.82,1.18,4.29,6.13,6.47,5.82,3.61,8.34-15.35,13.62-24.48,18.41-31.27,21.28-1.16,.49-2.57-4.73-5.41-11.12-.51-1.16-1.39-4.53-3.43-3.43-3.56,1.91-2.17,1.73-.8,16.2,.11,1.16-17.2,2.87-37.45-.75-2.67-.47,1.91-9.04,.37-9.68-2.03-.85-2.41,9.59-4.61,8.74-14.57-5.68-20.9-7.61-35.56-19.18-1.52-1.21-6.17-5.56-4.36-7.33,1.88-1.84,5.66-3.9,5.1-4.91-.76-1.35-3.35,1.38-6.86,3.73-2.32,1.55-20.22-24.88-22.39-34.77-.63-2.91,17.61-3.28,16.05-8.6-.66-2.24-1.26-4.03-4.83-3.13-3.03,.76-9.39,1.82-10.95,1.91-1.98,.11-3.72,1.73-4.61-4.24-2.66-18.05-2.21-17.28-1.07-26.59,1.48-12.21,1.84-11.17,3.09-11.04,1.15,.12,10.09,.95,10.17-.78,.06-1.24-1.48-1.44-9.55-1.82-1.61-.07-2.62,.69,2.84-14.02,7.73-20.8,25.82-34.88,27.56-33.06,2.7,2.84,6.75,7.21,7.7,6.29,1.14-1.12-3.03-4.37-5.61-6.9-3.93-3.85,26.95-19.19,32.1-21.41,2.93-1.26,2.06,1.81,5.66,13.76,.61,2.03,4.99,2.26,4.7-.85-1.43-15.43-1.63-14.93,.07-15.07,10.44-.85,30.66-.99,39.8,4.08,1.85,1.02-19.48,64.73-24.7,81.46-.78,2.48-3.08,8.03-4.88,6.83-18.71-12.39-21.56-14.41-36.67-25.28-19.77-14.23,.41,2.15,35.42,26.54,2.65,1.85-20.81,20.05-31.03,29.2-.9,.81-1.45,1.41-3.11-1.22-3.05-4.82-4.06,1.56-7.18,10.93-1.98,5.95-2.44,3.83,12.49,2.39,1.26-.12,2.24-.62,1.47-2.17-.81-1.59-2.24-2.57-.2-3.92,33.89-22.4,20.96-18.91,31.93-17.05q3.87,.66,5.13-3.97c2.39-8.71,3.1-1.93,6.74-2.69,.17-.04,.41-.7,.31-.79-1.37-1.48-6.26-1.64-1.92-4.05,1.15-.65,5.22-1.49,4.14-3.71-1.13-2.32-2.76-4.41-3.76-6.77-1.35-3.18,10.18-49.37,21.1-82.31,.47-1.41,10.4,.97,30.18,26.02,1.3,1.63-4.66,4.36-6.92,8.97-.04,.07,.43,.52,.5,.48Zm-53.19,60.63c-15,9.78-31.12,21.23-35.51,23.86-3.99,2.39,1.16,4.93-3.07,5.34-4.91,.49-9.12,2.23-8.48,.77,1.4-3.14,2.64-6.78,3.96-9.98,.17-.43,1.08-.34,1.85,.72,2.09,2.8,.49,4.01,18.24-11.97,31.64-28.45,24.2-30.64,32.22-16.33,.7,1.25-.39,1.83-9.21,7.58Zm.26,5.33c-.54,.64-4.6,.41-4.71-.6-.06-.47,6.04-3.97,6.22-3.85,.61,.43-.9,3.73-1.5,4.44Zm-24.88,100.27C37,258.41,7.84,104.75,121.46,60.7c27.46-10.64-12.94,7.18-23.93,17.98-11.01,10.83-19.77,16.69-29.75,42.51-5,12.95-8.77,21.45-9.07,35.04-.11,4.41,2.75,39.09,15.66,60.39,13.61,22.46,26.05,35.85,49.92,46.9,27.75,12.88,32.28,8.85,44.66,11.34,5.29,1.07-8.07,3.15-22.41,.88Zm119.93-106.39c-5.6,35.94-11.78,61.45-41.78,83.92-13.33,9.98-22.65,10.44-34.44,14.56-37.02,12.97-78.02-7.26-97.05-28.93-27.57-31.38-28.02-44.66-32.94-81.2-1.21-8.98,3.86-24.29,7.02-32.73,21.72-57.92,78.64-73.97,103.67-72.94,1.15,.05,29.77,3.89,28.94,6.92-5.02,18.15,3.74,4.73-36.38,5.1-18.27,.17-26.18,5.9-40.33,14.07-95.53,55.19-41.17,173.12,36.39,180.62,93.05,9.01,112.99-97.83,80.78-146.75-4.13-6.26-12.07-23.09-26.81-33.83-10.01-7.29-12.62-6.21-11.47-9.4,3.19-8.73,2.25-10.57,4.44-9.23,12.11,7.41,28.2,14.91,50.94,55.82,1.64,2.97,10.69,43.18,9,53.99Zm-95.57-9c-1.89-.04-4.95,2.79-5.02,4.66-.04,1.32,2.16,3.14,3.8,3.14,5.16-.01,9.09-7.59,1.22-7.8Zm-2.83,4.32c-.11-1.99,5.03-3.44,5.26-.7,.25,2.84-5.09,3.48-5.26,.7Z"/><rect class="e" width="316" height="316"/></g></g></g></svg>