<svg id="Warstwa_3" data-name="Warstwa 3" xmlns="http://www.w3.org/2000/svg" xmlns:xlink="http://www.w3.org/1999/xlink" viewBox="0 0 316 316"><defs><style>.cls-1{fill:none;}.cls-2{fill:#e5e5e5;}.cls-3{clip-path:url(#clip-path);}.cls-4{fill:#14213d;}</style><clipPath id="clip-path"><circle id="Ellipse_55" data-name="Ellipse 55" class="cls-1" cx="158" cy="158" r="140.1"/></clipPath></defs><g id="sukienki"><circle id="Ellipse_55-2" data-name="Ellipse 55" class="cls-2" cx="158" cy="158" r="158"/><g class="cls-3"><path class="cls-4" d="M54.27,69.11c19-3,38-10.85,56.37-16.51,1.36-.42.78-2.55-.58-2.13-18.39,5.65-38.61,9.9-56,18.1-.33.15-.08.59.23.54Z"/><path class="cls-4" d="M54.17,67.7c-6,23.49,6.48,43.58,18.87,62.47.88,1.33,3,.09,2.15-1.26-12.65-19.32-23-37.19-19.88-61,.09-.66-1-.78-1.14-.16Z"/><path class="cls-4" d="M74.09,130.19c.14,21.52,5.81,42.9,10.35,63.8,4.64,21.32,12.5,47.66,5,69.05-3.49,10-9.51,18.75-14,28.27a97.55,97.55,0,0,0-8.16,27.05,155,155,0,0,0,2.15,57.31.65.65,0,0,0,1.28-.17c-.57-21.67-4.3-42.53.57-64.1,4.43-19.62,19-35.27,22.53-55,3.27-18.1-2.25-38.71-6-56.33-5-23.31-10-46.19-12.61-69.92-.07-.69-1.11-.73-1.1,0Z"/><path class="cls-4" d="M262,71.59c-17.41-8.2-37.63-12.45-56-18.1-1.36-.42-1.94,1.71-.58,2.13,18.35,5.66,37.4,13.5,56.37,16.51.3.05.56-.38.23-.54Z"/><path class="cls-4" d="M260.69,70.88c3.16,23.86-7.24,41.75-19.88,61.05-.89,1.35,1.27,2.59,2.15,1.26,12.39-18.89,24.91-39,18.87-62.47-.16-.61-1.23-.51-1.14.16Z"/><path class="cls-4" d="M240.81,133.21c-2.59,23.16-7.32,45.51-12.25,68.26-3.93,18.12-9.72,39.36-6.39,58,3.42,19.19,17.58,34.48,22.19,53.45,5.35,22,1.5,43.41.91,65.61a.65.65,0,0,0,1.28.17,154.79,154.79,0,0,0,2.15-57.31,96.51,96.51,0,0,0-7.53-25.67c-4.59-10-11.06-19.18-14.64-29.65-7.34-21.54.37-47.6,5-69.05,4.54-20.9,10.21-42.28,10.35-63.8,0-.72-1-.69-1.1,0Z"/><path class="cls-4" d="M110.39,51.75c13.38,41,76.32,36.34,95.57,3.33a1,1,0,0,0-1.66-1c-11,17.72-28.52,24.18-48.71,24.48S120.45,69,110.93,51.52a.3.3,0,0,0-.54.23Z"/><path class="cls-4" d="M110,51.51c30.28,15.22,62.85,10.22,94.7,3.51.59-.12.34-1-.24-.89-32.24,6.48-63.25,11-94.17-3.11-.33-.15-.62.33-.29.49Z"/><path class="cls-4" d="M110.71,54.23c29.46,14.37,63,10.48,93.62,2.32.44-.11.25-.79-.19-.68-31.13,8-63,11.38-93.16-2.09-.3-.14-.57.3-.27.45Z"/><path class="cls-4" d="M93.38,249.33c43.08.8,86.19.8,129.28,1a.78.78,0,0,0,0-1.56c-43.09-.24-86.19-.7-129.28-.36a.45.45,0,0,0,0,.9Z"/><path class="cls-4" d="M92.77,257.83c42.9,2.4,86.33,1.45,129.28,1.19a.88.88,0,0,0,0-1.76c-43-.1-86.28-1.59-129.28-.42a.5.5,0,0,0,0,1Z"/><path class="cls-4" d="M110.19,58.86A2.48,2.48,0,0,1,110,61a1.31,1.31,0,0,1-2.19-.24,1.26,1.26,0,0,1,.69-1.9c.71-.26,1.31.16,2,0a.3.3,0,0,0,.2-.27c.12-1.53-2.47-1.18-3.24-.7a2.59,2.59,0,0,0-.58,3.93,2.64,2.64,0,0,0,4,.24,2.38,2.38,0,0,0-.09-3.58.38.38,0,0,0-.55.43Z"/><path class="cls-4" d="M115.15,67.39c-.45-2-3.58-1.61-4.85-.81a3.61,3.61,0,0,0-.48,5.68,4,4,0,0,0,6.08-.18c1.06-1.41,1.57-4.81-.54-5.58-.18-.06-.33.14-.29.3.28,1.51.9,2.58.08,4.1-1,1.79-3.06,1.86-4.49.52a2.5,2.5,0,0,1,.48-4.17c1.44-.76,2.5-.19,3.85.3a.13.13,0,0,0,.16-.16Z"/><path class="cls-4" d="M121.73,73.56c-.29-.43-.44-.66-1-.73a2.1,2.1,0,0,0-1.9,3.34c1.63,2.25,4.8,0,3.6-2.37-.37-.7-1.4-.08-1.06.62.7,1.4-1.73,2-1.73.47,0-.79,1.18-1.07,1.81-1,.19,0,.41-.16.28-.36Z"/><path class="cls-4" d="M116,76.76a2.93,2.93,0,0,0-3.67.66A2.47,2.47,0,0,0,113,81a2.26,2.26,0,0,0,3.29-.61,2.42,2.42,0,0,0-.57-3.18c-.47-.34-1,.41-.62.81,1.07,1,0,3.07-1.39,1.93s.31-2.8,1.64-2a.7.7,0,0,0,.7-1.2Z"/><path class="cls-4" d="M128.91,79.8c-1.78-1.17-4.47-1-5.72.87a3.28,3.28,0,0,0,1.47,5c2,.65,4.76-.07,5.63-2.11.63-1.49-.34-4.52-2.41-3.75a.23.23,0,0,0-.06.42c1.14.61,2.09,1.87,1.33,3.17a3.81,3.81,0,0,1-4.22,1.28c-1.7-.56-1.75-2.85-.58-4s3-1,4.44-.57a.16.16,0,0,0,.12-.3Z"/><path class="cls-4" d="M133.66,82c-.13.27-.28.32-.33.63a1.69,1.69,0,0,0,.12.94,2.43,2.43,0,0,0,1.41,1.35,2.17,2.17,0,0,0,2.76-1.78,1.91,1.91,0,0,0-1.94-2.33c-.82,0-2.78,1.09-1.81,2.08a.36.36,0,0,0,.43,0c.46-.25.5-.8,1.06-1A.9.9,0,0,1,136.58,83a1.11,1.11,0,0,1-1.72.74,2.47,2.47,0,0,1-.89-1.72.17.17,0,0,0-.31-.08Z"/><path class="cls-4" d="M137.36,88.24c1.24.94.87,3.59-1,3a1.33,1.33,0,0,1-.88-2c.52-.79,1.35-.68,2.13-.95a.28.28,0,0,0,.16-.41c-.81-1.36-2.82-.15-3.39.88A2.56,2.56,0,1,0,139,90.89a2.9,2.9,0,0,0-.06-2,1.8,1.8,0,0,0-1.35-1.13c-.34-.11-.47.35-.22.53Z"/><path class="cls-4" d="M150.48,85.53a3.87,3.87,0,0,0-5.17,1.37A4.06,4.06,0,0,0,147,92.44c2,1.22,4.92.89,6.09-1.32A5.07,5.07,0,0,0,151,84.8c-.32-.17-.76.2-.53.53.85,1.24,1.85,2.44,1.83,4,0,2.23-2.5,3.11-4.33,2.35a3.18,3.18,0,0,1-2-4.11,3.41,3.41,0,0,1,4.37-1.84c.16.08.31-.15.15-.24Z"/><path class="cls-4" d="M127,89.82c1.22.48,1.55,2.75-.14,2.68a1.16,1.16,0,0,1-1.2-1.38c.17-.73.92-1.08,1.54-1.38a.24.24,0,0,0,0-.42c-1.17-.71-2.42.6-2.63,1.73a2.21,2.21,0,0,0,2,2.55,2.24,2.24,0,0,0,2.6-1.86,2.64,2.64,0,0,0-.49-1.81,1.62,1.62,0,0,0-1.59-.7c-.36,0-.37.47-.08.59Z"/><path class="cls-4" d="M143.46,83a2.39,2.39,0,0,0-3.38-.3,2.54,2.54,0,0,0,3,4c.93-.66,1.69-2.4.72-3.34a.43.43,0,0,0-.72.3c0,.74.15,1.35-.43,2a1.31,1.31,0,0,1-2.1-.26c-1.09-1.61,1.18-2.78,2.46-1.87.33.23.61-.25.4-.52Z"/><path class="cls-4" d="M55.67,69.18c0,9.8.88,19.6,4.74,28.73,4.35,10.29,11.47,19.22,16.4,29.25.19.39.75,0,.58-.34C73.65,118.39,68,111.11,63.7,103,58,92.26,56.8,81.15,56,69.18a.16.16,0,1,0-.31,0Z"/><path class="cls-4" d="M148.38,85.33a20.93,20.93,0,0,0-1.5,3A6.89,6.89,0,0,0,146,90.9a.21.21,0,0,0,.35.15,8,8,0,0,0,1.41-2.66,19.45,19.45,0,0,0,1.11-2.86.27.27,0,0,0-.49-.2Z"/><path class="cls-4" d="M150.66,86.12h.11a.16.16,0,0,0,.15-.12.36.36,0,0,0,0-.41.2.2,0,0,0-.23-.1c-.84.19-1.17,1.54-1.53,2.23-.58,1.13-1.21,2.24-1.68,3.41-.14.34.4.54.57.24.53-.88.94-1.84,1.38-2.77.21-.44.42-.87.62-1.31.06-.13.57-1.45.61-1.46-.17,0-.12.28,0,.29Z"/><path class="cls-4" d="M151.25,85.34a18.4,18.4,0,0,0-1.84,2.92,7,7,0,0,0-1.18,2.92.34.34,0,0,0,.57.24,8.69,8.69,0,0,0,1.54-2.86c.46-1,.95-2,1.31-3,.08-.22-.25-.42-.4-.23Z"/><path class="cls-4" d="M151.74,86.25c-.54.92-1,1.85-1.49,2.81a10,10,0,0,0-1.11,2.63c0,.31.33.63.58.34a10.28,10.28,0,0,0,1.39-2.72c.41-.94.81-1.87,1.14-2.84.11-.31-.35-.49-.51-.22Z"/><path class="cls-4" d="M152.31,88.05,151,90.13a5.93,5.93,0,0,0-1.07,1.93.26.26,0,0,0,.38.3,4.62,4.62,0,0,0,1.38-1.82,21.1,21.1,0,0,0,1.1-2.3c.11-.27-.32-.43-.47-.19Z"/><path class="cls-4" d="M151.91,91.43a4,4,0,0,0-.86-6.32c-1.73-.87-5.2.52-4.25,2.83a.19.19,0,0,0,.36,0c.6-1.51,2.14-3,3.8-1.78s1.41,3.41.69,5.07c-.08.16.12.36.26.2Z"/><path class="cls-4" d="M151.5,85.93c-2.89-3.8-8.23,1.38-7.1,5.06a.22.22,0,0,0,.39.05c.82-1.41.63-3.12,1.78-4.44s3.39-1.78,4.66-.46c.14.14.4,0,.27-.21Z"/><path class="cls-4" d="M144.15,88.44a4.34,4.34,0,0,0,2.75,5c1.75.62,4.81-.06,5.24-2.16,0-.14-.13-.31-.27-.21-1.37,1-2.51,2.15-4.37,1.71a4.29,4.29,0,0,1-3-4.28.16.16,0,0,0-.32,0Z"/><path class="cls-4" d="M150.6,86.77a3.68,3.68,0,0,0-5.17.91,4,4,0,0,0,1.22,5.3c.41.29.85-.25.64-.64-1.12-2.08-2.18-4.75.26-6.39.15-.1.12-.41-.1-.38a2.73,2.73,0,0,0-2.3,2.48c-.28,1.71.56,3.32,1.33,4.77l.65-.65a3.07,3.07,0,0,1-.93-4,3.35,3.35,0,0,1,4.22-1,.18.18,0,0,0,.18-.31Z"/><path class="cls-4" d="M125.16,80.66l.44-.41c.39-.17,0-.82-.34-.58A6.48,6.48,0,0,0,122.82,83a.35.35,0,0,0,.59.34,8.08,8.08,0,0,0,1.1-1.49,16.08,16.08,0,0,0,1.21-1.67l-.63-.17a.81.81,0,0,1-.22.53c-.12.18.17.34.29.17Z"/><path class="cls-4" d="M127,79.73a8.23,8.23,0,0,0-2.25,2A4,4,0,0,0,123.5,84a.12.12,0,0,0,.18.1c.8-.38,1.28-1.28,1.84-1.93s1.25-1.33,1.78-2.07c.14-.2-.13-.43-.33-.32Z"/><path class="cls-4" d="M163.07,84.05a3,3,0,0,0-3.9-1.18,2.66,2.66,0,0,0-1.25,3.28c.58,1.56,2.59,1.67,4,1.16,1.13-.43,2.64-2.3,1.27-3.31a.26.26,0,0,0-.38.16c-.24,1.07-.34,2-1.59,2.24-.94.22-2.25.14-2.33-1.05a1.59,1.59,0,0,1,1.2-1.68,3.75,3.75,0,0,1,2.7.71.25.25,0,0,0,.33-.33Z"/><path class="cls-4" d="M160.73,83c-.48.6-1.56,1.77-1.25,2.57a.16.16,0,0,0,.2.11c.85-.13,1.33-1.64,1.61-2.35a.34.34,0,0,0-.56-.33Z"/><path class="cls-4" d="M162,83.31c-.56.65-1.64,1.87-1.36,2.76a.21.21,0,0,0,.26.15c.91-.23,1.38-1.78,1.63-2.6a.32.32,0,0,0-.53-.31Z"/><path class="cls-4" d="M162.66,84.45a4.06,4.06,0,0,0-1.14,1.75.26.26,0,0,0,.38.29,3.93,3.93,0,0,0,1.26-1.65c.18-.3-.26-.67-.5-.39Z"/><path class="cls-4" d="M161.52,91.85a2.67,2.67,0,0,0-4-.37,3,3,0,0,0,.1,4.19,3.14,3.14,0,0,0,4.25-.09c.9-.89,1.39-3.3-.24-3.75a.19.19,0,0,0-.23.24c.18,1,.53,2-.29,2.76a2.08,2.08,0,0,1-2.69.11,2,2,0,0,1-.18-2.75,2.24,2.24,0,0,1,3-.09c.17.16.39-.08.25-.25Z"/><path class="cls-4" d="M160,91.26a4,4,0,0,0-2.23,3.13.28.28,0,0,0,.51.14c.29-.49.44-1,.73-1.53a8,8,0,0,1,1.21-1.45.18.18,0,0,0-.22-.29Z"/><path class="cls-4" d="M161.62,91.52A5.86,5.86,0,0,0,159,95c0,.12.12.23.22.13a15.83,15.83,0,0,0,1.22-1.61c.44-.61,1-1.16,1.39-1.77.11-.15-.1-.33-.25-.24Z"/><path class="cls-4" d="M161.39,93.45a10.11,10.11,0,0,1-.95,2c-.07.14.07.33.23.23a2.57,2.57,0,0,0,1-2.18c0-.14-.22-.18-.25,0Z"/><path class="cls-4" d="M162.34,86.86a3.48,3.48,0,0,0,.89-2.9c-.17-.7-.75-1.62-1.57-1.41a.19.19,0,0,0-.08.32c.5.55,1,.82,1,1.65a8.58,8.58,0,0,1-.57,2.17.18.18,0,0,0,.3.17Z"/><path class="cls-4" d="M75.75,130.34c4.74,25.39,9.56,50.91,15.56,76,.1.42.72.24.64-.18-4.83-25.39-10.48-50.67-15.78-76-.06-.27-.47-.16-.42.11Z"/><path class="cls-4" d="M91.59,207.71C96.2,221,97.2,234.05,96,248a.29.29,0,0,0,.57.07c2.28-13.64.32-27.56-4.56-40.43-.09-.25-.48-.15-.39.1Z"/><path class="cls-4" d="M98.66,226.85a122,122,0,0,1,.09,20c0,.31.51.39.55.07a64,64,0,0,0-.37-20.07c0-.15-.28-.12-.27,0Z"/><path class="cls-4" d="M100.94,229.27a167.8,167.8,0,0,1,.52,17.51c0,.44.66.44.69,0a86,86,0,0,0-.82-17.56c0-.22-.41-.17-.39.05Z"/><path class="cls-4" d="M78,127.19a63.67,63.67,0,0,0,5.9,23.14c.09.18.41,0,.33-.14a103.5,103.5,0,0,1-6.17-23s-.06,0-.06,0Z"/><path class="cls-4" d="M79.72,126a56.9,56.9,0,0,0,6.4,23c.15.29.56,0,.43-.25A75,75,0,0,1,80,126c0-.19-.32-.2-.31,0Z"/><path class="cls-4" d="M83.51,131.44a77.17,77.17,0,0,0,4.1,15.75c.15.41.81.23.66-.18a141.24,141.24,0,0,1-4.64-15.61c0-.08-.14,0-.12,0Z"/><path class="cls-4" d="M82,152.66a45.09,45.09,0,0,0,4.11,12c.14.27.55,0,.41-.24a52.36,52.36,0,0,1-4.33-11.82c0-.13-.22-.07-.19.06Z"/><path class="cls-4" d="M89.23,166c.78,2.45,2.7,5.66,5.08,6.86a.16.16,0,0,0,.18-.25c-.93-1.14-2.11-2-3-3.22a23.27,23.27,0,0,1-2-3.5c-.07-.15-.32-.05-.27.11Z"/><path class="cls-4" d="M237,133.82c.76,9.56-4.15,19.79-6.2,29.05a.13.13,0,0,0,.26.07c1.74-5.55,3.14-11.23,4.62-16.86,1.09-4.18,2.16-8,1.55-12.29,0-.13-.25-.1-.23,0Z"/><path class="cls-4" d="M234.77,135.63a83.33,83.33,0,0,1-8,28.92.16.16,0,0,0,.28.16,57.73,57.73,0,0,0,8-29.08.12.12,0,0,0-.24,0Z"/><path class="cls-4" d="M236.67,154.37a129.31,129.31,0,0,1-7,18.55c-.12.25.23.47.37.22a56.23,56.23,0,0,0,6.83-18.72c0-.11-.14-.16-.17,0Z"/><path class="cls-4" d="M235,168.83c-9.49,24.33-18,51.66-17.25,78a.24.24,0,0,0,.47,0c1.13-27.53,9.4-51.83,17-78,0-.13-.15-.18-.2,0Z"/><path class="cls-4" d="M257.82,73.52c2.27,12.71-.56,20.79-5.63,32.34-3.39,7.71-7,15.37-10,23.21-.06.14.18.24.25.1,8.43-17.3,20.07-36.07,15.77-55.75-.05-.24-.4-.14-.36.1Z"/><path class="cls-4" d="M96.24,248.5a36.87,36.87,0,0,0-3.26,6c-.17.44.49.66.72.31a36.83,36.83,0,0,0,3-6.08.25.25,0,0,0-.44-.25Z"/><path class="cls-4" d="M98.68,249A21.42,21.42,0,0,0,95,252.45a12.09,12.09,0,0,0-2.6,3.88.32.32,0,0,0,.52.31,36.65,36.65,0,0,0,2.82-3.8c1-1.24,2.08-2.38,3.15-3.55.14-.15,0-.44-.23-.3Z"/><path class="cls-4" d="M101.67,248.92c-3.29,2.18-7.14,5.43-8.65,9.18-.09.21.21.35.35.21,1.38-1.42,2.43-3.12,3.78-4.57a38.64,38.64,0,0,1,4.81-4.32c.28-.22,0-.71-.29-.5Z"/><path class="cls-4" d="M103.35,248.89c-1.7,1.37-3.31,2.86-4.92,4.33-1.35,1.24-3.35,2.55-4.12,4.23-.08.17,0,.43.26.35,1.7-.65,3-2.39,4.32-3.63,1.66-1.58,3.34-3.15,4.89-4.84a.31.31,0,0,0-.43-.44Z"/><path class="cls-4" d="M105.22,249c-1.42,1.34-2.78,2.75-4.14,4.16A38.5,38.5,0,0,0,97.45,257c-.33.46.34.85.71.56a40.4,40.4,0,0,0,3.91-3.94c1.28-1.34,2.56-2.68,3.78-4.08a.45.45,0,0,0-.63-.63Z"/><path class="cls-4" d="M107.58,248.91c-1.26,1.35-2.48,2.75-3.78,4.07s-2.82,2.47-4,3.88c-.28.33.07.9.49.64a23.34,23.34,0,0,0,4.18-3.83,41.72,41.72,0,0,0,3.63-4.34c.23-.32-.28-.7-.54-.42Z"/><path class="cls-4" d="M112.44,249.35a28.88,28.88,0,0,0-5.33,3.51c-1.56,1.27-3.5,2.74-4.46,4.54-.16.3.18.71.49.49,1.54-1.06,2.74-2.67,4.17-3.9a68,68,0,0,1,5.44-4.11.31.31,0,0,0-.31-.53Z"/><path class="cls-4" d="M114.45,249.62c-1.73,1.32-3.37,2.75-5,4.16s-3.54,2.68-4.77,4.4c-.2.28.17.56.42.43a26,26,0,0,0,4.77-3.88c1.69-1.49,3.42-3,5-4.55.28-.28-.11-.82-.44-.56Z"/><path class="cls-4" d="M94.59,250.8c5.19.27,11.27.5,16.38-.49.32-.06.2-.47-.07-.51-5.14-.66-11.16-.07-16.31.51a.25.25,0,0,0,0,.49Z"/><path class="cls-4" d="M213.28,250.72a24.76,24.76,0,0,0-2.73,3.38,38.06,38.06,0,0,0-2.83,3.88c-.22.38.3.81.61.48A35.6,35.6,0,0,0,211,255a28.54,28.54,0,0,0,2.73-3.94.28.28,0,0,0-.43-.34Z"/><path class="cls-4" d="M217.43,249.41c-1.26,1.07-2.45,2.22-3.64,3.37A28.7,28.7,0,0,0,210.6,256c-.27.35.25.86.6.61a29.68,29.68,0,0,0,3.31-3.13c1.17-1.17,2.35-2.33,3.44-3.57a.37.37,0,0,0-.52-.52Z"/><path class="cls-4" d="M220.66,248.4a78.35,78.35,0,0,0-7.62,8.27c-.33.43.35.9.72.56a78,78,0,0,0,7.39-8.33c.28-.35-.16-.82-.49-.5Z"/><path class="cls-4" d="M221.3,250.24c-1.16,1.19-2.25,2.46-3.33,3.71a22.5,22.5,0,0,0-2.86,3.54.38.38,0,0,0,.59.45,24.53,24.53,0,0,0,3.31-3.73c1-1.17,1.93-2.33,2.83-3.55.23-.32-.27-.69-.54-.42Z"/><path class="cls-4" d="M221.21,253.89a19.49,19.49,0,0,1-1.65,2.18c-.45.49-1.13.91-1.33,1.56a.24.24,0,0,0,.29.29c.74-.12,1.3-.95,1.74-1.5a10.07,10.07,0,0,0,1.38-2.35c.11-.26-.28-.38-.43-.18Z"/><path class="cls-4" d="M98.81,262.49s0,0,0,0Z"/><path class="cls-4" d="M96.74,260.66c-3,13-10.15,23-16.2,34.63a51.62,51.62,0,0,0-5.81,30.57c0,.24.39.26.39,0,0-7.08-.27-13.74,1.92-20.61,2-6.33,5.36-12.08,8.69-17.8,4.89-8.4,10.13-16.9,11.13-26.78,0-.07-.11-.08-.12,0Z"/><path class="cls-4" d="M220,262.3c3.47,27.22,25.39,48.16,21.8,76.91,0,.22.33.26.38.05,5.86-27.21-16.68-51.52-22.12-77a0,0,0,0,0-.06,0Z"/><path class="cls-4" d="M86.57,290.79c-6.23,10.69-9.72,23.95-8.88,36.34a.11.11,0,1,0,.21,0c.92-13.15,3.32-24.25,8.72-36.31,0,0,0-.06-.05,0Z"/><path class="cls-4" d="M98.82,259.48a60.28,60.28,0,0,1-7,20.94c-.07.12.11.22.19.11a45.25,45.25,0,0,0,7-21c0-.13-.17-.12-.19,0Z"/><path class="cls-4" d="M102.27,258.86c-.7,7.16-2.81,13.27-5.38,19.92-.06.16.19.26.28.11,3.47-6,5-13.19,5.42-20,0-.2-.3-.2-.32,0Z"/><path class="cls-4" d="M105.92,258.26c-.74,7-2.7,12.89-5.22,19.39,0,.14.16.22.23.1,3.46-5.74,5-12.84,5.31-19.49,0-.21-.3-.2-.32,0Z"/><path class="cls-4" d="M108.39,259.47A88.2,88.2,0,0,1,106,275.15a.18.18,0,0,0,.35.09,38.79,38.79,0,0,0,2.3-15.77.11.11,0,0,0-.22,0Z"/><path class="cls-4" d="M111.52,261.26c-.79,3.7-1.83,7.73-1.91,11.51a.18.18,0,0,0,.36.05c1.13-3.6,1.43-7.76,1.87-11.51,0-.19-.29-.23-.32-.05Z"/><path class="cls-4" d="M255.1,75.15c1.06,15.21-4.83,28-10.65,41.61,0,.08.08.16.13.07,6.57-12.85,12.38-27,10.63-41.68,0-.06-.12-.07-.11,0Z"/><path class="cls-4" d="M58.33,71.53A268.42,268.42,0,0,0,97.66,59.1c.24-.09.14-.47-.1-.38-12.9,5-26,9-39.28,12.64-.11,0-.06.19,0,.17Z"/><path class="cls-4" d="M205.64,58.61c15.82,6,31.9,11.52,47.91,17,.27.09.38-.32.12-.41-15.92-5.75-31.88-11.55-48-16.75-.1,0-.14.12,0,.16Z"/><path class="cls-4" d="M103.58,225c-.08,7.25-.25,14.5-.15,21.75a.22.22,0,0,0,.43,0c.11-7.25-.06-14.5-.14-21.75a.07.07,0,0,0-.14,0Z"/><path class="cls-4" d="M105.36,225.64c.18,6.84.35,13.69.66,20.53,0,.28.45.29.44,0-.2-6.85-.54-13.69-.88-20.53a.11.11,0,0,0-.22,0Z"/><path class="cls-4" d="M108.4,229.26a149.15,149.15,0,0,0-.09,15.1.17.17,0,1,0,.34,0,149.15,149.15,0,0,0-.09-15.1.08.08,0,0,0-.16,0Z"/><path class="cls-4" d="M157.22,259.47a33.42,33.42,0,0,0,.07,7.28c0,.12.22.12.25,0a32.81,32.81,0,0,0,.06-7.28.19.19,0,0,0-.38,0Z"/><path class="cls-4" d="M159.68,260.67a38.2,38.2,0,0,0,0,6.68c0,.1.19.1.2,0a39.2,39.2,0,0,0,0-6.68.15.15,0,0,0-.29,0Z"/><path class="cls-4" d="M162.11,260.07a29.26,29.26,0,0,0,0,6.68.13.13,0,0,0,.25,0,29.26,29.26,0,0,0,0-6.68.14.14,0,0,0-.27,0Z"/><path class="cls-4" d="M165.26,260.66c1.15,1.75,1.15,3.44,1,5.43a.14.14,0,0,0,.26.07,5.84,5.84,0,0,0-1-5.64c-.1-.14-.34,0-.24.14Z"/><path class="cls-4" d="M169.21,86.39c-1.7.92-.9,3.31.5,4.1,1.6.91,4.68.73,5.55-1.13s-.42-3.89-2.09-4.6A3.22,3.22,0,0,0,170,85a2.14,2.14,0,0,0-.94,2.36.33.33,0,0,0,.64,0c.54-1.51,1.82-2.33,3.37-1.43,1,.56,1.82,2,1.11,3.12s-2.67,1-3.69.63a2,2,0,0,1-1-3c.13-.18-.11-.38-.28-.28Z"/><path class="cls-4" d="M171.68,85c-1,.93-2.36,2.76-2.06,4.19a.18.18,0,0,0,.32,0,11.35,11.35,0,0,0,.69-1.88A8.87,8.87,0,0,1,172,85.23a.19.19,0,0,0-.28-.27Z"/><path class="cls-4" d="M173.26,85c-1,1.25-2.55,3.27-2.38,5a.11.11,0,0,0,.2,0,16.55,16.55,0,0,0,1-2.49,12.3,12.3,0,0,1,1.42-2.33c.13-.16-.15-.38-.28-.22Z"/><path class="cls-4" d="M180.27,80c-.88,1.62.71,3.15,2.3,3.23s3.87-1,4-2.94a3.25,3.25,0,0,0-2.59-3.32,3.67,3.67,0,0,0-4.08,2.63.32.32,0,0,0,.59.25,4.23,4.23,0,0,1,2.41-1.93,2.29,2.29,0,0,1,2.68,1.61c1,3.15-5.41,4.13-4.93.57,0-.19-.26-.24-.34-.1Z"/><path class="cls-4" d="M184.43,86.51a1.69,1.69,0,0,0-2.28-.07,1.94,1.94,0,0,0-.35,2.4c1.28,1.45,3.65-1,2.2-1.94a.15.15,0,0,0-.23.13c0,.32.12.71,0,1-.32.6-1.29,1-1.6.11-.42-1.19,1.31-2,2.23-1.52.07,0,.12,0,.06-.1Z"/><path class="cls-4" d="M178.67,92.52a3.59,3.59,0,0,0-4,0c-1.07.74-2,2.51-.92,3.63a3.38,3.38,0,0,0,4.34,0c.74-.71,1.23-2.88-.18-3.18a.28.28,0,0,0-.35.35c.24.8.64,1.57-.2,2.21s-3,.65-3.07-.61c-.09-1.91,2.84-2.81,4.23-2.07a.17.17,0,0,0,.17-.3Z"/><path class="cls-4" d="M207,61.41a2.15,2.15,0,0,0-2.46,3.53c2,1.61,4.81-1.1,3-3-.07-.08-.23,0-.19.11.59,1.5-.85,3.67-2.44,2.3s.33-3.22,1.89-2.58c.22.09.34-.25.16-.38Z"/><path class="cls-4" d="M206.05,68.84c-1.33-1.7-4-1.35-5.38.11s-1.9,4.39-.45,5.86a4.69,4.69,0,0,0,3.21.84,3.69,3.69,0,0,0,2.83-1.22c1.07-1.22,1.56-3.63.09-4.74-.12-.09-.27.06-.24.19a4.16,4.16,0,0,1-.2,3.55c-.95,1.51-3.75,1.93-5,.61s-.62-3.53.46-4.62a3.62,3.62,0,0,1,4.45-.31c.19.11.33-.12.22-.27Z"/><path class="cls-4" d="M195.47,71.93c-1.22-1.11-2.9-.29-3.46,1.11a3.77,3.77,0,0,0-.14,2.5c.3.84,1.18.95,1.95,1.09,1.62.27,3.53,0,4.06-1.79.39-1.33-.58-3.33-2.18-3a.16.16,0,0,0,0,.29c.84.63,1.8,1.24,1.43,2.47a2.21,2.21,0,0,1-2.52,1.3,4,4,0,0,1-1.45-.23,1.78,1.78,0,0,1-.64-1.59c.13-1.38,1.38-2.66,2.84-2,.11.06.25-.09.14-.19Z"/><path class="cls-4" d="M190.27,82c.5-1.11,2.22-.77,1.78.49a.85.85,0,0,1-1.28.39c-.32-.19-.45-.57-.68-.85a.19.19,0,0,0-.28,0c-.43.8.54,1.59,1.28,1.69a1.55,1.55,0,0,0,1.71-1.27,1.59,1.59,0,0,0-3.1-.72c-.08.32.42.56.57.23Z"/><path class="cls-4" d="M199.94,80.51a1.77,1.77,0,1,0,2.67,2.28c1.69-2.15-2.27-3.68-2.64-1.79a.18.18,0,0,0,.26.2,1.74,1.74,0,0,1,1.24-.37.94.94,0,0,1,.68,1.44,1.13,1.13,0,0,1-1.93.11,2,2,0,0,1-.14-1.76.09.09,0,0,0-.14-.11Z"/><path class="cls-4" d="M193.09,86.83c-.61,1.31.75,2.45,2,2.44a2.38,2.38,0,0,0,2.47-2.46,2.53,2.53,0,0,0-2.68-2.39c-1.23.16-2.75,1.71-2,3a.26.26,0,0,0,.47-.07c.23-.91.36-1.82,1.44-2.13a1.72,1.72,0,0,1,2,1.37c.54,2.29-3.3,2.74-3.51.29,0-.09-.13-.14-.17,0Z"/><path class="cls-4" d="M201,80.7a4.72,4.72,0,0,0-1.27,1.65.3.3,0,0,0,.44.35,4.71,4.71,0,0,0,1.29-1.64.3.3,0,0,0-.46-.36Z"/><path class="cls-4" d="M201.12,80.91a4.35,4.35,0,0,1-.55,1.65c-.14.29.17.71.49.49a1.66,1.66,0,0,0,.45-2.24.21.21,0,0,0-.39.1Z"/><path class="cls-4" d="M202.28,81.32a2.32,2.32,0,0,0-1,1.07c-.06.17.14.37.3.3a2.27,2.27,0,0,0,1.07-1,.26.26,0,0,0-.36-.36Z"/><path class="cls-4" d="M205.82,61.69a4.9,4.9,0,0,0-.95,2.19.48.48,0,0,0,.13.47l.15.13a.23.23,0,0,0,.25,0c.4-.2.39-.41.48-.84a10.42,10.42,0,0,1,.55-1.63c.12-.33-.39-.63-.61-.35Z"/><path class="cls-4" d="M206.65,62.35a7.06,7.06,0,0,0-.93,2.9c0,.26.38.47.56.23a6.81,6.81,0,0,0,1-2.85c.08-.38-.47-.68-.67-.28Z"/><path class="cls-4" d="M207.28,63.44c0,.4-.16.53-.43.73a.2.2,0,0,0,.05.37c.75.19,1.12-.61.85-1.23-.1-.23-.48-.11-.47.13Z"/><path class="cls-4" d="M188.34,91.35c.51.89,0,2.56-1.28,1.67a.93.93,0,0,1,0-1.54,1.75,1.75,0,0,1,1.25-.22.14.14,0,0,0,.1-.23c-1.31-1.3-3.33,1.27-1.64,2.46s3.38-1.32,1.82-2.36a.16.16,0,0,0-.22.22Z"/><path class="cls-4" d="M146.31,95.88c-2.19-.84-3.71,2.24-1.51,3.27a1.6,1.6,0,0,0,2.14-.71c.34-.63.36-1.78-.44-2.06-.1,0-.16.08-.12.15a1.94,1.94,0,0,1,.29,1.48,1.14,1.14,0,0,1-1.65.7c-1.74-.84-.37-3.09,1.26-2.7.08,0,.11-.1,0-.13Z"/><path class="cls-4" d="M145.79,96a3.47,3.47,0,0,0-.87,2.21.13.13,0,0,0,.25,0,14.23,14.23,0,0,1,.81-2.14c.07-.12-.11-.21-.19-.11Z"/><path class="cls-4" d="M146.78,97.21a2.46,2.46,0,0,0-1,1.86.1.1,0,0,0,.19,0,3.74,3.74,0,0,1,.92-1.76c.09-.09,0-.21-.14-.13Z"/><path class="cls-4" d="M215.27,222.62a195.11,195.11,0,0,1-1.1,25.35c0,.27.39.27.42,0a140.39,140.39,0,0,0,.89-25.35c0-.13-.21-.14-.21,0Z"/><path class="cls-4" d="M211.56,227.15c.2,7.33-.28,14.47-.62,21.77a.15.15,0,0,0,.29,0,80.07,80.07,0,0,0,.61-21.81c0-.18-.29-.18-.28,0Z"/><path class="cls-4" d="M206.31,230.77c-.1,6.62-.38,13.32-.05,19.94a.09.09,0,0,0,.17,0c.33-6.62,0-13.32-.05-19.94,0,0-.07,0-.07,0Z"/><path class="cls-4" d="M223.13,189.87c-3,10.25-5.14,21.12-5.23,31.84,0,.21.3.2.32,0,1.17-10.76,2.49-21.26,5.12-31.78a.11.11,0,0,0-.21-.06Z"/><path class="cls-4" d="M240.51,70.3A92.75,92.75,0,0,0,236.83,83a.13.13,0,0,0,.25.07,92.07,92.07,0,0,0,3.45-12.73s0,0,0,0Z"/><path class="cls-4" d="M243.23,72.12c-1,3.59-2.13,7.2-2.8,10.85a.09.09,0,0,0,.17,0c1.17-3.53,1.89-7.25,2.76-10.86,0-.09-.11-.12-.13,0Z"/><path class="cls-4" d="M246,74.85a80.7,80.7,0,0,0-2.77,10,.13.13,0,0,0,.24.07,80.54,80.54,0,0,0,2.74-10,.11.11,0,0,0-.21-.06Z"/><path class="cls-4" d="M249.68,75.81A24.08,24.08,0,0,1,247,83.89a.15.15,0,0,0,.25.15,14.26,14.26,0,0,0,2.55-8.23.06.06,0,0,0-.11,0Z"/><path class="cls-4" d="M59.59,69.45a101.23,101.23,0,0,0,3.46,10.93.13.13,0,0,0,.26-.07,102.63,102.63,0,0,0-3.36-11,.19.19,0,0,0-.36.1Z"/><path class="cls-4" d="M62.89,69.56c.88,2.71,1.63,5.53,2.72,8.15a.1.1,0,1,0,.19,0c-.69-2.76-1.77-5.47-2.67-8.17-.05-.15-.29-.09-.24.07Z"/><path class="cls-4" d="M65.8,69.56a13.06,13.06,0,0,1,2.72,8.07c0,.09.16.13.17,0A11,11,0,0,0,66,69.4c-.09-.12-.26,0-.16.16Z"/><path class="cls-4" d="M69.49,68.57c.88,2.41,1.66,4.93,2.75,7.26,0,.07.15,0,.13-.06-.72-2.46-1.78-4.86-2.71-7.25,0-.11-.21-.06-.17,0Z"/><path class="cls-4" d="M74.11,66.74c.57,2.72,1,5.49,1.86,8.15,0,.12.21.07.19,0-.44-2.75-1.21-5.45-1.88-8.14a.09.09,0,0,0-.17,0Z"/><path class="cls-4" d="M78.65,66.68A14.72,14.72,0,0,1,81.17,74a.07.07,0,1,0,.14,0,12.46,12.46,0,0,0-2.51-7.4c-.06-.09-.21,0-.15.08Z"/></g></g></svg>