<?xml version="1.0" encoding="UTF-8"?><svg xmlns="http://www.w3.org/2000/svg" viewBox="0 0 316 316"><defs><style>.d{fill:#14213d;fill-rule:evenodd;stroke:#14213d;stroke-miterlimit:10;stroke-width:1.3px;}.e{fill:none;}</style></defs><g id="a"/><g id="b"><g id="c"><g><path class="d" d="M155.52,97.53c-.89,.62-1.78,1.21-1.61,2.65,1.88,16.37-27.34,40.89-40.85,50.21-.59,.42-55.62,26.17-56.65,33.42-.45,3.21-6.89,4.54-8.16,8.26-4.48,13.15,10.71,33.4,17.72,29.25,12.57-7.42-.79,5,21.84-5.64,1.52-.71,22.11,21.23,37.62,34.33,11.48,9.69,9.69,6.28,13.64,.37,3.86-5.77,2.72-15.66-2.93-11.74-3.53,2.43-6.74-2.11-7.26-2.65-7.94-8.1-5.47-4.74-12.93-15.81-.19-.28,3.64-6.56,3.8-6.85,1.82-3.29-.47-4.17-.18-5.13,.52-1.7-.46-2.79-1.51-3.87-4.83-4.96-4.15-2.6,3.35-7.38,4.98-3.16,.22-1.97,17.43-7.14,50.58-15.15,59.27-3.78,64.38-4.17,16.59-1.28-2.66-39.1-10.72-53.81-21.89-39.97-26.71-41.49-36.99-34.3ZM54.41,188.3c1.6-.96,1.2,2.02-.34,3.11-6.36,4.68-6.37,.94,.34-3.11Zm.26,5.69c-1,.9-5.16,3.97-5.46,3.4-1.47-2.84,9.55-7.1,5.46-3.4Zm-5.4,6c-.45-1.51,6.98-5.14,6.99-4.27,.01,1.56,.73,1.62-3.74,4.25-1.29,.76-2.81,1.44-3.24,.01Zm5.95,13.63c-.4-.62-3.93-6.44-4.47-8.18-.22-.71-1.68-2.46,.81-3.66,8.68-4.19,2.75-3.84,11.23,8.56,.64,.94-3.15,3.31-6.1,4.02-.9,.22-.87,.21-1.47-.73Zm2.51,2.92c-.96-.73,4.98-3.82,6.13-4.36,.35-.16,1.22,.39,.75,.77-3.22,2.62-5.23,4.87-6.88,3.59Zm3.98,.25c1.06-.78,2.29-1.35,3.31-2.18,.76-.63,1.23-.39,1.71,.2,.15,.18-3.22,2.58-3.38,2.68-3.68,2.51-3.35,.55-1.63-.7Zm4.37,2.79c-1.08,.53-1.11,.8-2.37,.13-1.31-.71,3.19-3.23,4.03-3.4,.5-.11,1.18,.51,1.73,.87,.8,.53-2.53,1.99-3.39,2.41Zm50.16-3.64c-2.13,3.16-5.02,4.29,10.3,20.51,1.16,1.22,2.33,2.44,3.63,3.5,3.72,3.04,7.18-.73,9.11,.16,2.43,1.13,.19,7.42-1.33,9.27-.52,.62-.49,1.69-.98,2.35-1.25,1.68-3.03,3.44-4.73,2.11-12.28-9.6-38.25-34.04-42.22-38.54-.84-.95,1.14-1.08,9.05-5.18,8.82-4.58,2.52-3.52,11.11,1.82,2.83,1.76,3.91,1.36,5.98-.43,.53-.46,2.21-1.94,2.6-1.36,.59,.88,.66,1.05-2.53,5.8Zm1.64-9.8c1.26,1.33-.32,2.12-3.52,4.66-.57,.45-2.78,.7-4.14-.43-1.34-1.11-2.53-2.42-3.75-3.68-.64-.67,.78-1.38,6.83-4.88,.59-.35,.68,.21,4.58,4.32Zm4.52-11.82c-.69,.4-1.25,1.07-1.97,1.37-3.2,1.32-7.78-4.65-8.32-5.18-.36-.37-.94,.1-.66,.54,4.46,6.69,7.43,5.11,5.52,6.83-2.19,1.96-7.08-1.89-8.58-4.56-.46-.82-3.32,.28,4.65,6.04,.55,.39,.51,.69-.05,1.02-3.01,1.77-2.96,3.48-8.86-1.79-.99-.89-2.32-3.33-2.7-2.02-.45,1.55,4.36,5.42,5.8,6.31,.27,.16,.3,.54,.07,.75-2.75,2.45-4.45,2.34-6.82,.54-3.01-2.28-4.21-5.19-5.04-4.52-1.3,1.06,5.74,6.36,6.35,6.85,.56,.45-1.42,1.45-3.36,2.64-.61,.38-6.35-1.6-8.05-5.38-.53-1.19-3.91-.14,5.21,6.19,.08,.05,.08,.43,.02,.47-6.18,3.14-6.14,1.85-11.63-4.1-.51-.55-3.27-.15,5.28,6.68,.47,.37-.97,1.03-1.5,1.32-2.3,1.28-1.97,.88-4.88-.53-2.13-1.03-3.74-2.66-4.95-4.71-.12-.21-.38-.29-.59-.2-1.22,.52,2.26,4.82,5.94,6.54,.84,.39,.71,.61,.02,.97-1.36,.72-2.51,2.36-5.14,.56-3.94-2.7-5.72-5.86-5.72-5.86-1.98-.98,.73,4.06,5.14,7.05,1.54,1.06-6.57,2.29-16.02-12.7-3.26-5.17-6.21-15.23-3.59-22.17,.89-2.35,2.94-4.09,8.67-7.21,23.19-12.63,31.49-17.71,37.46-20.38,.37-.16,.76,.18,.64,.57-2.02,6.67,1.7,30.06,17.52,37.1,.56,.25,.94,.51,.11,.99Zm73.7-11.7c.87,.07-10.12-1.76-14.26-1.59-9.63,.39-15.68-.14-44.08,8.1-13.91,4.04-12.64,4.13-13.43,3.73-13.61-7-17.47-16.77-18.95-33.23-.49-6.15,1.21-.12,28.85-24.72,2.93-2.61,12.04-12.74,19.59-26.4,.14-.26,.54-.21,.6,.09,1.98,10.11,2.9,23.59,30.9,62.06,4.05,5.55,13.16,12.15,10.78,11.96Zm-14.92-19.34c.07-.05-5.18-8.06-5.23-8.14-14.14-22.21-19.64-33.23-21.13-54.15-.09-1.18,2.19-3.69,3.33-3.7,0,0-4.89,17.32,18.83,53.92,6,9.26,17.89,26.27,27.55,31.63,1.18,.65-4.54,7.3-23.35-19.56Zm-3.13-28.52c.46,4.72,7.62,13.35,7.62,13.35,0,.68-2.29,1.87-2.83,2.17,.04,.12-2.82,1.3-2.95,1.36-1.46,.78-2,.24-9.24-14.39-1.1-2.22-1.38-1.99,4.61-4.7,2.54-1.15,2.54-.43,2.79,2.2Zm9.22,7.67c.7,1.56,1.66,10.04-5.93-2.36-5.41-8.85-1.2-13.67,5.93,2.36Zm5.79,27.79c-3-3.43-1.96-.67-8.09-9.17-6.24-8.64-5.48-6.62-.72-9.63,.81-.52,1.54-1.19,2.35-1.7,.57-.36,1.59-.44,1.76-.89,2.04-5.52-3.6-16.7-9.32-19.02-1.49-.6-10.21,4.9-10.72,2.82,0,0-2.48-3.87-6.03-13.56-1.57-4.29-2.79-13.52-2.97-20.15,.97-1.1-.15-2.79,2.72-3.33,18-3.41,74.07,123.89,31.01,74.63Zm27.59-77c-2.85,2.04-4.17-1.1,7.42,20.78,6.88,12.97,5.4,12.75,8,11.02,.02-.01,.05,0,.06,.01,3.85-2.15,1.55-1.76-2.83-10.21-9.75-18.82-10.12-23.4-12.64-21.6Zm15.52,28.38c.44,.82,.64,1.35-.3,1.9-1.44,.83-1.81-.35-2.23-1.1,.25-.14-6.11-11.4-6.25-11.65-8.66-16.02-8-14.93-6.01-16.41,.78-.59,6.81,12.33,14.8,27.26Zm-19,19.33c-2.91,.98-1.96,.47,2.61,12.7,9.38,25.15,5.81,19.61,10.74,18.77,1.19-.2,.9-.93,.63-1.58-13.99-33.28-10.06-31.22-13.97-29.9Zm12.55,29.58c.15,.36,.03,.87-.39,.9-.63,.05-1.2,.72-1.65-.46-2.15-5.62-12.79-27.32-9.31-28.91,1.27-.58,2.79,7.57,11.36,28.47Zm-39.55-76.64c.09,.69,.41,.85,1,.54,4.78-2.55,3.72-1.38-.49-7.84-12.46-19.12-9.56-21.72-14.56-16.5-1.33,1.38,13.69,21.01,14.05,23.8Zm-12.81-22.98c3.51-3.85,1.41,0,13.52,17.68-.25,.17,2.41,3.26,1.57,3.48-.48,.11-1.27,.35-1.46,.12-1.99-2.46-14.31-20.52-13.63-21.28Zm51.34,89.56c-2.12-.37,39.12-8.83,39.83-10.15,.96-1.74-46.17,9.05-39.83,10.15Zm-9.11-40.83s-20.27,10.58-20.26,10.6c-.3,.17-.68,.27-.89,.52-3.46,4.24,26.66-12.46,26.71-13.17,.15-2.36-2.24,.24-5.56,2.05Zm-11.39-59.7c-1.14,.22-8.54,11.62-12.16,16.91-14.18,20.71,15.43-17.53,12.16-16.91Zm26.08,52.28s13.28-7.66,16.41-8.8c.08-.03,.23-1.1,.24-1.2,.08-1.07-21.16,10.96-16.65,10Zm-36.09-11.17c2.66-1.48,1.76-7.88-4.01-4.7-1.99,1.09,.27,6.66,4.01,4.7Zm-1.87-3.9c2.67-.79,2.41-.08,1.61,2.59-.19,.65-2.08,.07-2.58-.25-1.08-.69-.48-1.92,.97-2.34Zm33.46,83.35c3.69,4.03,5.61-3.23,1.78-4.71-.88-.35-4.42,1.81-1.78,4.71Zm2.36-.43c-.62,.06-1.44-.32-1.86-.79-.25-.28,.05-1.59,.19-1.6,.42-.03,2.2,.06,2.42,.43,.2,.34-.5,1.95-.75,1.96Zm5.08-49.47c.8,1.83,2.83,1.6,3.49,.23,2.34-4.92-6.45-7.04-3.49-.23Zm.79-.14c-.68-.11-.3-1.05-.11-2.36,.12-.75,1.58-.24,1.96,.23,.73,.9,.41,2.51-1.85,2.13Zm-27.32,32.88c-.29,.06-.41,.46-.55,.75-.65,1.37,3.27,.32,8.09-1.07,.53-.15,.9-1.22,.19-1.35-.77-.13-7.01,1.48-7.73,1.67Zm-25.73-69.6c1.04-4.1-8.53,10.02-6.05,9.33,.1-.03,5.91-8.79,6.05-9.33Z"/><rect class="e" width="316" height="316"/></g></g></g></svg>