<?xml version="1.0" encoding="UTF-8" standalone="no"?><!-- Generator: Gravit.io --><svg xmlns="http://www.w3.org/2000/svg" xmlns:xlink="http://www.w3.org/1999/xlink" style="isolation:isolate" viewBox="0 0 24 24" width="24pt" height="24pt"><defs><clipPath id="_clipPath_WBHFmxGzjqECXzgQfE9GVFokngPnsBN8"><rect width="24" height="24"/></clipPath></defs><g clip-path="url(#_clipPath_WBHFmxGzjqECXzgQfE9GVFokngPnsBN8)"><path d=" M 0 12.067 C 0 18.033 4.333 22.994 10 24 L 10 15.333 L 7 15.333 L 7 12 L 10 12 L 10 9.333 C 10 6.333 11.933 4.667 14.667 4.667 C 15.533 4.667 16.467 4.8 17.333 4.933 L 17.333 8 L 15.8 8 C 14.333 8 14 8.733 14 9.667 L 14 12 L 17.2 12 L 16.667 15.333 L 14 15.333 L 14 24 C 19.667 22.994 24 18.034 24 12.067 C 24 5.43 18.6 0 12 0 C 5.4 0 0 5.43 0 12.067 Z " fill-rule="evenodd" fill="rgb(255,255,255)"/></g></svg>