<svg id="Warstwa_3" data-name="Warstwa 3" xmlns="http://www.w3.org/2000/svg" viewBox="0 0 316 316"><defs><style>.cls-1{fill:#e5e5e5;}.cls-2{fill:#14213d;}</style></defs><g id="materiay"><circle id="Ellipse_55" data-name="Ellipse 55" class="cls-1" cx="158" cy="158" r="158"/><path class="cls-2" d="M151.73,20.26c-11.86,10.47-22.4,22.79-33.38,34.18S96.22,77.35,85,88.68c-10.89,11-21.89,21.91-32.85,32.85s-23.61,21.13-32.8,33.39c-.82,1.09.8,2.69,1.89,1.89,12-8.76,22.17-21.14,32.6-31.71,11.19-11.34,22.23-22.82,33.28-34.3q16.11-16.74,32.15-33.54c11.18-11.78,23.27-23.36,33.22-36.2a.56.56,0,0,0-.79-.8Z"/><path class="cls-2" d="M19.78,156.45c10.21,11,22.74,20.38,34.15,30.15C65.81,196.77,77.64,207,89.57,217.12c11.59,9.82,23.26,19.56,34.84,29.39q8.67,7.38,17.42,14.69c5.52,4.62,10.9,10.15,17.27,13.55a1.73,1.73,0,0,0,2.08-2.7c-4.72-5.75-11.48-10.14-17.25-14.84L126.24,242.8c-12.14-9.89-24.08-20-36.15-30q-17.59-14.53-35-29.29C43.89,174,33,163.35,20.86,155.05c-.86-.59-1.74.68-1.08,1.4Z"/><path class="cls-2" d="M150.11,22.79c24.13,20.12,49.32,39,73.34,59.23q17.78,15,35.25,30.36c11.93,10.52,23.36,21.77,35.63,31.89,1.48,1.21,3.52-.72,2.14-2.14-22.1-22.65-47.53-42.89-71.85-63.09-23.84-19.81-47.8-40.16-73.26-57.87-1-.67-2.15.86-1.25,1.62Z"/><path class="cls-2" d="M158.05,272.69c1.13,2.77,4.22,4.87,6.44,6.77a1.71,1.71,0,0,0,2.36,0l.26-.34a1.67,1.67,0,0,0-.26-2c-1.25-1.09-2.5-2.17-3.81-3.19a10.94,10.94,0,0,0-3.88-2.33c-.6-.14-1.38.44-1.11,1.11Z"/><path class="cls-2" d="M166.06,280.22c12.33-9.1,23.09-20.85,33.94-31.63,11.53-11.47,22.79-23.22,33.93-35.08q16.26-17.31,32.07-35,8.13-9.09,16.08-18.34c5-5.78,11.21-11.55,14.74-18.35.57-1.09-.7-2.77-1.88-1.87-5.78,4.41-10.16,10.87-14.89,16.37q-7.56,8.74-15.2,17.41Q248.72,192,232.08,209.85c-10.81,11.59-21.8,23-32.85,34.34-11.25,11.56-23.74,22.57-33.84,35.16-.36.45.12,1.28.67.87Z"/><path class="cls-2" d="M33.48,142.61c11.34,11,24.22,20.66,36.35,30.76s24.36,20.4,36.5,30.65c24.3,20.49,48.1,41.56,72.36,62.09,1.26,1.07,3.08-.7,1.83-1.83-23.87-21.61-48.61-42.33-73.19-63.13q-18.19-15.39-36.6-30.55c-11.88-9.83-23.67-20.37-36.41-29.07-.65-.45-1.39.54-.84,1.08Z"/><path class="cls-2" d="M49,126.56c12,11.32,25.42,21.4,38.17,31.9q18.8,15.48,37.55,31,18.23,15,36.31,30.27c11.9,10.08,23.33,22.07,36.4,30.58.85.56,1.62-.63,1-1.33-10.23-12.11-24.24-22-36.33-32.2q-18.57-15.66-37.38-31c-12.23-10-24.55-19.94-36.84-29.88-12.58-10.17-24.87-21-38.09-30.34-.63-.45-1.38.55-.82,1.07Z"/><path class="cls-2" d="M272,120.43c-18.27,16.23-35.82,33.37-54,49.7s-36.45,32.77-52,51.55c-1.12,1.35.76,3.3,2,1.95a660.78,660.78,0,0,1,52-51.58c18-16.17,37.87-31.7,53.67-50.09a1.09,1.09,0,0,0-1.54-1.53Z"/><path class="cls-2" d="M150.94,238.12c-2.55,1.65-4.58,4.27-6.65,6.47-2.33,2.46-4.71,4.88-6.93,7.44-.88,1,.51,2.44,1.49,1.49,2.42-2.36,4.71-4.88,7-7.34,2.07-2.2,4.6-4.39,6.1-7,.35-.63-.38-1.45-1-1Z"/><path class="cls-2" d="M285.58,135c-18,16-34.94,33.36-52.26,50.08S197.88,218,181.24,235.38a1.35,1.35,0,0,0,1.91,1.91c18-16,34.75-33.56,52.06-50.28s35.3-33,51.87-50.46a1.06,1.06,0,0,0-1.5-1.51Z"/><path class="cls-2" d="M167.67,253.45a40,40,0,0,0-15,15c-.54,1,.89,2.31,1.71,1.31,2.19-2.7,4.15-5.55,6.58-8.06a87.63,87.63,0,0,1,7.84-6.82c.84-.69-.23-2-1.13-1.47Z"/><path class="cls-2" d="M21.81,154.88a3.59,3.59,0,0,1-2,1.84c-.35.13-.21.67.15.56a2.89,2.89,0,0,0,2.08-2.3c0-.13-.17-.24-.24-.1Z"/><path class="cls-2" d="M21.08,155.41c-.58.45-.84.52-1.15,1.25a4,4,0,0,0-.28,2c.14,1.17,1,2.82,2.42,2.59a.33.33,0,0,0,.2-.5c-.53-.86-1.36-1.3-1.63-2.36a3.41,3.41,0,0,1,.53-2.9c0-.06,0-.16-.09-.11Z"/><path class="cls-2" d="M19.51,159.14c2.26,5.39,7.09,8.91,11.36,12.7q10.59,9.43,21.21,18.86c13.75,12.23,27.19,25.21,41.63,36.62.47.37,1.12-.23.67-.68-12.11-12-25.55-22.89-38.33-34.18q-9.12-8.07-18.26-16.1C31.63,170.93,24.58,165.83,20,159c-.15-.22-.58-.08-.46.19Z"/><path class="cls-2" d="M91.39,224.15c11.58,11.65,25.06,21.74,37.76,32.13,12,9.85,23.94,20.77,36.95,29.34a.6.6,0,0,0,.72-.93c-12-11.21-25.84-20.81-38.56-31.2-12.11-9.9-23.79-20.7-36.53-29.77-.26-.19-.55.21-.34.43Z"/><path class="cls-2" d="M20.4,155.68c.16.94.2,1.91.35,2.86a3.55,3.55,0,0,0,.76,2.11.3.3,0,0,0,.49-.13,3.57,3.57,0,0,0-.35-2.23c-.32-.9-.75-1.77-1.06-2.66a.1.1,0,0,0-.19.05Z"/><path class="cls-2" d="M19.79,155.88c1.58,6.47,6.56,14.38,13.08,16.8.25.09.39-.25.24-.41-2.45-2.76-5.42-4.87-7.65-7.86a50.82,50.82,0,0,1-5.07-8.78c-.17-.35-.68-.1-.6.25Z"/><path class="cls-2" d="M19,156.37c.44,1.78.65,4.17,1.84,5.63.15.19.42,0,.43-.18.09-1.83-1.17-3.92-1.85-5.57a.22.22,0,0,0-.42.12Z"/><path class="cls-2" d="M166.63,286c28.51-22.92,54.08-49.75,78.53-76.88,12.3-13.64,24.27-27.56,36.21-41.52,4.62-5.41,11.21-11.08,14.44-17.46,1.47-2.89,2-6-1-7.86-.58-.35-1.1.56-.53.91,5.94,3.59-10.34,19.42-13,22.56q-7.71,9-15.52,18-15.6,18-31.7,35.45a919.52,919.52,0,0,1-68.16,66c-.51.44.22,1.14.73.73Z"/><path class="cls-2" d="M293.41,143.94a3.23,3.23,0,0,1,1,2c.06.58-.17,1.22,0,1.77a.39.39,0,0,0,.47.27c1-.37,1-1.57.84-2.44a3.56,3.56,0,0,0-1.7-2.44.55.55,0,0,0-.67.86Z"/><path class="cls-2" d="M294.36,143.25c-1.51,8.84-8.36,15.52-13.79,22.33-4.7,5.89-9.79,11.56-14,17.81-.13.2.17.43.34.26,7.4-7.49,13.88-16.11,20.66-24.15,3.94-4.67,8.55-9.79,7.58-16.25a.41.41,0,0,0-.78,0Z"/><path class="cls-2" d="M295.19,142a17.79,17.79,0,0,1-1.56,8c-.08.2.16.46.35.26a8.6,8.6,0,0,0,1.82-8.37c-.09-.33-.63-.28-.61.08Z"/><path class="cls-2" d="M29,161.41c2.49-1.34,4.53-3.51,6.66-5.35s4.63-3.55,6.26-5.8c.26-.36-.23-.74-.56-.56-2.46,1.31-4.52,3.62-6.61,5.45s-4.51,3.57-6.17,5.85c-.19.26.17.55.42.41Z"/><path class="cls-2" d="M58.68,133.91c.23-.23.45-.46.67-.7,0,0,0-.07,0,0-.24.22-.46.44-.69.67,0,0,0,.11.06.07Z"/><path class="cls-2" d="M58.62,133.85c34.76-33.66,68.62-68.31,102.89-102.47a.58.58,0,0,0-.82-.82c-34.26,34.17-69,67.93-102.76,102.59a.49.49,0,0,0,.69.7Z"/><path class="cls-2" d="M30.72,163.79c2.43-1.37,4.49-3.53,6.54-5.4A66,66,0,0,0,44,151.81a.47.47,0,0,0-.67-.67C41,153,39,155.27,36.86,157.29s-4.61,3.85-6.42,6.14c-.15.2,0,.5.28.36Z"/><path class="cls-2" d="M59.52,135.37c18.72-14.85,35.53-33,52.6-49.69S147,52.15,163,34.25c.46-.52-.27-1.27-.78-.77-17.35,16.72-33.79,34.44-51,51.34S75.41,117.37,59.16,135c-.24.25.11.57.36.36Z"/><path class="cls-2" d="M23.23,159.71A21,21,0,0,0,24.61,163a9.23,9.23,0,0,0,2,3c.13.11.42.06.4-.17a8.86,8.86,0,0,0-1.38-3.11,21.48,21.48,0,0,0-2.16-3.1.12.12,0,0,0-.21.12Z"/><path class="cls-2" d="M27.82,161.81a37.73,37.73,0,0,0,4.26,8.81.11.11,0,0,0,.2-.08,38.23,38.23,0,0,0-4-8.93c-.15-.23-.56-.08-.47.2Z"/><path class="cls-2" d="M34.86,168.48c.54,1.47,1.22,2.87,1.74,4.35a23.92,23.92,0,0,0,1.34,4c.13.22.54.21.58-.07.4-2.73-1.55-6.53-3.33-8.52a.2.2,0,0,0-.33.2Z"/><path class="cls-2" d="M41.5,174.71c.4,1.48.78,3,1.16,4.46a13.63,13.63,0,0,0,1.23,3.88.3.3,0,0,0,.56-.15A13.55,13.55,0,0,0,43.36,179c-.5-1.46-1-2.91-1.49-4.37a.19.19,0,0,0-.37.1Z"/><path class="cls-2" d="M46.68,178.16c.43,3.06.55,6.58,1.68,9.46a.15.15,0,0,0,.3,0c.12-3.12-.94-6.49-1.54-9.54-.06-.29-.48-.16-.44.12Z"/><path class="cls-2" d="M51.78,182.13a49.51,49.51,0,0,0,.88,5.27,18.05,18.05,0,0,0,1.43,5.12.2.2,0,0,0,.38-.1,16.88,16.88,0,0,0-.84-4.87,51.39,51.39,0,0,0-1.57-5.45c-.05-.14-.3-.14-.28,0Z"/><path class="cls-2" d="M56.56,186.19c.17,1.65.42,3.28.7,4.91A16.56,16.56,0,0,0,58.38,196c.2.4.77.18.8-.22a15.46,15.46,0,0,0-.82-4.54c-.41-1.7-.85-3.39-1.36-5.05-.07-.23-.47-.21-.44.05Z"/><path class="cls-2" d="M63.1,192.38c.28,2.4.28,5.36,1.23,7.6.1.23.41.09.42-.11.15-2.41-.86-5.18-1.4-7.52,0-.14-.26-.11-.25,0Z"/><path class="cls-2" d="M68.41,197.23a27.51,27.51,0,0,1,.69,4.14,27.51,27.51,0,0,0,.21,3.28c0,.24.39.21.46,0,.71-2.32,0-5.34-.7-7.6a.34.34,0,0,0-.66.18Z"/><path class="cls-2" d="M74.55,202.57c.3,2.78.27,6.42,1.53,9,.14.27.48.1.51-.14.37-2.82-.83-6.17-1.45-8.9-.07-.32-.62-.26-.59.08Z"/><path class="cls-2" d="M80.28,208c.35,2.41.4,5.34,1.37,7.59.16.38.71.15.73-.2.1-2.43-.92-5.21-1.46-7.56-.1-.43-.69-.24-.64.17Z"/><path class="cls-2" d="M84.54,211.33c.2,1.65.56,3.25.9,4.87.37,1.81.42,3.85,1.11,5.55a.53.53,0,0,0,1-.14,14.56,14.56,0,0,0-.85-5.37,18.71,18.71,0,0,0-2-5c0-.09-.22-.06-.21.05Z"/><path class="cls-2" d="M91.05,216.85a38.93,38.93,0,0,0,.52,5.48,14.45,14.45,0,0,0,.84,4.14c.11.24.41.08.43-.12a15.62,15.62,0,0,0-.49-4.5,34.35,34.35,0,0,0-1.07-5,.12.12,0,0,0-.23,0Z"/><path class="cls-2" d="M96,220.91c.22,1.53.48,3.06.64,4.59a16.43,16.43,0,0,0,.46,3.65.31.31,0,0,0,.6,0c.81-2.52-.25-6.09-1.27-8.42-.12-.27-.46-.06-.43.18Z"/><path class="cls-2" d="M102,225.68a38.15,38.15,0,0,0,.87,8.18.17.17,0,0,0,.33-.05,38.75,38.75,0,0,0-.92-8.17c0-.16-.29-.12-.28,0Z"/><path class="cls-2" d="M106.78,231.15c.36,2.22.5,4.76,1.39,6.84.08.17.34.08.34-.09,0-2.26-.94-4.65-1.51-6.81,0-.15-.24-.08-.22.06Z"/><path class="cls-2" d="M110.3,234.51c.17,1.12.38,2.23.55,3.35a12.1,12.1,0,0,0,.54,2.95c.13.3.61.2.68-.09a7.57,7.57,0,0,0-.24-3.13,15.7,15.7,0,0,0-1.06-3.28c-.13-.28-.51-.06-.47.2Z"/><path class="cls-2" d="M114.18,237.35c1.11,2.18.93,4.34,1.22,6.66a.32.32,0,0,0,.58.16c1.38-2.31.24-5.26-1.29-7.21-.24-.3-.67.08-.51.39Z"/><path class="cls-2" d="M121.65,241.92a10.77,10.77,0,0,0,.73,7.67.26.26,0,0,0,.48-.13c-.19-2.51-.59-4.94-.66-7.47a.28.28,0,0,0-.55-.07Z"/><path class="cls-2" d="M127,246.78c.29,2.24.38,4.86,1.33,6.92.1.23.42.1.43-.12.1-2.24-.81-4.7-1.39-6.85,0-.2-.4-.17-.37.05Z"/><path class="cls-2" d="M132.55,252.13a29.39,29.39,0,0,0-.27,3.12,7.76,7.76,0,0,0,.16,3.15.34.34,0,0,0,.65,0,7.76,7.76,0,0,0,.16-3.15,29.38,29.38,0,0,0-.26-3.12.23.23,0,0,0-.44,0Z"/><path class="cls-2" d="M136,256.32c.18,1.24.37,2.47.58,3.7a7.3,7.3,0,0,0,.87,3.15.28.28,0,0,0,.51-.07,6.55,6.55,0,0,0-.38-3.08c-.3-1.3-.62-2.58-1-3.87-.11-.41-.67-.23-.62.17Z"/><path class="cls-2" d="M139.31,259.72c.34,1.21.74,2.4,1,3.63a16.79,16.79,0,0,0,.58,3.34c.16.37.67.2.78-.1a6.73,6.73,0,0,0-.22-3.55,11.66,11.66,0,0,0-1.46-3.6.36.36,0,0,0-.65.28Z"/><path class="cls-2" d="M143.29,261.8c.37,2.24.26,4.59.74,6.78.05.22.43.3.53.07.93-2.21.34-5-.61-7.12-.18-.41-.72-.1-.66.27Z"/><path class="cls-2" d="M151.65,266.42a9.82,9.82,0,0,0,.68,6.26c.09.17.33,0,.3-.13a21.49,21.49,0,0,1-.61-6.08.19.19,0,0,0-.37-.05Z"/><path class="cls-2" d="M155.51,269.2c0,2.39-.1,5.4.86,7.62a.33.33,0,0,0,.61-.08c.41-2.37-.42-5.3-.95-7.61a.27.27,0,0,0-.52.07Z"/><path class="cls-2" d="M159.18,273.23c.14,2.24.17,5,1,7.07.19.45.81.16.84-.23.18-2.21-.66-4.81-1.21-6.93-.1-.37-.71-.31-.68.09Z"/><path class="cls-2" d="M163.19,276a28.24,28.24,0,0,1,.84,4.55,16.41,16.41,0,0,0,.45,3.64.28.28,0,0,0,.53,0c.93-2.63-.39-5.93-1.42-8.36-.1-.23-.46-.06-.4.17Z"/><path class="cls-2" d="M166.61,278a13.94,13.94,0,0,0-.5,4.46c.07,1.29.13,2.9.93,3.95.17.22.63.27.68-.08a13,13,0,0,0-.37-3.66c-.18-1.53-.28-3.09-.34-4.62a.2.2,0,0,0-.4,0Z"/><path class="cls-2" d="M169.94,275.23a40.72,40.72,0,0,0-.75,4.23,7.47,7.47,0,0,0-.08,3.39.28.28,0,0,0,.5.06,7.39,7.39,0,0,0,.72-3.29c.12-1.43.28-2.87.26-4.3a.33.33,0,0,0-.65-.09Z"/><path class="cls-2" d="M175.75,269.08a36.33,36.33,0,0,0-.93,4.26,9.49,9.49,0,0,0-.27,3.39.3.3,0,0,0,.54.07,10.4,10.4,0,0,0,.77-3.55,33.32,33.32,0,0,0,.33-4.11.22.22,0,0,0-.44-.06Z"/><path class="cls-2" d="M181,265.72c-.7.95-.65,2.39-.77,3.53-.13,1.31-.52,2.84-.11,4.12a.34.34,0,0,0,.62.08,10.1,10.1,0,0,0,.62-3.91c.1-1.22.44-2.69-.11-3.82,0-.1-.19-.07-.25,0Z"/><path class="cls-2" d="M186.58,259.59c.41,3.08-.34,5.85-1.09,8.81-.06.22.24.43.41.23,2.2-2.51,2.2-6.1,1-9.09-.06-.16-.37-.16-.34,0Z"/><path class="cls-2" d="M193,252.87c-.1,1.48-.19,3-.36,4.43a19.76,19.76,0,0,0-.46,4.38.31.31,0,0,0,.58.16c1.55-2.38,1.25-6.38.81-9-.06-.34-.55-.23-.57.08Z"/><path class="cls-2" d="M197.93,248.76c-1,2.58-1.77,6.47-.43,9a.25.25,0,0,0,.45-.06,21.72,21.72,0,0,0,.1-3.87,32.69,32.69,0,0,1,.58-4.92.36.36,0,0,0-.7-.19Z"/><path class="cls-2" d="M203.11,243.25c-1,2.75-1.69,6.91-.54,9.69.1.24.49.31.56,0a27.22,27.22,0,0,0,.17-4.52c.08-1.71.32-3.39.48-5.08,0-.41-.55-.43-.67-.09Z"/><path class="cls-2" d="M209.59,237.2a54.12,54.12,0,0,0-1.22,5.79,14.26,14.26,0,0,0-.47,4.49c0,.22.37.24.46.06.77-1.52.82-3.41,1.07-5.08a50.4,50.4,0,0,0,.57-5.2.21.21,0,0,0-.41-.06Z"/><path class="cls-2" d="M216.27,231.7c-1.18,2.51-2.28,6.24-1.44,9,.06.19.37.22.41,0,.26-1.27.14-2.61.29-3.91a29.9,29.9,0,0,1,1.07-4.93c.05-.19-.25-.32-.33-.14Z"/><path class="cls-2" d="M220.68,226.3a17.37,17.37,0,0,1-.3,4.66c-.26,1.38-.85,2.67-1.06,4,0,.21.23.44.41.23,2-2.43,1.7-6.1,1.06-9,0-.07-.12,0-.11,0Z"/><path class="cls-2" d="M225.7,221.59a19.89,19.89,0,0,1-.09,3.78,20.81,20.81,0,0,0-.57,3.72.28.28,0,0,0,.51.14c1.39-2,.87-5.43.51-7.68a.18.18,0,0,0-.36,0Z"/><path class="cls-2" d="M229.31,217c1.39-.17.08,3-.06,3.61a8.58,8.58,0,0,0-.28,3.1.31.31,0,0,0,.57.08,14.26,14.26,0,0,0,.74-2.89c.21-1,.58-2.06.7-3.09s-.79-1.35-1.71-1.09c-.15,0-.12.3,0,.28Z"/><path class="cls-2" d="M233.22,212.7c-.55,2.61-1.51,5.52-1.32,8.22a.18.18,0,0,0,.36,0c1-2.49,1-5.56,1.32-8.21,0-.2-.31-.25-.36-.05Z"/><path class="cls-2" d="M237.77,207.92c-.58,2.75-1.61,6.05-1.29,8.88a.15.15,0,0,0,.29,0c1.08-2.61,1-6.1,1.23-8.89a.12.12,0,0,0-.23,0Z"/><path class="cls-2" d="M241.3,203.82c-.25,1.5-.44,3-.55,4.51a11.88,11.88,0,0,0,.1,4.49.28.28,0,0,0,.53,0,14.38,14.38,0,0,0,.39-4.15c.09-1.59.19-3.17.29-4.75,0-.43-.69-.53-.76-.1Z"/><path class="cls-2" d="M245.46,199.08c-.42,2.56-1.24,5.75-.74,8.32.06.33.49.25.59,0,.95-2.41.74-5.69.8-8.24,0-.36-.58-.46-.65-.08Z"/><path class="cls-2" d="M250.79,193.71c-.09,1.42-.1,2.83-.28,4.24a11,11,0,0,0-.35,3.31.27.27,0,0,0,.44.12,6.18,6.18,0,0,0,.93-3.36,13.69,13.69,0,0,0-.19-4.38c-.07-.33-.53-.23-.55.07Z"/><path class="cls-2" d="M255.46,188.27a29.63,29.63,0,0,1-.12,3.77,18.27,18.27,0,0,0-.46,3.71.3.3,0,0,0,.55.15,7,7,0,0,0,.84-3.32,18.27,18.27,0,0,0-.07-4.31c-.06-.46-.76-.49-.74,0Z"/><path class="cls-2" d="M260.46,182.78c-.39,1.4-.66,2.84-.95,4.27a10.15,10.15,0,0,0-.43,3.36c0,.26.42.27.54.07a11.65,11.65,0,0,0,.86-3.77c.22-1.28.45-2.56.57-3.85,0-.35-.51-.4-.59-.08Z"/><path class="cls-2" d="M264.13,179.3c-.28,1.3-.56,2.6-.81,3.91a8.59,8.59,0,0,0-.36,3.09c0,.27.44.29.56.07a9,9,0,0,0,.73-3.18c.2-1.23.37-2.47.55-3.71.06-.42-.57-.63-.67-.18Z"/><path class="cls-2" d="M267.78,174.67a11.89,11.89,0,0,1-.23,3,15.58,15.58,0,0,0-.52,2.42c0,.31.45.55.67.28,1.23-1.55.91-4,.63-5.8-.05-.31-.58-.24-.55.07Z"/><path class="cls-2" d="M272.44,168.47c-.29,1.33-.56,2.66-.82,4a11.93,11.93,0,0,0-.45,3.55c0,.19.3.33.4.11a11.34,11.34,0,0,0,.68-3.28c.19-1.44.37-2.88.52-4.33,0-.19-.29-.23-.33,0Z"/><path class="cls-2" d="M276.39,163.67c-.47,2.16-1.22,4.72-1.1,6.94a.37.37,0,0,0,.73.1c.79-2.08.86-4.74,1.08-7,0-.4-.63-.49-.71-.09Z"/><path class="cls-2" d="M280.1,159.66c-.33,1.18-.26,2.43-.5,3.63-.18.9-.77,1.87-.29,2.72a.37.37,0,0,0,.5.13c1-.44,1-1.93,1.09-2.89a6.44,6.44,0,0,0-.41-3.64.21.21,0,0,0-.39,0Z"/><path class="cls-2" d="M284.05,154a13.6,13.6,0,0,0-1,4c-.15,1.26-.46,2.9.26,4a.49.49,0,0,0,.84,0c.54-1.06.29-2.31.37-3.47.1-1.42.4-2.81.55-4.23a.54.54,0,0,0-1-.27Z"/><path class="cls-2" d="M288.08,149.4c-.88,2.54-2.09,5.59-2.17,8.29a.6.6,0,0,0,1.12.3c1.16-2.44,1.49-5.7,1.87-8.36a.43.43,0,0,0-.82-.23Z"/><path class="cls-2" d="M290.88,147.38c-.43,1.26-.79,2.54-1.1,3.84a6.14,6.14,0,0,0-.39,3.18.48.48,0,0,0,.8.21c.77-.88.81-2.15,1-3.28.23-1.28.41-2.55.52-3.84,0-.5-.69-.55-.84-.11Z"/><path class="cls-2" d="M294.38,146.11a5.47,5.47,0,0,0,.08,1.4.15.15,0,0,0,.28,0,6,6,0,0,0,.08-1.4.22.22,0,0,0-.44,0Z"/><path class="cls-2" d="M46.74,177.23a48.64,48.64,0,0,0,6.87-5.87c2-2,4.72-4.23,5.87-6.82.1-.23-.13-.56-.38-.38-2.25,1.58-4,4.19-5.92,6.14-2.22,2.2-4.67,4.13-7,6.26-.35.33.11.94.51.67Z"/><path class="cls-2" d="M49.45,179.08a59.05,59.05,0,0,0,7.18-7.14c1.74-2,3.95-4.28,4.89-6.79.1-.28-.27-.42-.45-.26-2.26,1.93-3.85,4.79-5.81,7S51.1,176.41,49,178.6c-.31.32.15.75.48.48Z"/><path class="cls-2" d="M75.53,144.69l-.66,1.37s0,.07.06,0c.24-.44.47-.89.71-1.34,0-.07-.07-.13-.11-.06Z"/><path class="cls-2" d="M75.19,144.49c-.07-.17-.15-.33-.23-.5a.08.08,0,0,0-.09,0c-1,.34-1.41.58-1.31,1.64a.4.4,0,0,0,.38.39c4.1.5,6.86-3.85,9.61-6.44q6.7-6.34,13.38-12.72,13.8-13.23,27.47-26.6C143,82.09,161.62,64.1,179.92,45.71a.59.59,0,0,0-.84-.84c-16.81,16.76-33.62,33.52-50.6,50.1-8.17,8-16.49,15.83-24.75,23.73q-6.67,6.39-13.38,12.72c-1.66,1.58-14.94,13.83-15.28,13.14,0,.09.16,0,.12-.07Z"/><path class="cls-2" d="M77.11,149c9.08-7,17.19-15.53,25.54-23.36q13.57-12.72,27-25.56,27-25.66,53.55-51.7c.58-.57-.31-1.45-.89-.89q-26.06,25.64-52.47,50.9-13,12.39-26,24.7c-8.95,8.43-18.76,16.47-27,25.64-.12.14,0,.4.22.27Z"/><path class="cls-2" d="M38.81,142A34.64,34.64,0,0,1,40,136.89l-.66-.18a21.59,21.59,0,0,0,.59,10.19.53.53,0,0,0,1-.28A98.55,98.55,0,0,1,40,136.8a.35.35,0,0,0-.69,0,34.78,34.78,0,0,1-.58,5.19c0,.06.08.08.09,0Z"/><path class="cls-2" d="M42.44,132.51a55.71,55.71,0,0,0,1.46,17.12c.11.43.84.36.79-.1-.53-5.68-1.32-11.34-1.86-17a.2.2,0,0,0-.39,0Z"/><path class="cls-2" d="M45.79,127.73a188.39,188.39,0,0,0,2,26c.06.43.74.32.74-.1a189.43,189.43,0,0,0-2.34-25.93c0-.2-.35-.15-.35,0Z"/><path class="cls-2" d="M50.42,125c.43,11.28.85,22.91,2.62,34.07,0,.29.49.21.49-.06,0-11.28-1.37-22.81-2.69-34,0-.26-.43-.28-.42,0Z"/><path class="cls-2" d="M57.28,131.83c-.39,10.61-.61,22.29,1.4,32.74.06.32.53.23.54-.07.45-10.7-.87-22-1.72-32.67a.11.11,0,0,0-.22,0Z"/><path class="cls-2" d="M62.66,136.59c-.29,10.89-.1,22.75,2.3,33.42.06.27.48.2.48-.07-.09-11-1.6-22.34-2.53-33.35a.13.13,0,0,0-.25,0Z"/><path class="cls-2" d="M69.32,145.44c.52,8.75.43,18,2.12,26.57.06.3.5.22.51-.07.23-8.76-1.41-17.8-2.36-26.5,0-.17-.28-.18-.27,0Z"/><path class="cls-2" d="M76,148.84c.13,8.89.11,18.55,1.85,27.28.06.31.5.22.52-.07.5-8.88-.87-18.4-2-27.21,0-.24-.39-.26-.39,0Z"/><path class="cls-2" d="M81.79,152.22a128.23,128.23,0,0,0,1.89,30c.06.3.51.22.52-.07a168.12,168.12,0,0,0-2-30c0-.21-.36-.15-.37.05Z"/><path class="cls-2" d="M88.73,154.92a203.56,203.56,0,0,0,2.16,32.73c0,.21.35.15.36-.05a204,204,0,0,0-2-32.75c0-.31-.53-.22-.53.07Z"/><path class="cls-2" d="M97,165.15a116.57,116.57,0,0,0,2.45,32.11.4.4,0,0,0,.78-.11c-.32-10.56-1.41-21.47-2.39-32a.42.42,0,0,0-.84,0Z"/><path class="cls-2" d="M104.14,171.27A113.85,113.85,0,0,0,106,201.93a.23.23,0,0,0,.45-.06c-.26-10.14-.86-20.49-1.73-30.6a.3.3,0,0,0-.6,0Z"/><path class="cls-2" d="M109.63,177.37A144.91,144.91,0,0,0,111.22,204c.09.52.87.37.89-.12a144.72,144.72,0,0,0-1.92-26.61c-.06-.32-.55-.23-.56.07Z"/><path class="cls-2" d="M115.32,181.48c-.25,9.23-.19,19.54,1.65,28.61.06.29.46.19.48-.06.86-9.21-.2-19.4-1.42-28.55a.36.36,0,0,0-.71,0Z"/><path class="cls-2" d="M121,186.9c-.19,9.78-.32,20.38,1.22,30,.09.57.9.37.94-.13.8-9.71-.16-20.22-1.08-29.92a.54.54,0,0,0-1.08,0Z"/><path class="cls-2" d="M130.4,193.71A87.35,87.35,0,0,0,132.91,227a.23.23,0,0,0,.45-.06c-.49-11-1.34-22.33-2.46-33.26a.25.25,0,0,0-.5,0Z"/><path class="cls-2" d="M138.58,199.15a198.23,198.23,0,0,0,.73,29.24c0,.2.35.29.39.05a83.24,83.24,0,0,0-.56-29.36c-.07-.33-.54-.23-.56.07Z"/><path class="cls-2" d="M145.13,203.19a187.68,187.68,0,0,0,1.29,28.74c.09.62,1,.39,1-.14,1-9.12.06-19.69-1.63-28.69-.07-.39-.66-.28-.67.09Z"/><path class="cls-2" d="M151.26,207.31c-.45,11.27-1,23.5.5,34.68a.43.43,0,0,0,.85,0c1.12-11.22.16-23.43-.65-34.68a.35.35,0,0,0-.7,0Z"/><path class="cls-2" d="M156.59,214.11c-.41,10.23-.93,21.1.28,31.28a.51.51,0,0,0,1,0c.93-10.21.1-21.06-.59-31.28a.35.35,0,0,0-.7,0Z"/><path class="cls-2" d="M162.24,220.91c-.4,7.72-1.22,16.27,0,23.93a.51.51,0,0,0,1,0c1.18-7.66.36-16.21,0-23.93a.45.45,0,0,0-.89,0Z"/><path class="cls-2" d="M168.53,225a103,103,0,0,0,2,28,.42.42,0,0,0,.83-.11c-.31-9.18-1.3-18.75-2.41-27.87a.2.2,0,0,0-.4,0Z"/><path class="cls-2" d="M176.33,227.63a111.3,111.3,0,0,0-.23,32.19c.1.61,1,.42,1-.13a289.57,289.57,0,0,0-.37-32c0-.23-.39-.32-.43-.06Z"/><path class="cls-2" d="M182,235.19c-.63,8.57-1.65,18.84,0,27.3a.37.37,0,0,0,.71,0c1.69-8.46.67-18.74,0-27.3a.4.4,0,0,0-.79,0Z"/><path class="cls-2" d="M186.13,237.91c-.12,6-.92,12.51,0,18.46a.39.39,0,0,0,.75,0c.9-6,.1-12.46,0-18.46a.36.36,0,0,0-.71,0Z"/><path class="cls-2" d="M190.07,240c-.15,3.49-.73,7.56.13,11a.38.38,0,0,0,.73,0c.86-3.42.28-7.49.13-11a.5.5,0,0,0-1,0Z"/><path class="cls-2" d="M65.23,192.26a115.71,115.71,0,0,0,14.56-12.8c.43-.44-.2-1-.66-.66a115.61,115.61,0,0,0-14.2,13.06c-.18.2.06.57.3.4Z"/><path class="cls-2" d="M66.88,195.13c2.8-2.22,5.38-4.65,8-7.08,2.3-2.14,5-4.19,6.87-6.72.17-.22-.16-.52-.38-.38-2.65,1.71-4.88,4.27-7.17,6.42-2.6,2.44-5.2,4.85-7.59,7.49a.19.19,0,0,0,.27.27Z"/><path class="cls-2" d="M94.36,162.1c19.16-14.59,37-31.68,54.63-48.08,18-16.78,34-36,52.77-52,.64-.54-.29-1.45-.92-.91-18.35,15.73-34.1,34.61-51.76,51.16-18,16.82-37.54,32.12-55.05,49.37-.21.2.08.61.33.42Z"/><path class="cls-2" d="M97.17,164.09c37.94-29.88,73-63.4,105.29-99.23.51-.56-.32-1.4-.83-.83-32.36,35.93-67.7,68.82-105.12,99.4-.46.38.2,1,.66.66Z"/><path class="cls-2" d="M85.14,208.74A84.63,84.63,0,0,0,91.37,203c2.3-2.11,4.82-4,7-6.23.3-.3-.09-.85-.46-.6A56.18,56.18,0,0,0,91.05,202a42.68,42.68,0,0,0-6.25,6.43c-.15.21.14.5.34.35Z"/><path class="cls-2" d="M87,211.22c5-3.76,9-8.74,13.58-13,.46-.42-.22-1.08-.67-.67-4.6,4.14-9.7,8.25-13,13.54,0,.07,0,.16.11.11Z"/><path class="cls-2" d="M112.28,178.64c18.75-15.76,35.77-34,53.58-50.79s35.75-33.84,53.36-51c.68-.66-.34-1.67-1-1-17.94,16.82-35.68,33.9-53.35,51s-36.55,33.22-53.13,51.24a.4.4,0,0,0,.57.57Z"/><path class="cls-2" d="M115.47,180.5c18.46-15.19,35.37-32.84,52.72-49.28s35.49-32.53,52.42-49.59c.41-.41-.2-1-.63-.63-18,15.87-35.09,33-52.66,49.34S131.22,162.49,115,180a.36.36,0,0,0,.51.51Z"/><path class="cls-2" d="M106.56,226.67a136.52,136.52,0,0,1,13.84-12.6c.41-.32-.13-1-.56-.73a65.13,65.13,0,0,0-14,12.57c-.43.52.27,1.27.76.76Z"/><path class="cls-2" d="M108.31,227.12a86.83,86.83,0,0,0,7.5-6.17c2.31-2.08,5.18-4.18,6.83-6.85a.22.22,0,0,0-.3-.3c-2.57,1.52-4.64,4.08-6.84,6.09-2.49,2.29-5,4.5-7.48,6.85-.2.18.06.55.29.38Z"/><path class="cls-2" d="M135.64,197.22c9.84-7.8,18.66-17.17,27.78-25.8L189,147.24c17.71-16.74,35.51-33.37,53.14-50.19.67-.64-.34-1.64-1-1-17.76,16.68-35.34,33.54-53,50.3l-25.55,24.21c-9.1,8.63-18.95,16.91-27.27,26.31a.26.26,0,0,0,.37.36Z"/><path class="cls-2" d="M243,98.59c-18.9,13.35-35.48,30.78-52,46.92C173.12,163.08,155,180.41,137,198a.64.64,0,0,0,.9.9c17.63-17.26,35-34.82,52.68-52,17.08-16.59,35.1-32,52.6-48.05.12-.11,0-.31-.16-.22Z"/><path class="cls-2" d="M121.48,242.4c3-2.27,5.7-4.83,8.51-7.28s6-4.67,8.19-7.57c.15-.2-.15-.45-.35-.34-3,1.74-5.49,4.49-8.06,6.77-2.93,2.59-6,5.1-8.71,7.87-.27.27.1.8.42.55Z"/><path class="cls-2" d="M123.93,244.72c2.77-2.62,5.48-5.28,8.21-7.92,2.43-2.34,5.46-4.46,7.46-7.16.19-.27-.17-.56-.42-.43-2.94,1.61-5.39,4.51-7.78,6.85a88.89,88.89,0,0,0-7.63,8.49c-.09.12,0,.28.16.17Z"/><path class="cls-2" d="M150.78,211c18.63-16,36.09-33.56,54-50.39s35.88-33.7,53.74-50.62c.64-.61-.33-1.57-1-1q-26.92,25.25-53.72,50.63c-17.86,16.84-36.43,33.21-53.5,50.85a.35.35,0,0,0,.49.5Z"/><path class="cls-2" d="M153.68,212.55c18.91-15.44,36.22-33.3,54.11-49.92s36.39-33,53.81-50.21c.57-.57-.28-1.4-.88-.88-18.41,16.17-36,33.43-53.87,50.16S170,194.38,153.27,212.15c-.25.27.13.63.41.4Z"/><path class="cls-2" d="M37.36,145.76a51.31,51.31,0,0,0-14.07,11.91.09.09,0,0,0,.13.12c4.59-4,9.33-7.89,14.22-11.55.28-.21,0-.66-.28-.48Z"/><path class="cls-2" d="M56.74,122.14c-.57-.49.71-.36.88-.28s.47.47.64.64c.41.43.83.85,1.25,1.26a18.79,18.79,0,0,0,2.35,2.2.18.18,0,0,0,.24-.24,18.7,18.7,0,0,0-2.2-2.34,9.86,9.86,0,0,0-2.27-2.11c-.66-.3-1.74.37-1,1,.07.06.17,0,.1-.1Z"/><path class="cls-2" d="M58,118.92a24.72,24.72,0,0,1,3,2.35c.83.78,1.49,1.82,2.36,2.52.08.06.24,0,.19-.11A8.46,8.46,0,0,0,61.2,121a17.4,17.4,0,0,0-3.12-2.27.11.11,0,0,0-.11.19Z"/><path class="cls-2" d="M60.76,117.46a36.06,36.06,0,0,1,2.94,2.28A17.68,17.68,0,0,0,66,121.81c.08,0,.16,0,.13-.12a9.05,9.05,0,0,0-2.39-2.47,22.33,22.33,0,0,0-2.81-2c-.15-.1-.28.13-.14.24Z"/><path class="cls-2" d="M62.5,113.71c.94,1,1.91,1.92,2.87,2.87a16.29,16.29,0,0,0,2.72,2.47c.13.07.3-.08.21-.21a15.16,15.16,0,0,0-2.56-2.63c-1-.93-2-1.86-3-2.77a.19.19,0,0,0-.26.27Z"/><path class="cls-2" d="M64.66,110.85c1.73,2,3.41,4.41,5.47,6.1.1.09.27,0,.19-.14-1.49-2.22-3.71-4.14-5.55-6.06-.07-.07-.16,0-.11.1Z"/><path class="cls-2" d="M106.87,123.73c3.65,3.6,7.43,7.1,11.22,10.56.26.24.66-.15.39-.4-3.7-3.55-7.45-7.08-11.29-10.48-.22-.19-.53.11-.32.32Z"/><path class="cls-2" d="M108.31,120.92c4.67,4.48,9.6,9.32,14.89,13.07.21.14.42-.17.26-.34-4.41-4.73-9.85-9-14.9-13-.18-.14-.42.09-.25.26Z"/><path class="cls-2" d="M110.34,118.91a81.56,81.56,0,0,1,8.26,6.31c2.36,2.08,4.37,4.54,6.75,6.57.13.11.34,0,.24-.18-3.43-5.39-9.64-9.82-15-13a.2.2,0,0,0-.2.34Z"/><path class="cls-2" d="M113.05,117.54a93.38,93.38,0,0,0,8,7.13,81.31,81.31,0,0,0,7.43,6.1c.21.14.42-.16.26-.33a89.2,89.2,0,0,0-8.1-7,82.93,82.93,0,0,0-7.5-6c-.07,0-.14.06-.09.12Z"/><path class="cls-2" d="M114.5,114.71c2.42,2.45,5.12,4.63,7.68,6.94s4.94,4.88,7.66,7a.21.21,0,0,0,.29-.3,73.43,73.43,0,0,0-7.9-7.57,74.61,74.61,0,0,0-7.62-6.22c-.09-.06-.19.07-.11.15Z"/><path class="cls-2" d="M117.66,114.3c4.68,4.33,9.27,9,14.18,13a.18.18,0,0,0,.26-.26,92.57,92.57,0,0,0-14.2-13c-.17-.13-.4.08-.24.23Z"/><path class="cls-2" d="M101.67,96.27c1.94,1.92,3.87,3.85,5.75,5.83s3.59,4.16,5.59,6c.12.1.31,0,.22-.17-2.89-4.46-7.42-8.36-11.5-11.7a0,0,0,0,0-.06.06Z"/><path class="cls-2" d="M102.12,93.8c2.16,1.91,4.28,3.88,6.28,6s3.75,4.43,5.8,6.44c.16.15.43,0,.31-.24-3-4.8-7.83-8.93-12.26-12.32-.1-.08-.22.09-.13.17Z"/><path class="cls-2" d="M104.07,91.18c5.08,4.41,9.85,9.25,15,13.52a.2.2,0,0,0,.28-.28C115.07,99.35,109.52,95,104.2,91c-.09-.07-.21.08-.13.15Z"/><path class="cls-2" d="M92.84,86.67c1.17,1.13,2.45,2.11,3.69,3.16s2.16,2,3.36,2.85c.09.07.23-.06.16-.16a23.42,23.42,0,0,0-7.11-6,.08.08,0,0,0-.1.13Z"/><path class="cls-2" d="M91.21,81.65c1.93,1.41,3.92,2.72,5.76,4.26,1.5,1.25,2.84,2.78,4.44,3.91.14.1.32-.1.23-.24C99.52,86.14,95,83,91.39,81.34a.18.18,0,0,0-.18.31Z"/><path class="cls-2" d="M94.68,80.17c1.76,1.35,3.55,2.62,5.2,4.1,1.35,1.21,2.5,2.71,3.94,3.81.21.17.47-.14.35-.35a18.49,18.49,0,0,0-4.24-4.41,27.67,27.67,0,0,0-5-3.51.21.21,0,0,0-.22.36Z"/><path class="cls-2" d="M98.07,78.13a49,49,0,0,0,8.16,7.54c.15.1.28-.12.18-.24a49.47,49.47,0,0,0-8-7.62.23.23,0,0,0-.32.32Z"/><path class="cls-2" d="M100.28,75.8c1.24,1,2.5,2.07,3.68,3.15s2.23,2.38,3.46,3.42a.21.21,0,0,0,.33-.25c-1.55-2.81-4.59-5-7.37-6.45-.08,0-.18.07-.1.13Z"/><path class="cls-2" d="M185,233.91a109.21,109.21,0,0,0,12.22,11c.12.08.23-.1.15-.19a109.15,109.15,0,0,0-12.2-10.93c-.12-.09-.28.06-.17.17Z"/><path class="cls-2" d="M184.4,235.26a59.07,59.07,0,0,1,6.6,5.05c1.89,1.69,3.49,3.65,5.33,5.38a.17.17,0,0,0,.27-.2c-2.74-4.4-7.59-8-12-10.47a.14.14,0,0,0-.15.24Z"/><path class="cls-2" d="M187.85,233.8c3.73,3.76,8.09,7.88,12.64,10.62a.19.19,0,0,0,.23-.3,79.56,79.56,0,0,0-6.27-5.31c-2.11-1.76-4.17-3.58-6.34-5.27-.18-.14-.43.09-.26.26Z"/><path class="cls-2" d="M189.25,231.07c4.77,3.66,9,7.67,13.44,11.71.12.11.35,0,.24-.19a51.85,51.85,0,0,0-13.49-11.85c-.21-.13-.38.19-.19.33Z"/><path class="cls-2" d="M191.83,229.23a64.64,64.64,0,0,1,6.32,5c1.81,1.65,3.35,3.59,5.19,5.19.1.09.26,0,.19-.14C201,235,196.19,231.46,192,229c-.17-.11-.31.15-.15.26Z"/><path class="cls-2" d="M193.92,226.37c2,1.73,4,3.47,5.9,5.31s3.57,3.95,5.52,5.72c.15.13.39,0,.28-.22-2.78-4.33-7.35-8.09-11.53-11-.13-.09-.29.11-.17.21Z"/><path class="cls-2" d="M196.61,223.71c3.36,4,6.72,8.29,10.57,11.83.12.12.36,0,.25-.19a126.62,126.62,0,0,0-10.48-12c-.21-.23-.53.1-.34.33Z"/><path class="cls-2" d="M199.2,221.8c3.87,3.71,7.88,7.84,12.29,10.9.19.13.37-.15.23-.3-3.56-4-8.14-7.45-12.29-10.83-.16-.13-.39.08-.23.23Z"/><path class="cls-2" d="M251.76,141.38c5.1,3.75,8.82,8.14,12.69,13.09.13.18.4-.05.3-.23C261.81,149,256.92,144.41,252,141c-.21-.14-.4.2-.2.35Z"/><path class="cls-2" d="M252.46,135.87q4.59,3.9,8.84,8.18c2.81,2.86,5.25,6.12,8.14,8.88a.15.15,0,0,0,.24-.18c-4.18-6.62-10.95-12.25-17-17.12-.16-.13-.4.1-.23.24Z"/><path class="cls-2" d="M254.53,130.43a140.33,140.33,0,0,0,22.21,20c.23.16.51-.2.3-.38-7.66-6.44-15.13-12.87-22.29-19.88-.14-.14-.35.07-.22.22Z"/><path class="cls-2" d="M257.17,127.76c8.75,7.75,17.4,15.82,26.41,23.25a.12.12,0,0,0,.18-.17c-7.76-8.6-17.1-16.44-26.33-23.42-.2-.15-.44.18-.26.34Z"/><path class="cls-2" d="M261.26,125c8.57,7.33,16.5,15.19,24.7,22.89a.23.23,0,0,0,.33-.33c-7.24-8.45-16.07-16-24.93-22.68-.07,0-.16.06-.1.12Z"/><path class="cls-2" d="M255.27,116.71c0-.06,4.27,2.12,4.77,2.45,2.16,1.41,4.18,3.15,6.19,4.76q4,3.18,7.73,6.6c5,4.56,9.63,9.53,14.43,14.32.1.11.29,0,.2-.15-5.73-7.47-12.76-14-20-19.93-2.26-1.86-10.78-10.48-13.5-8.51a.1.1,0,0,0,0,.13l.16.36c0,.05.09,0,.08,0Z"/><path class="cls-2" d="M99.19,116.47c1.57,1.55,3.3,3,5,4.38a31.81,31.81,0,0,0,4.65,3.73.15.15,0,0,0,.18-.23,35.86,35.86,0,0,0-4.95-4.41c-1.51-1.28-3-2.6-4.62-3.77-.18-.13-.38.15-.23.3Z"/><path class="cls-2" d="M141,33.85a115.54,115.54,0,0,0,11.48,9.69c.24.19.56-.22.33-.42a113.62,113.62,0,0,0-11.66-9.46c-.12-.08-.24.09-.15.19Z"/><path class="cls-2" d="M142.93,30.54a40.67,40.67,0,0,0,12.85,11.71A.16.16,0,0,0,156,42c-2.09-2-4.5-3.63-6.65-5.55s-4.18-4-6.33-6c0,0-.08,0-.06,0Z"/><path class="cls-2" d="M144.19,27.26c5.21,4.09,9.95,8.62,15,12.86a.16.16,0,0,0,.23-.22c-4.13-5-9.66-9.3-15.06-12.87-.14-.09-.31.13-.18.23Z"/><path class="cls-2" d="M147.12,25.63c5.13,4.39,10.16,8.94,15.34,13.27a.16.16,0,0,0,.22-.22,80.6,80.6,0,0,0-15.4-13.26c-.13-.08-.28.11-.16.21Z"/><path class="cls-2" d="M149.49,24c10.93,9.91,22.47,19.17,33.75,28.67,10.61,8.93,20.94,18.39,32,26.75.22.17.5-.2.29-.39-10.42-9.76-21.84-18.58-32.76-27.78s-21.72-18.72-33-27.53c-.19-.16-.47.1-.28.28Z"/><path class="cls-2" d="M216.92,81.69c6.59,5.17,13.29,10.08,19.52,15.7s11.74,11.91,17.79,17.69c.21.2.61-.07.42-.33-9.61-13-23.78-24.91-37.5-33.35-.18-.11-.39.16-.23.29Z"/><path class="cls-2" d="M162.76,38.36c7.47,6.19,15.05,12.16,22.17,18.75s13.7,13.82,21,20.19a.27.27,0,0,0,.38-.38c-12.41-14.13-27.53-28.55-43.38-38.77-.12-.08-.27.11-.16.21Z"/><path class="cls-2" d="M128.51,45.66c6.84,6.1,14.07,11.78,21.18,17.56.21.16.51-.13.3-.3-7-5.91-14-12-21.27-17.53-.15-.12-.35.14-.21.27Z"/><path class="cls-2" d="M130,43.47a321.94,321.94,0,0,0,28.72,23.67c.2.14.44-.18.26-.34a321.73,321.73,0,0,0-28.86-23.48c-.1-.07-.21.08-.12.15Z"/><path class="cls-2" d="M160,68.49a296.17,296.17,0,0,0,31,24.26c.27.19.63-.26.36-.46-10.36-8-20.71-16.12-31.19-24-.11-.09-.26.1-.15.2Z"/><path class="cls-2" d="M170.59,73c7.68,6.52,15.54,13.35,23.88,19,.19.13.41-.16.24-.31-7.4-6.85-15.83-13-23.93-19-.14-.11-.33.13-.19.25Z"/><path class="cls-2" d="M172.32,68.47c3.75,3.72,7.77,7.17,11.87,10.5,1.32,1.08,11.91,8.63,11.68,9.14.06-.13-.1-.28-.21-.16l-.16.15a.18.18,0,0,0,0,.25l.23.28a.24.24,0,0,0,.23.06l.3-.08a.25.25,0,0,0,.19-.25c-.08-1.19,0-.24-.63-1.32-.33-.59-2.21-1.61-2.88-2.11q-2.81-2.07-5.54-4.22c-5.1-4-9.94-8.26-14.86-12.46-.15-.13-.37.08-.22.22Z"/><path class="cls-2" d="M172.92,65.86c8.93,6.44,17.13,13.61,25.58,20.64.26.22.62-.12.37-.37-7.64-7.81-16.71-14.52-25.76-20.61-.21-.14-.39.19-.19.34Z"/><path class="cls-2" d="M175.81,63.57c8.25,7.41,16.66,14.88,25.45,21.64.25.2.57-.22.34-.44-8.13-7.51-16.9-14.53-25.57-21.42-.16-.12-.38.09-.22.22Z"/><path class="cls-2" d="M178.87,61.93c8.15,7.14,16.45,14.75,25.33,21,.24.17.52-.2.31-.4C196.73,75,187.69,68.3,179.13,61.67c-.18-.13-.43.1-.26.26Z"/><path class="cls-2" d="M206.1,85.08c11.28,8.4,22.09,17.3,33.17,25.93.25.19.59-.12.35-.35-10.15-9.55-21.8-18.08-33.42-25.76-.11-.08-.21.1-.1.18Z"/><path class="cls-2" d="M24.35,153.25c9.94,8.47,20.16,17.45,31,24.78.19.13.42-.16.25-.32-9.52-8.94-20.54-16.93-31-24.77-.18-.14-.41.17-.24.31Z"/><path class="cls-2" d="M23.48,156c3.7,3.66,8,6.76,11.94,10.15s7.72,7.11,11.86,10.31a.24.24,0,0,0,.33-.34A121.94,121.94,0,0,0,35.41,165c-3.77-3.2-7.52-6.6-11.73-9.2a.17.17,0,0,0-.2.26Z"/><path class="cls-2" d="M22.09,160.17c3.69,3.75,8.06,6.92,12.13,10.25a132.88,132.88,0,0,0,11.18,8.79c.19.12.4-.16.24-.32-3.7-3.74-8.07-6.9-12.16-10.22a131.11,131.11,0,0,0-11.2-8.75.16.16,0,0,0-.19.25Z"/><path class="cls-2" d="M22.34,162.05a168,168,0,0,0,22,18.81c.25.17.51-.2.31-.4A167.3,167.3,0,0,0,22.54,161.8c-.15-.11-.32.12-.2.25Z"/><path class="cls-2" d="M26.78,165.72c11.08,8.26,21.3,17.07,31.74,26.08a.23.23,0,0,0,.33-.33C50.11,181.28,38.54,172.18,27,165.33c-.26-.15-.45.22-.23.39Z"/><path class="cls-2" d="M130.81,127a176,176,0,0,1,14.13,11.72c.23.22.58-.13.34-.34a123.7,123.7,0,0,0-14.42-11.48c-.06,0-.11.06-.05.1Z"/><path class="cls-2" d="M149.14,141.64c13.4,15.82,33.37,24.22,47.1,39.8.18.21.48-.09.3-.3-13.51-15.72-32.83-24.84-47.25-39.65a.11.11,0,1,0-.15.15Z"/><path class="cls-2" d="M155.74,142.87c14.66,12.63,30,25.54,46.26,36.07.12.08.27-.1.15-.2-15.13-12.32-31.06-23.74-46.3-36-.08-.07-.18,0-.11.1Z"/><path class="cls-2" d="M177.74,154.8c11.28,9.14,22.82,18.2,34.63,26.64.18.13.41-.16.24-.3-11.22-9.22-23-18-34.72-26.53-.11-.09-.26.1-.15.19Z"/><path class="cls-2" d="M188.41,157.85c8.91,6.67,17.35,13.86,26.11,20.7.24.18.56-.12.34-.34-7.86-7.7-17.18-14.49-26.33-20.56-.13-.08-.23.11-.12.2Z"/><path class="cls-2" d="M53.79,177.49c11.85,11.42,24.25,22.79,37.79,32.2.18.13.4-.16.23-.31C79.13,198.73,66.16,188.55,54,177.32a.12.12,0,0,0-.17.17Z"/><path class="cls-2" d="M94.42,209.53c9.44,11.35,22,19.87,33.69,28.76,13.52,10.31,26.36,21.35,39.41,32.24.33.27.8-.17.48-.47-23.33-21.66-50.48-38.65-73.46-60.65-.08-.09-.2,0-.12.12Z"/><path class="cls-2" d="M116.87,233.64c18.9,9.59,32.8,25.36,49.22,38.34.18.14.44-.09.26-.27-8.11-8.11-17-15.74-25.77-23.1-7.24-6-14.86-11.56-23.61-15.21-.14-.06-.23.17-.1.24Z"/><path class="cls-2" d="M131.08,242.94c10.48,9.92,21.3,19.67,32.39,28.9.33.28.81-.17.48-.48-10.56-9.84-21.57-19.38-32.7-28.6-.12-.1-.29.07-.17.18Z"/><path class="cls-2" d="M142.57,245c8.51,7.79,17.48,15.5,26.69,22.46.26.2.59-.23.35-.45-8.5-7.8-17.7-15.23-26.89-22.2-.11-.09-.25.1-.15.19Z"/><path class="cls-2" d="M140.27,238.55c10.87,9.53,21.58,19.21,32.27,28.94.35.32.87-.19.53-.52-10.42-10-21.37-19.54-32.63-28.6-.12-.1-.3.07-.17.18Z"/><path class="cls-2" d="M133.61,230.17c14.74,11.55,28.69,24,43.31,35.65a.28.28,0,0,0,.4-.4C164.87,252,149,240.07,133.74,230c-.1-.07-.23.09-.13.16Z"/><path class="cls-2" d="M145.17,239.74c9.76,9.1,19.72,18.85,30.51,26.7.22.16.46-.18.28-.36-9.22-9.63-20.22-18.15-30.54-26.58-.17-.14-.41.09-.25.24Z"/><path class="cls-2" d="M107.13,205.73c12.08,12.47,26.07,24.71,40.63,34.21.24.16.52-.2.31-.39-13.49-11.44-27.31-22.5-40.78-34-.11-.09-.26.06-.16.16Z"/><path class="cls-2" d="M76.09,182.46c6.65,5.35,13.69,10.2,20.36,15.52,6.07,4.84,11.76,10.16,17.92,14.87.19.14.39-.15.24-.31A178.7,178.7,0,0,0,76.22,182.3c-.1-.05-.22.09-.13.16Z"/><path class="cls-2" d="M48.38,156.37C60,166.58,71.54,177.74,84.15,186.69c.2.14.42-.17.25-.33-10.89-10.94-23.83-20.46-35.79-30.21-.16-.13-.39.09-.23.22Z"/><path class="cls-2" d="M77,183.48c20.25,18.66,41.58,36.63,62.92,54,.42.34,1-.23.6-.59C120,218.59,98.83,200.38,77.19,183.32c-.11-.09-.27.05-.16.16Z"/><path class="cls-2" d="M117.4,177.16c3.13,3.8,7.4,6.9,11.24,10a114.9,114.9,0,0,0,10.93,8c.26.16.58-.23.33-.43-3.93-3.1-8.09-5.91-12-9-3.5-2.79-6.74-6.06-10.45-8.54,0,0-.08,0,0,.07Z"/><path class="cls-2" d="M120.44,174.07c6.46,6,13,12,19.85,17.53.22.17.52-.11.31-.31-6.33-6.12-13.14-11.84-19.89-17.49-.18-.15-.45.1-.27.27Z"/><path class="cls-2" d="M123.33,171.17c7,5.93,13.41,12.49,20.41,18.36a.1.1,0,1,0,.14-.14c-6-6.8-13.42-12.66-20.51-18.27a0,0,0,0,0,0,0Z"/><path class="cls-2" d="M145.41,190.61C154.9,200,165.84,209.5,177,216.88c.19.13.41-.16.24-.32-9.84-9.19-20.95-17.92-31.67-26.09-.09-.07-.19.07-.12.14Z"/><path class="cls-2" d="M180.39,219.52c3.7,3.71,7.25,7.82,11.32,11.13a.26.26,0,0,0,.36-.37c-3.48-3.92-7.75-7.29-11.62-10.82a0,0,0,0,0-.06.06Z"/><path class="cls-2" d="M176.87,212.17c5.1,4.65,10.13,9.4,15.38,13.87.21.18.51-.11.31-.3-5.08-4.69-10.4-9.12-15.63-13.62,0,0-.1,0-.06,0Z"/><path class="cls-2" d="M179.07,209.27c5.7,5.33,11.33,11.12,17.54,15.85.14.11.3-.12.19-.25-5.32-5.69-11.64-10.7-17.5-15.83-.16-.14-.39.08-.23.23Z"/><path class="cls-2" d="M183.8,207.27a149.46,149.46,0,0,0,17.45,17.23.19.19,0,1,0,.27-.27,149.44,149.44,0,0,0-17.67-17,0,0,0,0,0,0,.05Z"/><path class="cls-2" d="M186,203.7c8.59,9.35,17.84,18.63,27.28,27.12a.24.24,0,0,0,.34-.34c-8.57-9.36-17.94-18.53-27.37-27a.18.18,0,0,0-.25.25Z"/><path class="cls-2" d="M202.9,214c2.38,2.15,4.78,4.28,7.09,6.5s4.41,4.78,6.91,6.73c.12.09.34,0,.24-.19a42.67,42.67,0,0,0-6.34-6.62c-2.48-2.32-5-4.55-7.7-6.62-.14-.11-.34.07-.2.2Z"/><path class="cls-2" d="M224.55,167.2c4.17,4.34,8,9.33,12.76,13.08.12.1.36,0,.24-.19-3.65-4.82-8.55-8.8-12.8-13.08-.13-.13-.32.07-.2.19Z"/><path class="cls-2" d="M227.9,165.21a130.48,130.48,0,0,0,14,13.26c.3.25.73-.15.44-.43-4.55-4.5-9.4-8.79-14.17-13.06-.15-.13-.37.08-.23.23Z"/><path class="cls-2" d="M242.72,179c2,1.81,4.11,3.56,6.17,5.32,1.82,1.55,3.6,3.45,5.71,4.56a.15.15,0,0,0,.19-.24c-1.54-2-3.87-3.48-5.8-5s-4-3.27-6-4.85c-.19-.14-.45.1-.27.26Z"/><path class="cls-2" d="M245.54,176.13A90,90,0,0,0,256.45,185c.22.15.47-.18.28-.37A90.28,90.28,0,0,0,245.68,176c-.1-.07-.23.09-.14.18Z"/><path class="cls-2" d="M246.84,172.12c2,1.58,4,3.16,6,4.87s3.62,3.68,5.59,5.32c.18.15.51-.05.35-.27-2.88-4.07-7.49-7.56-11.66-10.25-.19-.12-.44.18-.25.33Z"/><path class="cls-2" d="M249.64,170.66c1.57,1.25,3.17,2.44,4.63,3.84s2.66,3,4.12,4.4a.13.13,0,0,0,.2-.16c-1.72-3.39-5.45-6.53-8.75-8.35-.16-.08-.36.14-.2.27Z"/><path class="cls-2" d="M253.07,168.59a67.34,67.34,0,0,0,10.79,9c.15.1.3-.12.19-.24a68.13,68.13,0,0,0-10.76-9.06c-.17-.12-.36.14-.22.29Z"/><path class="cls-2" d="M257.18,166.52c1.4,1.48,2.93,2.85,4.43,4.23a29.61,29.61,0,0,0,4.17,3.59c.15.09.38-.11.26-.27a29.69,29.69,0,0,0-4-3.81c-1.51-1.37-3-2.76-4.62-4-.2-.17-.49.09-.29.29Z"/><path class="cls-2" d="M259.07,164c2.66,2.48,5.26,5.4,8.29,7.41.18.12.34-.14.22-.28-2.28-2.82-5.42-5.11-8.14-7.5-.25-.22-.61.14-.37.37Z"/><path class="cls-2" d="M139.67,95c18.8,14.38,36.87,29.61,54.38,45.52.33.3.82-.18.49-.48C177.12,124,158.85,108.85,140,94.53c-.29-.22-.58.28-.29.5Z"/><path class="cls-2" d="M171.54,116.85c13.81,12.78,27.8,26,42.64,37.61.23.18.56-.12.34-.34-13.42-13.21-28.41-25.33-42.89-37.36-.06-.05-.15,0-.09.09Z"/><path class="cls-2" d="M216.33,155.72c1.34,1.57,3.38,2.68,5,3.95a45.62,45.62,0,0,0,4.52,3.59c.16.09.4-.11.27-.28a22.67,22.67,0,0,0-4.35-3.88c-1.63-1.27-3.39-2.86-5.37-3.51a.08.08,0,0,0-.07.13Z"/><path class="cls-2" d="M201.57,129.64c15.47,14.42,31.6,28.71,48.67,41.21.22.17.52-.2.3-.39-16.2-13.75-32.78-27-48.84-41-.08-.08-.22.05-.13.13Z"/><path class="cls-2" d="M203.8,127.4c17.93,12.16,31.25,29.52,48.9,42,.37.26.72-.34.35-.6-17.44-12.51-30.36-30.9-49.16-41.53a.09.09,0,1,0-.09.16Z"/><path class="cls-2" d="M210.23,125.06c8.17,8.26,17,15.91,25.58,23.75,7.29,6.68,14.63,13.43,22.9,18.89.33.22.62-.31.31-.54-17.32-12.83-32.07-28.53-48.66-42.23-.09-.07-.21,0-.13.13Z"/><path class="cls-2" d="M212.35,122.27c15.66,13.65,30.28,28.11,45.25,42.48.24.24.59-.12.37-.37-13.46-15.45-29.42-29.56-45.46-42.27-.12-.09-.28.06-.16.16Z"/><path class="cls-2" d="M53.75,124.49c6.55,7.85,14.58,14.75,22.31,21.41,7.13,6.15,14.54,12.47,22.56,17.46.21.13.47-.19.27-.36-7.63-6.29-15.71-12-23.23-18.45S61.35,130.87,54,124.28a.15.15,0,0,0-.21.21Z"/><path class="cls-2" d="M58.17,124.79c19.22,17.74,39.11,35,59.55,51.28.39.31.94-.22.55-.55q-30-25.41-59.93-50.89c-.11-.1-.28.06-.17.16Z"/><path class="cls-2" d="M96.68,160.47c6.55,4.81,12.42,10.13,18.49,15.49a.24.24,0,0,0,.34-.34,72.9,72.9,0,0,0-18.8-15.21s-.07,0,0,.06Z"/><path class="cls-2" d="M119,111.59c5.63,4.59,11.11,9.42,17,13.7.27.2.61-.25.36-.47-5.51-4.74-11.45-9-17.21-13.42-.1-.08-.25.1-.14.19Z"/><path class="cls-2" d="M138,126.56c5.49,4.51,10.38,9.55,15.7,14.22a.2.2,0,0,0,.28-.28c-4.26-5.43-10.16-10.22-15.69-14.32-.22-.16-.51.21-.29.38Z"/><path class="cls-2" d="M157.86,137.34c6.53,6.34,13.77,12.2,20.85,17.92.27.22.67-.15.39-.39-6.81-6.05-13.81-12.24-21.15-17.64-.07,0-.14.05-.09.11Z"/><path class="cls-2" d="M162.75,134.47c8.11,8.19,17,15.66,25.61,23.36.34.31.85-.2.51-.51-8.57-7.72-17-15.81-26-23a.11.11,0,0,0-.16.16Z"/><path class="cls-2" d="M167.43,132.53c14.35,15.07,31,29.91,48.43,41.31.19.12.43-.17.25-.32-16.45-13.57-32.76-26.75-48.46-41.22a.16.16,0,0,0-.22.23Z"/><path class="cls-2" d="M142.21,123.75A67.86,67.86,0,0,0,157,135.56a.22.22,0,0,0,.22-.37c-5-3.85-10.12-7.44-14.9-11.59a.11.11,0,0,0-.15.15Z"/><path class="cls-2" d="M145,122.32c5.35,3.75,10.4,7.73,15.59,11.68.19.15.41-.16.25-.33a56.63,56.63,0,0,0-15.72-11.56.12.12,0,0,0-.12.21Z"/><path class="cls-2" d="M148.45,119.51c5,4.49,10.48,9.56,16.24,13.08a.14.14,0,0,0,.17-.22c-4.67-4.88-10.77-9.1-16.24-13.08-.13-.09-.29.12-.17.22Z"/><path class="cls-2" d="M148.5,114.65c6.34,5,12.39,10.47,18.78,15.4.22.17.45-.18.28-.37-5.22-5.89-12.23-11.08-18.87-15.28-.15-.09-.33.14-.19.25Z"/><path class="cls-2" d="M151.05,113.53c11.5,9.66,23.09,19.17,34.2,29.28s21.42,21,32.35,31.34a.31.31,0,0,0,.44-.43c-19.41-22.31-43.07-42.85-66.74-60.51-.18-.14-.42.17-.25.32Z"/><path class="cls-2" d="M198.36,183.8c10,10,22,18.62,33.16,27.34.34.27.84-.2.49-.49-10.82-9.12-21.77-19.15-33.59-26.94,0,0-.11,0-.06.09Z"/><path class="cls-2" d="M202.08,183.58c11,8.29,22.26,16.28,33.28,24.59.28.21.66-.27.38-.5a268.52,268.52,0,0,0-33.64-24.13s0,0,0,0Z"/><path class="cls-2" d="M204.94,178.6c10.66,9.28,21.63,18.6,33.05,27,.24.18.55-.22.32-.42-10.51-9.46-21.88-18.27-33.16-26.81-.16-.12-.36.15-.21.28Z"/><path class="cls-2" d="M210.91,177.43c9.48,8.38,19,17.09,29.23,24.56.13.1.3-.12.18-.24C231.22,193,221,185.1,211.14,177.2c-.16-.12-.38.09-.23.23Z"/><path class="cls-2" d="M207.76,170.34c10.09,9.15,20.45,18.44,31.34,26.61.12.09.26-.1.16-.2-9.81-9.43-20.64-18.14-31.28-26.63-.15-.12-.37.09-.22.22Z"/><path class="cls-2" d="M207.62,163.71c11.24,9.85,21.84,20.34,32.91,30.35a.23.23,0,0,0,.33-.33c-10.08-10.92-21.65-20.73-33.14-30.12-.07-.06-.17,0-.1.1Z"/><path class="cls-2" d="M187.75,114.25c6.14,5.19,11.77,10.88,17.74,16.26.08.08.19,0,.12-.12-5.05-6.16-11.35-11.51-17.61-16.4-.18-.14-.43.1-.25.26Z"/><path class="cls-2" d="M189.65,112.35c5.91,5.78,11.95,11.8,18.48,16.88a.16.16,0,0,0,.23-.23c-5.61-6.07-12.13-11.57-18.39-17-.22-.19-.52.11-.32.31Z"/><path class="cls-2" d="M191.2,110.1c6,5.91,12.28,12.1,19,17.1.15.11.31-.12.2-.25-5.67-6.17-12.46-11.81-18.95-17.1-.18-.15-.43.09-.26.25Z"/><path class="cls-2" d="M191.94,107.32A249.92,249.92,0,0,0,213.49,126c.2.15.43-.17.26-.34a249.65,249.65,0,0,0-21.58-18.58c-.16-.13-.39.09-.23.24Z"/><path class="cls-2" d="M193.94,106.64c6.94,5.71,13.44,12.2,20.54,17.66.18.14.34-.14.22-.29-5.41-6.89-13.24-12.85-20.41-17.83-.27-.19-.61.25-.35.46Z"/><path class="cls-2" d="M195.13,104.82c8.2,8.31,17.19,16.9,26.76,23.61.19.13.39-.16.24-.31-8.24-8.37-17.65-16.09-26.57-23.72-.29-.25-.7.14-.43.42Z"/><path class="cls-2" d="M169.69,282.61a33.73,33.73,0,0,0,3.83,3.43c1,.8,2,2,3.38,2.13a.55.55,0,0,0,.52-.69c-.4-1.34-2.06-2.15-3.12-3a30,30,0,0,0-4-2.72.54.54,0,0,0-.64.84Z"/><path class="cls-2" d="M168.76,283.39c1,1.57,3.26,2.16,4.85,3.08,1.78,1,3.59,3.15,5.6,3.51a.76.76,0,0,0,.84-1.1c-.91-1.92-3.78-2.94-5.58-3.88-1.62-.85-3.75-2.24-5.64-1.79a.13.13,0,0,0-.07.18Z"/><path class="cls-2" d="M180.11,290.71c11.2-8.92,20.87-21,30.39-31.62q15-16.84,29.3-34.33Q253,208.62,265.57,192c9-11.87,18.62-23.89,25.8-37,.28-.5-.42-1.09-.82-.63-9,10.47-16.63,22.25-24.92,33.3q-14.19,18.93-29.18,37.25-13.9,17-28.43,33.43c-9.33,10.56-20.08,20.63-28.37,32-.22.3.22.55.46.36Z"/><path class="cls-2" d="M159.55,280.69a50.94,50.94,0,0,0-12,13.84c-.63,1,1,1.94,1.6.94a72.45,72.45,0,0,1,11.47-13.36c.72-.69-.26-2.06-1.09-1.42Z"/><path class="cls-2" d="M21,163.84c8.5,11.59,19.8,21.7,29.74,32,10.68,11.11,21.3,22.28,32,33.35,21.4,22.12,43.18,44,65.5,65.22a1.05,1.05,0,0,0,1.49-1.49c-21.36-21.59-42.9-43-64.29-64.56-10.55-10.62-21.08-21.24-31.45-32s-20.52-23.44-32.2-33.13c-.41-.34-1.17.11-.8.61Z"/></g></svg>