<?xml version="1.0" encoding="UTF-8" standalone="no"?><!-- Generator: Gravit.io --><svg xmlns="http://www.w3.org/2000/svg" xmlns:xlink="http://www.w3.org/1999/xlink" style="isolation:isolate" viewBox="0 0 299.628 300" width="299.628pt" height="300pt"><defs><clipPath id="_clipPath_YYkIsZhYOKt4gl6mYpiwbDJRV4yWgLr0"><rect width="299.628" height="300"/></clipPath></defs><g clip-path="url(#_clipPath_YYkIsZhYOKt4gl6mYpiwbDJRV4yWgLr0)"><g><mask id="_mask_XnNB6cYXHDzp7BBH4Dh1BX8efJR9Y7pC" x="-200%" y="-200%" width="400%" height="400%"><rect x="-200%" y="-200%" width="400%" height="400%" style="fill:white;"/><path d=" M 72.276 23.076 L 113.814 12 C 113.814 12 119.064 36 149.814 36 C 149.814 36 185.814 12 185.814 12 L 227.352 23.076 C 227.352 23.076 214.782 53.514 227.814 90 L 227.352 146.226 L 227.814 288 L 71.814 288 L 71.814 90 C 88.428 62.31 72.276 23.076 72.276 23.076 Z " fill="black" stroke="none"/></mask><path d=" M 72.276 23.076 L 113.814 12 C 113.814 12 119.064 36 149.814 36 C 149.814 36 185.814 12 185.814 12 L 227.352 23.076 C 227.352 23.076 214.782 53.514 227.814 90 L 227.352 146.226 L 227.814 288 L 71.814 288 L 71.814 90 C 88.428 62.31 72.276 23.076 72.276 23.076 Z " fill="none"/><path d=" M 72.276 23.076 L 113.814 12 C 113.814 12 119.064 36 149.814 36 C 149.814 36 185.814 12 185.814 12 L 227.352 23.076 C 227.352 23.076 214.782 53.514 227.814 90 L 227.352 146.226 L 227.814 288 L 71.814 288 L 71.814 90 C 88.428 62.31 72.276 23.076 72.276 23.076 Z " fill="none" mask="url(#_mask_XnNB6cYXHDzp7BBH4Dh1BX8efJR9Y7pC)" vector-effect="non-scaling-stroke" stroke-width="24" stroke="rgb(0,0,0)" stroke-linejoin="round" stroke-linecap="round" stroke-miterlimit="10"/><path d=" M 227.814 90 L 254.142 131.088 L 293.628 106.686 C 293.628 106.686 270.072 68.1 255.714 44.184 C 246.744 29.232 227.352 23.076 227.352 23.076 M 71.814 90 L 45.486 131.088 L 6 106.686 C 6 106.686 29.556 68.1 43.914 44.184 C 52.884 29.232 72.276 23.076 72.276 23.076 M 113.814 12 C 113.814 12 126.534 6 149.814 6 C 149.814 6 185.814 12 185.814 12" fill="none" vector-effect="non-scaling-stroke" stroke-width="12" stroke="rgb(0,0,0)" stroke-linejoin="round" stroke-linecap="round" stroke-miterlimit="10"/></g></g></svg>