<svg id="Warstwa_3" data-name="Warstwa 3" xmlns="http://www.w3.org/2000/svg" xmlns:xlink="http://www.w3.org/1999/xlink" viewBox="0 0 316 316"><defs><style>.cls-1{fill:none;}.cls-2{fill:#e5e5e5;}.cls-3{clip-path:url(#clip-path);}.cls-4{fill:#14213d;}</style><clipPath id="clip-path"><circle id="Ellipse_55" data-name="Ellipse 55" class="cls-1" cx="158" cy="158" r="140.1"/></clipPath></defs><g id="spodnie"><circle id="Ellipse_55-2" data-name="Ellipse 55" class="cls-2" cx="158" cy="158" r="158"/><g class="cls-3"><path class="cls-4" d="M88.19,46.92c-9,21.67-10.17,46.56-12.83,69.63-2.91,25.25-11.59,117-13.52,142.36-.07,1,1.52,1,1.59,0,1.83-24.66,10.33-115.72,13-140.29C79,95,79.84,69.42,88.66,47.06c.12-.3-.35-.44-.47-.14Z"/><path class="cls-4" d="M85.88,46.47C98.23,50,110.37,56.58,123.29,57.73a.7.7,0,0,0,.22-1.37c-6.62-1.51-13.08-2.81-19.47-5.2-5.85-2.18-11.8-4.73-18.12-5a.15.15,0,0,0,0,.29Z"/><path class="cls-4" d="M130,58.43c9.05-.18,18.19,1.72,27.3,2,8.21.26,17.49,1.71,25.28-1.51.68-.29.22-1.43-.48-1.22-9.18,2.82-19.45,1.4-28.92,1.13-7.51-.22-15.93-2.89-23.29-1.29a.45.45,0,0,0,.11.88Z"/><path class="cls-4" d="M85.93,46.06a18.15,18.15,0,0,1,.27-4.29,28.22,28.22,0,0,1,1.42-3.57c0-.14-.15-.26-.24-.15a9.63,9.63,0,0,0-1.67,8,.11.11,0,0,0,.22,0Z"/><path class="cls-4" d="M87.56,39c7.07,2.68,14.87,1.67,21.74,4.9,5.3,2.49,9.74,4.7,15.76,4.69.68,0,.71-1.06,0-1.06-7.56,0-12.56-4.27-19.47-6.15-5.68-1.55-12.2-1.88-18-2.47-.06,0-.06.07,0,.09Z"/><path class="cls-4" d="M124.9,48.22c.08-.16.17-.31.26-.47s0-.08,0-.07a.43.43,0,0,0-.3.55,0,0,0,0,0,.07,0Z"/><path class="cls-4" d="M125,48.05s-1.1,11.2-1.21,12.1c-.34,2.91-.94,5.79.17,8.57.12.31.58.09.52-.2-.78-3.8,0-7.79.46-11.61.34-2.86,1.32-6.12,1-9a.24.24,0,0,0-.18-.18c-.45-.14-.38-.16-.78.09a.1.1,0,0,0,.07.19Z"/><path class="cls-4" d="M129.75,48.58c-.57,6.52-.45,13-1.28,19.55-.06.44.63.45.68,0,.81-6.39,1.56-13.16.64-19.57,0,0,0,0,0,0Z"/><path class="cls-4" d="M125.35,47.92a5.24,5.24,0,0,0,2,.27,10,10,0,0,1,2.47.73c.33.14.48-.39.16-.53a9.3,9.3,0,0,0-2.58-.74,2.85,2.85,0,0,0-2,.15.08.08,0,0,0,0,.12Z"/><path class="cls-4" d="M123.62,69c1.79,0,3.6-.34,5.38-.56.3,0,.18-.5-.12-.46-1.76.19-3.57.33-5.3.69a.17.17,0,0,0,0,.33Z"/><path class="cls-4" d="M130.21,48.69c16.66,4.47,36.68,6.56,53.47,1.81.76-.21.47-1.41-.3-1.19-17.11,4.81-35.91,1.67-53.11-1-.21,0-.25.3-.06.35Z"/><path class="cls-4" d="M183.72,50c-.43,5.62-.5,11.3-.55,16.93a.36.36,0,0,0,.71,0c.19-5.62.37-11.3.18-16.93a.17.17,0,0,0-.34,0Z"/><path class="cls-4" d="M183.48,67.55a25.73,25.73,0,0,0,3.25-.48.32.32,0,0,0-.16-.61,24,24,0,0,0-3.15.85c-.17,0-.1.26.06.24Z"/><path class="cls-4" d="M187.13,67A89.39,89.39,0,0,0,187,49.47c0-.33-.59-.26-.58.07.11,5.83.27,11.63.26,17.46a.24.24,0,0,0,.48,0Z"/><path class="cls-4" d="M184.09,50.34a16.08,16.08,0,0,0,3-.51c.44-.11.26-.72-.17-.67a16.71,16.71,0,0,0-2.89.62c-.29.09-.28.59.06.56Z"/><path class="cls-4" d="M187.35,50.27c6.81.25,13.69.55,20.45-.56,7.95-1.31,15-5.4,23-6.29.62-.07.69-1,0-1-7,.08-13.08,3.75-19.71,5.49-7.72,2-15.86,1.9-23.78,1.76a.31.31,0,0,0,0,.61Z"/><path class="cls-4" d="M187.38,58.31c8.06-.27,16.26-2.12,24.2-3.47q6-1,12-2.12c2.92-.55,5.58-.78,7.73-2.94.32-.32-.07-.9-.48-.65-6,3.62-14.69,3.9-21.5,5.11-7.27,1.28-14.85,2-22,3.92a.08.08,0,0,0,0,.15Z"/><path class="cls-4" d="M230.18,42.9a29.67,29.67,0,0,1,.41,6.52c0,.47.68.47.73,0a12.74,12.74,0,0,0-.71-6.7c-.12-.26-.46-.07-.43.17Z"/><path class="cls-4" d="M187.31,60.51a307,307,0,0,0,37,.74.45.45,0,0,0,0-.9,311.21,311.21,0,0,0-37-.22.19.19,0,0,0,0,.38Z"/><path class="cls-4" d="M224.21,61.21c2.51-1.36,1.92-4.72,1.38-7a.28.28,0,0,0-.55.14c.55,2.4.87,4.69-1.07,6.52a.2.2,0,0,0,.24.32Z"/><path class="cls-4" d="M225,54.6a11.48,11.48,0,0,0-7.53-1.23c-.47.06-.39.88.1.84a27.74,27.74,0,0,1,7.32.65c.15,0,.26-.17.11-.26Z"/><path class="cls-4" d="M87.7,38.68c23.75,1.52,47.57,2.21,71.37,2.69,23.19.46,46.43,1.29,69.63,1.23a.38.38,0,0,0,0-.75c-47-1.8-94-1.11-141-3.51-.22,0-.22.32,0,.34Z"/><path class="cls-4" d="M149.08,45a19.53,19.53,0,0,0,0,3.42,13.54,13.54,0,0,0,.28,3c.06.18.37.23.41,0a14,14,0,0,0-.09-3.23,18.38,18.38,0,0,0-.38-3.22c0-.14-.22-.1-.23,0Z"/><path class="cls-4" d="M166.69,46.47c-.08.94-.1,1.89-.12,2.84a7,7,0,0,0,.08,2.51.21.21,0,0,0,.41,0,7.4,7.4,0,0,0,.19-2.49c0-.95,0-1.9,0-2.85a.28.28,0,0,0-.55,0Z"/><path class="cls-4" d="M149.25,45.78c5.68.57,11.5.3,17.2.35a.35.35,0,0,0,0-.69c-5.7,0-11.52-.41-17.2.06a.14.14,0,0,0,0,.28Z"/><path class="cls-4" d="M151,45.36c-.61.26-1.51,1.16-1.15,1.88a.15.15,0,0,0,.24,0,3.34,3.34,0,0,0,.35-.74,2,2,0,0,1,.78-.78.23.23,0,0,0-.22-.4Z"/><path class="cls-4" d="M151.84,45.78a5.2,5.2,0,0,0-1.65,1.55c-.35.51-.88,1.35-.7,2a.17.17,0,0,0,.28.08,10.53,10.53,0,0,0,.71-1.64,5.34,5.34,0,0,1,1.51-1.7c.16-.11,0-.38-.15-.27Z"/><path class="cls-4" d="M153,45.4a19.55,19.55,0,0,0-1.77,2,6.17,6.17,0,0,0-1.36,2.27.15.15,0,0,0,.24.15,10,10,0,0,0,1.44-2c.52-.76,1-1.5,1.61-2.23.08-.09-.07-.21-.16-.13Z"/><path class="cls-4" d="M153.68,45.85a29.41,29.41,0,0,0-4.08,5.08c-.19.28.25.53.45.27,1.26-1.73,2.65-3.41,3.79-5.21a.11.11,0,0,0-.16-.14Z"/><path class="cls-4" d="M155.32,45.65a8.9,8.9,0,0,0-2.5,2.61c-.66.88-1.75,2-1.85,3.1a.16.16,0,0,0,.24.14c.92-.56,1.44-1.86,2.06-2.72a15.51,15.51,0,0,0,2.11-3.07s0-.07-.06-.06Z"/><path class="cls-4" d="M166.83,45.53a59.23,59.23,0,0,0-4,5.71c-.22.34.3.65.53.33a56.11,56.11,0,0,0,3.72-5.81c.09-.17-.15-.4-.29-.23Z"/><path class="cls-4" d="M167.06,47.33a9.15,9.15,0,0,0-2.12,2.18c-.49.63-1.44,1.6-1.29,2.44a.18.18,0,0,0,.27.12c.71-.29,1.11-1.44,1.54-2.06.57-.84,1.31-1.58,1.84-2.44a.18.18,0,0,0-.24-.24Z"/><path class="cls-4" d="M167.09,48.77A8,8,0,0,0,166,50.08a3.49,3.49,0,0,0-.72,1.34.17.17,0,0,0,.24.14,3.52,3.52,0,0,0,1-1.2,8.73,8.73,0,0,0,.79-1.48c0-.11-.12-.19-.19-.11Z"/><path class="cls-4" d="M166.49,50.58a3.92,3.92,0,0,0-.25.32.12.12,0,0,0,.16.16,4,4,0,0,0,.33-.24c.17-.13-.09-.41-.24-.24Z"/><path class="cls-4" d="M101.67,52.87c-3.21,8.6-6.32,17.28-9.31,26C89.66,86.69,87.22,94.77,81,100.6c-.57.53.26,1.4.84.87,5.53-5,8.2-11.71,10.57-18.61C95.78,73,99,63,102.09,53c.09-.27-.32-.38-.42-.12Z"/><path class="cls-4" d="M103.08,53.86a27.6,27.6,0,0,0-1.76,5.24.06.06,0,0,0,.12,0,27.55,27.55,0,0,0,1.65-5.27Z"/><path class="cls-4" d="M104,53.32a29.64,29.64,0,0,0-1.51,5.24.07.07,0,0,0,.14,0,28.78,28.78,0,0,0,1.46-5.25c0-.06-.06-.09-.09,0Z"/><path class="cls-4" d="M105.36,53.34c-.49,1.64-.93,3.3-1.33,5,0,.18.23.27.28.09.46-1.65.88-3.32,1.24-5a.1.1,0,0,0-.19-.06Z"/><path class="cls-4" d="M133.6,49.3a48.5,48.5,0,0,1,15-.14c.24,0,.31-.4.07-.44a39.36,39.36,0,0,0-15.18.25c-.22.05-.13.36.09.33Z"/><path class="cls-4" d="M167,48.73c5.08.56,9.83.17,14.87,1.33.12,0,.22-.15.09-.21-4.33-2-10.33-1.66-15-1.26a.07.07,0,0,0,0,.14Z"/><path class="cls-4" d="M81.08,100.67c-.46.37-1,.67-1.44,1L78.1,103c-.15.12.07.35.22.22l1.45-1.2c.48-.4.9-.87,1.37-1.27,0,0,0-.1-.06-.07Z"/><path class="cls-4" d="M81.39,101.26c-.69.49-1.34,1-2,1.57a9,9,0,0,0-2,1.67c-.1.13.07.27.2.21a8.56,8.56,0,0,0,1.85-1.56c.66-.59,1.34-1.17,2-1.81,0,0,0-.12-.06-.08Z"/><path class="cls-4" d="M100.72,60.41c-2.83,8.28-4.53,17-7,25.35a40.5,40.5,0,0,1-13.09,20.61s0,.09,0,.07a32.7,32.7,0,0,0,12-16.3,208.82,208.82,0,0,0,8.06-29.7,0,0,0,0,0-.09,0Z"/><path class="cls-4" d="M89.65,47.72c-4,7.47-5.49,16.18-7.1,24.43-1.66,8.5-3.11,17.3-2,26,0,.07.13.06.12,0A114.5,114.5,0,0,1,83,71.24c1.6-8.07,3.06-16,6.67-23.49a0,0,0,1,0,0,0Z"/><path class="cls-4" d="M130.2,58.67c.49-.32.36,1.72.35,2,0,.94-.05,1.88-.08,2.82l-.15,5.25a.15.15,0,0,0,.29,0c.14-3.48.37-7,.2-10.5a.07.07,0,0,0-.11,0l-.52.47s0,0,0,0Z"/><path class="cls-4" d="M130,58.64c-.3,3.16-.11,6.36-.43,9.54,0,.26.38.27.41,0a32.6,32.6,0,0,0,.09-9.56s-.07,0-.07,0Z"/><path class="cls-4" d="M182.31,58.74a18.63,18.63,0,0,0-.05,3.88c0,.32.4,3.65.47,3.63s0-.17,0-.17h-.09a.1.1,0,0,0-.11.08.57.57,0,0,0,0,.14.17.17,0,0,0,0,.15l.09.09a.2.2,0,0,0,.27,0c.6-.58.1-1.76,0-2.45-.2-1.78-.14-3.57-.29-5.35a.14.14,0,0,0-.27,0Z"/><path class="cls-4" d="M88,40a1.62,1.62,0,0,1-.3-1.39s0,0-.06,0a1.56,1.56,0,0,0,.3,1.45s.09,0,.06-.05Z"/><path class="cls-4" d="M88.09,40c-.1-.44-.19-.87-.27-1.3a.1.1,0,0,0-.17,0,12.25,12.25,0,0,0-1.8,7.3c0,.2.34.29.37.06.23-1.41.3-2.82.65-4.22a16.18,16.18,0,0,1,.63-2c.38-1,.31-.36.45.27a.07.07,0,0,0,.14,0Z"/><path class="cls-4" d="M87.12,38.54c-.79,2.22-1.52,5.14-1,7.49,0,.1.2.12.22,0,.17-1.07.11-2.17.22-3.25a29.62,29.62,0,0,1,.79-4.18.12.12,0,0,0-.23-.07Z"/><path class="cls-4" d="M87.25,39.31a67,67,0,0,0-.68,7.74c0,.16.26.22.29.05a69.85,69.85,0,0,0,.58-7.79c0-.12-.18-.12-.19,0Z"/><path class="cls-4" d="M87.94,39.3A17.91,17.91,0,0,0,87.32,46c0,.26.41.28.41,0a62.41,62.41,0,0,1,.42-6.69c0-.12-.18-.14-.21,0Z"/><path class="cls-4" d="M88.93,39.31a18.18,18.18,0,0,0-.85,7.81c0,.15.25.11.26,0a71.82,71.82,0,0,1,.72-7.74.07.07,0,0,0-.13,0Z"/><path class="cls-4" d="M90.06,39.71a71,71,0,0,0-1.13,8.08c0,.16.25.21.28.05a71.38,71.38,0,0,0,1-8.12c0-.06-.11-.08-.12,0Z"/><path class="cls-4" d="M91.56,40.46a29.2,29.2,0,0,0-1,7c0,.22.3.22.33,0a30,30,0,0,0,.64-7s0,0,0,0Z"/><path class="cls-4" d="M92.82,40.46A16.3,16.3,0,0,0,92,47.91c0,.13.22.09.23,0,.13-1.15.06-2.31.17-3.46.12-1.33.37-2.62.59-3.92a.06.06,0,0,0-.12,0Z"/><path class="cls-4" d="M94.33,40.51a21.76,21.76,0,0,0-1,8.84c0,.13.21.09.22,0,.34-2.93.47-5.82,1-8.75,0-.12-.15-.18-.18-.06Z"/><path class="cls-4" d="M130.45,49.75a24.55,24.55,0,0,0,.07,7.46c0,.19.37.16.35,0a48.38,48.38,0,0,1-.33-7.41,0,0,0,0,0-.09,0Z"/><path class="cls-4" d="M129.89,49a33.66,33.66,0,0,0,.34,7.1c0,.17.27.12.29,0a33.31,33.31,0,0,0-.29-7.05c0-.22-.34-.24-.34,0Z"/><path class="cls-4" d="M130.71,49.06c.11,2.35.36,4.71.62,7,0,.18.29.19.28,0-.2-2.36-.42-4.73-.76-7.08,0-.08-.15-.06-.14,0Z"/><path class="cls-4" d="M131.82,49.08a21.85,21.85,0,0,0,.47,9.21c0,.1.2.09.19,0a82.92,82.92,0,0,1-.45-9.19c0-.14-.2-.13-.21,0Z"/><path class="cls-4" d="M133.14,49.81a53.16,53.16,0,0,0-.14,8.46.11.11,0,0,0,.22,0,51.91,51.91,0,0,0,.22-8.46.15.15,0,0,0-.3,0Z"/><path class="cls-4" d="M134.94,49.85a15.9,15.9,0,0,0,.25,6.73.09.09,0,0,0,.18,0c0-2.25-.3-4.44-.15-6.7a.14.14,0,0,0-.28,0Z"/><path class="cls-4" d="M137.1,50.25a28.9,28.9,0,0,0,0,8.15c0,.11.18.08.18,0,.12-2.69,0-5.43,0-8.13,0-.12-.17-.12-.19,0Z"/><path class="cls-4" d="M190.18,57c-.75,1-1.58,2-2.28,3.06-.12.18.14.32.26.17.79-1,1.45-2.09,2.19-3.13.07-.1-.1-.2-.17-.1Z"/><path class="cls-4" d="M190.93,57.36c-.29.41-.58.83-.86,1.25a4.26,4.26,0,0,0-.68,1.16.08.08,0,0,0,.13.08,4.41,4.41,0,0,0,.73-1.12c.25-.45.5-.89.73-1.34a0,0,0,1,0,0,0Z"/><path class="cls-4" d="M192.36,57.74a4.76,4.76,0,0,0-1.84,2.45c0,.07.06.11.11.05.28-.39.46-.85.73-1.25a7.46,7.46,0,0,1,1.07-1.18s0-.1-.07-.07Z"/><path class="cls-4" d="M194.82,57.06a10.31,10.31,0,0,0-3.07,3.78c0,.08.09.16.15.09.47-.56.82-1.21,1.25-1.8a19.35,19.35,0,0,1,1.75-2,.06.06,0,1,0-.08-.09Z"/><path class="cls-4" d="M197.31,56.42c-.54.63-1.07,1.28-1.58,1.95a14.15,14.15,0,0,0-1.65,2.27.09.09,0,0,0,.14.11,12,12,0,0,0,1.58-2c.56-.75,1.11-1.5,1.62-2.28a.07.07,0,0,0-.11-.09Z"/><path class="cls-4" d="M199.73,56.1a24.87,24.87,0,0,0-3,4.52c0,.08.09.15.15.09a24.33,24.33,0,0,0,2.94-4.54c0-.07-.06-.13-.11-.07Z"/><path class="cls-4" d="M202.32,55.86a27.11,27.11,0,0,0-3.74,4.81.11.11,0,0,0,.17.13,26.89,26.89,0,0,0,3.7-4.83c.05-.08-.06-.18-.13-.11Z"/><path class="cls-4" d="M204.61,55.75a7.25,7.25,0,0,0-.76.61,10.3,10.3,0,0,0-.7.9,6.65,6.65,0,0,0-1.06,2.09.14.14,0,0,0,.25.11c.41-.59.69-1.28,1.1-1.88.18-.27.37-.53.57-.79s.43-.71.66-1a0,0,0,0,0-.06-.06Z"/><path class="cls-4" d="M207.48,54.78a15.26,15.26,0,0,0-4,5.28c0,.1.11.15.17.07.64-.81,1.12-1.75,1.74-2.59a33.12,33.12,0,0,1,2.22-2.65c.06-.07,0-.18-.11-.11Z"/><path class="cls-4" d="M210,54.57c-1.25,1.7-2.57,3.39-3.69,5.18-.1.15.13.28.23.14,1.31-1.65,2.47-3.46,3.65-5.2a.11.11,0,0,0-.19-.12Z"/><path class="cls-4" d="M212.76,54.21a58.76,58.76,0,0,0-5,6.63c0,.06.05.14.1.08a58.41,58.41,0,0,0,5-6.66s0-.11-.09,0Z"/><path class="cls-4" d="M216,53.94a23.39,23.39,0,0,0-4.82,7c0,.11.12.17.19.08.78-1.06,1.37-2.27,2.11-3.36s1.76-2.38,2.7-3.52c.1-.12-.06-.3-.18-.18Z"/><path class="cls-4" d="M218.76,53.64A32.42,32.42,0,0,0,215.18,60c-.07.16.2.28.29.13,1.17-2.13,2.26-4.28,3.49-6.38.08-.13-.11-.24-.2-.12Z"/><path class="cls-4" d="M220.33,54.12a37.4,37.4,0,0,0-3.17,6.56.07.07,0,0,0,.13.06,37.11,37.11,0,0,0,3.26-6.52c.06-.13-.15-.22-.22-.1Z"/><path class="cls-4" d="M222.67,54.11a39.27,39.27,0,0,0-3.95,7c-.05.11.11.16.17.08a40.33,40.33,0,0,0,4-7,.1.1,0,0,0-.18-.1Z"/><path class="cls-4" d="M224.65,55.14a48.47,48.47,0,0,0-3.85,6.36.09.09,0,0,0,.16.1,48.88,48.88,0,0,0,3.88-6.34.11.11,0,1,0-.19-.12Z"/><path class="cls-4" d="M225.5,56.31a28.71,28.71,0,0,0-2.24,4.2c0,.13.13.18.2.09a27.41,27.41,0,0,0,2.21-4.19c.05-.11-.11-.2-.17-.1Z"/><path class="cls-4" d="M228.38,43.71c.16,1.08.46,2.17.7,3.27s.35,2.37.65,3.52c0,.09.18.08.18,0a19.64,19.64,0,0,0-1.57-7c0-.07-.15,0-.13.06l.06.23c0,.07.12,0,.11,0Z"/><path class="cls-4" d="M226.06,44.06a29.05,29.05,0,0,0,1.71,7.44c0,.09.16,0,.15-.06-.34-2.46-1.13-5-1.65-7.43,0-.14-.23-.08-.21.05Z"/><path class="cls-4" d="M224.08,44.34a47.52,47.52,0,0,0,1.64,7.08c0,.1.2.1.19,0a47.27,47.27,0,0,0-1.61-7.12.11.11,0,0,0-.22.06Z"/><path class="cls-4" d="M154.27,133.82c-5,22.6-23.22,114.84-25.82,137.86-.08.71-6.64,47.59,1.11,0,3.72-22.89,21.14-114.92,25.21-137.73.06-.33-.43-.48-.5-.15Z"/><path class="cls-4" d="M154.63,134.53c1.36,11.56,4.4,23.21,6.87,34.59,2.53,11.68,26.3,111.43,30.3,122.7.21.57,1.13.35.93-.23-3.92-11.31-27.76-111-30.31-122.7-2.49-11.4-4.19-23.25-7.57-34.42,0-.14-.23-.08-.22.06Z"/><path class="cls-4" d="M227.45,51.11l0,.71a.37.37,0,0,0,.74,0v-.7a.36.36,0,0,0-.72,0Z"/><path class="cls-4" d="M226.39,51.77c2.85,10.87,3.77,22.34,5.26,33.47,1.62,12,3.16,24,4.52,36.06,1.21,10.67,2,21.41,3.3,32.07,1.47,11.65,15,90.93,13.93,102.77-.06.66,1,.68,1,0,1-10.76-11.79-88.74-13.39-99.26-1.8-11.82-2.45-23.84-3.79-35.73C236,109.78,234.5,98.4,233,87c-1.57-11.6-2-24.36-5.7-35.5-.18-.54-1-.35-.88.23Z"/><path class="cls-4" d="M213.63,62.54c7.36,6.76,7.49,14.91,10.12,23.86,2,6.75,5.18,13.87,10.06,19a.36.36,0,0,0,.57-.43c-4.88-8.06-8.93-15.35-10.95-24.71-1.64-7.56-3.54-12.88-9.53-18-.18-.15-.45.09-.27.26Z"/><path class="cls-4" d="M210.58,63.68c4.83,3,6.06,7.67,8.36,12.47.05.11.21,0,.19-.07-1.14-4.75-3.89-10.35-8.53-12.44a0,0,0,0,0,0,0Z"/><path class="cls-4" d="M219.09,79.85c2.54,4.78,3.06,10.28,5.31,15.19a42,42,0,0,0,8.5,12c.15.15.39-.08.24-.22A41.52,41.52,0,0,1,223.7,92.5c-1.64-4.22-2.21-8.76-4.47-12.73a.08.08,0,0,0-.14.08Z"/><path class="cls-4" d="M226,60.56c2.72,11.93,3.88,24.14,6,36.18,0,.05.08,0,.07,0-1.5-12-2.87-24.49-6-36.19,0-.06-.11,0-.1,0Z"/><path class="cls-4" d="M162.84,65.3c1.49,17-.43,33.43-.73,50.35,0,.2.3.2.32,0,1.92-16.39,2.84-34,.64-50.37,0-.13-.24-.11-.23,0Z"/><path class="cls-4" d="M156.26,65c2.23-.09,4.47-.15,6.7-.27.18,0,.19-.29,0-.29-2.24.06-4.47.18-6.71.28-.18,0-.19.29,0,.28Z"/><path class="cls-4" d="M125.64,71.88a38,38,0,0,1-.74,7.74.07.07,0,0,0,.14,0,16.79,16.79,0,0,0,.77-7.8c0-.09-.17-.07-.17,0Z"/><path class="cls-4" d="M126.4,71.54a53.94,53.94,0,0,0-.17,7.41.09.09,0,0,0,.18,0,55.49,55.49,0,0,0,.15-7.41.08.08,0,0,0-.16,0Z"/><path class="cls-4" d="M127.73,73.31a18.77,18.77,0,0,0-.39,6.38c0,.07.12,0,.12,0a51.8,51.8,0,0,1,.34-6.34s-.06-.07-.07,0Z"/><path class="cls-4" d="M128.5,73c-.06,1.4-.16,2.82-.09,4.23a.07.07,0,1,0,.13,0c.13-1.4.09-2.82.09-4.23a.07.07,0,1,0-.13,0Z"/><path class="cls-4" d="M133.3,73.13c.65,3.61,3.1,6.7,5.17,9.64a78,78,0,0,0,7.07,8.84c.06.06.15,0,.1-.1-2.38-2.92-4.79-5.77-7-8.85-2-2.89-4.53-6-5.18-9.58a.1.1,0,0,0-.19,0Z"/><path class="cls-4" d="M136.16,77.79a61.13,61.13,0,0,0,10.18,12c.07.06.17,0,.11-.1a149.71,149.71,0,0,1-10.27-12,0,0,0,1,0,0,0Z"/><path class="cls-4" d="M139.28,79.63A55.43,55.43,0,0,0,147.53,89c.13.11.31-.06.19-.18-2.9-3-5.63-6.09-8.34-9.29,0,0-.14,0-.1.08Z"/><path class="cls-4" d="M154.41,64.46a63.44,63.44,0,0,0,.9,10.65c0,.12.21.09.21,0a63.39,63.39,0,0,0-1.05-10.63,0,0,0,0,0-.06,0Z"/><path class="cls-4" d="M155.28,65.79c.11,3.17.08,6.39.34,9.55a.08.08,0,0,0,.16,0,47.89,47.89,0,0,0-.35-9.57c0-.09-.16-.07-.15,0Z"/><path class="cls-4" d="M155.13,66.33a101.21,101.21,0,0,1,.14,13.49c0,.1.14.1.15,0a50.93,50.93,0,0,0-.22-13.51s-.07,0-.07,0Z"/><path class="cls-4" d="M169.22,48.85a6.19,6.19,0,0,0-1.09,1.9,10.51,10.51,0,0,0-.89,2c0,.13.12.18.2.09a11.88,11.88,0,0,0,1.15-2.21,5.6,5.6,0,0,0,.67-1.8,0,0,0,0,0,0,0Z"/><path class="cls-4" d="M171.81,48a6.1,6.1,0,0,0-1.88,3.54c0,.09.14.14.18,0,.28-.55.41-1.16.69-1.72a9,9,0,0,1,1.14-1.74c.07-.08-.05-.21-.13-.13Z"/><path class="cls-4" d="M173.68,48.93l-.78,1.38a5.86,5.86,0,0,0-.61,1.26c0,.06.07.13.12.07a6,6,0,0,0,.69-1.21c.24-.47.47-1,.7-1.42,0-.08-.08-.16-.12-.08Z"/><path class="cls-4" d="M176.36,48.47a8.59,8.59,0,0,0-1.7,3.45c0,.08.12.12.16,0,.31-.55.48-1.17.75-1.74a15,15,0,0,1,1-1.65c.07-.1-.09-.2-.16-.1Z"/><path class="cls-4" d="M178.25,49.07a13.32,13.32,0,0,0-1.41,2.63c0,.1.11.14.17.07a13.33,13.33,0,0,0,1.37-2.62c0-.09-.08-.16-.13-.08Z"/><path class="cls-4" d="M140.87,48.59a6.54,6.54,0,0,0-.57,2.33c0,.07.1.11.13,0a6.38,6.38,0,0,0,.48-2.36s0,0,0,0Z"/><path class="cls-4" d="M143.31,48.56a2.33,2.33,0,0,0-.85,2.17.06.06,0,0,0,.12,0,3.19,3.19,0,0,1,.88-2c.1-.1-.05-.24-.15-.15Z"/><path class="cls-4" d="M145.16,49.17a5.71,5.71,0,0,0-.57,1.59c0,.07.09.09.12,0a5.6,5.6,0,0,0,.57-1.59c0-.08-.09-.11-.12,0Z"/><path class="cls-4" d="M147,48.94a3.51,3.51,0,0,0-.62,2.4c0,.08.11,0,.12,0a5.78,5.78,0,0,1,.64-2.3.08.08,0,0,0-.14-.09Z"/><path class="cls-4" d="M149.08,48.9a2,2,0,0,0-.54,2,.09.09,0,0,0,.17,0,3.07,3.07,0,0,1,.57-1.74c.12-.14-.07-.35-.2-.21Z"/><path class="cls-4" d="M184.5,71.09c-1.88,4-2.76,8.27-4.37,12.36-.85,2.16-2.35,4-3.41,6-1.37,2.69-2.1,5.22-4.44,7.33-.09.08,0,.22.14.14,3.21-2.9,5-7.82,7-11.57,2.36-4.33,3.27-9.66,5.13-14.27,0,0-.06-.08-.08,0Z"/><path class="cls-4" d="M180.79,84.63c-2,3.9-3.9,7.91-5.59,11.94a.1.1,0,0,0,.18.08c2-3.88,3.85-7.93,5.58-11.94,0-.11-.13-.18-.17-.08Z"/><path class="cls-4" d="M182.51,85a95.2,95.2,0,0,1-4.9,10.55.07.07,0,0,0,.11.07A34.05,34.05,0,0,0,182.53,85s0,0,0,0Z"/><path class="cls-4" d="M184.52,85.7c-1.19,3.25-2.68,6.3-4.12,9.43,0,.08.07.15.11.07a36.13,36.13,0,0,0,4.14-9.46c0-.08-.1-.12-.13,0Z"/><path class="cls-4" d="M208.64,66.65c-.14,1-1.09,2.2-1.6,3.14a28.45,28.45,0,0,0-1.58,3c0,.08.1.13.14.06a28.83,28.83,0,0,0,1.67-2.91c.27-.49.54-1,.8-1.47s.77-1.08.79-1.49c0-.21.13-.63-.27-.45,0,0,0,0,0,0s0,.07,0,.1a0,0,0,0,0,.08,0Z"/><path class="cls-4" d="M210.13,67.2a26.68,26.68,0,0,0-2.87,5.47s.06.08.08,0c1-1.77,1.85-3.68,2.86-5.46,0,0,0-.09-.07,0Z"/><path class="cls-4" d="M211.63,68.52a9.93,9.93,0,0,0-1.4,3.18c0,.08.1.16.15.07.54-1,.9-2.11,1.45-3.12.07-.13-.12-.26-.2-.13Z"/><path class="cls-4" d="M81.55,107.63c-.36,5-.74,10-1,15.05,0,0,.07,0,.08,0a106.61,106.61,0,0,0,1-15.05s-.07,0-.07,0Z"/><path class="cls-4" d="M154.3,130.7a2,2,0,0,1,1.3,1.79s.07.06.08,0a1.75,1.75,0,0,0-1.35-1.9c-.06,0-.09.08,0,.1Z"/></g></g></svg>