<svg id="Warstwa_3" data-name="Warstwa 3" xmlns="http://www.w3.org/2000/svg" viewBox="0 0 316 316"><defs><style>.cls-1{fill:#e5e5e5;}.cls-2{fill:#14213d;}</style></defs><g id="spodnica"><g id="spodnica-2" data-name="spodnica"><circle id="Ellipse_55" data-name="Ellipse 55" class="cls-1" cx="158" cy="158" r="158"/></g><path class="cls-2" d="M101,35a50.91,50.91,0,0,1-.27,9.64c-.44,2.85-1.56,5.49-2.11,8.3a.36.36,0,0,0,.66.28c3.1-4.89,3.54-12.76,2.43-18.31A.36.36,0,0,0,101,35Z"/><path class="cls-2" d="M101.26,36c18.14,4.57,37.38,5,56,5.36,18.18.4,37.44-.75,55-6a.74.74,0,0,0-.39-1.42c-18.33,2.75-36,5.8-54.58,5.41a398.67,398.67,0,0,1-55.64-4.59c-.81-.13-1.18,1.07-.35,1.28Z"/><path class="cls-2" d="M98.74,54c18.94,5.23,38.55,6,58.08,5.78,20-.24,39.91-1.07,59.41-5.86,1-.25.59-1.85-.43-1.6-19.34,4.59-39.19,5.29-59,5.54-19.47.25-38.75-.47-57.8-4.88a.53.53,0,0,0-.28,1Z"/><path class="cls-2" d="M211.7,37.25v-.57s0,0,0,0v.57s0,0,0,0Z"/><path class="cls-2" d="M211.88,34.31c-2.1,5.56,1.2,14,3.84,18.86.44.82,1.61.1,1.22-.73A42.77,42.77,0,0,1,213.6,43c-.61-2.88-.37-6-1.34-8.73a.2.2,0,0,0-.38,0Z"/><path class="cls-2" d="M98.86,52C90,61.25,86,73.57,83,85.89c-4.16,17.37-7.62,34.94-11.41,52.41Q60,191.52,48.47,244.74c-.23,1.08,1.4,1.54,1.64.46q10.81-49.93,21.65-99.87,5.35-24.7,10.75-49.41c3.38-15.48,7-30.52,17.44-42.83.64-.76-.39-1.85-1.09-1.11Z"/><path class="cls-2" d="M48.79,246c16.83,10.56,38,11.77,57.28,11.88a1,1,0,0,0,0-2C86,255.59,67.8,253.39,49.35,245a.56.56,0,0,0-.56,1Z"/><path class="cls-2" d="M129.46,64.66c-11.38,63.62-18.56,128.45-24.2,192.83-.09,1.06,1.53,1.05,1.63,0,6.08-64.34,13.28-128.77,23.46-192.58.09-.58-.79-.84-.89-.25Z"/><path class="cls-2" d="M215.87,53.52c10.06,11.86,13.8,26.25,17.09,41.19q5.61,25.52,11.11,51.05,10.83,49.94,21.65,99.87c.23,1.09,1.87.63,1.63-.45Q255.78,192,244.23,138.73c-3.69-17-7.14-34.12-11.1-51.09-3-12.75-7-25.62-16.16-35.23-.7-.73-1.74.35-1.1,1.11Z"/><path class="cls-2" d="M180.36,65.78c10.17,63.81,17.37,128.24,23.45,192.58.1,1.05,1.72,1.06,1.63,0C199.8,194,192.62,129.15,181.24,65.53c-.1-.59-1-.34-.88.25Z"/><path class="cls-2" d="M130.45,65.41c-6.1,64.31-7.93,129.47-8.26,194.06a.81.81,0,0,0,1.62,0c.78-64.69,2.66-129.55,7.56-194.06,0-.6-.86-.59-.92,0Z"/><path class="cls-2" d="M180.18,65.85c4.9,64.5,6.79,129.37,7.56,194a.82.82,0,0,0,1.63,0c-.33-64.59-2.17-129.75-8.27-194,0-.59-1-.61-.92,0Z"/><path class="cls-2" d="M122.12,260.4c21.14,7.81,44.91,6.93,66.24.48,1.06-.32.61-2-.46-1.69-22.05,6.8-43.35,5.77-65.49.14a.55.55,0,0,0-.29,1.07Z"/><path class="cls-2" d="M205.29,259.2c20,5.47,45.66,1,62-12.09.85-.68-.34-1.86-1.18-1.2A61.11,61.11,0,0,1,237,258.17c-10.64,1.63-21.11-.07-31.69.8a.12.12,0,0,0,0,.23Z"/><path class="cls-2" d="M106.37,253.48c5,2.85,10.68,3,16.18,1.6a.79.79,0,0,0-.41-1.52c-5.24,1.26-10.38.67-15.56-.59a.28.28,0,0,0-.21.51Z"/><path class="cls-2" d="M189.09,252.35a17.48,17.48,0,0,0,15.55-1.49.7.7,0,0,0-.7-1.2c-4.76,2.27-9.4,3-14.54,1.54-.74-.21-1,.9-.31,1.15Z"/><path class="cls-2" d="M99.62,55.3c-9.39,13.25-13,27.61-16.08,43.41C80,116.78,75,134.53,71.34,152.57a.13.13,0,1,0,.25.07C76.8,136.26,80,119,83.44,102.15s6.65-32.37,16.67-46.55c.22-.31-.28-.6-.49-.3Z"/><path class="cls-2" d="M71.35,155.57c-8,29-11,59.23-18.33,88.43a.33.33,0,0,0,.63.18c7.63-29,12.55-59,18.05-88.51a.18.18,0,0,0-.35-.1Z"/><path class="cls-2" d="M102.54,38.69c35.32,7.3,72,8,107.38.38.4-.09.23-.69-.17-.62C174,45,138.37,45.39,102.72,38c-.42-.09-.61.58-.18.67Z"/><path class="cls-2" d="M101.26,51.88c36.34,5,74.5,5.7,110.79-.2.27,0,.21-.53-.07-.5-37.19,3.75-73.45,4.6-110.66.22-.27,0-.33.45-.06.48Z"/><path class="cls-2" d="M129.54,85c-.51.64-1,1.27-1.57,1.86a16.18,16.18,0,0,0-1.54,1.56c-.09.12.08.24.19.19a9,9,0,0,0,3.13-3.44c.07-.13-.11-.29-.21-.17Z"/><path class="cls-2" d="M128.69,89c-.42.54-.83,1.07-1.23,1.61a10.31,10.31,0,0,0-1.33,1.9.1.1,0,0,0,.15.12,18.25,18.25,0,0,0,2.63-3.46c.09-.12-.12-.29-.22-.17Z"/><path class="cls-2" d="M129.12,91.13c-.62.75-1.19,1.56-1.74,2.37a16.63,16.63,0,0,0-1.8,2.77c0,.13.09.27.2.16A14.82,14.82,0,0,0,127.5,94c.61-.91,1.22-1.82,1.75-2.79.05-.08-.07-.18-.13-.1Z"/><path class="cls-2" d="M128.87,95.18c-1.76,2.33-4,4.78-5.19,7.46-.06.14.1.29.21.17,2.06-2.09,3.55-5.07,5.09-7.57,0-.07-.06-.12-.11-.06Z"/><path class="cls-2" d="M128.24,100.21a13.75,13.75,0,0,1-1.88,3,24.85,24.85,0,0,0-2.12,2.11.16.16,0,0,0,.18.24,5.82,5.82,0,0,0,2.5-2.22,10.11,10.11,0,0,0,1.6-3c.06-.17-.2-.29-.28-.13Z"/><path class="cls-2" d="M128.31,104.62q-1.82,1.81-3.56,3.71a29,29,0,0,0-3.08,3.48c-.09.13.09.23.2.15a33,33,0,0,0,3.36-3.53q1.65-1.8,3.22-3.67c.08-.09,0-.23-.14-.14Z"/><path class="cls-2" d="M127.49,109.85a23.55,23.55,0,0,0-2.71,2.76,13.69,13.69,0,0,0-2.24,2.69c-.07.13.07.3.2.21a14.79,14.79,0,0,0,2.57-2.67,23,23,0,0,0,2.33-2.87c.06-.1-.07-.18-.15-.12Z"/><path class="cls-2" d="M127.7,113.53a41.67,41.67,0,0,0-5.69,6c-.17.22.2.51.38.3,1.79-2.1,3.54-4.21,5.44-6.2a.1.1,0,0,0-.13-.14Z"/><path class="cls-2" d="M126.58,118.45a22.08,22.08,0,0,0-3.19,2.77,9.89,9.89,0,0,0-2.32,3.1c0,.15.13.21.23.14a29.16,29.16,0,0,0,2.59-3,32.39,32.39,0,0,1,2.87-2.75c.13-.12,0-.34-.18-.24Z"/><path class="cls-2" d="M125.56,122.21c-.88.93-1.75,1.87-2.66,2.76a15,15,0,0,0-2.49,2.49c-.11.18.11.33.27.26a9.92,9.92,0,0,0,2.76-2.46,29.33,29.33,0,0,0,2.38-2.84c.12-.16-.13-.34-.26-.21Z"/><path class="cls-2" d="M126.49,126.55a23.92,23.92,0,0,0-5.78,6,.25.25,0,0,0,.39.31c1-.92,1.85-2.05,2.77-3s1.92-2,2.86-3c.14-.15-.06-.45-.24-.31Z"/><path class="cls-2" d="M127,129.28c-1.41,1.38-2.83,2.76-4.22,4.18a28.18,28.18,0,0,0-3.63,3.94c-.1.15.09.35.23.25a28.35,28.35,0,0,0,3.79-3.8c1.35-1.45,2.67-2.93,4-4.41a.11.11,0,1,0-.16-.16Z"/><path class="cls-2" d="M126.34,133.84c-3.41,3.34-7.32,6.7-10.17,10.55-.14.2.15.37.31.24,3.7-3,6.89-7,10.07-10.58.13-.14-.07-.35-.21-.21Z"/><path class="cls-2" d="M125.55,139.53c.07.39-1.25,1.24-1.49,1.46l-2.14,2a22.64,22.64,0,0,0-3.77,3.81c-.09.14.08.29.22.22,1.73-1,3.19-2.81,4.63-4.19.78-.75,1.58-1.48,2.33-2.26a1.39,1.39,0,0,0,.58-1.2.1.1,0,0,0-.08-.1c-.23-.07-.18-.08-.39.07a.06.06,0,0,0,0,.07l0,.13c0,.07.11,0,.1,0Z"/><path class="cls-2" d="M125.17,144.3a27.37,27.37,0,0,0-7.64,7.93c-.07.12.09.25.18.15a96.14,96.14,0,0,1,7.6-7.9c.09-.09,0-.26-.14-.18Z"/><path class="cls-2" d="M116.32,153.13a.43.43,0,0,0,0-.86.43.43,0,0,0,0,.86Z"/><path class="cls-2" d="M125.28,148.34c-3.06,2.29-6.64,4.84-8.75,8.11-.1.15.11.27.23.18,1.53-1.22,2.83-2.8,4.24-4.16s2.89-2.7,4.41-4c.1-.07,0-.25-.13-.17Z"/><path class="cls-2" d="M124,153.94a30.65,30.65,0,0,0-7.88,8.6.13.13,0,0,0,.21.16c1.34-1.39,2.47-3,3.77-4.4s2.72-2.74,4.09-4.11c.12-.12-.05-.36-.19-.25Z"/><path class="cls-2" d="M123.57,158.76c-1.53,1.48-3,3-4.52,4.52s-3.23,2.82-4.59,4.44c-.09.11,0,.3.16.21a31.76,31.76,0,0,0,4.55-4.05A62.94,62.94,0,0,0,123.8,159c.13-.16-.08-.38-.23-.23Z"/><path class="cls-2" d="M124.24,162.45c-1.79,1.23-3.23,3.08-4.82,4.57-1.75,1.64-4,3.07-5.45,4.95a.16.16,0,0,0,.2.25c2-1,3.81-2.92,5.43-4.49s3.59-3.24,4.66-5.26c0,0,0,0,0,0Z"/><path class="cls-2" d="M124.71,166.8a49.18,49.18,0,0,0-5.52,5.09c-1.69,1.76-3.68,3.59-4.85,5.77a.17.17,0,0,0,.27.21c1.9-1.53,3.41-3.69,5.09-5.46s3.5-3.55,5.19-5.38c.1-.12,0-.34-.18-.23Z"/><path class="cls-2" d="M123.51,172.14a108.36,108.36,0,0,0-10.63,11.32.11.11,0,0,0,.16.15,109.24,109.24,0,0,0,10.74-11.19c.17-.19-.09-.46-.27-.28Z"/><path class="cls-2" d="M124.81,175.19c-2.23,2.08-4.35,4.29-6.49,6.46a65.2,65.2,0,0,0-5.66,6c-.14.18.13.34.28.22a68.2,68.2,0,0,0,6.13-6.13c2-2.09,4-4.15,5.94-6.32a.15.15,0,0,0-.2-.21Z"/><path class="cls-2" d="M125.24,179.53c-4.13,4.17-8.78,8.48-12.18,13.29-.14.19.14.37.3.24,4.44-3.8,8.31-8.85,12.07-13.34a.13.13,0,0,0-.19-.19Z"/><path class="cls-2" d="M123.39,186.26a36.91,36.91,0,0,0-6,5.25,64.47,64.47,0,0,0-5.9,6.57c-.13.16.08.39.22.23,1.92-2,3.83-4.07,5.78-6.07s4.21-3.73,6-5.84c.06-.07,0-.19-.1-.14Z"/><path class="cls-2" d="M123.59,190.43c-4.26,3.81-9.08,7.95-12.34,12.7-.11.16.12.3.25.19a83.77,83.77,0,0,0,6.11-6.38c2-2.13,4.08-4.25,6.11-6.37a.1.1,0,0,0-.13-.14Z"/><path class="cls-2" d="M123.1,195.13c-3.89,3.93-8.1,7.78-11.53,12.14a.12.12,0,0,0,.17.17c4.17-3.63,7.8-8.05,11.53-12.14.1-.11-.06-.28-.17-.17Z"/><path class="cls-2" d="M123.05,199.85c-2.42,2.1-4.68,4.4-7,6.63a58.07,58.07,0,0,0-6,6.2c-.09.13.1.32.23.23a57,57,0,0,0,6.3-5.94c2.27-2.26,4.61-4.48,6.75-6.87a.17.17,0,0,0-.24-.25Z"/><path class="cls-2" d="M123.76,204.05c-2.71,1.55-5,4.18-7.21,6.34a61,61,0,0,0-6.65,7c-.18.24.19.47.39.3,2.53-2.17,4.74-4.79,7.11-7.15,2.1-2.1,4.65-4,6.38-6.45,0,0,0,0,0,0Z"/><path class="cls-2" d="M122.72,209.48c-2.57,2.26-4.93,4.78-7.33,7.21a55.2,55.2,0,0,0-6.29,6.77c-.08.11.08.27.19.19a62.89,62.89,0,0,0,6.54-6.52c2.37-2.46,4.86-4.84,7.11-7.42a.16.16,0,0,0-.22-.23Z"/><path class="cls-2" d="M120.76,214.83c-2.26,2.47-4.51,5-6.81,7.39s-4.87,4.66-7,7.25c-.12.14,0,.4.2.27,5.18-4,9.68-9.65,13.72-14.77.07-.1-.05-.23-.14-.14Z"/><path class="cls-2" d="M123.06,218.5a54.25,54.25,0,0,0-12.57,14.22c-.12.23.19.5.37.29,4.14-4.84,8-9.7,12.45-14.26.16-.16-.08-.39-.25-.25Z"/><path class="cls-2" d="M122.55,223.56a72.7,72.7,0,0,0-8.06,7.93c-2.54,2.72-5.35,5.46-7.34,8.63a.14.14,0,0,0,.22.18c2.74-2.52,5-5.62,7.57-8.36s5.37-5.29,7.77-8.17c.09-.1,0-.31-.16-.21Z"/><path class="cls-2" d="M122.47,227.39c-3.08,3.23-5.91,6.72-8.86,10.07a107.12,107.12,0,0,0-7.79,9.12c-.11.16.12.31.25.2,3.33-2.91,6.14-6.57,9-9.92,2.61-3,5.28-6,7.67-9.24.12-.17-.15-.38-.3-.23Z"/><path class="cls-2" d="M121.88,232.87a209.27,209.27,0,0,0-14.83,18c-.17.23.18.48.37.3a113.28,113.28,0,0,0,14.79-18.06c.14-.2-.17-.44-.33-.26Z"/><path class="cls-2" d="M122.21,238c-4.24,5.07-8.87,9.85-13,14.95a.28.28,0,0,0,.39.4c4.93-4.17,9.29-9.78,13-15.12.12-.18-.16-.4-.3-.23Z"/><path class="cls-2" d="M121.28,244.5c-1.37,2.08-2.84,4.09-4.37,6.05a51.58,51.58,0,0,0-3.83,4.69c-.07.12.08.29.2.2a24,24,0,0,0,4.46-5.11,60.28,60.28,0,0,0,3.74-5.71.12.12,0,0,0-.2-.12Z"/><path class="cls-2" d="M121.31,250.6a22.88,22.88,0,0,0-2.11,3c0,.1.08.22.17.13a22.77,22.77,0,0,0,2.26-3c.14-.19-.17-.37-.32-.18Z"/><path class="cls-2" d="M184.5,89.71A18.22,18.22,0,0,0,182.69,92c-.23.32.29.61.51.31a18,18,0,0,0,1.58-2.39.18.18,0,0,0-.28-.23Z"/><path class="cls-2" d="M185.05,92.3c-.81,1-1.93,2.27-2.07,3.58a.14.14,0,0,0,.24.1,9.17,9.17,0,0,0,.87-1.53,14.37,14.37,0,0,1,1.26-1.85c.17-.21-.12-.51-.3-.3Z"/><path class="cls-2" d="M185.45,96.41a7.66,7.66,0,0,0-1.83,1.72,3.94,3.94,0,0,0-1,2.07.17.17,0,0,0,.29.12A11,11,0,0,0,184,98.54a10.9,10.9,0,0,1,1.64-1.88c.13-.12,0-.35-.18-.25Z"/><path class="cls-2" d="M185.35,100.16a14.87,14.87,0,0,1-1,2,9.6,9.6,0,0,0-1.06,1.72.19.19,0,0,0,.27.22,4.24,4.24,0,0,0,1.27-1.65,12.13,12.13,0,0,0,.93-2.16c.07-.22-.28-.38-.38-.16Z"/><path class="cls-2" d="M187.07,103.3a19.1,19.1,0,0,0-2.58,3.51.15.15,0,0,0,.23.18,19.23,19.23,0,0,0,2.68-3.44c.14-.19-.19-.44-.33-.25Z"/><path class="cls-2" d="M187.31,108.14c-1.27.79-2.22,2.44-3.14,3.61-.33.43-1.32,1.37-.67,2a.26.26,0,0,0,.3,0l.1-.07a.14.14,0,0,0,0-.22c-.29-.35,1.82-2.74,2.08-3.07a7.59,7.59,0,0,0,1.38-2.18.05.05,0,0,0-.08-.06Z"/><path class="cls-2" d="M187.4,112c-.67.8-1.27,1.67-1.88,2.53a13,13,0,0,0-1.71,2.64c-.06.15.15.24.26.15a12.55,12.55,0,0,0,1.75-2.39c.62-.9,1.26-1.81,1.8-2.77.07-.13-.11-.29-.22-.16Z"/><path class="cls-2" d="M187.42,115.79c-1.22,1.21-2.86,2.87-3.32,4.59a.13.13,0,0,0,.22.13,18.76,18.76,0,0,0,1.47-2.06,23,23,0,0,1,1.93-2.35c.2-.2-.1-.51-.3-.31Z"/><path class="cls-2" d="M188.07,118.72a22.71,22.71,0,0,1-1.41,2.73,24.87,24.87,0,0,0-1.89,2.4c-.05.1,0,.26.16.21.87-.3,1.52-1.31,2-2.06a8.07,8.07,0,0,0,1.34-3.18c0-.13-.15-.24-.22-.1Z"/><path class="cls-2" d="M189.19,122.51q-1,1.5-1.95,3a24.77,24.77,0,0,0-2,3,.13.13,0,0,0,.21.16c1.64-1.59,2.81-4,3.94-5.95a.14.14,0,0,0-.25-.14Z"/><path class="cls-2" d="M189.84,126.72c-.77,1.31-1.57,2.6-2.44,3.84s-1.91,2.36-2.7,3.64c-.11.18.13.33.27.21,2.23-1.86,3.91-4.93,5.17-7.51.1-.2-.19-.38-.3-.18Z"/><path class="cls-2" d="M190.17,131.66c-.74,1.09-1.37,2.25-2.09,3.35s-1.57,2.12-2.28,3.23a.26.26,0,0,0,.41.32,22.81,22.81,0,0,0,4.32-6.75c.09-.22-.24-.33-.36-.15Z"/><path class="cls-2" d="M192.06,135.79a33.22,33.22,0,0,0-2.86,3.6,18.9,18.9,0,0,0-2.6,3.77c-.07.19.18.28.3.18a17.75,17.75,0,0,0,2.66-3.41,34.37,34.37,0,0,0,2.7-4c.07-.13-.1-.27-.2-.16Z"/><path class="cls-2" d="M192.05,140.45c-2.15,2.92-4.72,6-6.3,9.3-.06.13.09.27.2.16,2.47-2.69,4.4-6.22,6.34-9.32.1-.16-.13-.29-.24-.14Z"/><path class="cls-2" d="M191.9,145.41a27.26,27.26,0,0,0-2.78,4,43.08,43.08,0,0,0-3.06,4.43.15.15,0,0,0,.23.18,19.92,19.92,0,0,0,3.19-4,17.16,17.16,0,0,0,2.53-4.46.06.06,0,0,0-.11-.06Z"/><path class="cls-2" d="M193.7,149.9c-2.41,2.79-5.17,6.3-6.41,9.82-.06.14.16.28.26.15a52.49,52.49,0,0,0,3-4.66c1.12-1.73,2.31-3.39,3.46-5.09a.18.18,0,0,0-.28-.22Z"/><path class="cls-2" d="M194,155.14c-2.62,3.28-5.48,6.78-7.37,10.55-.07.14.12.32.23.18,2.65-3.33,4.86-7.1,7.37-10.55.09-.13-.12-.31-.23-.18Z"/><path class="cls-2" d="M193.69,161.16a90.48,90.48,0,0,0-6.73,9.45c-.11.17.14.38.28.22a91.46,91.46,0,0,0,6.67-9.5c.09-.13-.12-.3-.22-.17Z"/><path class="cls-2" d="M194.55,164.63c-2.87,3.75-6.29,7.55-8.47,11.74a.17.17,0,0,0,.27.21c3.25-3.4,5.77-7.88,8.39-11.79.08-.12-.11-.27-.19-.16Z"/><path class="cls-2" d="M195.71,169.28a52.75,52.75,0,0,0-9,14.1c-.13.29.29.55.43.25a83.24,83.24,0,0,1,8.73-14.15c.11-.14-.08-.34-.2-.2Z"/><path class="cls-2" d="M195.13,175.35c-3.14,3.65-6.56,7.84-8.47,12.31a.14.14,0,0,0,.24.15c3-3.95,5.43-8.35,8.4-12.33.07-.1-.09-.23-.17-.13Z"/><path class="cls-2" d="M196,181.08a43.26,43.26,0,0,1-4.59,6.71,10.88,10.88,0,0,0-2.54,5,.17.17,0,0,0,.31.09,33.82,33.82,0,0,1,4-6.57,15.1,15.1,0,0,0,3-5.18c0-.12-.14-.2-.2-.09Z"/><path class="cls-2" d="M196.65,187.25c-1.4,1.71-2.64,3.58-3.91,5.4a52.72,52.72,0,0,0-4.17,6.22c-.09.18.14.38.29.22a46.39,46.39,0,0,0,3.88-5.42c1.41-2.06,2.89-4.09,4.13-6.25.08-.13-.11-.3-.22-.17Z"/><path class="cls-2" d="M198.29,192.11c-1.75,2.07-3.35,4.28-5,6.44a62.52,62.52,0,0,0-5.37,7.4.16.16,0,0,0,.26.2,54.9,54.9,0,0,0,5-6.42c1.82-2.45,3.7-4.86,5.39-7.39.12-.18-.16-.4-.29-.23Z"/><path class="cls-2" d="M198.66,196.23c-4.06,4.66-8.52,9.81-11.59,15.21a.15.15,0,0,0,.24.18c4.36-4.37,8.16-10.06,11.57-15.21.09-.14-.11-.3-.22-.18Z"/><path class="cls-2" d="M198.89,203.17a52.23,52.23,0,0,0-11,15.47.19.19,0,0,0,.34.19c1.88-2.53,3.43-5.32,5.26-7.9s3.88-5,5.64-7.58c.1-.14-.11-.29-.23-.18Z"/><path class="cls-2" d="M200,208.85a88,88,0,0,0-12.14,15.81c-.11.17.15.39.29.22,4.22-5,8.26-10.49,12-15.89.07-.1-.09-.22-.17-.14Z"/><path class="cls-2" d="M200.55,214.64A102.82,102.82,0,0,0,189,230.18a.16.16,0,0,0,.25.19,102.21,102.21,0,0,0,11.53-15.54c.1-.15-.12-.32-.23-.19Z"/><path class="cls-2" d="M200.84,220.16c-4.89,5-10.07,11-13.16,17.31-.07.15.13.34.25.19,4.55-5.6,8.54-11.67,13.15-17.27a.17.17,0,0,0-.24-.23Z"/><path class="cls-2" d="M201.6,224.12c-4.38,4.14-9.26,9.58-12,15.06-.1.21.17.45.34.26,2.29-2.44,4.1-5.42,6.15-8.08,1.86-2.4,3.78-4.73,5.56-7.19,0,0,0-.08-.07,0Z"/><path class="cls-2" d="M201.31,231.62c-4.53,5.36-9.53,11-13.16,17a.19.19,0,0,0,.3.24c4.88-5,9.13-11.33,13.14-17.07a.18.18,0,0,0-.28-.22Z"/><path class="cls-2" d="M202.21,236c-2.12,2.41-4.12,4.91-6.13,7.4a57.59,57.59,0,0,0-5.27,6.81.15.15,0,0,0,.24.19,65.92,65.92,0,0,0,6.18-7.34c1.8-2.24,3.61-4.48,5.33-6.78.15-.21-.18-.47-.35-.28Z"/><path class="cls-2" d="M202.64,239.13c-2.93,4.59-6.63,8.49-9.76,12.9-.12.18.14.33.28.21,4.07-3.28,7.24-8.4,9.83-12.91a.2.2,0,0,0-.35-.2Z"/><path class="cls-2" d="M203.63,242.92c-1.44,1.66-2.87,3.33-4.27,5a28.78,28.78,0,0,0-3.62,4.71.18.18,0,0,0,.29.22,30.11,30.11,0,0,0,4-4.73q1.94-2.44,3.82-4.94c.15-.19-.1-.46-.26-.27Z"/><path class="cls-2" d="M202.5,247.84a32,32,0,0,0-3.12,4.11c-.07.12.09.24.2.15a32.43,32.43,0,0,0,3.19-4c.15-.19-.12-.46-.27-.27Z"/><path class="cls-2" d="M214.44,55.57c5.3,8,10.23,14.94,13,24.35s5,19.14,7.81,28.63a.25.25,0,0,0,.49-.14c-4.4-18.75-8.25-38.17-21.1-53-.09-.1-.27,0-.19.16Z"/><path class="cls-2" d="M235.46,111.86C243,156,252.91,200,262,243.82c.07.32.55.19.49-.13-8.64-43.95-16.53-88.31-26.71-131.91,0-.2-.33-.12-.3.08Z"/><path class="cls-2" d="M54.68,245.21c15.78,5.83,30.9,8.33,47.54,9.74.51,0,.51-.77,0-.81a230.05,230.05,0,0,1-47.42-9.37c-.28-.08-.38.34-.12.44Z"/><path class="cls-2" d="M125.64,258.25c10.19.93,19.8,3.59,30.14,3.63a121.78,121.78,0,0,0,27.62-3.23c.52-.11.3-.92-.21-.8a122.33,122.33,0,0,1-30.5,3.16c-9-.26-18.12-3.35-27-3a.1.1,0,0,0,0,.2Z"/><path class="cls-2" d="M205.62,256.71c5.53-1.51,12.44.1,18.15,0a130.4,130.4,0,0,0,16.74-1.34c7.88-1.18,15.1-3.42,21.52-8.32.41-.32,0-1-.41-.71-9.13,6.93-20.43,8.55-31.54,9.32a143.58,143.58,0,0,1-15.8.2c-3.39-.14-5.8-.81-8.75.64a.13.13,0,0,0,.09.23Z"/><path class="cls-2" d="M132.35,65.57c-.91,10.39-1.49,20.79-1.64,31.22a.28.28,0,0,0,.56,0c.2-10.42.64-20.82,1.4-31.22,0-.21-.31-.2-.32,0Z"/><path class="cls-2" d="M131.69,99.38a646.19,646.19,0,0,0-.72,66.75.29.29,0,1,0,.57,0c.28-22.2.72-44.55.4-66.75a.13.13,0,0,0-.25,0Z"/><path class="cls-2" d="M130.2,170.9c-.59,28.45-.3,56.95-.39,85.4a.23.23,0,0,0,.46,0c1.16-28.37.92-57,.3-85.4a.19.19,0,0,0-.37,0Z"/><path class="cls-2" d="M177.79,65.56c.51,10,1.08,20,1.78,29.92,0,.47.74.47.71,0-.55-10-1.22-20-1.95-29.92,0-.35-.56-.36-.54,0Z"/><path class="cls-2" d="M180.29,100.25c-.69,22.89-.14,46.06.91,68.93a.3.3,0,0,0,.6,0c-.29-23-.43-46-1.15-68.93a.18.18,0,0,0-.36,0Z"/><path class="cls-2" d="M181.63,174c.61,25.85,2.44,51.7,2.63,77.57a.11.11,0,0,0,.22,0c-.49-25.85-.37-51.78-2.45-77.57,0-.26-.41-.27-.4,0Z"/></g></svg>