<svg id="Warstwa_3" data-name="Warstwa 3" xmlns="http://www.w3.org/2000/svg" viewBox="0 0 316 316"><defs><style>.cls-1{fill:#e5e5e5;}.cls-2{fill:#14213d;}</style></defs><g id="single_jersey" data-name="single jersey"><circle id="Ellipse_55" data-name="Ellipse 55" class="cls-1" cx="158" cy="158" r="158"/><path class="cls-2" d="M199.39,126.22a19.14,19.14,0,0,1-.11,3.63c-.17,1.08-.6,2.07-.81,3.13a.14.14,0,0,0,.26.11,10.26,10.26,0,0,0,.93-6.91.14.14,0,0,0-.27,0Z"/><path class="cls-2" d="M199.48,126.62c7,1.72,14.31,1.87,21.44,2,7,.15,14.33-.29,21.05-2.28a.28.28,0,0,0-.15-.54c-7,1-13.77,2.19-20.9,2a154.88,154.88,0,0,1-21.3-1.73c-.31,0-.46.4-.14.48Z"/><path class="cls-2" d="M198.52,133.39c7.25,2,14.76,2.26,22.24,2.18,7.65-.09,15.28-.41,22.74-2.21.4-.1.23-.7-.17-.61-7.4,1.73-15,2-22.57,2.09s-14.84-.18-22.14-1.84a.2.2,0,0,0-.1.39Z"/><path class="cls-2" d="M241.77,127.08v-.22s0,0,0,0v.22s0,0,0,0Z"/><path class="cls-2" d="M241.83,126c-.8,2.1.46,5.26,1.47,7.11.17.31.62,0,.47-.27a16.54,16.54,0,0,1-1.28-3.55A25.6,25.6,0,0,0,242,126a.08.08,0,0,0-.15,0Z"/><path class="cls-2" d="M198.56,132.63c-3.39,3.5-4.94,8.15-6.07,12.79-1.59,6.55-2.92,13.18-4.37,19.77l-8.85,40.15c-.09.4.54.58.63.17q4.14-18.84,8.29-37.67l4.11-18.63c1.3-5.84,2.68-11.52,6.68-16.16.25-.28-.15-.69-.42-.42Z"/><path class="cls-2" d="M179.39,205.8c6.45,4,14.55,4.44,21.93,4.48a.38.38,0,0,0,0-.76c-7.69-.1-14.65-.92-21.71-4.09a.22.22,0,0,0-.22.37Z"/><path class="cls-2" d="M210.28,137.42c-4.36,24-7.11,48.44-9.27,72.72,0,.4.59.4.63,0,2.32-24.26,5.08-48.56,9-72.63,0-.22-.3-.32-.34-.09Z"/><path class="cls-2" d="M243.37,133.22c3.85,4.47,5.28,9.89,6.54,15.53,1.43,6.41,2.83,12.84,4.25,19.25q4.16,18.84,8.29,37.67c.09.41.72.24.63-.17q-4.44-20.07-8.86-40.15c-1.41-6.42-2.73-12.87-4.25-19.27-1.14-4.81-2.67-9.66-6.19-13.28-.26-.28-.66.13-.41.42Z"/><path class="cls-2" d="M229.77,137.84c3.89,24.06,6.65,48.36,9,72.63,0,.4.66.4.62,0-2.16-24.28-4.91-48.73-9.26-72.73,0-.22-.38-.12-.34.1Z"/><path class="cls-2" d="M210.66,137.7c-2.34,24.25-3,48.83-3.17,73.19a.32.32,0,0,0,.63,0c.29-24.4,1-48.86,2.89-73.19,0-.23-.33-.22-.35,0Z"/><path class="cls-2" d="M229.7,137.86c1.87,24.33,2.6,48.8,2.89,73.19a.32.32,0,0,0,.63,0c-.13-24.36-.83-48.93-3.17-73.19,0-.22-.37-.22-.35,0Z"/><path class="cls-2" d="M207.47,211.24c8.09,2.94,17.19,2.61,25.36.18.41-.12.23-.76-.17-.64-8.45,2.57-16.6,2.18-25.08.05a.21.21,0,0,0-.11.41Z"/><path class="cls-2" d="M239.31,210.79c7.65,2.06,17.49.37,23.73-4.56.32-.26-.13-.7-.45-.46a23.58,23.58,0,0,1-11.13,4.63c-4.08.61-8.09,0-12.14.3a0,0,0,0,0,0,.09Z"/><path class="cls-2" d="M201.44,208.63a8.31,8.31,0,0,0,6.19.6.3.3,0,0,0-.16-.57,12.62,12.62,0,0,1-5.95-.22.1.1,0,0,0-.08.19Z"/><path class="cls-2" d="M233.11,208.21a6.79,6.79,0,0,0,5.95-.57.26.26,0,0,0-.26-.45,7.64,7.64,0,0,1-5.57.58c-.28-.08-.39.34-.12.44Z"/><path class="cls-2" d="M198.85,133.89c-3.59,5-5,10.41-6.15,16.37-1.37,6.81-3.28,13.51-4.68,20.31a.05.05,0,0,0,.1,0,179.45,179.45,0,0,0,4.54-19c1.3-6.32,2.55-12.2,6.38-17.55.08-.12-.11-.23-.19-.11Z"/><path class="cls-2" d="M188,171.7c-3.06,11-4.2,22.34-7,33.35,0,.16.2.23.24.07,2.92-11,4.81-22.25,6.91-33.38a.07.07,0,0,0-.13,0Z"/><path class="cls-2" d="M200,127.62a101.34,101.34,0,0,0,41.12.15c.15,0,.08-.27-.07-.24a107.61,107.61,0,0,1-41-.16c-.16,0-.23.22-.07.25Z"/><path class="cls-2" d="M199.48,132.6a146.71,146.71,0,0,0,42.42-.08c.11,0,.08-.2,0-.19a194.77,194.77,0,0,1-42.36.08c-.11,0-.13.17,0,.19Z"/><path class="cls-2" d="M210.31,145.1c-.2.24-.39.48-.6.71a5.39,5.39,0,0,0-.59.58c0,.05,0,.09.07.07a3.39,3.39,0,0,0,1.2-1.29s0-.11-.08-.07Z"/><path class="cls-2" d="M210,146.58c-.17.2-.32.4-.48.61a4,4,0,0,0-.51.71,0,0,0,0,0,.06,0,7.15,7.15,0,0,0,1-1.31s0-.11-.08-.06Z"/><path class="cls-2" d="M210.15,147.4c-.24.28-.46.59-.67.89a7,7,0,0,0-.69,1.05s0,.1.08.06a6.6,6.6,0,0,0,.66-.91c.23-.34.47-.69.67-1.05,0,0,0-.07,0,0Z"/><path class="cls-2" d="M210.05,148.93a16,16,0,0,0-2,2.81.05.05,0,0,0,.08.06,15.08,15.08,0,0,0,1.94-2.85s0,0,0,0Z"/><path class="cls-2" d="M209.81,150.83a5.34,5.34,0,0,1-.72,1.12,10.11,10.11,0,0,0-.81.79.06.06,0,0,0,.07.09,2.27,2.27,0,0,0,1-.83,3.87,3.87,0,0,0,.61-1.13c0-.06-.08-.11-.11,0Z"/><path class="cls-2" d="M209.84,152.49c-.46.46-.92.92-1.37,1.4a11.17,11.17,0,0,0-1.17,1.31c0,.05,0,.09.07.06a13.5,13.5,0,0,0,1.29-1.33c.42-.46.83-.92,1.23-1.39,0,0,0-.09,0,0Z"/><path class="cls-2" d="M209.53,154.46a8.51,8.51,0,0,0-1,1,5.48,5.48,0,0,0-.86,1c0,.05,0,.12.08.08a5.8,5.8,0,0,0,1-1,8.47,8.47,0,0,0,.89-1.09s0-.06-.05,0Z"/><path class="cls-2" d="M209.6,155.85a16.23,16.23,0,0,0-2.18,2.28c-.06.08.08.19.15.11.69-.79,1.36-1.59,2.09-2.34,0,0,0-.08-.06-.05Z"/><path class="cls-2" d="M209.18,157.7a8.14,8.14,0,0,0-1.22,1.05,3.61,3.61,0,0,0-.89,1.17c0,.05.05.08.08.05a9,9,0,0,0,1-1.14c.35-.37.72-.71,1.1-1,0,0,0-.13-.06-.09Z"/><path class="cls-2" d="M208.79,159.12c-.34.35-.67.71-1,1a5.64,5.64,0,0,0-1,.94c0,.07,0,.13.1.1a3.88,3.88,0,0,0,1.06-.93,11.67,11.67,0,0,0,.91-1.07c0-.06-.06-.13-.1-.08Z"/><path class="cls-2" d="M209.14,160.76a9.12,9.12,0,0,0-2.21,2.26.1.1,0,0,0,.15.12c.38-.34.7-.77,1.06-1.15s.73-.74,1.09-1.11c.06-.06,0-.17-.09-.12Z"/><path class="cls-2" d="M209.33,161.79c-.55.52-1.09,1-1.62,1.57a11.47,11.47,0,0,0-1.39,1.49c0,.06,0,.13.09.09a10.31,10.31,0,0,0,1.45-1.43c.52-.55,1-1.11,1.53-1.66a0,0,0,1,0-.06-.06Z"/><path class="cls-2" d="M209.08,163.51a35.66,35.66,0,0,0-3.89,4c-.05.07.06.14.12.09a35.39,35.39,0,0,0,3.85-4c.05-.06,0-.14-.08-.08Z"/><path class="cls-2" d="M208.78,165.66c0,.14-.48.46-.57.54l-.82.77A8.86,8.86,0,0,0,206,168.4a.06.06,0,0,0,.08.09,10.59,10.59,0,0,0,1.77-1.58c.3-.29.61-.56.9-.86s.23-.23.22-.45c0,0,0,0,0,0s-.07,0-.15,0,0,0,0,0v0s0,0,0,0Z"/><path class="cls-2" d="M208.64,167.45a10.22,10.22,0,0,0-2.93,3s0,.09.07.05a37.21,37.21,0,0,1,2.91-3s0-.1-.05-.07Z"/><path class="cls-2" d="M205.25,170.78a.16.16,0,0,0,0-.32.16.16,0,0,0,0,.32Z"/><path class="cls-2" d="M208.68,169a13.19,13.19,0,0,0-3.35,3.05c0,.06,0,.11.09.07.58-.46,1.08-1,1.62-1.57s1.11-1,1.69-1.49c0,0,0-.09,0-.06Z"/><path class="cls-2" d="M208.18,171.09a11.48,11.48,0,0,0-3,3.24.05.05,0,0,0,.08.06c.51-.52.94-1.12,1.44-1.66s1-1,1.57-1.55c0,0,0-.13-.08-.09Z"/><path class="cls-2" d="M208,172.91c-.58.56-1.14,1.14-1.73,1.7s-1.23,1.07-1.75,1.67c0,.05,0,.12.06.09a12.63,12.63,0,0,0,1.74-1.53,23.75,23.75,0,0,0,1.77-1.85.06.06,0,1,0-.09-.08Z"/><path class="cls-2" d="M208.28,174.3a17.61,17.61,0,0,0-1.85,1.72,20.54,20.54,0,0,0-2.08,1.87.06.06,0,0,0,.07.09,8.91,8.91,0,0,0,2.09-1.69,8.64,8.64,0,0,0,1.78-2s0,0,0,0Z"/><path class="cls-2" d="M208.46,175.94a17.41,17.41,0,0,0-2.11,1.92,10.68,10.68,0,0,0-1.86,2.17.06.06,0,0,0,.1.08,21.1,21.1,0,0,0,1.95-2.06c.66-.68,1.34-1.33,2-2,0-.05,0-.13-.07-.09Z"/><path class="cls-2" d="M208,178a42.1,42.1,0,0,0-4.07,4.27s0,.1.06.06a42.11,42.11,0,0,0,4.12-4.22c.06-.08,0-.18-.11-.11Z"/><path class="cls-2" d="M208.5,179.1c-.86.79-1.67,1.62-2.49,2.44a24.25,24.25,0,0,0-2.16,2.26c-.06.06.05.12.1.08a27,27,0,0,0,2.35-2.31c.77-.79,1.54-1.57,2.28-2.39a.06.06,0,0,0-.08-.08Z"/><path class="cls-2" d="M208.66,180.74a42.42,42.42,0,0,0-4.66,5c-.05.07.05.14.11.09a42.48,42.48,0,0,0,4.63-5c0-.05,0-.11-.08-.07Z"/><path class="cls-2" d="M208,183.28a13.92,13.92,0,0,0-2.29,2,23.08,23.08,0,0,0-2.26,2.48c-.05.06,0,.14.08.08.74-.76,1.47-1.53,2.22-2.29s1.61-1.4,2.29-2.2c0,0,0-.07,0-.05Z"/><path class="cls-2" d="M208,184.85a28.9,28.9,0,0,0-4.72,4.79c0,.06,0,.11.09.07a33.13,33.13,0,0,0,2.34-2.4l2.34-2.41s0-.08-.05-.05Z"/><path class="cls-2" d="M207.84,186.62a56,56,0,0,0-4.41,4.58,0,0,0,0,0,.07.07,57.83,57.83,0,0,0,4.41-4.58s0-.11-.07-.07Z"/><path class="cls-2" d="M207.83,188.4c-.93.8-1.8,1.66-2.68,2.5a22.28,22.28,0,0,0-2.32,2.34s0,.12.09.09a22.2,22.2,0,0,0,2.41-2.24c.87-.86,1.77-1.69,2.59-2.59.05-.07,0-.15-.09-.1Z"/><path class="cls-2" d="M208.09,190a14.84,14.84,0,0,0-2.75,2.39,21.93,21.93,0,0,0-2.55,2.64c-.07.09.07.17.15.11,1-.82,1.81-1.81,2.72-2.7a21.63,21.63,0,0,0,2.45-2.43s0,0,0,0Z"/><path class="cls-2" d="M207.7,192c-1,.85-1.89,1.8-2.81,2.71a20.81,20.81,0,0,0-2.41,2.56s0,.1.07.07a23.32,23.32,0,0,0,2.51-2.46c.91-.93,1.86-1.83,2.72-2.8a.06.06,0,0,0-.08-.08Z"/><path class="cls-2" d="M207,194.05c-.87.94-1.73,1.87-2.61,2.79s-1.87,1.76-2.67,2.73c0,.06,0,.15.08.11a31.86,31.86,0,0,0,5.25-5.57s0-.09-.05-.06Z"/><path class="cls-2" d="M207.83,195.44A20.32,20.32,0,0,0,203,200.8c-.05.09.07.19.14.11,1.58-1.83,3.05-3.66,4.76-5.38.07-.06,0-.15-.09-.09Z"/><path class="cls-2" d="M207.63,197.35a26.36,26.36,0,0,0-3.08,3,22.22,22.22,0,0,0-2.81,3.25.05.05,0,0,0,.08.07c1.05-.95,1.93-2.12,2.9-3.15s2.06-2,3-3.08c0,0,0-.12-.06-.08Z"/><path class="cls-2" d="M207.6,198.79c-1.18,1.22-2.26,2.53-3.39,3.8a38.86,38.86,0,0,0-3,3.44c0,.06,0,.11.09.07a35.08,35.08,0,0,0,3.46-3.74c1-1.14,2-2.27,2.94-3.48.05-.07-.06-.15-.12-.09Z"/><path class="cls-2" d="M207.38,200.86a78.23,78.23,0,0,0-5.68,6.79c-.07.09.07.18.14.11a42.39,42.39,0,0,0,5.66-6.8.08.08,0,0,0-.12-.1Z"/><path class="cls-2" d="M207.5,202.79c-1.62,1.91-3.39,3.71-5,5.64a.11.11,0,0,0,.15.15,29,29,0,0,0,5-5.7.08.08,0,0,0-.12-.09Z"/><path class="cls-2" d="M207.15,205.24q-.79,1.19-1.68,2.28a22.1,22.1,0,0,0-1.46,1.77c0,.05,0,.11.07.08a9,9,0,0,0,1.71-1.93,21.67,21.67,0,0,0,1.43-2.15,0,0,0,0,0-.07,0Z"/><path class="cls-2" d="M207.16,207.54a9.16,9.16,0,0,0-.81,1.15,0,0,0,0,0,.07.05,8.63,8.63,0,0,0,.86-1.13c.05-.07-.07-.14-.12-.07Z"/><path class="cls-2" d="M231.35,146.86a6.52,6.52,0,0,0-.69.88c-.09.12.11.23.19.11a5.94,5.94,0,0,0,.61-.9.07.07,0,0,0-.11-.09Z"/><path class="cls-2" d="M231.56,147.84a2.91,2.91,0,0,0-.79,1.35.05.05,0,0,0,.09,0,3.33,3.33,0,0,0,.33-.58,6.76,6.76,0,0,1,.49-.7c.06-.07-.05-.19-.12-.11Z"/><path class="cls-2" d="M231.72,149.39a2.71,2.71,0,0,0-.7.65,1.49,1.49,0,0,0-.39.78.06.06,0,0,0,.11,0,4.1,4.1,0,0,0,.42-.66,3.92,3.92,0,0,1,.63-.72s0-.13-.07-.09Z"/><path class="cls-2" d="M231.68,150.81a5.51,5.51,0,0,1-.4.76,3.67,3.67,0,0,0-.4.65.07.07,0,0,0,.1.08,1.58,1.58,0,0,0,.49-.62,4.83,4.83,0,0,0,.35-.81c0-.09-.11-.15-.14-.06Z"/><path class="cls-2" d="M232.33,152a7,7,0,0,0-1,1.32.06.06,0,0,0,.09.07,7.06,7.06,0,0,0,1-1.29c0-.08-.07-.17-.13-.1Z"/><path class="cls-2" d="M232.43,153.81a5.7,5.7,0,0,0-1.21,1.37c-.12.16-.5.51-.25.73a.09.09,0,0,0,.11,0l0,0s0-.06,0-.08.7-1,.8-1.16a2.88,2.88,0,0,0,.53-.82s0,0,0,0Z"/><path class="cls-2" d="M232.46,155.28c-.25.3-.48.63-.72.95a5.35,5.35,0,0,0-.65,1c0,.06.06.09.1.05a4.68,4.68,0,0,0,.67-.9c.24-.34.48-.68.69-1,0-.05-.05-.11-.09-.06Z"/><path class="cls-2" d="M232.47,156.7a4.5,4.5,0,0,0-1.27,1.73s.05.09.08,0a4.82,4.82,0,0,0,.56-.78,8.94,8.94,0,0,1,.75-.88.09.09,0,0,0-.12-.12Z"/><path class="cls-2" d="M232.72,157.81a8.43,8.43,0,0,1-.54,1,8.6,8.6,0,0,0-.72.9s0,.1.06.08c.33-.11.58-.5.77-.78a3.07,3.07,0,0,0,.52-1.2c0-.05-.07-.09-.09,0Z"/><path class="cls-2" d="M233.15,159.23l-.75,1.13a9.38,9.38,0,0,0-.75,1.11c0,.05,0,.1.08.06a9.79,9.79,0,0,0,1.51-2.24.05.05,0,0,0-.09-.06Z"/><path class="cls-2" d="M233.4,160.82c-.3.5-.61,1-.94,1.45s-.73.89-1,1.37a.06.06,0,0,0,.1.08,8.62,8.62,0,0,0,2-2.83c0-.08-.07-.14-.11-.07Z"/><path class="cls-2" d="M233.52,162.68c-.28.41-.52.85-.8,1.27s-.6.8-.87,1.22c-.06.09.08.2.16.12a8.6,8.6,0,0,0,1.65-2.55c0-.08-.09-.12-.14-.06Z"/><path class="cls-2" d="M234.25,164.24a13.07,13.07,0,0,0-1.1,1.36,7.24,7.24,0,0,0-1,1.42c0,.07.07.11.11.07a7,7,0,0,0,1-1.28,11.83,11.83,0,0,0,1-1.51,0,0,0,0,0-.07-.06Z"/><path class="cls-2" d="M234.24,166a24,24,0,0,0-2.41,3.51c0,.05,0,.1.08.06a24.71,24.71,0,0,0,2.43-3.52c0-.06-.06-.11-.1-.05Z"/><path class="cls-2" d="M234.19,167.87a10.62,10.62,0,0,0-1.07,1.49A17.41,17.41,0,0,0,232,171c0,.05,0,.1.09.06a7.27,7.27,0,0,0,1.22-1.53,6.4,6.4,0,0,0,1-1.68s0,0,0,0Z"/><path class="cls-2" d="M234.88,169.56a12.5,12.5,0,0,0-2.46,3.71s.06.1.1.06a20.34,20.34,0,0,0,1.14-1.76c.42-.65.88-1.28,1.32-1.92a.07.07,0,0,0-.1-.09Z"/><path class="cls-2" d="M235,171.54a23.91,23.91,0,0,0-2.82,4s0,.12.09.07c1-1.26,1.86-2.68,2.82-4,0-.05-.05-.12-.09-.07Z"/><path class="cls-2" d="M234.87,173.81a35.93,35.93,0,0,0-2.58,3.57c0,.06.06.14.11.08a34.75,34.75,0,0,0,2.56-3.58s-.05-.12-.09-.07Z"/><path class="cls-2" d="M235.2,175.12a31.61,31.61,0,0,0-3.24,4.43c0,.06,0,.13.1.08a31.44,31.44,0,0,0,3.21-4.45s0-.1-.07-.06Z"/><path class="cls-2" d="M235.64,176.87a20.19,20.19,0,0,0-3.43,5.32c0,.11.11.21.17.1a31,31,0,0,1,3.34-5.34s0-.13-.08-.08Z"/><path class="cls-2" d="M235.42,179.16a19.13,19.13,0,0,0-3.24,4.65.05.05,0,1,0,.09.05c1.14-1.49,2.08-3.15,3.22-4.65,0,0,0-.08-.07-.05Z"/><path class="cls-2" d="M235.77,181.33a15.6,15.6,0,0,1-1.76,2.52,4.14,4.14,0,0,0-1,1.91c0,.06.09.09.12,0a13,13,0,0,1,1.55-2.48,5.66,5.66,0,0,0,1.14-1.95c0-.05-.06-.08-.08,0Z"/><path class="cls-2" d="M236,183.65c-.53.65-1,1.35-1.49,2a20.58,20.58,0,0,0-1.6,2.34c0,.07.06.15.11.09a17.89,17.89,0,0,0,1.49-2.05c.54-.77,1.1-1.54,1.58-2.35,0-.06-.05-.12-.09-.07Z"/><path class="cls-2" d="M236.63,185.48c-.67.79-1.28,1.62-1.91,2.43a25.4,25.4,0,0,0-2.06,2.79c0,.07.05.13.1.08a20.4,20.4,0,0,0,1.92-2.42c.7-.92,1.41-1.83,2.06-2.79,0-.07-.06-.15-.11-.09Z"/><path class="cls-2" d="M236.77,187a37.63,37.63,0,0,0-4.43,5.73.06.06,0,0,0,.09.07,37.92,37.92,0,0,0,4.43-5.73.06.06,0,0,0-.09-.07Z"/><path class="cls-2" d="M236.86,189.66a19.7,19.7,0,0,0-4.21,5.83.07.07,0,1,0,.13.07c.72-.95,1.31-2,2-3s1.48-1.87,2.16-2.86c0-.05,0-.11-.09-.06Z"/><path class="cls-2" d="M237.27,191.8a33.16,33.16,0,0,0-4.65,6c0,.07.06.15.11.08,1.62-1.9,3.17-4,4.61-6,0,0,0-.08-.07,0Z"/><path class="cls-2" d="M237.5,194a38,38,0,0,0-4.42,5.86.06.06,0,0,0,.09.07,38.3,38.3,0,0,0,4.42-5.86c0-.05-.05-.12-.09-.07Z"/><path class="cls-2" d="M237.61,196.06a26.79,26.79,0,0,0-5,6.53c0,.06.05.13.09.07,1.75-2.11,3.28-4.4,5-6.51.05-.06,0-.15-.09-.09Z"/><path class="cls-2" d="M237.9,197.56a21.88,21.88,0,0,0-4.59,5.68c0,.08.07.17.13.1.88-.93,1.57-2.05,2.36-3.05s1.44-1.79,2.13-2.71c0,0,0,0,0,0Z"/><path class="cls-2" d="M237.79,200.38a52,52,0,0,0-5,6.44c-.05.07.06.15.11.09a52.37,52.37,0,0,0,5-6.44.07.07,0,0,0-.11-.09Z"/><path class="cls-2" d="M238.13,202c-.81.91-1.57,1.85-2.35,2.79a22.76,22.76,0,0,0-2,2.57.06.06,0,0,0,.09.07,24.2,24.2,0,0,0,2.37-2.77c.69-.84,1.38-1.69,2-2.56.06-.07-.07-.17-.14-.1Z"/><path class="cls-2" d="M238.3,203.22c-1.12,1.73-2.54,3.2-3.74,4.86-.05.07.05.13.11.08a17.41,17.41,0,0,0,3.76-4.87.07.07,0,1,0-.13-.07Z"/><path class="cls-2" d="M238.68,204.65c-.55.62-1.1,1.25-1.64,1.89a10.16,10.16,0,0,0-1.38,1.77.07.07,0,0,0,.11.09,11.45,11.45,0,0,0,1.54-1.79c.5-.61,1-1.24,1.47-1.86.05-.07,0-.17-.1-.1Z"/><path class="cls-2" d="M238.24,206.5a12.75,12.75,0,0,0-1.19,1.55,0,0,0,0,0,.07.06,11.67,11.67,0,0,0,1.23-1.5c.06-.08,0-.18-.11-.11Z"/><path class="cls-2" d="M242.82,134c2,3,3.91,5.63,5,9.18s1.92,7.22,3,10.8a.1.1,0,0,0,.19-.05c-1.69-7.07-3.16-14.4-8.08-20,0,0-.1,0-.07.06Z"/><path class="cls-2" d="M250.86,155.22c2.89,16.65,6.68,33.23,10.16,49.77a.09.09,0,0,0,.18-.05c-3.3-16.58-6.32-33.31-10.22-49.75a.06.06,0,0,0-.12,0Z"/><path class="cls-2" d="M181.65,205.51a67.82,67.82,0,0,0,18.2,3.67c.19,0,.19-.29,0-.3a90.43,90.43,0,0,1-18.16-3.53c-.1,0-.14.12,0,.16Z"/><path class="cls-2" d="M208.81,210.43c3.91.35,7.59,1.35,11.55,1.37a47.61,47.61,0,0,0,10.57-1.22c.2,0,.12-.35-.08-.3a47.3,47.3,0,0,1-11.68,1.19c-3.46-.1-6.94-1.26-10.36-1.12,0,0,0,.08,0,.08Z"/><path class="cls-2" d="M239.44,209.85c2.12-.57,4.76,0,6.95,0a49.15,49.15,0,0,0,6.41-.51A17.4,17.4,0,0,0,261,206.2c.15-.12,0-.39-.16-.27-3.5,2.61-7.82,3.22-12.07,3.51a55.55,55.55,0,0,1-6.05.08c-1.3-.05-2.22-.31-3.36.24a.05.05,0,0,0,0,.09Z"/><path class="cls-2" d="M211.38,137.76c-.34,3.92-.56,7.84-.62,11.77,0,.14.21.14.21,0,.08-3.93.25-7.85.54-11.77,0-.08-.12-.08-.13,0Z"/><path class="cls-2" d="M211.13,150.51a240.34,240.34,0,0,0-.27,25.18.11.11,0,0,0,.22,0c.1-8.38.27-16.81.15-25.18,0-.06-.09-.06-.1,0Z"/><path class="cls-2" d="M210.56,177.49c-.22,10.72-.11,21.47-.15,32.2a.09.09,0,0,0,.18,0c.44-10.7.35-21.5.11-32.2a.07.07,0,1,0-.14,0Z"/><path class="cls-2" d="M228.78,137.76c.2,3.76.42,7.52.68,11.28,0,.18.29.18.28,0-.21-3.76-.47-7.53-.75-11.28a.11.11,0,1,0-.21,0Z"/><path class="cls-2" d="M229.74,150.84c-.26,8.63-.05,17.37.35,26,0,.14.23.14.23,0-.11-8.66-.17-17.35-.44-26a.07.07,0,0,0-.14,0Z"/><path class="cls-2" d="M230.25,178.64c.24,9.75.94,19.5,1,29.25a0,0,0,1,0,.08,0c-.18-9.75-.14-19.52-.93-29.25,0-.1-.16-.1-.16,0Z"/><path class="cls-2" d="M201.46,51.27c3.39,5.36,9.66,7.83,15.84,7.94a31.07,31.07,0,0,0,11.88-2.07c3.23-1.32,5.38-3.68,7.61-6.28.23-.26-.15-.63-.37-.37-2.43,2.8-4.91,5.13-8.54,6.28a36,36,0,0,1-9.37,1.62c-6.6.27-12.87-1.76-16.93-7.19-.05-.07-.17,0-.12.07Z"/><path class="cls-2" d="M201.13,51.18a77.35,77.35,0,0,0-11,4.27c-3,1.3-5.75,2.87-7.52,5.69s-2.46,6.63-3.16,10a69.62,69.62,0,0,0-1.74,11.73.22.22,0,0,0,.44.06c1.48-6.65,1.16-14.5,4.46-20.63,3.62-6.72,12.42-7.69,18.62-10.95a.09.09,0,0,0-.07-.17Z"/><path class="cls-2" d="M177.68,83.17a62.68,62.68,0,0,0,7.38,2.59c2.34.6,4.79.41,7.1,1.06a.37.37,0,0,0,.2-.71c-2.49-.71-5.09-.53-7.61-1.18a59.56,59.56,0,0,0-7.05-1.88c-.07,0-.07.1,0,.12Z"/><path class="cls-2" d="M236.29,51c6.21,3.26,15,4.23,18.62,10.95,3.3,6.13,3,14,4.46,20.64a.23.23,0,0,0,.45-.06,68.49,68.49,0,0,0-1.75-11.73c-.69-3.38-1.3-7-3.16-10-1.75-2.81-4.55-4.39-7.51-5.69a78.63,78.63,0,0,0-11-4.26.09.09,0,0,0-.07.16Z"/><path class="cls-2" d="M259.8,82.73a59.16,59.16,0,0,0-7.06,1.87c-2.51.65-5.12.47-7.6,1.18a.37.37,0,0,0,.2.71c2.31-.65,4.75-.46,7.1-1a61.9,61.9,0,0,0,7.37-2.59c.06,0,.06-.13,0-.12Z"/><path class="cls-2" d="M202.25,53.69a39.58,39.58,0,0,0-6,6s0,0,0,0a67.84,67.84,0,0,1,6.16-5.83c.11-.09,0-.25-.15-.16Z"/><path class="cls-2" d="M195.68,60.88c-1.08,2-2.22,4-3.13,6.13a0,0,0,1,0,.06,0c1.16-2,2.12-4.08,3.11-6.14,0,0,0,0,0,0Z"/><path class="cls-2" d="M192.42,86.31s0,0,0,0,0,0,0,0Z"/><path class="cls-2" d="M192.48,86.28c-.16.2,0,.52,0,.75a1.35,1.35,0,0,0,.22.79c0,.06.12,0,.14,0a1.5,1.5,0,0,0-.07-.86c0-.21,0-.51-.25-.64Z"/><path class="cls-2" d="M192.17,86.38c1.69,5.45,1.68,11.18,2.82,16.75a58.83,58.83,0,0,0,5,14.66c.21.41.79,0,.61-.36a70.24,70.24,0,0,1-5.2-16.18c-.91-5-.83-10.27-2.91-15-.07-.16-.33,0-.28.12Z"/><path class="cls-2" d="M199.86,114.17a9.84,9.84,0,0,0,1.07,3.93c0,.07.19.05.18,0a10.68,10.68,0,0,0-.5-1.82c-.2-.69-.34-1.39-.52-2.09,0-.12-.24-.1-.23,0Z"/><path class="cls-2" d="M201.09,114.33a11.61,11.61,0,0,0,.69,3.61c.06.16.33.15.31,0a11.73,11.73,0,0,0-.92-3.59,0,0,0,0,0-.08,0Z"/><path class="cls-2" d="M202.84,114.66a17.21,17.21,0,0,0,.2,3.13.24.24,0,0,0,.46-.06,17.09,17.09,0,0,0-.54-3.09c0-.07-.12,0-.12,0Z"/><path class="cls-2" d="M192.51,86.94c-.23-2-.35-4-.58-6a0,0,0,0,0,0,0,49.9,49.9,0,0,0,.51,6c0,.07.11.07.1,0Z"/><path class="cls-2" d="M192.37,81.27a8.19,8.19,0,0,0,.55,5.1.1.1,0,0,0,.19-.05,18.15,18.15,0,0,0-.4-2.18c-.14-1-.16-1.91-.23-2.86,0-.06-.1-.08-.11,0Z"/><path class="cls-2" d="M191.87,81.6c0,1.93.06,4.36,1,6.09.07.11.28.07.26-.07a25.66,25.66,0,0,0-.62-2.59A28.45,28.45,0,0,1,192,81.6a.06.06,0,0,0-.11,0Z"/><path class="cls-2" d="M192.19,82.91a14.36,14.36,0,0,0,1.07,5.4.1.1,0,0,0,.18,0,13,13,0,0,0-.52-2.52c-.22-.95-.44-1.9-.67-2.84,0,0-.07,0-.06,0Z"/><path class="cls-2" d="M192.82,86.33c.32,1.4.44,2.8.69,4.2,0,.1.15.07.16,0a8.75,8.75,0,0,0-.79-4.21s-.07,0-.06,0Z"/><path class="cls-2" d="M192.39,70.09c-1.7,4.46-.84,9.66-.45,14.29a.21.21,0,0,0,.41,0c.28-4.87-1.07-9.41.06-14.28,0,0,0,0,0,0Z"/><path class="cls-2" d="M200.08,118.28c1.45.22,2.95,1.37,4.43,1.74,1.83.45,3.77.62,5.64.89a92.33,92.33,0,0,0,11.13,1.19,39.2,39.2,0,0,0,19.24-4.25c.31-.17,0-.66-.29-.49-6.52,3.49-13.53,4.11-20.8,3.8-3.49-.14-7-.46-10.44-.9a30.23,30.23,0,0,1-5.34-.89c-1.53-.5-2.07-1.25-3.53-1.4-.18,0-.22.28,0,.31Z"/><path class="cls-2" d="M200.29,118a3.55,3.55,0,0,0,1.85.66.11.11,0,0,0,.07-.19,2.33,2.33,0,0,0-.83-.46,4,4,0,0,0-1-.3c-.17,0-.19.21-.08.29Z"/><path class="cls-2" d="M200,118.15a5.32,5.32,0,0,1,1.68.32,16.36,16.36,0,0,1,1.45.87.13.13,0,0,0,.17-.17c-.54-1.09-2.25-1.45-3.33-1.24-.13,0-.1.22,0,.22Z"/><path class="cls-2" d="M201.15,118.18a14.17,14.17,0,0,0,7.11,2.13,6.54,6.54,0,0,1,3,.67,2.41,2.41,0,0,0,1.75.32c.23,0,.17-.41-.06-.4-.79,0-1.46-.86-2.16-1.05a8.58,8.58,0,0,0-2.15-.13,25.42,25.42,0,0,1-7.43-1.76c-.12,0-.19.15-.09.22Z"/><path class="cls-2" d="M210.4,117.85c-.06.38-.12.75-.19,1.12a2.4,2.4,0,0,0-.08.88.08.08,0,0,0,.15,0,2.28,2.28,0,0,0,.18-.86c0-.38.09-.75.14-1.13,0-.11-.18-.14-.2,0Z"/><path class="cls-2" d="M211.1,117.39a15,15,0,0,0-.25,3.42c0,.22.34.22.35,0a15,15,0,0,0,0-3.42s-.09,0-.11,0Z"/><path class="cls-2" d="M212.08,117.4a17.89,17.89,0,0,0,0,3.73.14.14,0,0,0,.27,0,18.61,18.61,0,0,0,0-3.73.1.1,0,0,0-.2,0Z"/><path class="cls-2" d="M213.69,117.08c-.05,1.19-.06,2.37-.07,3.56a.18.18,0,1,0,.36,0c0-1.19,0-2.37-.07-3.56a.11.11,0,0,0-.22,0Z"/><path class="cls-2" d="M204.69,116.24a17,17,0,0,0-.11,3.27.16.16,0,0,0,.32,0c-.05-1.08,0-2.16,0-3.25,0-.1-.18-.14-.2,0Z"/><path class="cls-2" d="M205.88,116.07c-.08.52-.11,1.05-.14,1.58a3.9,3.9,0,0,0,0,1.56.08.08,0,0,0,.15,0,3.17,3.17,0,0,0,.19-1.34c0-.59.08-1.18.06-1.77,0-.15-.24-.2-.26,0Z"/><path class="cls-2" d="M206.79,116.39a10.23,10.23,0,0,0-.1,3.49c0,.19.32.14.33,0,0-1.13,0-2.27,0-3.41a.14.14,0,0,0-.27,0Z"/><path class="cls-2" d="M202.11,50.85c5.56-1.25,11.87.84,17.54.91s11.5-1.93,17-.68a.18.18,0,0,0,.1-.35c-5.45-1.58-11.55.63-17.12.57a84.13,84.13,0,0,1-9.38-.65c-2.79-.34-5.48-.86-8.2,0a.08.08,0,0,0,0,.16Z"/><path class="cls-2" d="M216.07,53.54c1,0,2-.08,3-.09.67,0,2.85-.2,3.32.38.08.1.25,0,.18-.14-.46-.61-1.59-.48-2.26-.52a12.17,12.17,0,0,0-4.21.34s0,0,0,0Z"/><path class="cls-2" d="M216.28,53.61c.05.22.11.44.14.67a5.72,5.72,0,0,0,0,.59.12.12,0,0,0,.23,0,2.18,2.18,0,0,0-.19-1.38c-.06-.12-.22,0-.2.08Z"/><path class="cls-2" d="M216.71,54.93c1.8-.08,3.55-.25,5.35-.19.23,0,.23-.34,0-.36a17.62,17.62,0,0,0-5.37.37.09.09,0,0,0,0,.18Z"/><path class="cls-2" d="M222.51,54.59a1.07,1.07,0,0,0,0-.75.12.12,0,0,0-.2,0,1,1,0,0,0,0,.75c0,.12.24.12.25,0Z"/><path class="cls-2" d="M236.49,52.75c1.37,2.08,3.2,3.52,4.81,5.36,2.1,2.38,3.14,5.82,4.65,8.56.05.08.2,0,.16-.07a37.79,37.79,0,0,0-4.09-8c-1.56-2.11-3.8-3.77-5.43-5.88,0,0-.13,0-.1.07Z"/><path class="cls-2" d="M246.36,69.3s0,0,0,0,0,0,0,0Z"/><path class="cls-2" d="M246.28,69.31a19.74,19.74,0,0,1,.22,4.85.07.07,0,0,0,.13,0,8.89,8.89,0,0,0-.23-4.9.06.06,0,0,0-.12,0Z"/><path class="cls-2" d="M246.67,72.69a7.35,7.35,0,0,0-.13,1c0,.41-.16.81-.19,1.22,0,.17.24.18.29,0a3.73,3.73,0,0,0,.06-2.31Z"/><path class="cls-2" d="M247,72a17.81,17.81,0,0,0-.39,2.3,6.11,6.11,0,0,0-.14,1.8c0,.09.18.12.22,0a6.21,6.21,0,0,0,.31-1.77,18.45,18.45,0,0,0,.19-2.34.1.1,0,0,0-.19,0Z"/><path class="cls-2" d="M246.79,71.24c0,1.54-.2,3-.31,4.54,0,.07.11.08.13,0a10.59,10.59,0,0,0,.26-4.55s-.08,0-.08,0Z"/><path class="cls-2" d="M247.1,72.92c-2.51,6.37-2.5,14.33-2.47,21.08,0,7.79-2.87,16-4.76,23.48a.15.15,0,0,0,.29.08c2-7,4.85-14.57,5.2-21.88.17-3.54-.05-7.06.29-10.61.38-4,1.6-8.11,1.53-12.14,0-.05-.06-.05-.08,0Z"/><path class="cls-2" d="M208,116.59c0,1-.13,1.94-.11,2.92a.13.13,0,0,0,.26,0c0-1-.06-1.94-.12-2.92,0,0,0,0,0,0Z"/><path class="cls-2" d="M215.81,117.56a11.09,11.09,0,0,0-.14,1.63,5.56,5.56,0,0,0,0,1.63.07.07,0,0,0,.14,0,5.24,5.24,0,0,0,.12-1.63,9.84,9.84,0,0,0-.07-1.63s-.08,0-.09,0Z"/><path class="cls-2" d="M217.06,117.69c-.44.27-.4,1-.44,1.46s-.17,1.32.21,1.77a.15.15,0,0,0,.23,0c.3-.46.14-1.2.16-1.74s.21-1.08-.09-1.45a.06.06,0,0,0-.07,0Z"/><path class="cls-2" d="M218.18,118.54a25.3,25.3,0,0,0-.28,2.59c0,.11.18.14.2,0,.12-.86.1-1.75.14-2.62,0,0-.06,0-.06,0Z"/><path class="cls-2" d="M219.24,117.08a19.12,19.12,0,0,0-.05,4.21.12.12,0,1,0,.24,0,19.75,19.75,0,0,0-.05-4.21.07.07,0,0,0-.14,0Z"/><path class="cls-2" d="M220.45,117.69a8.92,8.92,0,0,0,0,1.79,3,3,0,0,0,.26,1.58.17.17,0,0,0,.3,0,2.83,2.83,0,0,0,0-1.58,9,9,0,0,0-.29-1.79c0-.12-.25-.15-.27,0Z"/><path class="cls-2" d="M222.16,117.4a16.88,16.88,0,0,0,0,4.08.1.1,0,0,0,.19,0,16.88,16.88,0,0,0,0-4.08.07.07,0,0,0-.13,0Z"/><path class="cls-2" d="M223.51,117.57c-.06.66-.07,1.33-.1,2a4.83,4.83,0,0,0,.06,1.78.23.23,0,0,0,.43,0,5.05,5.05,0,0,0,.06-1.78c0-.67,0-1.34-.1-2a.18.18,0,0,0-.35,0Z"/><path class="cls-2" d="M239.71,113.35a22.33,22.33,0,0,0-.61,2.57c-.22.87-.43,1.71-.61,2.59,0,0,0,0,0,0a10.79,10.79,0,0,0,1.28-5.17c0-.06-.08-.06-.1,0Z"/><path class="cls-2" d="M237.85,114.92a4.64,4.64,0,0,0-.39,1.33,13.67,13.67,0,0,1-.53,1.52.36.36,0,0,0,.09.37.33.33,0,0,0,.27.12.4.4,0,0,0,.37-.28c.33-.82.79-2.21.4-3.06a.12.12,0,0,0-.21,0Z"/><path class="cls-2" d="M236,115.46a12.84,12.84,0,0,0-.33,2.32,12.24,12.24,0,0,0-.36,2s0,.06.08,0a5.34,5.34,0,0,0,.64-2.29,4.52,4.52,0,0,0,0-2.1s0,0,0,0Z"/><path class="cls-2" d="M226.07,117.41a7.5,7.5,0,0,0,.13,3.27c0,.06.11,0,.12,0a8.85,8.85,0,0,0-.13-1.62,11,11,0,0,1,0-1.62c0-.07-.1-.07-.11,0Z"/><path class="cls-2" d="M227.18,117.4c0,.53,0,1-.05,1.57a5.21,5.21,0,0,0,.05,1.37.07.07,0,0,0,.14,0,5.23,5.23,0,0,0,0-1.37c0-.52,0-1-.05-1.57,0-.08-.12-.08-.13,0Z"/><path class="cls-2" d="M228.93,117.38a17.37,17.37,0,0,0-.24,3.38.33.33,0,1,0,.65-.09l0-.35c0-.1-.14-.18-.21-.09a1.64,1.64,0,0,1-.3.29l.56.24a16.61,16.61,0,0,0-.22-3.38.1.1,0,0,0-.2,0Z"/><path class="cls-2" d="M230.3,117.35a9.9,9.9,0,0,0-.24,1.62,2.74,2.74,0,0,0,0,1.45.21.21,0,0,0,.36,0,2.49,2.49,0,0,0,.22-1.33,10.59,10.59,0,0,0,0-1.69c0-.2-.32-.27-.38-.05Z"/><path class="cls-2" d="M231.71,117.24a10.93,10.93,0,0,1-.2,2.56c0,.17.22.24.25.07a8.59,8.59,0,0,0,.07-2.63c0-.07-.12-.07-.12,0Z"/><path class="cls-2" d="M232.94,117.85a4.47,4.47,0,0,0-.2,1.14c0,.32,0,.63.25.84a.19.19,0,0,0,.18,0c.29-.21.26-.52.25-.84a4.4,4.4,0,0,0-.2-1.14.15.15,0,0,0-.28,0Z"/><path class="cls-2" d="M199.84,113.07c3.38,2.28,7.46,2.61,11.4,3.1,4.51.57,9.28,1.43,13.77.35.14,0,.12-.27,0-.25a51,51,0,0,1-12-.27c-4.49-.53-9.16-.58-13.12-3,0,0-.1.05,0,.08Z"/><path class="cls-2" d="M226.12,116.23c4.56.68,9.85-.87,14-2.65.07,0,0-.15-.06-.13-4.64,1.22-9.06,3.09-14,2.71,0,0,0,.06,0,.07Z"/><path class="cls-2" d="M193.21,68.47a5.74,5.74,0,0,0-1,2.6,0,0,0,0,0,.06,0,13.27,13.27,0,0,1,1-2.59s0,0,0,0Z"/><path class="cls-2" d="M193.1,68.33a15.29,15.29,0,0,0-1.57,6.14.07.07,0,0,0,.13,0,54.4,54.4,0,0,1,1.5-6.14s0,0-.06,0Z"/><path class="cls-2" d="M192.8,69.47a17.74,17.74,0,0,0-.4,9.87.06.06,0,0,0,.12,0,34.6,34.6,0,0,1,.33-9.85,0,0,0,0,0,0,0Z"/><path class="cls-2" d="M192.14,77.08c.16,2.64.37,5.32.78,7.93,0,0,.06,0,.06,0-.12-2.64-.44-5.31-.81-7.93,0,0,0,0,0,0Z"/><path class="cls-2" d="M202.45,55.21c4.21,4.89,10.5,5.55,16.52,5.48.05,0,.05-.06,0-.06-6,0-12.13-.8-16.46-5.48a0,0,0,0,0-.06.06Z"/><path class="cls-2" d="M219.64,60.68a46.8,46.8,0,0,0,10.22-2.06c3-1,4.44-3.41,7.15-4.62.08,0,0-.14-.07-.11-2.69,1.19-4.14,3.7-7.09,4.69a52.26,52.26,0,0,1-10.21,2.08s0,0,0,0Z"/><path class="cls-2" d="M200.62,52a11.73,11.73,0,0,0,.43,1.12,6.53,6.53,0,0,0,.41,1c0,.05.11,0,.09,0a6.38,6.38,0,0,0-.42-1.13c-.13-.33-.25-.67-.41-1,0,0-.12,0-.1,0Z"/><path class="cls-2" d="M238.51,52c-.17.27-.37.52-.56.78a4.44,4.44,0,0,0-.56.75.06.06,0,0,0,.08.08,2.22,2.22,0,0,0,.58-.64,5,5,0,0,0,.52-.93s0-.07-.06,0Z"/><path class="cls-2" d="M203.11,51c-.37,0-.27,0-.55.21-.06.06,0,.14.08.13,4.83-.78,9.36.17,14.08,1.15a0,0,0,0,0,0-.09A40,40,0,0,0,203.11,51s0,0,0,0Z"/><path class="cls-2" d="M217.85,52.25c6,.4,12-1.65,17.83-.81.11,0,.16-.16,0-.18a23.05,23.05,0,0,0-7.27.28,61.8,61.8,0,0,1-10.61.66,0,0,0,0,0,0,0Z"/><path class="cls-2" d="M194,68.4c-2.19,6.72-.67,14.83.54,21.63,0,.1.2.08.19,0-.94-7.24-2.19-14.33-.67-21.59,0,0-.05,0-.06,0Z"/><path class="cls-2" d="M194.79,90.85c1.16,3.7,1,7.59,1.73,11.36a34.33,34.33,0,0,0,3.7,10.16c.05.09.18,0,.14-.08a40.44,40.44,0,0,1-3.92-11.81c-.49-3.25-.47-6.51-1.56-9.65,0,0-.1,0-.09,0Z"/><path class="cls-2" d="M199.08,106.92a29.1,29.1,0,0,0,2.34,6.47s.12,0,.1,0c-.76-2.16-1.64-4.28-2.38-6.45,0,0-.07,0-.06,0Z"/><path class="cls-2" d="M200.35,107.85a24.45,24.45,0,0,0,1.65,5.57c0,.06.13,0,.11,0-.44-1.86-1.17-3.69-1.7-5.54,0,0-.07,0-.06,0Z"/><path class="cls-2" d="M245.3,68.33a19.35,19.35,0,0,1-.43,8.64,14.62,14.62,0,0,0-.45,5.43c0,.07.1.07.1,0-.06-2.74.66-5.05,1.18-7.68a15.32,15.32,0,0,0-.38-6.39s0,0,0,0Z"/><path class="cls-2" d="M244.24,83.23A94.1,94.1,0,0,1,240,111.6c0,.12.14.17.18.05a75.82,75.82,0,0,0,4.16-28.42,0,0,0,0,0-.06,0Z"/><path class="cls-2" d="M229.15,59.09a11.49,11.49,0,0,0,.1,3.26s.08,0,.07,0c0-1.08-.13-2.15-.06-3.24,0-.07-.1-.07-.11,0Z"/><path class="cls-2" d="M230.27,58.44c.07,1.4.11,2.81.2,4.21,0,0,.05,0,.05,0a22.8,22.8,0,0,0-.19-4.21s-.06,0-.06,0Z"/><path class="cls-2" d="M236.93,54.89c0-.19,0-.5-.25-.54a.2.2,0,0,0-.25.2s0,0,0,0c.32-.1.47,0,.46.16a.55.55,0,0,1,0,.18Z"/><path class="cls-2" d="M236.78,54.39c0,1.4-.14,2.82,0,4.21,0,0,.06,0,.06,0a39.41,39.41,0,0,0,0-4.21,0,0,0,0,0-.05,0Z"/><path class="cls-2" d="M236.14,54.23a44.25,44.25,0,0,0,0,5s.07,0,.08,0a44.25,44.25,0,0,0,0-5,0,0,0,1,0,0,0Z"/><path class="cls-2" d="M216.92,107.2c0,2.82-.11,5.6-.27,8.42a0,0,0,0,0,0,0,38.25,38.25,0,0,0,.28-8.42,0,0,0,0,0-.06,0Z"/><path class="cls-2" d="M217.65,111.73a20.33,20.33,0,0,0,0,3.9c0,.05.07.05.08,0a21.17,21.17,0,0,0,0-3.9s-.08,0-.08,0Z"/><path class="cls-2" d="M219,111.74c-.12,1.62-.21,3.26-.26,4.89a.07.07,0,0,0,.14,0v-.36s-.07,0-.08,0a30,30,0,0,0,.26-4.52s-.06,0-.06,0Z"/><path class="cls-2" d="M220.05,112.06c-.07,1.55-.18,3.14-.19,4.69,0,.06.09.07.1,0a20.62,20.62,0,0,0,.13-4.71,0,0,0,1,0,0,0Z"/><path class="cls-2" d="M224.58,110c.06,2.06.1,4.11.19,6.16a.07.07,0,0,0,.14,0c-.07-2-.17-4.1-.25-6.16,0,0-.08,0-.08,0Z"/><path class="cls-2" d="M197.05,69.45a85.86,85.86,0,0,0-.31,9.89.05.05,0,0,0,.1,0c.06-3.3.07-6.59.23-9.89,0,0,0,0,0,0Z"/><path class="cls-2" d="M197.91,74.15a38.32,38.32,0,0,0-.21,5s0,0,.05,0a38.33,38.33,0,0,0,.22-5s-.05,0-.06,0Z"/><path class="cls-2" d="M198.69,75.61a35.22,35.22,0,0,0,0,3.56,0,0,0,0,0,.07,0,35.22,35.22,0,0,0,0-3.56,0,0,0,0,0-.09,0Z"/><path class="cls-2" d="M197.72,61.52c.11,1.78.19,3.56.14,5.34,0,.09.13.09.13,0a31.75,31.75,0,0,0-.25-5.34s0,0,0,0Z"/><path class="cls-2" d="M234,56.34c.08.93.15,1.85.14,2.78,0,.43,0,.87-.05,1.3,0,.27.06.73-.13.27,0,0,0,0,0,0a3.41,3.41,0,0,0,.1.46.06.06,0,0,0,.12,0,19.52,19.52,0,0,0-.09-4.83s-.05,0-.05,0Z"/><path class="cls-2" d="M233.24,56.5c-.07,1.71-.23,3.46-.16,5.17,0,0,.07,0,.07,0,.17-1.7.11-3.46.14-5.17,0,0,0,0,0,0Z"/><path class="cls-2" d="M241.8,60.54a42.17,42.17,0,0,0,0,7.62s.07,0,.06,0c-.06-2.55-.11-5.07,0-7.62a0,0,0,0,0,0,0Z"/><path class="cls-2" d="M242.64,63a21.59,21.59,0,0,0,.31,6.16s.06,0,.06,0a34.25,34.25,0,0,1-.34-6.15s0,0,0,0Z"/><path class="cls-2" d="M243.55,64.58a9.41,9.41,0,0,0-.11,3.26s.05,0,.05,0c0-1.08,0-2.16.09-3.24,0,0,0,0,0,0Z"/><path class="cls-2" d="M196.86,80.3c.07,3.41,0,6.81,0,10.21a0,0,0,1,0,.06,0c.17-3.39.06-6.81,0-10.21,0,0-.09,0-.08,0Z"/><path class="cls-2" d="M197.42,91.48a64.83,64.83,0,0,0,1.13,10.22s.07,0,.06,0c-.46-3.4-.92-6.77-1.11-10.2,0,0-.09,0-.08,0Z"/><path class="cls-2" d="M209.31,109.49c.53-.76.38.2.38.6v1.27c0,1,0,2,0,3,0,0,.07,0,.07,0,.12-1.82.05-3.69,0-5.5,0,0-.05-.06-.07,0a7.74,7.74,0,0,1-.44.67s0,0,0,0Z"/><path class="cls-2" d="M210.73,109c-.1,1.67-.24,3.36-.21,5,0,0,.06,0,.06,0,.17-1.66.17-3.35.21-5a0,0,0,0,0-.06,0Z"/><path class="cls-2" d="M213.14,109.14a22.84,22.84,0,0,0,.53,6.75.06.06,0,1,0,.11,0l-.11-.41s-.07,0-.06,0a38,38,0,0,1-.42-6.33,0,0,0,0,0-.05,0Z"/><path class="cls-2" d="M214.27,111.09a37,37,0,0,0,0,4.21s.07,0,.07,0a37,37,0,0,0,0-4.21,0,0,0,0,0,0,0Z"/><path class="cls-2" d="M214.9,112.87a16,16,0,0,0,0,2.59,0,0,0,0,0,.09,0,16,16,0,0,0,0-2.59,0,0,0,1,0-.07,0Z"/><path class="cls-2" d="M228.51,110.44a27.23,27.23,0,0,1-.41,4.32.08.08,0,0,0,.05.08l0,0a.06.06,0,0,0,.07,0l0-.07s0-.08-.06-.07h0a0,0,0,0,0,0,.08s.28-1.68.29-1.81a21.22,21.22,0,0,0,.08-2.52s-.08,0-.08,0Z"/><path class="cls-2" d="M230,110.73c-.14,1.89-.17,3.78-.25,5.67,0,.1.16.1.17,0,.07-1.89.18-3.78.19-5.67,0-.07-.1-.06-.11,0Z"/><path class="cls-2" d="M201.28,85c-.14,5.55-.12,11.12-.15,16.68a.07.07,0,0,0,.14,0c0-5.56.15-11.12.09-16.68a0,0,0,0,0-.08,0Z"/><path class="cls-2" d="M202,93.43c-.12,2.64-.05,5.3-.05,7.94a.07.07,0,0,0,.13,0c0-2.64.07-5.3,0-7.94a0,0,0,1,0,0,0Z"/><path class="cls-2" d="M202.27,103c-.05,1.51-.06,3,0,4.53a.05.05,0,0,0,.1,0c0-1.51,0-3,0-4.53,0,0-.06,0-.06,0Z"/><path class="cls-2" d="M238.68,80.63c0,2,0,4,0,6a.07.07,0,1,0,.13,0,57,57,0,0,0-.12-6Z"/><path class="cls-2" d="M239.69,82.58a25.43,25.43,0,0,1-.21,3.7.06.06,0,0,0,.12,0,15.53,15.53,0,0,0,.14-3.73s-.05,0-.05,0Z"/><path class="cls-2" d="M244.51,75.78q-.49,3.56-.86,7.11c0,.08.12.08.12,0,.3-2.36.55-4.73.77-7.11,0,0,0,0,0,0Z"/><path class="cls-2" d="M237.4,60.55c0,2.3,0,4.66.18,7,0,0,.09.06.09,0,0-2.31-.08-4.66-.25-7,0,0,0,0,0,0Z"/><path class="cls-2" d="M239.22,56.17a17.58,17.58,0,0,0,.21,5.37,0,0,0,0,0,.09,0c-.07-1.79-.27-3.56-.24-5.36a0,0,0,0,0-.06,0Z"/><path class="cls-2" d="M239.84,56.66a27.41,27.41,0,0,0,0,4.53,0,0,0,0,0,.08,0,26.36,26.36,0,0,0,0-4.53,0,0,0,1,0-.08,0Z"/><path class="cls-2" d="M237.9,105.41a46.47,46.47,0,0,0-.2,7.46.06.06,0,0,0,.09,0c.27-.12.22-.07.32-.36a0,0,0,0,0-.06,0,.62.62,0,0,1-.24-.82v-.57c0-.67,0-1.34,0-2,0-1.24.08-2.48.12-3.73,0,0,0,0,0,0Z"/><path class="cls-2" d="M239.12,105.91a23.84,23.84,0,0,0-.43,6.47c0,.07.1.07.1,0,.17-2.15.14-4.31.38-6.47a0,0,0,0,0,0,0Z"/><path class="cls-2" d="M239.16,89.22c.05,2.89,0,5.89.28,8.75,0-.06-.09-.06-.09,0v.43a.07.07,0,0,0,.14,0c0-3.06-.06-6.13-.27-9.18,0,0-.05,0-.05,0Z"/><path class="cls-2" d="M240.35,93.27c-.11,1.66-.09,3.36,0,5a.06.06,0,0,0,.12,0c0-1.66.07-3.36,0-5a0,0,0,1,0,0,0Z"/><path class="cls-2" d="M179.24,79.82c-.06,1.19,0,2.38-.08,3.57,0,.17.28.17.27,0-.07-1.19,0-2.38-.08-3.57,0-.07-.1-.07-.11,0Z"/><path class="cls-2" d="M179.83,80.92a5.81,5.81,0,0,0-.09,1.18,1.64,1.64,0,0,0,.2,1,.08.08,0,0,0,.15,0,2.41,2.41,0,0,0,0-1c0-.38,0-.76,0-1.14,0-.14-.22-.19-.25,0Z"/><path class="cls-2" d="M180.7,81.58a7.09,7.09,0,0,0-.24,2.33c0,.13.21.1.25,0a4.37,4.37,0,0,0,.13-1.08c0-.41,0-.82,0-1.22,0-.11-.16-.14-.18,0Z"/><path class="cls-2" d="M181.31,82.25c-.05.41-.06.81-.07,1.22a3.25,3.25,0,0,0,0,1.08.11.11,0,0,0,.22,0,3,3,0,0,0,.05-1.08c0-.41,0-.81-.06-1.22a.1.1,0,0,0-.19,0Z"/><path class="cls-2" d="M179.08,80.29a10.76,10.76,0,0,0-.24,2.93.11.11,0,0,0,.22,0,10.71,10.71,0,0,0,.18-2.94.08.08,0,0,0-.16,0Z"/><path class="cls-2" d="M182.39,82.12l.37-.39-.18-.13a7.59,7.59,0,0,0-.51,2.52c0,.33.45.47.5.14a8.11,8.11,0,0,0,.22-2.63.12.12,0,0,0-.21,0l-.27.45s0,.11.08.07Z"/><path class="cls-2" d="M183.7,81.85a4.45,4.45,0,0,0-.46,2.51.27.27,0,0,0,.53,0c0-.83.13-1.61.24-2.43,0-.16-.23-.22-.31-.08Z"/><path class="cls-2" d="M184.74,82.69a4.81,4.81,0,0,0-.39,2.15.29.29,0,0,0,.57,0c0-.7,0-1.4,0-2.1a.11.11,0,0,0-.2,0Z"/><path class="cls-2" d="M190.82,82.7a6.94,6.94,0,0,0-.32,1.62c0,.44-.16,1,.19,1.29a.17.17,0,0,0,.23,0c.29-.34.16-.76.16-1.18s0-1.13.09-1.69c0-.2-.29-.23-.35,0Z"/><path class="cls-2" d="M190.09,83.31c-.32.24-.31.73-.37,1.1a6.64,6.64,0,0,0-.13,1.4c0,.39.61.52.72.1a6.29,6.29,0,0,0,.12-1.5c0-.37.08-.81-.19-1.1a.1.1,0,0,0-.15,0Z"/><path class="cls-2" d="M191.37,84.37c0,.21-.06.53-.11.78a4.58,4.58,0,0,0-.14.89.34.34,0,0,0,.63.18,2.31,2.31,0,0,0,.21-1,1.65,1.65,0,0,0-.15-1c-.17-.26-.69-.2-.61.17a.09.09,0,0,0,.17,0Z"/><path class="cls-2" d="M187.13,83.2a8.56,8.56,0,0,0-.13,1.23,3.92,3.92,0,0,0,0,1.28c.05.15.29.22.37.05a2.68,2.68,0,0,0,.11-1.23,4.58,4.58,0,0,0-.29-1.33s-.08,0-.09,0Z"/><path class="cls-2" d="M188.08,84c-.05.26-.08.52-.11.78a1.77,1.77,0,0,0,0,.76.13.13,0,0,0,.22,0,1.43,1.43,0,0,0,.15-.67c0-.29.06-.57.07-.85s-.28-.23-.32-.05Z"/><path class="cls-2" d="M247.08,82.45l.06-.11-.16-.09a2.57,2.57,0,0,0-.17,1.51c0,.67.06,1.34.13,2s.92.42.76-.11a1.17,1.17,0,0,0-.2-.42c-.07-.09-.22-.15-.3,0a1.29,1.29,0,0,0-.25.46l.76.11c0-.72-.11-1.43-.19-2.14a2.34,2.34,0,0,0-.39-1.4.1.1,0,0,0-.16,0l0,.12c0,.09.09.13.14.06Z"/><path class="cls-2" d="M248.3,82a5.65,5.65,0,0,0-.16,2.24c0,.54,0,1.2.49,1.53a.15.15,0,0,0,.22-.06c.24-.49,0-1.06-.09-1.6s0-1.37,0-2.06a.21.21,0,0,0-.41,0Z"/><path class="cls-2" d="M249.69,82.67a3.4,3.4,0,0,0-.08,1.52c.06.45.1,1,.5,1.22a.28.28,0,0,0,.42-.17c.15-.39-.08-.81-.16-1.2s-.11-.92-.21-1.37a.24.24,0,0,0-.47,0Z"/><path class="cls-2" d="M251.32,82.75a10.44,10.44,0,0,0,.23,1.36,2.23,2.23,0,0,0,.37,1.19.19.19,0,0,0,.29,0,1.9,1.9,0,0,0-.05-1.22,5.23,5.23,0,0,0-.49-1.39.19.19,0,0,0-.35.1Z"/><path class="cls-2" d="M257.92,79.34a5.39,5.39,0,0,0,.19,1.83,2.12,2.12,0,0,0,.72,1.33.14.14,0,0,0,.21-.12,4.27,4.27,0,0,0-.55-1.42,10.22,10.22,0,0,1-.46-1.64c0-.06-.11,0-.11,0Z"/><path class="cls-2" d="M257.25,80.64c0,.55.06,1.11.1,1.67a2.75,2.75,0,0,0,.26,1.31.17.17,0,0,0,.3,0,2.53,2.53,0,0,0-.1-1.33c-.11-.55-.22-1.1-.36-1.64a.1.1,0,0,0-.2,0Z"/><path class="cls-2" d="M255.2,81.61c0,.52.05,1,0,1.56s-.12.87.17,1.2a.26.26,0,0,0,.35,0c.38-.31.26-1,.21-1.38a5.09,5.09,0,0,0-.37-1.49c-.09-.2-.4-.09-.4.11Z"/><path class="cls-2" d="M254.32,81.63c-.33.19-.33.67-.36,1s-.13.95.19,1.22a.24.24,0,0,0,.33,0c.24-.31.13-.69.12-1.07s.14-.83-.08-1.12a.15.15,0,0,0-.2-.05Z"/><path class="cls-2" d="M246.52,82.6c2-.42,4,0,5.92-.62s3.74-1.65,5.77-2.1c.17,0,.1-.29-.07-.26-2,.44-3.77,1.56-5.77,2.11s-4,.08-5.88.76c-.07,0,0,.12,0,.11Z"/><path class="cls-2" d="M179.3,79.23c1.11.08,2,.93,3,1.37a18.11,18.11,0,0,0,2.78.92,28.15,28.15,0,0,0,6.82,1c.19,0,.18-.27,0-.29a46.78,46.78,0,0,1-8-1.37c-1.43-.45-3.1-1.93-4.64-1.74,0,0-.05.07,0,.07Z"/><path class="cls-2" d="M201.46,54.52c-.67.73-1.29,1.5-2,2.22s-1.46,1.36-2.12,2.1c-.05.06,0,.16.09.11a14.62,14.62,0,0,0,4.12-4.35.07.07,0,0,0-.11-.08Z"/><polygon class="cls-1" points="185.18 158.54 190.28 166.88 199.85 209.18 179.86 211.9 173.2 188.6 185.18 158.54"/><path class="cls-2" d="M130.9,77.58c2.69,8.92,3.47,18.24-1.59,26.51-.23.39.37.74.62.35,5.18-8.25,4.66-18.11,1.52-27-.12-.34-.66-.2-.55.16Z"/><path class="cls-2" d="M129.32,104.58c.76,4.59,1.83,9.13,2.56,13.73s1.07,9.25,1.84,13.82c.05.29.5.22.5-.06a106.64,106.64,0,0,0-4.29-27.66.32.32,0,0,0-.61.17Z"/><path class="cls-2" d="M176.83,77.67c-3.15,8.9-3.66,18.76,1.52,27,.24.38.85,0,.61-.36-5.05-8.27-4.27-17.59-1.58-26.51.11-.36-.43-.5-.55-.15Z"/><path class="cls-2" d="M178.35,104.65a106.22,106.22,0,0,0-4.29,27.66c0,.28.45.35.5.06.77-4.57,1.11-9.22,1.84-13.81s1.8-9.15,2.56-13.74a.32.32,0,0,0-.61-.17Z"/><path class="cls-2" d="M133.32,132.08c-7,12.08-13.44,25.76-17,39.3-3.89,14.68-6,30.15-8.42,45.14-.06.33.43.47.5.14,2.77-14.55,4.37-29.45,8.16-43.78s11.06-27.21,17.18-40.58a.22.22,0,0,0-.39-.22Z"/><path class="cls-2" d="M107.75,217.05c7.77,1.51,15.72,2.56,23.57,3.59.33,0,.41-.53.08-.59-7.81-1.3-15.72-2.61-23.6-3.44-.24,0-.3.39,0,.44Z"/><path class="cls-2" d="M144.16,134.28c-6.93,28.13-10.65,57.18-12.93,86,0,.28.41.27.43,0,2.28-29,7.18-57.46,12.83-85.94,0-.22-.28-.31-.33-.09Z"/><path class="cls-2" d="M174.22,132.54c6.12,13.38,13.4,26.27,17.19,40.58s5.39,29.23,8.16,43.78c.06.33.55.19.5-.14-2.4-15-4.53-30.46-8.42-45.14-3.59-13.54-10-27.21-17-39.3-.15-.26-.5,0-.39.22Z"/><path class="cls-2" d="M200.13,216.86c-7.88.82-15.79,2.13-23.6,3.44-.32,0-.25.62.08.58,7.86-1,15.81-2.08,23.58-3.59.24,0,.19-.46-.06-.43Z"/><path class="cls-2" d="M163.45,134.61c5.65,28.48,10.54,57,12.82,85.94,0,.28.46.28.44,0-2.28-28.85-6-57.9-12.94-86-.05-.22-.37-.12-.32.09Z"/><path class="cls-2" d="M144.69,134.4c-7.25,27.87-8.45,58-6.46,86.6,0,.36.58.36.56,0a304.31,304.31,0,0,1,0-42.81c1-14.76,3.62-29.16,6.23-43.7a.18.18,0,0,0-.34-.09Z"/><path class="cls-2" d="M162.17,134.73c2.64,14.7,5.24,29.26,6.3,44.18a308.24,308.24,0,0,1,0,43.3c0,.36.53.35.55,0,2-28.93.8-59.38-6.53-87.57a.18.18,0,0,0-.34.09Z"/><path class="cls-2" d="M131.66,219.66c.91.13,1.84.09,2.76.18a18.07,18.07,0,0,1,3.5.77c.31.09.43-.38.13-.48a12,12,0,0,0-6.39-.67c-.1,0-.11.19,0,.2Z"/><path class="cls-2" d="M169.19,220.6a42.53,42.53,0,0,1,6.95-.92.25.25,0,0,0,0-.5,14.07,14.07,0,0,0-7,1.24c-.11.06,0,.2.08.18Z"/><path class="cls-2" d="M138.21,222.08c10.15.13,20.3.09,30.44.26.28,0,.28-.22,0-.23-10.1-.35-20.31-.57-30.44-.28-.3,0-.3.25,0,.25Z"/><path class="cls-2" d="M131.28,77.38c1.27-.7,2.56-1.36,3.89-2a37.78,37.78,0,0,0,4-1.75c.14-.08,0-.25-.1-.23-2.76.39-5.62,2.15-8,3.57a.22.22,0,0,0,.22.37Z"/><path class="cls-2" d="M138.62,73.39C140,82.73,146.36,93,153.4,99.12a.28.28,0,0,0,.4-.4A73.93,73.93,0,0,1,144.7,87c-2.57-4.35-4-9-5.87-13.66a.11.11,0,0,0-.21.06Z"/><path class="cls-2" d="M153.42,99.27c3.42-2.54,5.65-6.9,7.9-10.41a109.63,109.63,0,0,0,8.06-14.59c.18-.4-.41-.75-.59-.34A118.74,118.74,0,0,1,153.3,99.12c-.06.08,0,.22.12.15Z"/><path class="cls-2" d="M169.15,74.07a54.7,54.7,0,0,0,7.8,3.26c.28.09.46-.34.2-.46-2.51-1.25-5.23-2.16-7.82-3.23-.24-.1-.41.31-.18.43Z"/><path class="cls-2" d="M177.1,77.39a.49.49,0,0,0-.13.12s0,0,0,0a.34.34,0,0,0,.12-.12s0,0,0,0Z"/><path class="cls-2" d="M139.15,74.42a18.65,18.65,0,0,0,14.9,7.35,19.19,19.19,0,0,0,7.82-1.68A14.28,14.28,0,0,0,165.41,78c1.35-1.17,2.1-2.76,3.68-3.71.13-.08,0-.28-.13-.21-1.88,1-2.75,3-4.47,4.21a17.81,17.81,0,0,1-8.2,3c-6.74.82-12.52-2.07-17-6.91,0,0-.13,0-.09.07Z"/><path class="cls-2" d="M144.64,88.05c4.37-4,12.74-5.58,16.92-.14.1.12.31,0,.22-.13-3.8-5.74-13.14-4-17.26.15a.08.08,0,1,0,.12.12Z"/><path class="cls-2" d="M130.71,110.06c2.9,2.57,5.3,5.66,6.09,9.54,1,5.2-1.22,8.9-3.47,13.34a.24.24,0,0,0,.42.25c5.45-7.37,5.62-18.09-3-23.23-.06,0-.14.05-.08.1Z"/><path class="cls-2" d="M177.2,110.06c-4.56,1-6.49,6.58-7.3,10.61-1,5.08.91,9,4.17,12.82.18.2.53-.07.38-.29-2.79-4.19-4.91-7.63-3.74-12.88,1-4.6,3-7.24,6.53-10.18a0,0,0,0,0,0-.08Z"/><path class="cls-2" d="M138,74.89a45.71,45.71,0,0,0,14.88,24.69c.1.09.26-.06.15-.16a47.78,47.78,0,0,1-14.83-24.58c0-.14-.23-.08-.2,0Z"/><path class="cls-2" d="M170.15,75c-2.53,4.07-4.92,8.24-7.35,12.37s-4.56,8.92-8.24,12.09c-.08.07,0,.2.13.12,3.39-2.86,5.3-7.21,7.55-10.94,2.72-4.49,5.45-9,8-13.57a.07.07,0,1,0-.12-.07Z"/><path class="cls-2" d="M132.08,77.4c2.33,8.83,4.64,18.14-.88,26.29-.1.14.13.28.23.14,5.36-7.82,3.68-18,.74-26.46a0,0,0,0,0-.09,0Z"/><path class="cls-2" d="M176.36,77.35c-3.74,8.67-4.87,19.36,1,27.38,0,.06.15,0,.11-.06-5.48-8.67-4.35-18-.9-27.24,0-.11-.15-.19-.2-.08Z"/><path class="cls-2" d="M131.92,110.14a21.83,21.83,0,0,1,4.73,5.62.1.1,0,0,0,.17-.1,13.81,13.81,0,0,0-4.85-5.59s-.09,0-.05.07Z"/><path class="cls-2" d="M137.28,116.67a17.05,17.05,0,0,1-2.73,15.79c-.1.13.12.26.22.13a16.73,16.73,0,0,0,2.63-16c0-.07-.14,0-.12,0Z"/><path class="cls-2" d="M176.82,109.2a13.59,13.59,0,0,0-7.61,12.29c0,.12.17.11.18,0a14.46,14.46,0,0,1,7.52-12.13.09.09,0,0,0-.09-.16Z"/><path class="cls-2" d="M169.05,122.57a11,11,0,0,0,5.68,11.51.1.1,0,0,0,.1-.17c-4-2.73-6.08-6.35-5.65-11.32,0-.07-.12-.09-.13,0Z"/><path class="cls-2" d="M138.84,168c-.33.37-.65.75-1,1.14a3.82,3.82,0,0,0-.68,1c0,.06.06.09.1.06a5.15,5.15,0,0,0,.81-1l.84-1.12c.06-.07-.06-.16-.12-.1Z"/><path class="cls-2" d="M138.92,169.4a6,6,0,0,0-1,.93,2.83,2.83,0,0,0-.67,1,.08.08,0,0,0,.13.08,5.6,5.6,0,0,0,.71-1c.27-.35.57-.66.86-1,0-.05,0-.14-.07-.1Z"/><path class="cls-2" d="M138.91,170.75A14.49,14.49,0,0,1,138,172a12.82,12.82,0,0,0-.85,1,.06.06,0,0,0,.08.08,3.67,3.67,0,0,0,1-1,6,6,0,0,0,.76-1.23.07.07,0,1,0-.11-.07Z"/><path class="cls-2" d="M138.9,172.06a13,13,0,0,0-1.57,1.83c0,.05,0,.09.08.06a12.92,12.92,0,0,0,1.61-1.77c.07-.08,0-.2-.12-.12Z"/><path class="cls-2" d="M139.52,165.19a7.23,7.23,0,0,0-1.11.95.05.05,0,0,0,.07.08,7.21,7.21,0,0,0,1.08-1,0,0,0,1,0,0,0Z"/><path class="cls-2" d="M138.79,174.35a6.39,6.39,0,0,0-1.48.94,4.2,4.2,0,0,0-1.21,1.24c0,.06,0,.13.09.09a9.78,9.78,0,0,0,1.23-1.1c.46-.38,1-.73,1.41-1.12,0,0,0-.06,0-.05Z"/><path class="cls-2" d="M138.6,175.71a8.39,8.39,0,0,0-2.51,2.38s0,.11.07.08a12.85,12.85,0,0,0,1.22-1.11l1.33-1.21a.09.09,0,0,0-.11-.14Z"/><path class="cls-2" d="M138.21,177.39c-.35.4-.67.82-1,1.21s-.8.72-1.12,1.13c-.08.1,0,.27.15.19a4.79,4.79,0,0,0,1.19-1.1,6.13,6.13,0,0,0,.92-1.34c0-.07,0-.15-.11-.09Z"/><path class="cls-2" d="M137.93,179.43a10.62,10.62,0,0,0-1.3,1.38,6.21,6.21,0,0,0-1,1.39c0,.07,0,.12.09.08a10.71,10.71,0,0,0,1.23-1.45c.36-.44.76-.86,1.1-1.33,0-.06-.05-.12-.1-.07Z"/><path class="cls-2" d="M137.59,181.62c-.36.38-.72.77-1.09,1.15s-.78.71-1.12,1.11c0,.05,0,.13.07.09a8.52,8.52,0,0,0,2.29-2.23c.07-.09-.07-.2-.15-.12Z"/><path class="cls-2" d="M137.92,183.29c-.45.36-.88.77-1.31,1.16a9.28,9.28,0,0,0-1.13,1.13c0,.06.05.14.1.1a8,8,0,0,0,1.21-1c.43-.4.86-.8,1.26-1.23.08-.08,0-.19-.13-.12Z"/><path class="cls-2" d="M138,184.64c-.43.38-.84.77-1.26,1.17a8.1,8.1,0,0,0-1.07,1.12c-.05.07,0,.16.11.11a14.41,14.41,0,0,0,2.33-2.29.08.08,0,0,0-.11-.11Z"/><path class="cls-2" d="M137.88,187.84c-.47.57-1,1.13-1.48,1.65s-1.13,1-1.63,1.51c-.05.05,0,.13.08.1a10.28,10.28,0,0,0,3.2-3.13c.08-.1-.09-.23-.17-.13Z"/><path class="cls-2" d="M137.86,189.87c-.56.5-1.09,1-1.65,1.55a16,16,0,0,0-1.69,1.5.06.06,0,0,0,.07.09,8.45,8.45,0,0,0,1.78-1.44,14.3,14.3,0,0,0,1.56-1.65s0-.08-.07,0Z"/><path class="cls-2" d="M137.93,191.63c-1.21,1.06-2.54,2.07-3.64,3.24,0,0,0,.14.08.1a27.44,27.44,0,0,0,3.64-3.26c.05-.05,0-.12-.08-.08Z"/><path class="cls-2" d="M137.61,193.73a46.78,46.78,0,0,0-3.93,3.91.06.06,0,1,0,.08.08,46.9,46.9,0,0,0,3.91-3.94s0-.09-.06-.05Z"/><path class="cls-2" d="M137.59,196.12a44.59,44.59,0,0,0-4.78,4.64c-.05.06,0,.18.09.12a45.81,45.81,0,0,0,4.78-4.67.06.06,0,0,0-.09-.09Z"/><path class="cls-2" d="M137.58,198.16c-1.5,1.57-3.42,2.81-4.81,4.48-.05.05,0,.15.08.1a22.28,22.28,0,0,0,2.6-2.26,14.38,14.38,0,0,0,2.24-2.24c.05-.06-.05-.14-.11-.08Z"/><path class="cls-2" d="M136.52,201.09s.66-.33.28-.27c-.14,0-.38.28-.5.37-.37.29-.74.59-1.1.9a23.48,23.48,0,0,0-2.37,2.2c-.11.12.06.28.18.18.69-.62,1.34-1.28,2-1.88a15.79,15.79,0,0,0,2.09-1.81s0-.11-.06-.08-.38.24-.58.35c0,0,0,.06,0,0Z"/><path class="cls-2" d="M137.34,201.86c.2.5-2,2-2.37,2.39a26.58,26.58,0,0,0-2.48,2.27c-.07.08,0,.22.12.16a28.18,28.18,0,0,0,3.55-3.09c.28-.26,1.81-1.26,1.27-1.78a.06.06,0,0,0-.09.05Z"/><path class="cls-2" d="M138,203.36c-.88.79-1.74,1.61-2.6,2.41a21.2,21.2,0,0,0-2.55,2.46c-.05.07,0,.18.09.13a15.8,15.8,0,0,0,2.55-2.22c.89-.86,1.78-1.75,2.61-2.68a.07.07,0,0,0-.1-.1Z"/><path class="cls-2" d="M138.42,205.16c-1.07,1-2.11,2.05-3.16,3.1a23.34,23.34,0,0,0-2.72,2.9c-.06.08.06.2.14.14a23.31,23.31,0,0,0,2.83-2.79q1.53-1.6,3-3.24a.08.08,0,0,0-.11-.11Z"/><path class="cls-2" d="M137.73,207.74c-2.16,2.24-4.46,4.43-6.52,6.76a.12.12,0,0,0,.17.17,38.59,38.59,0,0,0,6.49-6.78c.08-.11-.05-.25-.14-.15Z"/><path class="cls-2" d="M137.73,209.78a58.78,58.78,0,0,0-6.39,6.82c-.08.11.08.21.17.14a57.86,57.86,0,0,0,6.34-6.84.09.09,0,0,0-.12-.12Z"/><path class="cls-2" d="M138.06,211.93a37.77,37.77,0,0,0-5.82,6.17c-.08.11.09.23.18.14,2-1.93,3.85-4.15,5.76-6.19a.09.09,0,0,0-.12-.12Z"/><path class="cls-2" d="M137.63,214.15a30.7,30.7,0,0,0-4.71,4.48c-.11.12.07.3.18.18a63.83,63.83,0,0,1,4.63-4.53c.07-.07,0-.19-.1-.13Z"/><path class="cls-2" d="M138.37,215c-.84.61-1.63,1.28-2.41,2a12.27,12.27,0,0,0-2.19,2.19c0,.05,0,.11.08.08a16.89,16.89,0,0,0,2.21-1.93c.8-.73,1.62-1.44,2.42-2.17.07-.07,0-.2-.11-.14Z"/><path class="cls-2" d="M138,216.61c-1.08.92-2.12,1.82-3.28,2.65l.18.23.19-.23s0-.15-.07-.12l-.26.1c-.21.07-.07.39.11.28a13.19,13.19,0,0,0,3.28-2.76.11.11,0,0,0-.15-.15Z"/><path class="cls-2" d="M138.16,217.91c-.42.29-.81.62-1.2,1a5.56,5.56,0,0,0-1.12,1c-.07.12.06.22.17.17a5.09,5.09,0,0,0,1.13-.9c.4-.35.8-.69,1.17-1.07.09-.1,0-.27-.15-.19Z"/><path class="cls-2" d="M138.17,219.05c-.24.19-.47.4-.69.61a2.41,2.41,0,0,0-.55.6c0,.1,0,.19.14.14a2.07,2.07,0,0,0,.61-.53c.22-.22.43-.45.63-.68a.1.1,0,0,0-.14-.14Z"/><path class="cls-2" d="M166.63,150.43q-.24.44-.45.9a1.83,1.83,0,0,0-.26.72c0,.06.08.09.12,0a2.51,2.51,0,0,0,.42-.77c.12-.28.24-.55.34-.83,0-.1-.12-.16-.17-.07Z"/><path class="cls-2" d="M166.79,151.67l-.36,1a2.65,2.65,0,0,0-.29.86c0,.06.08.08.12,0a1.85,1.85,0,0,0,.41-.77,6.33,6.33,0,0,0,.31-1.05.1.1,0,0,0-.19-.05Z"/><path class="cls-2" d="M167.17,153.12c-.09.33-.16.66-.28,1s-.3.6-.41.92c0,.07.07.11.12.07a2.47,2.47,0,0,0,.69-2c0-.07-.1-.09-.12,0Z"/><path class="cls-2" d="M167.87,154.91c-.38.78-.85,1.51-1.2,2.3,0,0,0,.1.07.06a6.75,6.75,0,0,0,1.31-2.28.1.1,0,0,0-.18-.08Z"/><path class="cls-2" d="M168,157a6.59,6.59,0,0,1-.27.86,7.37,7.37,0,0,0-.38.81c0,.06,0,.13.11.09a2.52,2.52,0,0,0,.68-1.74.07.07,0,0,0-.14,0Z"/><path class="cls-2" d="M168.35,158.41c-.16.31-.3.63-.44.94a3.21,3.21,0,0,0-.32.88c0,.05.06.11.1.06a3.3,3.3,0,0,0,.46-.87q.21-.46.39-.93c0-.11-.14-.18-.19-.08Z"/><path class="cls-2" d="M168.5,160.24a9.08,9.08,0,0,0-.95,2.08c0,.06.07.09.1,0a8.93,8.93,0,0,0,1-2.06c0-.09-.11-.15-.15-.06Z"/><path class="cls-2" d="M168.83,162.64a4.74,4.74,0,0,0-.51.94,2.23,2.23,0,0,0-.27,1,.11.11,0,0,0,.2,0,4.17,4.17,0,0,0,.32-.94c.12-.34.27-.68.4-1,0-.09-.09-.12-.14-.06Z"/><path class="cls-2" d="M169.16,164.08a8.35,8.35,0,0,0-1,2.43.07.07,0,0,0,.13.06,8.65,8.65,0,0,0,1-2.43c0-.09-.12-.15-.16-.06Z"/><path class="cls-2" d="M169.11,166.27c-.17.39-.3.79-.5,1.16a7,7,0,0,0-.54,1c0,.05.05.11.11.08a2.36,2.36,0,0,0,.66-1,4.17,4.17,0,0,0,.42-1.23c0-.09-.11-.16-.15-.07Z"/><path class="cls-2" d="M169.46,167.6c-.22.41-.4.83-.59,1.25a4.38,4.38,0,0,0-.48,1.14.09.09,0,0,0,.14.09,4,4,0,0,0,.63-1.16,9.37,9.37,0,0,0,.46-1.25c0-.09-.11-.15-.16-.07Z"/><path class="cls-2" d="M169.75,168.9c-.26.41-.5.84-.73,1.27a4,4,0,0,0-.55,1.2.09.09,0,0,0,.15.08,4,4,0,0,0,.68-1.11c.23-.44.45-.88.65-1.33a.11.11,0,0,0-.2-.11Z"/><path class="cls-2" d="M169.73,170.73c-.28.81-.75,1.53-1,2.33a.09.09,0,0,0,.15.09A5.3,5.3,0,0,0,170,170.8a.12.12,0,0,0-.23-.07Z"/><path class="cls-2" d="M171,175.52c.31-.06-.2.33-.31.46s-.34.43-.5.65a9,9,0,0,0-1.13,1.68c0,.1.08.22.16.13a10,10,0,0,0,1-1.4c.37-.52.72-1,1.06-1.59a0,0,0,0,0-.05,0l-.26,0c-.06,0,0,.1,0,.08Z"/><path class="cls-2" d="M171,176.92c-.39.51-.72,1.07-1.06,1.62a8.39,8.39,0,0,0-.84,1.49.09.09,0,0,0,.14.08,8.68,8.68,0,0,0,1-1.42c.33-.55.69-1.09,1-1.67.06-.12-.1-.2-.18-.1Z"/><path class="cls-2" d="M171.36,178.94c-.3.51-.6,1-.93,1.48a12.61,12.61,0,0,0-1,1.41.08.08,0,0,0,.13.1,5.5,5.5,0,0,0,1.05-1.3,14,14,0,0,0,.93-1.59c0-.11-.1-.2-.16-.1Z"/><path class="cls-2" d="M170.82,173.42c-.4.44-.78.89-1.16,1.35a9.22,9.22,0,0,0-1,1.25c0,.06.05.13.1.08a15.15,15.15,0,0,0,.95-1.28c.36-.47.74-.92,1.13-1.37a0,0,0,0,0,0,0Z"/><path class="cls-2" d="M172,181.87a5.92,5.92,0,0,0-1.59,1.64,6.64,6.64,0,0,0-1.19,2,.07.07,0,0,0,.12.07,21.8,21.8,0,0,0,1.32-1.83,13.86,13.86,0,0,0,1.4-1.76,0,0,0,0,0-.06-.07Z"/><path class="cls-2" d="M172.07,184a14.72,14.72,0,0,0-2.88,3.43.08.08,0,0,0,.13.1,14.59,14.59,0,0,0,1.44-1.69c.48-.57,1-1.13,1.45-1.69.09-.1-.05-.24-.14-.15Z"/><path class="cls-2" d="M172.17,185.9a24.64,24.64,0,0,0-2.59,3.34c0,.06,0,.13.11.08a24.26,24.26,0,0,0,2.64-3.31c.06-.08-.09-.2-.16-.11Z"/><path class="cls-2" d="M172.65,187.22c-.48.61-1,1.22-1.49,1.81a10,10,0,0,0-1.38,1.62.09.09,0,0,0,.12.12,7.07,7.07,0,0,0,1.55-1.63c.48-.58.93-1.18,1.38-1.79.07-.1-.1-.23-.18-.13Z"/><path class="cls-2" d="M173.2,188.6a31.31,31.31,0,0,0-3.49,4.15c-.06.09.07.18.14.11a32.11,32.11,0,0,0,3.47-4.14c.06-.08,0-.21-.12-.12Z"/><path class="cls-2" d="M173.1,190.3c-.58.72-1.13,1.47-1.7,2.2a13.16,13.16,0,0,0-1.55,2c0,.08,0,.18.12.13a9.85,9.85,0,0,0,1.76-2,20.87,20.87,0,0,0,1.54-2.18c.06-.1-.09-.23-.17-.13Z"/><path class="cls-2" d="M173.14,191.94a34.49,34.49,0,0,0-3.6,4.75.09.09,0,0,0,.13.11,34.15,34.15,0,0,0,3.61-4.75c.06-.08-.07-.19-.14-.11Z"/><path class="cls-2" d="M173.44,193.79c-.67.79-1.3,1.62-1.92,2.46a11.56,11.56,0,0,0-1.71,2.58c0,.07.08.12.13.07a13.78,13.78,0,0,0,1.75-2.33c.64-.89,1.29-1.76,1.92-2.65.07-.1-.09-.22-.17-.13Z"/><path class="cls-2" d="M173.54,196a44.33,44.33,0,0,0-4.14,5.44.07.07,0,0,0,.11.09,45.07,45.07,0,0,0,4.21-5.39c.08-.11-.1-.25-.18-.14Z"/><path class="cls-2" d="M173.59,198.17a22.93,22.93,0,0,0-3.78,5.31c0,.06.05.13.1.08a25.77,25.77,0,0,0,1.64-2.38c.69-1,1.41-2,2.16-2.89.07-.08-.05-.2-.12-.12Z"/><path class="cls-2" d="M174.46,200.37a18.32,18.32,0,0,0-4.71,6c0,.09.07.2.15.11.8-1,1.42-2.08,2.2-3.07s1.67-1.91,2.52-2.84a.12.12,0,0,0-.16-.17Z"/><path class="cls-2" d="M174.48,202.3a41.13,41.13,0,0,0-4.91,6.77c0,.1.08.21.16.13a31.65,31.65,0,0,0,2.36-3.16c.86-1.2,1.76-2.37,2.53-3.63.06-.08-.07-.19-.14-.11Z"/><path class="cls-2" d="M175.24,204.3a29.16,29.16,0,0,0-5.3,6.67c0,.08.06.17.12.1a35.78,35.78,0,0,0,2.47-3.16c.92-1.19,1.9-2.32,2.82-3.5.06-.08,0-.18-.11-.11Z"/><path class="cls-2" d="M175.15,207c-1.21,1.23-2.29,2.6-3.37,3.94a30.33,30.33,0,0,0-2.79,3.72.08.08,0,0,0,.13.1,47,47,0,0,0,3.26-4c1-1.2,2-2.38,2.91-3.63.06-.08-.07-.18-.14-.1Z"/><path class="cls-2" d="M175.59,208.75c.13.44-1.48,1.76-1.76,2.07-.55.61-1.09,1.22-1.62,1.84a25,25,0,0,0-2.66,3.5c-.06.1.09.22.17.13,1.24-1.32,2.26-2.85,3.43-4.22.8-.93,2.24-2,2.65-3.16,0,0,0-.07,0-.09l-.14-.1s0,0,0,0Z"/><path class="cls-2" d="M175.76,212.07a24.79,24.79,0,0,0-5.76,6.72c-.06.1.09.22.17.13.94-1.13,1.79-2.34,2.74-3.46s2-2.18,2.93-3.32c0,0,0-.11-.08-.07Z"/><path class="cls-2" d="M175.8,214.16a31.43,31.43,0,0,0-5.09,5.71c-.08.12.11.26.21.16a70,70,0,0,0,5-5.73.1.1,0,0,0-.14-.14Z"/><path class="cls-2" d="M175.9,215.82c-.62.54-1.18,1.16-1.76,1.74a6.77,6.77,0,0,0-1.52,1.65c0,.07,0,.17.1.14a5.82,5.82,0,0,0,1.69-1.52,16.33,16.33,0,0,0,1.65-1.88c.07-.1-.07-.2-.16-.13Z"/><path class="cls-2" d="M175.85,217.24a5.78,5.78,0,0,1-.95,1.19,8.56,8.56,0,0,0-1,.84.12.12,0,0,0,.1.18,2.33,2.33,0,0,0,1.21-.82,4.34,4.34,0,0,0,.85-1.31c0-.11-.12-.17-.18-.08Z"/><path class="cls-2" d="M134,134.12c-3.4,6-6.16,12.59-9.1,18.88-2.3,4.9-4.76,10.12-4.88,15.63,0,.08.14.11.15,0,2.07-12.47,9.33-22.91,13.88-34.51,0,0,0,0-.05,0Z"/><path class="cls-2" d="M119.23,170.72a185.8,185.8,0,0,0-7.92,44.86c0,.13.2.13.21,0a199.87,199.87,0,0,1,8-44.79c0-.15-.19-.22-.24-.07Z"/><path class="cls-2" d="M146.22,134.79c0-.16.07-.32.1-.47a.08.08,0,0,0-.15,0c-.56,2.68-1,5.38-1.51,8.08,0,.17.23.24.26.07a53.41,53.41,0,0,0,1.23-7.65s.06,0,.07,0Z"/><path class="cls-2" d="M147.43,133.86a44.88,44.88,0,0,0-1,6c0,.07.1.09.12,0a48.11,48.11,0,0,0,1-6c0-.08-.13-.1-.14,0Z"/><path class="cls-2" d="M148.34,134a21.44,21.44,0,0,0-.4,4,.06.06,0,0,0,.11,0,22.15,22.15,0,0,0,.44-4,.08.08,0,0,0-.15,0Z"/><path class="cls-2" d="M161,134.11c.74,3.76,1.73,7.49,2.65,11.21,0,.15.25.09.22-.06-.88-3.73-1.7-7.5-2.75-11.19,0-.08-.14,0-.12,0Z"/><path class="cls-2" d="M159.88,134.38a80.54,80.54,0,0,0,2.25,10.73.05.05,0,0,0,.1,0A80.81,80.81,0,0,0,160,134.37c0-.06-.12-.06-.11,0Z"/><path class="cls-2" d="M158.4,134.05a15.69,15.69,0,0,0,.44,3.28.07.07,0,0,0,.14,0,16.52,16.52,0,0,0-.4-3.28c0-.1-.19-.08-.18,0Z"/><path class="cls-2" d="M135.39,133.27a12.44,12.44,0,0,0-1.24,4.4.07.07,0,0,0,.13,0c.48-1.43.74-2.93,1.24-4.36,0-.08-.1-.13-.13-.06Z"/><path class="cls-2" d="M136.68,133.12a22.67,22.67,0,0,0-1.23,3.82c0,.07.09.12.12.05a22.23,22.23,0,0,0,1.24-3.83.07.07,0,0,0-.13,0Z"/><path class="cls-2" d="M173.47,134.82c.93,1.78,1.69,3.54,2.45,5.38,0,.08.16.06.14,0a15.56,15.56,0,0,0-2.49-5.4c0-.06-.13,0-.1,0Z"/><path class="cls-2" d="M172.21,134.25c.2.67.45,1.32.68,2a8.19,8.19,0,0,0,.72,1.69c0,.07.13,0,.12,0a9.43,9.43,0,0,0-.72-2c-.24-.56-.47-1.12-.73-1.67,0,0-.08,0-.07,0Z"/><path class="cls-2" d="M144,146.51a333.92,333.92,0,0,0-4.16,35.38c0,.15.21.15.22,0,1.09-11.83,2.65-23.57,4-35.36,0-.05-.08-.07-.08,0Z"/><path class="cls-2" d="M139.61,183.15c-1.08,12.27-.46,24.73.51,37a0,0,0,0,0,.08,0c-1-12.35-.73-24.62-.47-37,0-.08-.12-.08-.12,0Z"/><path class="cls-2" d="M163.28,147.08c1.62,12.28,3.09,24.45,4.16,36.8,0,.15.24.15.23,0a199.85,199.85,0,0,0-4.31-36.81s-.09,0-.08,0Z"/><path class="cls-2" d="M167.08,185.52c-.26,6.16-.16,12.36-.21,18.54-.05,5.93.52,12.26-1,18.05a.05.05,0,1,0,.1,0c1.74-5.21,1-11.25,1.07-16.66,0-6.64.27-13.32.1-20,0-.07-.1-.07-.11,0Z"/><path class="cls-2" d="M167.43,146.78c.83,2.83,1.61,5.66,2.42,8.49a.05.05,0,0,0,.1,0,38.45,38.45,0,0,0-2.44-8.48s-.09,0-.08,0Z"/><path class="cls-2" d="M168.52,147.07a73.14,73.14,0,0,1,2.1,7.1c0,.05.08,0,.07,0a28.32,28.32,0,0,0-2.11-7.1s-.07,0-.06,0Z"/><path class="cls-2" d="M177.1,141.53c4.31,10.76,10.37,20.57,12.69,32.07a0,0,0,0,0,.09,0,54.19,54.19,0,0,0-4.7-15.05c-2.54-5.71-5.07-11.54-8-17,0,0-.07,0-.05,0Z"/><path class="cls-2" d="M190.65,176.23c3.65,12.67,4.63,26.49,6.31,39.53,0,.2.34.2.32,0q-1.2-9.72-2.67-19.39c-1-6.57-1.32-14-3.9-20.15,0,0-.07,0-.06,0Z"/><path class="cls-2" d="M132.89,111.88a6.6,6.6,0,0,0-1.29,2c0,.11.13.17.19.07.41-.67.76-1.36,1.24-2,.07-.08-.07-.18-.14-.11Z"/><path class="cls-2" d="M133.75,112.7a12.65,12.65,0,0,0-1.06,1.63c-.38.62-.84,1.21-1.17,1.86,0,.1.08.21.16.12a12,12,0,0,0,1.16-1.74,8.71,8.71,0,0,0,.94-1.85s0,0,0,0Z"/><path class="cls-2" d="M134.05,114.12c-.42.61-.79,1.24-1.17,1.87a11.3,11.3,0,0,0-1,1.69c0,.06.06.11.1.06a10.37,10.37,0,0,0,1-1.65c.38-.63.76-1.26,1.09-1.91a.05.05,0,0,0-.09-.06Z"/><path class="cls-2" d="M134.86,114.79a23.76,23.76,0,0,0-2.35,4,.08.08,0,0,0,.13.08,22.67,22.67,0,0,0,2.32-4c0-.06-.06-.12-.1-.06Z"/><path class="cls-2" d="M135.69,115.93a18.37,18.37,0,0,0-1.46,2.31,17.91,17.91,0,0,0-1.3,2.4s0,.07.07,0a19,19,0,0,0,1.45-2.31,18.6,18.6,0,0,0,1.29-2.41s0,0-.05,0Z"/><path class="cls-2" d="M136.36,117.18a30.45,30.45,0,0,0-3.14,5c0,.06.05.13.09.08a30,30,0,0,0,3.1-5.08s0-.06,0,0Z"/><path class="cls-2" d="M137,118.84a19.37,19.37,0,0,0-4,6.51.07.07,0,0,0,.12.05c1.38-2.13,2.63-4.35,4-6.5,0-.05-.05-.11-.09-.06Z"/><path class="cls-2" d="M137.43,121a33,33,0,0,0-3.82,6,.08.08,0,0,0,.14.08c1.26-2,2.43-4,3.82-6,.06-.09-.07-.16-.14-.08Z"/><path class="cls-2" d="M137.34,123.2a38.38,38.38,0,0,0-3.45,5.5c0,.09.07.2.14.11a39.32,39.32,0,0,0,3.46-5.52.09.09,0,0,0-.15-.09Z"/><path class="cls-2" d="M137,125.94a20.09,20.09,0,0,0-3.25,4.78.08.08,0,0,0,.13.08c1.09-1.59,2-3.26,3.17-4.82,0,0,0-.07-.05,0Z"/><path class="cls-2" d="M176.56,111.34a26.09,26.09,0,0,0-5.37,6.77c0,.06.05.13.1.08,1-1.17,1.78-2.46,2.72-3.65s1.82-2.05,2.63-3.14c0-.05,0-.09-.08-.06Z"/><path class="cls-2" d="M177,112.67a32.7,32.7,0,0,0-6.52,8.88.06.06,0,0,0,.1.06,76.06,76.06,0,0,1,6.49-8.87s0-.12-.07-.07Z"/><path class="cls-2" d="M176.44,115.2a36.24,36.24,0,0,0-6.38,9.67c-.05.12.11.22.17.1a83,83,0,0,1,6.28-9.72s0-.08-.07,0Z"/><path class="cls-2" d="M175.6,118.69a33.87,33.87,0,0,0-4.94,7.84.1.1,0,1,0,.17.1c1.64-2.62,3.15-5.29,4.85-7.88,0,0,0-.11-.08-.06Z"/><path class="cls-2" d="M174.86,122.37a60,60,0,0,0-3.8,6.46.08.08,0,0,0,.14.08,58.62,58.62,0,0,0,3.78-6.46c.05-.08-.07-.16-.12-.08Z"/><path class="cls-2" d="M175,125.14a16.86,16.86,0,0,0-2.67,4.14c0,.1.12.15.17.07.9-1.37,1.69-2.78,2.63-4.12,0-.07-.07-.16-.13-.09Z"/><path class="cls-2" d="M174.56,127.31a38,38,0,0,0-2.13,3.72.12.12,0,0,0,.2.12,37.09,37.09,0,0,0,2.08-3.76.09.09,0,0,0-.15-.08Z"/><path class="cls-2" d="M174.18,130.55a6.6,6.6,0,0,0-1.1,2.59c0,.08.11.1.14,0a12.64,12.64,0,0,0,.53-1.27c.18-.43.39-.84.61-1.25a.11.11,0,0,0-.18-.11Z"/><path class="cls-2" d="M141.91,77.09c-.25.34-.48.7-.7,1a3.64,3.64,0,0,0-.57,1,.07.07,0,0,0,.11.06,4,4,0,0,0,.64-.93c.22-.35.44-.71.64-1.08,0-.08-.07-.13-.12-.07Z"/><path class="cls-2" d="M142.87,78a7.09,7.09,0,0,0-.85,1.11,3.47,3.47,0,0,0-.61,1.27s.05.11.1.06a8.1,8.1,0,0,0,.65-1.15c.24-.43.51-.84.78-1.24a0,0,0,0,0-.07,0Z"/><path class="cls-2" d="M143.75,78.89a4.68,4.68,0,0,0-1.53,3,.05.05,0,0,0,.1,0,13.81,13.81,0,0,1,.57-1.56,5.82,5.82,0,0,1,1-1.35.07.07,0,0,0-.1-.1Z"/><path class="cls-2" d="M144.74,79.51c-.73,1.22-1.5,2.46-2.11,3.74a.1.1,0,0,0,.17.1c.76-1.2,1.41-2.5,2.06-3.77,0-.08-.08-.15-.12-.07Z"/><path class="cls-2" d="M146.18,80.05a49.66,49.66,0,0,0-2.92,4.7.07.07,0,0,0,.12.08,51.84,51.84,0,0,0,2.94-4.69.08.08,0,0,0-.14-.09Z"/><path class="cls-2" d="M147.84,80.87a30.48,30.48,0,0,0-3.08,5.91.08.08,0,0,0,.14.06C146,85,147,82.9,148,80.94a.07.07,0,0,0-.12-.07Z"/><path class="cls-2" d="M149.55,81.28a27.85,27.85,0,0,0-3.23,5.29c0,.07.08.11.12.05,1.17-1.68,2.1-3.55,3.23-5.27.05-.08-.07-.14-.12-.07Z"/><path class="cls-2" d="M150.82,81.64l-1.25,1.68a10.46,10.46,0,0,0-1.16,1.73.09.09,0,0,0,.14.1,9.58,9.58,0,0,0,1.17-1.59c.42-.61.83-1.23,1.23-1.84.06-.09-.07-.16-.13-.08Z"/><path class="cls-2" d="M153.16,81.61a8.06,8.06,0,0,0-1.07,1.46,5.23,5.23,0,0,0-.77,1.66.08.08,0,0,0,.14.06c.34-.48.53-1.09.82-1.6s.64-1,.94-1.53c0,0,0-.09-.06,0Z"/><path class="cls-2" d="M155.36,81.81q-.45.54-.87,1.11a9.34,9.34,0,0,0-.9,1.29.06.06,0,0,0,.09.07,7.92,7.92,0,0,0,.89-1.1c.31-.42.63-.84.92-1.28,0-.07-.07-.16-.13-.09Z"/><path class="cls-2" d="M158.23,81.08a14.33,14.33,0,0,0-.92,1.42,5.82,5.82,0,0,0-.66,1.35.07.07,0,0,0,.12.05,10.34,10.34,0,0,0,.77-1.38c.26-.46.54-.91.8-1.37a.07.07,0,1,0-.11-.07Z"/><path class="cls-2" d="M160.24,80.16a25.09,25.09,0,0,0-3.11,4.73.08.08,0,0,0,.14.08c1.07-1.54,2-3.16,3.09-4.71,0-.07-.07-.17-.12-.1Z"/><path class="cls-2" d="M161.84,79.74a28.29,28.29,0,0,0-3.34,5.48c0,.06.06.08.1,0a61.8,61.8,0,0,0,3.33-5.47c0-.05-.06-.1-.09-.05Z"/><path class="cls-2" d="M164.16,78.81A38,38,0,0,0,159.39,86c0,.08.07.14.11.07,1.66-2.34,3.16-4.83,4.74-7.22,0-.05,0-.11-.08-.06Z"/><path class="cls-2" d="M168.26,75.49c-2.47,3.43-4.95,6.85-7.47,10.25-.1.13.13.26.23.13a112.8,112.8,0,0,0,7.34-10.32c0-.07-.05-.12-.1-.06Z"/><path class="cls-2" d="M140.67,129.66c-.2.4-.33.84-.49,1.26a7.69,7.69,0,0,0-.45,1.46.06.06,0,0,0,.1.05,8,8,0,0,0,.52-1.25c.17-.48.36-1,.48-1.45,0-.1-.11-.17-.16-.07Z"/><path class="cls-2" d="M141.61,129.87c-.16.41-.28.84-.42,1.26a5.29,5.29,0,0,0-.3,1.12c0,.07.1.09.14,0a5.36,5.36,0,0,0,.4-1.1c.13-.42.27-.84.38-1.26a.1.1,0,0,0-.2-.06Z"/><path class="cls-2" d="M142.52,130.23a8.69,8.69,0,0,0-.36,1.65,0,0,0,0,0,.09,0,8.07,8.07,0,0,0,.39-1.63c0-.08-.1-.11-.12,0Z"/><path class="cls-2" d="M143.58,130a5.52,5.52,0,0,0-.55,2.76.06.06,0,0,0,.12,0c.24-.9.33-1.81.6-2.71,0-.1-.13-.17-.17-.07Z"/><path class="cls-2" d="M164,128.83a11,11,0,0,0,.81,2.89.06.06,0,0,0,.11,0,10.92,10.92,0,0,0-.81-2.89.06.06,0,0,0-.11,0Z"/><path class="cls-2" d="M165.16,129a3.74,3.74,0,0,0,.87,2.42.06.06,0,0,0,.11-.06,8.94,8.94,0,0,0-.49-1.16,10.63,10.63,0,0,1-.36-1.22.07.07,0,0,0-.13,0Z"/><path class="cls-2" d="M167.05,129q.27.49.51,1c.16.34.25.72.44,1a.06.06,0,0,0,.11,0,4.34,4.34,0,0,0-1-2.05s0,0,0,0Z"/><path class="cls-2" d="M168.23,129.36a8.26,8.26,0,0,0,.6,1.44.06.06,0,0,0,.11,0,8.34,8.34,0,0,0-.57-1.46.08.08,0,0,0-.14.06Z"/><polyline class="cls-1" points="110.55 195.46 110.89 197.87 114.42 222.63 99.93 226.03"/><path class="cls-2" d="M74.81,95.16c-1,7.09,3.36,14.57,11,14.89a10.25,10.25,0,0,0,8.53-3.73c2.5-3.16,2.92-7.45,3.27-11.31,0-.23-.32-.22-.35,0-.4,3.45-.85,7.08-2.77,10.07a9.55,9.55,0,0,1-8.41,4.34C78.69,109.27,74.36,102,75,95.18c0-.11-.19-.14-.21,0Z"/><path class="cls-2" d="M74.8,95.19A25.05,25.05,0,0,0,71,97.28c-1.36.76-2.75,1.48-4.15,2.16-3.06,1.5-6.31,2.77-9.24,4.52-.18.1-.06.43.15.35,3.09-1.17,6-2.84,9-4.28,2.6-1.25,6.21-2.49,8-4.81,0,0,0,0,0,0Z"/><path class="cls-2" d="M58,103.91c-2.89,2.21-5.29,5.42-7.76,8.09-2.7,2.92-5.46,5.81-8,8.88-.19.22.12.54.33.32,2.75-2.87,5.33-5.91,8-8.85,2.46-2.7,5.48-5.31,7.52-8.33,0-.06,0-.16-.11-.11Z"/><path class="cls-2" d="M42.06,121.54c4,5.16,8.47,10,12.53,15.17.2.26.65-.08.45-.34a108.57,108.57,0,0,0-12.79-15,.13.13,0,0,0-.19.19Z"/><path class="cls-2" d="M54.59,136.94c1.49-.22,3-1.37,4.28-2.16s2.69-1.48,3.42-2.64a.12.12,0,0,0-.13-.17c-1.37.42-2.62,1.66-3.81,2.44s-2.81,1.41-3.81,2.44a.05.05,0,0,0,.05.09Z"/><path class="cls-2" d="M58.08,104.71c5.68,8.05,6.24,17.4,4.66,26.85-.05.31.42.44.48.13,1.87-9.12,1-19.59-5.06-27,0-.05-.12,0-.08.06Z"/><path class="cls-2" d="M62.86,131.86c-.47,4.26-.27,8.68-.43,13q-.27,6.71-.7,13.41c-.27,4.33-.59,8.66-.92,13-.31,4-.9,8.06-.26,12.05.06.36.68.28.63-.08-.51-4.1,0-8.25.27-12.35q.48-6.48.87-13,.39-6.33.65-12.65c.17-4.39.59-9,.17-13.36a.14.14,0,0,0-.28,0Z"/><path class="cls-2" d="M62.87,131.22c-.45.35-.9.69-1.34,1.05s-.84.56-1,1c0,.1.07.17.16.16.44-.08.82-.54,1.17-.81l1.31-1.09c.2-.17-.09-.44-.29-.28Z"/><path class="cls-2" d="M63,131.87s0,0,0,0a0,0,0,0,0,0,0Z"/><path class="cls-2" d="M63.29,131c-.62.37-1.24.74-1.83,1.16a7.16,7.16,0,0,0-1.52,1.21c0,.06,0,.17.08.14a7.73,7.73,0,0,0,1.71-1.14c.55-.42,1.07-.87,1.59-1.33,0,0,0-.05,0,0Z"/><path class="cls-2" d="M97.47,94.73c1.83,2.32,5.44,3.55,8,4.8,3,1.44,5.92,3.12,9,4.28.21.08.33-.24.15-.35-2.93-1.75-6.18-3-9.24-4.52-1.4-.68-2.79-1.4-4.15-2.16a25.05,25.05,0,0,0-3.79-2.09s0,0,0,0Z"/><path class="cls-2" d="M114.18,103.52c2,3,5.06,5.63,7.52,8.33,2.68,2.94,5.26,6,8,8.85.21.22.52-.1.33-.32-2.53-3.07-5.29-6-8-8.88-2.47-2.67-4.87-5.88-7.76-8.09-.06,0-.15,0-.11.11Z"/><path class="cls-2" d="M130,120.85a109.15,109.15,0,0,0-12.79,15c-.2.26.24.6.45.34,4.06-5.14,8.49-10,12.53-15.17a.13.13,0,0,0-.19-.19Z"/><path class="cls-2" d="M117.75,136.35c-1-1-2.6-1.64-3.81-2.43s-2.45-2-3.81-2.45a.12.12,0,0,0-.13.17c.74,1.16,2.27,1.93,3.42,2.64s2.8,1.94,4.28,2.16a.05.05,0,0,0,0-.09Z"/><path class="cls-2" d="M114.13,104.15c-6.06,7.45-6.93,17.92-5.06,27,.06.32.53.18.47-.13-1.57-9.45-1-18.8,4.67-26.84,0,0,0-.12-.08-.07Z"/><path class="cls-2" d="M109.17,131.13c-.42,4.19,0,8.59.14,12.8.16,4.43.4,8.85.66,13.28q.38,6.42.85,12.83c.3,4.2.81,8.46.29,12.66,0,.36.57.44.63.09.64-4,.05-8-.26-12-.33-4.4-.65-8.8-.92-13.2s-.5-8.6-.67-12.91c-.17-4.48,0-9.1-.44-13.55a.14.14,0,0,0-.28,0Z"/><path class="cls-2" d="M109.13,131l1.31,1.09c.34.27.73.73,1.17.81.08,0,.2-.06.16-.15-.17-.43-.67-.69-1-1s-.89-.71-1.34-1.06c-.2-.16-.49.11-.29.28Z"/><path class="cls-2" d="M109.29,131.37s0,0,0,0,0,0,0,0Z"/><path class="cls-2" d="M109,130.52c.52.46,1,.92,1.59,1.33a7.39,7.39,0,0,0,1.71,1.14c.09,0,.13-.08.08-.14a7.16,7.16,0,0,0-1.52-1.21c-.59-.42-1.21-.79-1.83-1.16,0,0,0,0,0,0Z"/><path class="cls-2" d="M60.68,183.27a.29.29,0,0,1,.24-.37s0,0,0,0a.31.31,0,0,0-.25.41s0,0,0,0Z"/><path class="cls-2" d="M60.66,183.29a26.32,26.32,0,0,0,5.82.3l6.21.06q6.6.06,13.19.14l12.8.14c4.19,0,8.31-.7,12.49-.59.29,0,.37-.48.07-.53-3.8-.65-7.94.52-11.78.51-4.4,0-8.8-.07-13.19-.09s-8.54-.06-12.8-.09l-6.6-.06a27.41,27.41,0,0,0-6.21.2Z"/><path class="cls-2" d="M74.75,95.52c7.29,2.06,15.81,3.17,22.82-.36.14-.07,0-.28-.12-.21-7.44,3.52-15,1.86-22.67.46-.07,0-.1.09,0,.11Z"/><path class="cls-2" d="M74.71,96.44c2.88,2,6.93,2.54,10.38,2.71a31.51,31.51,0,0,0,11.52-1.66c.12,0,.07-.24,0-.19A32.42,32.42,0,0,1,85.78,99c-3.65-.07-7.94-.55-11-2.61a0,0,0,1,0,0,.06Z"/><path class="cls-2" d="M75.7,95.4c-.29.37-.58.75-.84,1.14,0,.06,0,.1.09,0,.27-.37.53-.77.78-1.17,0,0,0,0,0,0Z"/><path class="cls-2" d="M76.06,95.78c-.27.38-.54.77-.8,1.16a0,0,0,0,0,.07,0c.27-.39.52-.78.78-1.18,0,0,0,0,0,0Z"/><path class="cls-2" d="M76.73,96.05a3.37,3.37,0,0,0-.48.52,1.34,1.34,0,0,0-.33.56,0,0,0,0,0,.06,0,4.52,4.52,0,0,0,.34-.51,4.88,4.88,0,0,1,.48-.54s0-.11-.07-.07Z"/><path class="cls-2" d="M77.8,96.13a6.45,6.45,0,0,0-.65.63,3.53,3.53,0,0,0-.6.68s0,.06,0,0a3.88,3.88,0,0,0,.64-.64,5.43,5.43,0,0,0,.59-.68s0,0,0,0Z"/><path class="cls-2" d="M78.42,96.27a6,6,0,0,0-1,1.25s0,.07.06,0a6.45,6.45,0,0,0,1-1.26s0-.07,0,0Z"/><path class="cls-2" d="M79.19,96.44c-.27,0-.49.33-.66.52a4,4,0,0,0-.53.76c0,.07.07.13.1.06a3.8,3.8,0,0,1,.54-.77,3.24,3.24,0,0,0,.55-.56s0,0,0,0Z"/><path class="cls-2" d="M79.87,96.54a3.19,3.19,0,0,0-1,.72,3,3,0,0,0-.78.91s0,.06.05,0a7.56,7.56,0,0,0,.78-.82,9.07,9.07,0,0,0,.92-.83s0,0,0,0Z"/><path class="cls-2" d="M80.44,96.72a4.55,4.55,0,0,0-.84.74,5.93,5.93,0,0,0-.74.84.06.06,0,0,0,.1.08c.29-.26.53-.58.79-.86a6.56,6.56,0,0,0,.72-.77,0,0,0,0,0,0,0Z"/><path class="cls-2" d="M81.24,96.94c-.26.24-.5.5-.75.75a3.38,3.38,0,0,0-.63.73,0,0,0,0,0,.06,0,3.32,3.32,0,0,0,.68-.67c.24-.26.48-.52.71-.79,0-.05,0-.11-.07-.07Z"/><path class="cls-2" d="M82,97.07a6.08,6.08,0,0,0-.91.85,2.89,2.89,0,0,0-.69.91,0,0,0,0,0,.06,0,4.51,4.51,0,0,0,.75-.82c.28-.31.59-.59.87-.88,0,0,0-.15-.08-.1Z"/><path class="cls-2" d="M82.68,97.12c-.3.28-.58.59-.86.9a6,6,0,0,0-.72.86s0,.07.07.05a8.14,8.14,0,0,0,.81-.85c.26-.29.52-.59.76-.9,0,0,0-.11-.06-.06Z"/><path class="cls-2" d="M83.65,97.17a5.32,5.32,0,0,0-1.46,1.53s0,.13.1.07a8.83,8.83,0,0,1,1.43-1.5s0-.14-.07-.1Z"/><path class="cls-2" d="M84.85,97.13a8.74,8.74,0,0,0-.93.8,3.71,3.71,0,0,0-.8.92s0,.07,0,.05a6.44,6.44,0,0,0,.82-.83c.29-.3.61-.59.91-.88,0,0,0-.09-.05-.06Z"/><path class="cls-2" d="M85.52,97.42c-.26.29-.5.6-.74.91a6.54,6.54,0,0,0-.63.86,0,0,0,0,0,.06,0,5.33,5.33,0,0,0,.67-.82c.24-.31.48-.62.7-.94,0,0,0-.09-.06,0Z"/><path class="cls-2" d="M86.85,97.28a5.41,5.41,0,0,0-1.38,1.9c0,.07.07.09.11,0,.22-.29.38-.62.58-.92a11.65,11.65,0,0,1,.74-1,0,0,0,1,0-.05-.06Z"/><path class="cls-2" d="M87.56,97.5a10,10,0,0,0-1.37,1.68s0,.08.06,0a10,10,0,0,0,1.38-1.67s0-.1-.07-.06Z"/><path class="cls-2" d="M88.86,97.24a10.42,10.42,0,0,0-.81,1,5.86,5.86,0,0,0-.66.91s0,.07.06,0a6.73,6.73,0,0,0,.79-1,8.44,8.44,0,0,0,.66-.91s0,0,0,0Z"/><path class="cls-2" d="M90.13,97.15a17.29,17.29,0,0,0-1.41,1.93c0,.06,0,.13.1.08a18.27,18.27,0,0,0,1.38-2s0-.08-.07,0Z"/><path class="cls-2" d="M91.4,97a6,6,0,0,0-.9.85,2.44,2.44,0,0,0-.54.88s0,.07.06,0a9.91,9.91,0,0,0,.66-.9,5.43,5.43,0,0,1,.78-.81s0-.09-.06-.06Z"/><path class="cls-2" d="M93.62,96.43a9.54,9.54,0,0,0-1,1,4.87,4.87,0,0,0-.8,1s0,0,0,0c.32-.31.58-.69.88-1s.63-.64.94-1c0,0,0-.08,0,0Z"/><path class="cls-2" d="M94.73,96.27c-.36.37-.69.76-1,1.15a8.15,8.15,0,0,0-.86,1.08s0,0,0,0a9,9,0,0,0,1-1.07c.32-.37.64-.74.94-1.12,0,0,0-.12-.07-.07Z"/><path class="cls-2" d="M95.77,95.87A9.66,9.66,0,0,1,95,97c-.26.34-.58.62-.83,1,0,0,0,.09.06.06a5.27,5.27,0,0,0,1.6-2.15s0-.1-.08,0Z"/><path class="cls-2" d="M97.58,95.33a13.06,13.06,0,0,0-.9,1.07,4.28,4.28,0,0,0-.7,1s0,.06.06,0a6.13,6.13,0,0,0,.76-1l.82-1.13s0,0,0,0Z"/><path class="cls-2" d="M58.88,104.43a31.79,31.79,0,0,0,7-3c2.6-1.33,5.22-2.63,7.8-4,.07,0,0-.14-.07-.1-4.88,2.39-9.58,5.32-14.74,7.08,0,0,0,0,0,0Z"/><path class="cls-2" d="M57.69,105.51c-4.92,5.1-9.47,10.63-14.12,16a.05.05,0,0,0,.08.07c4.71-5.28,9.62-10.5,14.06-16,0,0,0,0,0,0Z"/><path class="cls-2" d="M97.69,96.2c5,3,10.15,5.85,15.34,8.5.07,0,.13-.07.06-.11-5.16-2.75-10.18-5.76-15.36-8.45,0,0-.08,0,0,.06Z"/><path class="cls-2" d="M129.27,120.76a94.81,94.81,0,0,0-12.72,13.47c0,.08,0,.19.11.11a113.3,113.3,0,0,1,12.67-13.52s0-.09-.06-.06Z"/><path class="cls-2" d="M43.83,122.28q5.74,6.31,11.51,12.62s.13,0,.08-.08c-3.69-4.31-7.57-8.53-11.54-12.59,0,0-.08,0-.05,0Z"/><path class="cls-2" d="M114.4,105.19c4.69,5.16,9.46,10.25,14.18,15.39.07.08.19,0,.12-.12-4.72-5.14-9.42-10.29-14.22-15.35,0,0-.13,0-.08.08Z"/><path class="cls-2" d="M61.31,181.3c8,.81,16.19.44,24.23.36s16.41,0,24.59-.45a.07.07,0,0,0,0-.14c-16.27.27-32.56.88-48.82.19,0,0,0,0,0,0Z"/><path class="cls-2" d="M63.24,129.64a38.76,38.76,0,0,0-.16,4.17s.05,0,.06,0a38.67,38.67,0,0,0,.19-4.17,0,0,0,0,0-.09,0Z"/><path class="cls-2" d="M63.7,129a22.8,22.8,0,0,0-.66,5.2s.06,0,.06,0c.26-1.72.43-3.47.65-5.19,0,0,0,0,0,0Z"/><path class="cls-2" d="M63.56,128.61c-.24,2.16-.49,4.33-.61,6.5,0,.07.09.06.1,0,.26-2.16.4-4.34.55-6.5a0,0,0,1,0,0,0Z"/><path class="cls-2" d="M63.58,128.6a57.2,57.2,0,0,0-.64,6.38,0,0,0,0,0,.09,0,59.32,59.32,0,0,0,.59-6.38s0,0,0,0Z"/><path class="cls-2" d="M63.69,129.11a38,38,0,0,0-.5,6.65,0,0,0,0,0,.09,0c.21-2.2.34-4.44.42-6.65Z"/><path class="cls-2" d="M108.78,127.82a21.77,21.77,0,0,0,.53,4.56s.06,0,0,0c-.14-1.52-.36-3-.52-4.56a0,0,0,0,0-.06,0Z"/><path class="cls-2" d="M108.59,126.78c.1,2.38.2,4.79.45,7.16,0,.05.08.05.08,0,0-2.38-.25-4.78-.44-7.16,0,0-.09,0-.09,0Z"/><path class="cls-2" d="M108.47,126.52c.21,2.57.42,5.15.79,7.69,0,0,.07,0,.06,0-.16-2.56-.48-5.13-.8-7.68,0,0,0,0,0,0Z"/><path class="cls-2" d="M108.24,126.39c.15,2.82.34,5.66.69,8.46,0,0,0,0,0,0-.11-2.82-.39-5.65-.71-8.46a0,0,0,1,0,0,0Z"/><path class="cls-2" d="M108.74,129.64c.08,3,.11,5.92.34,8.86a0,0,0,0,0,0,0c0-2.95-.2-5.91-.34-8.86,0,0-.06,0-.05,0Z"/><path class="cls-2" d="M74.06,99.47c1.24,4.72,4.12,10.18,9.51,10.9.05,0,.06-.08,0-.09a11.1,11.1,0,0,1-6-3.48c-1.86-1.91-2.66-4.9-3.52-7.35a0,0,0,0,0,0,0Z"/><path class="cls-2" d="M84.33,110.47a11.68,11.68,0,0,0,6.62-.56,9,9,0,0,0,2-1,17.78,17.78,0,0,0,2.39-2.73s0-.11-.06-.06a10.33,10.33,0,0,1-4.59,3.73c-2.12.82-4.12.65-6.33.56Z"/><path class="cls-2" d="M95.76,105.34a15.69,15.69,0,0,0,2-8.12s-.07,0-.07,0a20.5,20.5,0,0,1-2,8.11s0,0,0,0Z"/><path class="cls-2" d="M61.92,193.65c-3.17,7.63-3.58,16.4-4.51,24.52q-1.54,13.34-2.55,26.73c0,.36.53.37.56,0q1-13,2.36-26c.9-8.33,1.2-17.34,4.31-25.21,0-.1-.12-.15-.17,0Z"/><path class="cls-2" d="M61.11,193.49c4.35,1.25,8.63,3.56,13.18,4a.25.25,0,0,0,.07-.48,53,53,0,0,1-6.86-1.83,21,21,0,0,0-6.37-1.76c-.06,0-.08.09,0,.1Z"/><path class="cls-2" d="M76.63,197.71c3.19-.07,6.41.6,9.62.7,2.89.09,6.16.61,8.9-.53.24-.1.08-.5-.17-.43-3.23,1-6.85.49-10.18.4-2.65-.08-5.61-1-8.2-.46a.16.16,0,0,0,0,.32Z"/><path class="cls-2" d="M54.64,244.68c8.45,2.27,17.7,5.27,26.53,3.94.31-.05.19-.53-.12-.48-8.91,1.33-17.72-1.91-26.33-3.76-.19,0-.28.25-.08.3Z"/><path class="cls-2" d="M54.32,244.49c-.08.66-.08,1.33-.1,2a3.61,3.61,0,0,0,.1,1.54.13.13,0,0,0,.22,0,3.48,3.48,0,0,0,.17-1.54c0-.67,0-1.34,0-2a.19.19,0,0,0-.37,0Z"/><path class="cls-2" d="M54.5,248.15c4.07,1.94,9,2.45,13.38,3.22s9.1,2.06,13.41,1.13c.25-.05.14-.4-.1-.37-4.63.57-9.35-.47-13.9-1.26-4.16-.72-8.77-1.2-12.6-3-.21-.1-.4.21-.19.31Z"/><path class="cls-2" d="M81.23,248.38a7.9,7.9,0,0,0,.22,1.59c0,.37.09.75.11,1.13,0,.14,0,.29,0,.43a1,1,0,0,0,.14.64.09.09,0,0,0-.17,0v.05a.09.09,0,0,0,0,.11l0,0a.13.13,0,0,0,.16,0c.25-.43.06-1.2,0-1.67a5.22,5.22,0,0,0-.55-2.25Z"/><path class="cls-2" d="M81.6,252.05c-.23,0-.6.17-.68.41,0,0,0,.07.06,0a2.43,2.43,0,0,0,.28-.2,1.2,1.2,0,0,1,.37-.15.06.06,0,0,0,0-.11Z"/><path class="cls-2" d="M81.68,252.3c-.13,0-.19,0-.3,0l-.25.06a.86.86,0,0,0-.4.18.06.06,0,0,0,0,.1,1.06,1.06,0,0,0,.46-.07,1.57,1.57,0,0,0,.28-.1,2.14,2.14,0,0,0,.19-.13s0,0,0,0Z"/><path class="cls-2" d="M81.52,252.06a1.29,1.29,0,0,0-1.06.37.05.05,0,0,0,.06.09,2.73,2.73,0,0,1,1-.36c.06,0,.07-.1,0-.1Z"/><path class="cls-2" d="M85.57,199.93c.15,5.71-.12,11.43-.26,17.14a.13.13,0,0,0,.26,0c.07-3.08.15-6.16.22-9.25a37.15,37.15,0,0,0-.2-7.89s0,0,0,0Z"/><path class="cls-2" d="M61.13,193.35a6.36,6.36,0,0,1,.09-1.51,10.66,10.66,0,0,1,.5-1.26c0-.05,0-.09-.08-.05a3.4,3.4,0,0,0-.59,2.83,0,0,0,0,0,.08,0Z"/><path class="cls-2" d="M61.7,190.85c2.49,1,5.24.59,7.66,1.73a12.35,12.35,0,0,0,5.55,1.65.19.19,0,0,0,0-.37c-2.66,0-4.42-1.51-6.86-2.17a40.93,40.93,0,0,0-6.35-.87s0,0,0,0Z"/><path class="cls-2" d="M74.85,194.11l.09-.17s0,0,0,0a.15.15,0,0,0-.1.19s0,0,0,0Z"/><path class="cls-2" d="M74.88,194.05s-.39,3.94-.43,4.26a6,6,0,0,0,.06,3c0,.11.21,0,.19-.07a12.78,12.78,0,0,1,.16-4.09,13.55,13.55,0,0,0,.33-3.15.07.07,0,0,0-.06-.07c-.16,0-.14-.06-.28,0s0,.08,0,.07Z"/><path class="cls-2" d="M76.56,194.24c-.2,2.29-.16,4.59-.45,6.88,0,.16.22.16.24,0a26.09,26.09,0,0,0,.22-6.89s0,0,0,0Z"/><path class="cls-2" d="M75,194a1.75,1.75,0,0,0,.69.1,3.79,3.79,0,0,1,.87.26c.11,0,.17-.14.05-.19a3.17,3.17,0,0,0-.91-.26A1,1,0,0,0,75,194s0,0,0,0Z"/><path class="cls-2" d="M74.4,201.42c.63,0,1.27-.12,1.89-.2.11,0,.07-.17,0-.16-.62.07-1.25.12-1.86.24a.06.06,0,0,0,0,.12Z"/><path class="cls-2" d="M76.72,194.28c5.87,1.57,12.92,2.31,18.83.63a.22.22,0,0,0-.11-.42c-6,1.7-12.64.59-18.7-.34-.07,0-.09.11,0,.13Z"/><path class="cls-2" d="M95.56,194.74c-.15,2-.17,4-.19,6a.13.13,0,0,0,.25,0c.07-2,.13-4,.07-6a.07.07,0,0,0-.13,0Z"/><path class="cls-2" d="M95.48,200.92a10.8,10.8,0,0,0,1.14-.17.11.11,0,0,0-.05-.22,10.06,10.06,0,0,0-1.11.3,0,0,0,1,0,0,.09Z"/><path class="cls-2" d="M96.77,200.73a31.9,31.9,0,0,0-.06-6.18c0-.12-.21-.09-.21,0,0,2.06.1,4.1.1,6.15a.09.09,0,0,0,.17,0Z"/><path class="cls-2" d="M95.7,194.86a6.41,6.41,0,0,0,1-.18c.16,0,.09-.26-.06-.24a6,6,0,0,0-1,.22c-.1,0-.09.21,0,.2Z"/><path class="cls-2" d="M96.84,194.83a35.36,35.36,0,0,0,7.2-.2c2.8-.46,5.28-1.9,8.11-2.21.22,0,.25-.36,0-.35-2.46,0-4.61,1.32-6.94,1.93a30.91,30.91,0,0,1-8.37.62.11.11,0,0,0,0,.21Z"/><path class="cls-2" d="M96.85,197.66a62.88,62.88,0,0,0,8.52-1.22c1.42-.24,2.83-.48,4.23-.75a4.63,4.63,0,0,0,2.73-1c.11-.11,0-.32-.17-.23-2.12,1.27-5.18,1.38-7.58,1.8-2.56.45-5.22.71-7.73,1.38,0,0,0,0,0,0Z"/><path class="cls-2" d="M111.93,192.24a10.93,10.93,0,0,1,.14,2.29c0,.17.24.17.26,0a4.61,4.61,0,0,0-.25-2.36c0-.1-.17,0-.15.06Z"/><path class="cls-2" d="M96.83,198.44a109.12,109.12,0,0,0,13,.26.16.16,0,0,0,0-.32,109.09,109.09,0,0,0-13-.07.07.07,0,1,0,0,.13Z"/><path class="cls-2" d="M109.82,198.69c.89-.48.68-1.67.49-2.46a.1.1,0,1,0-.19.05,2.18,2.18,0,0,1-.38,2.29.07.07,0,0,0,.08.12Z"/><path class="cls-2" d="M110.11,196.36a4.07,4.07,0,0,0-2.65-.44c-.17,0-.14.31,0,.3a9.73,9.73,0,0,1,2.58.23c.05,0,.09-.06,0-.09Z"/><path class="cls-2" d="M61.75,190.75c8.37.53,16.75.78,25.13.95,8.17.16,16.35.45,24.52.43.17,0,.18-.26,0-.26-16.55-.64-33.11-.39-49.66-1.24a.06.06,0,0,0,0,.12Z"/><path class="cls-2" d="M83.36,193a8,8,0,0,0,0,1.2,4.7,4.7,0,0,0,.1,1.06c0,.06.13.08.14,0a4.37,4.37,0,0,0,0-1.14,6.11,6.11,0,0,0-.13-1.13s-.08,0-.09,0Z"/><path class="cls-2" d="M89.57,193.49c0,.34,0,.67,0,1a2.89,2.89,0,0,0,0,.88.08.08,0,0,0,.15,0,2.58,2.58,0,0,0,.06-.88c0-.33,0-.67,0-1a.1.1,0,0,0-.19,0Z"/><path class="cls-2" d="M83.43,193.25c2,.2,4,.11,6,.12a.12.12,0,0,0,0-.24c-2,0-4.06-.14-6.06,0-.07,0-.07.1,0,.1Z"/><path class="cls-2" d="M84,193.1c-.21.09-.53.41-.4.67a.06.06,0,0,0,.09,0,2.06,2.06,0,0,0,.12-.26.73.73,0,0,1,.27-.28c.09-.05,0-.17-.08-.14Z"/><path class="cls-2" d="M84.34,193.25a1.82,1.82,0,0,0-.59.55c-.12.18-.3.47-.24.69,0,0,.07.07.1,0a3.64,3.64,0,0,0,.25-.57,1.8,1.8,0,0,1,.53-.6c.06,0,0-.14,0-.1Z"/><path class="cls-2" d="M84.75,193.12a6,6,0,0,0-.63.7,2.16,2.16,0,0,0-.48.79.06.06,0,0,0,.09.06,3.31,3.31,0,0,0,.5-.72l.57-.79s0-.07,0,0Z"/><path class="cls-2" d="M85,193.28a10.24,10.24,0,0,0-1.43,1.78c-.07.1.09.19.16.1.44-.61.93-1.2,1.33-1.84,0,0,0-.07-.06,0Z"/><path class="cls-2" d="M85.56,193.21a3.18,3.18,0,0,0-.88.91,2.67,2.67,0,0,0-.65,1.09.06.06,0,0,0,.09.06c.32-.2.5-.66.72-1a5.45,5.45,0,0,0,.74-1.08s0,0,0,0Z"/><path class="cls-2" d="M89.62,193.16a21.24,21.24,0,0,0-1.4,2,.11.11,0,0,0,.19.12,23,23,0,0,0,1.31-2c0-.06,0-.14-.1-.08Z"/><path class="cls-2" d="M89.7,193.8a3,3,0,0,0-.75.76c-.17.23-.5.57-.45.86,0,.05.06.06.09.05.25-.11.39-.51.54-.73s.46-.56.65-.86c0,0,0-.12-.08-.08Z"/><path class="cls-2" d="M89.71,194.3a3.19,3.19,0,0,0-.38.46,1.17,1.17,0,0,0-.25.48s0,.06.08,0a1.53,1.53,0,0,0,.34-.42,2.65,2.65,0,0,0,.27-.53s0-.07-.06,0Z"/><path class="cls-2" d="M89.5,194.94l-.09.11s0,.08,0,.06l.12-.08c.06-.05,0-.15-.08-.09Z"/><path class="cls-2" d="M66.67,195.75q-1.69,4.55-3.28,9.14c-1,2.77-1.81,5.61-4,7.66a.22.22,0,0,0,.3.31c1.94-1.75,2.89-4.12,3.72-6.55,1.2-3.48,2.33-7,3.42-10.52,0-.09-.11-.14-.15,0Z"/><path class="cls-2" d="M67.17,196.1a9.27,9.27,0,0,0-.62,1.84s0,0,0,0a9.93,9.93,0,0,0,.58-1.85Z"/><path class="cls-2" d="M67.51,195.91a10.51,10.51,0,0,0-.54,1.84s0,.05,0,0a10.2,10.2,0,0,0,.52-1.85s0,0,0,0Z"/><path class="cls-2" d="M68,195.91c-.17.58-.33,1.17-.47,1.75,0,.06.08.09.1,0,.16-.58.31-1.17.44-1.76,0,0-.05-.06-.07,0Z"/><path class="cls-2" d="M77.91,194.49a17.07,17.07,0,0,1,5.29-.05c.09,0,.11-.14,0-.15a14,14,0,0,0-5.35.08c-.07,0,0,.13,0,.12Z"/><path class="cls-2" d="M89.66,194.29a43.61,43.61,0,0,1,5.23.47s.08-.06,0-.08a11.31,11.31,0,0,0-5.27-.44,0,0,0,0,0,0,0Z"/><path class="cls-2" d="M59.42,212.58c-.16.13-.34.24-.51.37l-.54.45s0,.12.08.08l.51-.43c.17-.14.32-.3.48-.45s0,0,0,0Z"/><path class="cls-2" d="M59.53,212.79c-.24.17-.47.37-.71.55a3.21,3.21,0,0,0-.68.59s0,.1.07.07a3.06,3.06,0,0,0,.65-.55c.23-.21.47-.41.69-.63,0,0,0,0,0,0Z"/><path class="cls-2" d="M66.34,198.4c-1,2.92-1.6,6-2.46,8.93a14.24,14.24,0,0,1-4.61,7.26s0,0,0,0a11.5,11.5,0,0,0,4.24-5.74,74.14,74.14,0,0,0,2.84-10.46s0,0,0,0Z"/><path class="cls-2" d="M62.44,193.93c-1.42,2.64-1.94,5.7-2.5,8.61a29,29,0,0,0-.72,9.14s.05,0,.05,0a40.09,40.09,0,0,1,.83-9.46,33.93,33.93,0,0,1,2.35-8.28s0,0,0,0Z"/><path class="cls-2" d="M76.72,197.79c.17-.11.12.61.12.7l0,1c0,.62,0,1.23,0,1.85,0,.06.1.07.1,0,0-1.22.13-2.47.07-3.69,0,0,0,0,0,0l-.18.16Z"/><path class="cls-2" d="M76.66,197.78c-.1,1.11,0,2.24-.15,3.36,0,.09.14.09.15,0a11.82,11.82,0,0,0,0-3.36s0,0,0,0Z"/><path class="cls-2" d="M95.07,197.81a6.29,6.29,0,0,0,0,1.37c0,.11.14,1.29.17,1.28s0-.06,0-.06h0a0,0,0,0,0,0,0v.05a.07.07,0,0,0,0,.06l0,0a.08.08,0,0,0,.1,0c.21-.2,0-.62,0-.86-.06-.63-.05-1.26-.1-1.88a0,0,0,1,0-.09,0Z"/><path class="cls-2" d="M61.86,191.22a.57.57,0,0,1-.1-.49h0a.53.53,0,0,0,.1.51s0,0,0,0Z"/><path class="cls-2" d="M61.89,191.22c0-.15-.07-.31-.1-.46s0,0-.06,0a4.38,4.38,0,0,0-.63,2.57c0,.07.12.1.13,0,.08-.49.11-1,.23-1.48a5.48,5.48,0,0,1,.22-.72c.13-.35.11-.13.16.09,0,0,.06,0,0,0Z"/><path class="cls-2" d="M61.55,190.7a5.2,5.2,0,0,0-.36,2.64s.08,0,.08,0c.06-.38,0-.76.08-1.14a9.08,9.08,0,0,1,.28-1.47c0-.06-.06-.08-.08,0Z"/><path class="cls-2" d="M61.59,191a25.15,25.15,0,0,0-.24,2.73c0,.05.09.07.1,0a22.66,22.66,0,0,0,.21-2.74s-.06,0-.07,0Z"/><path class="cls-2" d="M61.83,191a6.49,6.49,0,0,0-.21,2.36c0,.09.14.1.14,0a20.62,20.62,0,0,1,.15-2.36s-.06,0-.08,0Z"/><path class="cls-2" d="M62.18,191a6.42,6.42,0,0,0-.29,2.75c0,.06.08,0,.09,0a25,25,0,0,1,.25-2.72s0-.05,0,0Z"/><path class="cls-2" d="M62.58,191.11a25,25,0,0,0-.4,2.85c0,.06.09.07.1,0a23,23,0,0,0,.34-2.86s0,0,0,0Z"/><path class="cls-2" d="M63.11,191.38a10.82,10.82,0,0,0-.34,2.48c0,.07.11.07.12,0a10.42,10.42,0,0,0,.23-2.48Z"/><path class="cls-2" d="M63.55,191.38a5.71,5.71,0,0,0-.3,2.62c0,.05.08,0,.08,0,0-.4,0-.81.06-1.22s.13-.92.21-1.38a0,0,0,0,0-.05,0Z"/><path class="cls-2" d="M64.08,191.4a7.8,7.8,0,0,0-.35,3.11s.07,0,.08,0c.12-1,.16-2.05.34-3.08a0,0,0,1,0-.07,0Z"/><path class="cls-2" d="M76.8,194.65a8.85,8.85,0,0,0,0,2.62c0,.07.13.06.12,0a16.29,16.29,0,0,1-.11-2.61s0,0,0,0Z"/><path class="cls-2" d="M76.61,194.4a11.62,11.62,0,0,0,.12,2.5c0,.06.09,0,.1,0a12.22,12.22,0,0,0-.1-2.49c0-.07-.12-.08-.12,0Z"/><path class="cls-2" d="M76.9,194.41c0,.82.12,1.65.21,2.48,0,.06.11.07.1,0-.07-.83-.14-1.66-.26-2.49,0,0-.06,0,0,0Z"/><path class="cls-2" d="M77.29,194.41a7.74,7.74,0,0,0,.16,3.25s.07,0,.07,0a32,32,0,0,1-.16-3.24s-.07,0-.07,0Z"/><path class="cls-2" d="M77.75,194.67a19.77,19.77,0,0,0,0,3,0,0,0,0,0,.08,0,18.49,18.49,0,0,0,.08-3,.06.06,0,0,0-.11,0Z"/><path class="cls-2" d="M78.39,194.68a5.56,5.56,0,0,0,.08,2.37s.07,0,.07,0c0-.79-.11-1.57-.05-2.36,0-.07-.1-.07-.1,0Z"/><path class="cls-2" d="M79.15,194.82a10.29,10.29,0,0,0,0,2.88s.07,0,.07,0c0-.95,0-1.91,0-2.86,0-.05-.06-.05-.06,0Z"/><path class="cls-2" d="M97.84,197.19c-.26.36-.56.7-.81,1.07,0,.06.06.12.1.06.28-.35.51-.74.77-1.1a0,0,0,0,0-.06,0Z"/><path class="cls-2" d="M98.1,197.33l-.3.44a1.42,1.42,0,0,0-.24.41s0,0,0,0a1.67,1.67,0,0,0,.25-.4c.09-.16.18-.31.26-.47,0,0,0,0,0,0Z"/><path class="cls-2" d="M98.61,197.46a1.67,1.67,0,0,0-.65.86s0,0,0,0,.16-.3.26-.44a2.05,2.05,0,0,1,.37-.41s0,0,0,0Z"/><path class="cls-2" d="M99.47,197.22a3.65,3.65,0,0,0-1.08,1.33s0,.06,0,0c.17-.2.29-.43.45-.64a6.64,6.64,0,0,1,.61-.7s0,0,0,0Z"/><path class="cls-2" d="M100.35,197c-.19.22-.38.45-.56.68a5.61,5.61,0,0,0-.58.8s0,.07.05,0a4.69,4.69,0,0,0,.56-.69c.19-.26.39-.53.57-.8,0,0,0-.05,0,0Z"/><path class="cls-2" d="M101.2,196.89a8.42,8.42,0,0,0-1,1.59s0,.05.06,0a9.28,9.28,0,0,0,1-1.6s0,0,0,0Z"/><path class="cls-2" d="M102.11,196.8a9.68,9.68,0,0,0-1.31,1.69,0,0,0,0,0,.06,0,9.45,9.45,0,0,0,1.3-1.7s0-.06,0,0Z"/><path class="cls-2" d="M102.92,196.76c-.09.09-.18.12-.27.22a2.34,2.34,0,0,0-.24.31,2.36,2.36,0,0,0-.38.74c0,.05.06.09.09,0,.15-.21.24-.45.39-.66a2.83,2.83,0,0,1,.2-.28c.08-.1.15-.25.23-.35s0,0,0,0Z"/><path class="cls-2" d="M103.93,196.42a5.34,5.34,0,0,0-1.41,1.86s0,.05,0,0c.23-.29.4-.62.62-.92s.51-.63.78-.93a0,0,0,0,0,0,0Z"/><path class="cls-2" d="M104.82,196.35c-.44.59-.9,1.19-1.3,1.82,0,.05,0,.1.08.05.47-.58.87-1.22,1.29-1.83a0,0,0,1,0-.07,0Z"/><path class="cls-2" d="M105.79,196.22a21,21,0,0,0-1.77,2.33s0,0,0,0a21.13,21.13,0,0,0,1.77-2.34s0,0,0,0Z"/><path class="cls-2" d="M106.93,196.12a8.47,8.47,0,0,0-1.7,2.46s0,.06.07,0c.27-.37.48-.8.74-1.18s.62-.84.95-1.24c0-.05,0-.11-.06-.07Z"/><path class="cls-2" d="M107.9,196a11.49,11.49,0,0,0-1.26,2.24c0,.06.07.1.1.05.42-.75.8-1.51,1.23-2.25,0,0,0-.08-.07,0Z"/><path class="cls-2" d="M108.46,196.19a13.3,13.3,0,0,0-1.12,2.31s0,0,0,0a13.68,13.68,0,0,0,1.14-2.3s0-.07-.07,0Z"/><path class="cls-2" d="M109.28,196.18a14,14,0,0,0-1.39,2.48s0,.06.06,0a13.62,13.62,0,0,0,1.39-2.47,0,0,0,0,0-.06,0Z"/><path class="cls-2" d="M110,196.55a17.58,17.58,0,0,0-1.36,2.24s0,.07.06,0a18,18,0,0,0,1.37-2.23c0-.05,0-.09-.07,0Z"/><path class="cls-2" d="M110.28,197a8.78,8.78,0,0,0-.79,1.48s0,.06.07,0a9.78,9.78,0,0,0,.77-1.47s0-.08,0,0Z"/><path class="cls-2" d="M111.29,192.52c.06.38.16.77.25,1.15s.12.84.23,1.24c0,0,.06,0,.06,0a7,7,0,0,0-.55-2.47s-.06,0,0,0l0,.08s0,0,0,0Z"/><path class="cls-2" d="M110.47,192.65a10.29,10.29,0,0,0,.61,2.62s0,0,0,0c-.12-.86-.4-1.75-.58-2.61,0,0-.08,0-.08,0Z"/><path class="cls-2" d="M109.78,192.74a16.45,16.45,0,0,0,.57,2.5s.08,0,.07,0a16.86,16.86,0,0,0-.57-2.51c0-.05-.08,0-.07,0Z"/><path class="cls-2" d="M85.19,224.25c-1.75,8-3.62,16-4.53,24.15,0,.25.36.25.39,0,1-8.11,2.89-16.07,4.32-24.11,0-.11-.15-.16-.18-.05Z"/><path class="cls-2" d="M85.32,224.5c.48,4.08,1.55,8.18,2.42,12.19a98.56,98.56,0,0,0,3.31,12.17c.07.2.39.12.32-.09a106.15,106.15,0,0,1-3.31-12.17c-.87-4-1.47-8.19-2.66-12.12,0,0-.08,0-.08,0Z"/><path class="cls-2" d="M91.33,249.06c-.09,0-.12-.1-.21-.13a1.53,1.53,0,0,0-.37,0,1.69,1.69,0,0,0-.72.23.13.13,0,0,0,.12.22,1.75,1.75,0,0,1,.63-.22h.3c.06,0,.18,0,.24,0s0,0,0-.05Z"/><path class="cls-2" d="M90.17,249.24c.09,1.42.34,2.85.56,4.25,0,.19.31.11.28-.07-.2-1.39-.39-2.82-.72-4.19a.06.06,0,0,0-.12,0Z"/><path class="cls-2" d="M90.43,249.2a104.73,104.73,0,0,0,27-5.78c.25-.09.16-.49-.1-.41a153.77,153.77,0,0,1-26.9,5.91c-.15,0-.13.29,0,.28Z"/><path class="cls-2" d="M117.13,242.87c.5.32.57,1.11.73,1.65a5.31,5.31,0,0,0,.55,1.52.07.07,0,0,0,.13,0,4.28,4.28,0,0,0-.29-1.21c-.14-.47-.27-1-.44-1.41-.12-.31-.28-.69-.67-.61,0,0,0,.07,0,.09Z"/><path class="cls-2" d="M90.87,253.25a15,15,0,0,0,6-.65c2.42-.62,4.84-1.29,7.25-1.95,4.74-1.28,9.49-2.59,14.17-4.08.22-.07.14-.42-.09-.35-4.48,1.31-9,2.62-13.48,3.86s-9.18,3-13.87,3a.09.09,0,0,0,0,.17Z"/><path class="cls-2" d="M111,195.13v.25c0,.16.25.17.26,0v-.25c0-.16-.25-.16-.26,0Z"/><path class="cls-2" d="M110.59,195.36a97.35,97.35,0,0,1,1.85,11.79c.57,4.22,1.12,8.45,1.59,12.69.43,3.76.69,7.54,1.17,11.3.51,4.1,2,8.15,1.63,12.32,0,.23.34.24.37,0,.36-3.79-.89-7.38-1.45-11.09-.63-4.16-.86-8.39-1.33-12.58q-.69-6-1.51-12c-.55-4.08-.71-8.58-2-12.5a.16.16,0,0,0-.31.08Z"/><path class="cls-2" d="M106.1,199.15c2.59,2.38,2.63,5.25,3.56,8.4a16.6,16.6,0,0,0,3.54,6.7c.1.1.28,0,.2-.15a27.62,27.62,0,0,1-3.85-8.7c-.58-2.66-1.25-4.53-3.36-6.34-.06-.05-.16,0-.09.09Z"/><path class="cls-2" d="M105,199.55c1.7,1.06,2.14,2.7,3,4.4,0,0,.07,0,.06,0-.4-1.67-1.37-3.64-3-4.38,0,0,0,0,0,0Z"/><path class="cls-2" d="M108,205.25c.89,1.68,1.08,3.62,1.87,5.35a14.72,14.72,0,0,0,3,4.22c.06.05.14,0,.09-.08a14.68,14.68,0,0,1-3.33-5,33.48,33.48,0,0,0-1.57-4.48s-.07,0,0,0Z"/><path class="cls-2" d="M110.45,198.46c1,4.2,1.36,8.5,2.11,12.74,0,0,0,0,0,0a96.17,96.17,0,0,0-2.11-12.74s0,0,0,0Z"/><path class="cls-2" d="M88.21,200.13c.52,6-.15,11.77-.26,17.72a.06.06,0,0,0,.12,0,72.64,72.64,0,0,0,.22-17.74,0,0,0,0,0-.08,0Z"/><path class="cls-2" d="M85.89,200l2.36-.1c.07,0,.07-.1,0-.1-.79,0-1.58.06-2.36.1-.07,0-.07.1,0,.1Z"/><path class="cls-2" d="M85.76,217.7c-.16,0-.2.06-.28.21a.05.05,0,0,0,0,.08c.87-.05,1.73-.14,2.6-.24.08,0,.08-.14,0-.13l-1.4.14-.6.06-.4,0c-.06,0,0,0,0-.14s0,0,0,0Z"/><path class="cls-2" d="M59,215.41a224.56,224.56,0,0,0-2.27,28.13.09.09,0,0,0,.17,0c.24-9.43,1.12-18.77,2.15-28.14,0,0,0,0,0,0Z"/><path class="cls-2" d="M113,215.67a120,120,0,0,0,1.19,13c.63,4.68,2,9.44,1.68,14.18,0,.06.08.06.09,0,.53-4.22-.83-8.62-1.44-12.78-.69-4.78-1-9.56-1.44-14.37,0,0-.09-.06-.08,0Z"/><path class="cls-2" d="M75.11,202.44a13.16,13.16,0,0,1-.26,2.73,0,0,0,0,0,.05,0,5.93,5.93,0,0,0,.27-2.74s-.06,0-.06,0Z"/><path class="cls-2" d="M75.38,202.32a19,19,0,0,0-.06,2.61,0,0,0,0,0,.06,0,17.48,17.48,0,0,0,.05-2.61,0,0,0,0,0-.05,0Z"/><path class="cls-2" d="M75.85,203a6.49,6.49,0,0,0-.14,2.24s0,0,0,0a18.57,18.57,0,0,1,.12-2.24s0,0,0,0Z"/><path class="cls-2" d="M76.12,202.83a14.88,14.88,0,0,0,0,1.49s0,0,0,0a14.88,14.88,0,0,0,0-1.49s0,0,0,0Z"/><path class="cls-2" d="M77.81,202.88a9.13,9.13,0,0,0,1.82,3.4,26.5,26.5,0,0,0,2.49,3.11s0,0,0,0c-.83-1-1.68-2-2.45-3.11a9.25,9.25,0,0,1-1.83-3.37c0-.05-.07,0-.06,0Z"/><path class="cls-2" d="M78.81,204.52a21.46,21.46,0,0,0,3.59,4.24s.06,0,0,0a51.81,51.81,0,0,1-3.62-4.21s0,0,0,0Z"/><path class="cls-2" d="M79.91,205.17a20,20,0,0,0,2.91,3.31s.11,0,.07-.07c-1-1.06-2-2.14-2.94-3.27,0,0,0,0,0,0Z"/><path class="cls-2" d="M55.26,244.61c0,1.22.15,2.49.24,3.71,0,.07.11.08.11,0s0-.19,0-.34,0,0,0,0c-.05.21,0,.22.07,0l0-.57c0-.34,0-.67-.07-1a12.76,12.76,0,0,0-.21-1.86,0,0,0,1,0,0,0Z"/><path class="cls-2" d="M54.83,244.87a14.55,14.55,0,0,0,0,3.49,0,0,0,0,0,.07,0,14.48,14.48,0,0,0-.09-3.48Z"/><path class="cls-2" d="M55.58,245c0,1.11.06,2.25.18,3.36,0,0,.09.06.09,0,0-1.11-.1-2.25-.2-3.36,0,0-.07,0-.07,0Z"/><path class="cls-2" d="M56.07,245c0,1.24,0,2.51.19,3.74,0,0,.05,0,.06,0,0-1.23-.09-2.49-.18-3.73,0,0-.07,0-.07,0Z"/><path class="cls-2" d="M85.77,224.17a9.94,9.94,0,0,0,.7,2.33,15.42,15.42,0,0,1,1,4.17,38.75,38.75,0,0,0,1.35,5.58.06.06,0,0,0,.11,0,47,47,0,0,1-1.44-6.64c-.21-1.93-1.34-3.53-1.67-5.43,0,0-.08,0-.07,0Z"/><path class="cls-2" d="M89,236.54c.62,2.22,1.23,4.36,1.68,6.62a11.69,11.69,0,0,0,1.88,4.89s.08,0,.06,0c-2.23-3.39-2.08-7.77-3.59-11.48a0,0,0,0,0,0,0Z"/><path class="cls-2" d="M84.79,223.85a115.52,115.52,0,0,0-4.1,18s.06,0,.07,0c1.3-6,2.28-12.12,4.07-18,0,0,0,0,0,0Z"/><path class="cls-2" d="M80.64,242.59c-.31,2-.48,4-.79,5.93,0,.08.1.11.11,0a44.45,44.45,0,0,0,.71-6s0,0,0,0Z"/><path class="cls-2" d="M80.43,248.84a17.72,17.72,0,0,1,.54,3.54c0,.06.08.06.08,0a11.1,11.1,0,0,0-.55-3.57s-.08,0-.07,0Z"/><path class="cls-2" d="M91,249.89l-.07-.26s0,0,0,0a11.51,11.51,0,0,0,.74,3.48,0,0,0,0,0,.07,0c-.14-.57-.32-1.14-.45-1.72A11.93,11.93,0,0,0,91,249.9a0,0,0,0,0,0,0Z"/><path class="cls-2" d="M91.3,249.54a27.38,27.38,0,0,0,.56,2.81c.06.22.06,1,.45.91s0-.72-.22-.29c0,0,0,.07,0,.05a7.31,7.31,0,0,0-.37-1.72c-.13-.59-.24-1.19-.39-1.78,0,0-.07,0-.07,0Z"/><path class="cls-2" d="M91.69,249.27c.24,1.23.58,2.43.82,3.66,0,.09.16.06.14,0a21.51,21.51,0,0,0-.9-3.64s-.07,0-.06,0Z"/><path class="cls-2" d="M116.94,243.76c.23,1,.51,2,.8,3a.06.06,0,1,0,.12,0c-.26-1-.53-2-.84-3a0,0,0,0,0-.08,0Z"/><path class="cls-2" d="M116.09,244c.3,1,.54,2,.84,3a.05.05,0,0,0,.1,0,15.3,15.3,0,0,0-.86-3s-.09,0-.08,0Z"/><path class="cls-2" d="M92.2,249.85A120.85,120.85,0,0,0,105,247.39c3.57-.86,8-1.34,11-3.42,0,0,0-.1,0-.07-3.59,1.9-7.82,2.59-11.74,3.52s-8,1.76-12.07,2.37c0,0,0,.07,0,.06Z"/><path class="cls-2" d="M56,245.63a51.25,51.25,0,0,1,5.55,1.53,53.16,53.16,0,0,0,5.59,1.12,73.17,73.17,0,0,0,11.42,1.23s0,0,0,0c-4.17-.34-8.33-.78-12.46-1.47a44,44,0,0,1-5.55-1.24A25.06,25.06,0,0,0,56,245.57a0,0,0,1,0,0,.06Z"/><path class="cls-2" d="M85.24,199.83a22.42,22.42,0,0,0,.32,3.75,0,0,0,0,0,.07,0,21.35,21.35,0,0,0-.37-3.74s0,0,0,0Z"/><path class="cls-2" d="M85.55,200.3c0,1.11,0,2.25.12,3.36,0,0,0,0,.06,0a17.26,17.26,0,0,0-.13-3.37s0,0,0,0Z"/><path class="cls-2" d="M85.5,200.49a37.63,37.63,0,0,1,0,4.75s0,0,0,0a17.57,17.57,0,0,0-.08-4.75s0,0,0,0Z"/><path class="cls-2" d="M90.46,194.33a2.26,2.26,0,0,0-.39.67,3.82,3.82,0,0,0-.31.72s0,.06.07,0a3.83,3.83,0,0,0,.4-.78,1.87,1.87,0,0,0,.24-.63Z"/><path class="cls-2" d="M91.37,194a2.1,2.1,0,0,0-.66,1.25s.05.05.06,0c.1-.2.15-.42.24-.61a3.56,3.56,0,0,1,.4-.61s0-.08,0-.05Z"/><path class="cls-2" d="M92,194.36c-.09.16-.19.32-.27.49a1.81,1.81,0,0,0-.22.44s0,0,0,0a1.76,1.76,0,0,0,.24-.42c.09-.17.17-.33.25-.5s0-.06,0,0Z"/><path class="cls-2" d="M93,194.2a3.06,3.06,0,0,0-.6,1.21s0,0,.06,0c.11-.2.17-.42.27-.61a3.42,3.42,0,0,1,.33-.59s0-.07-.06,0Z"/><path class="cls-2" d="M93.64,194.41a4.83,4.83,0,0,0-.5.92,0,0,0,0,0,.06,0,4.74,4.74,0,0,0,.48-.92,0,0,0,1,0,0,0Z"/><path class="cls-2" d="M80.47,194.24a2.59,2.59,0,0,0-.2.82s0,0,0,0a2.21,2.21,0,0,0,.17-.84s0,0,0,0Z"/><path class="cls-2" d="M81.33,194.23A.82.82,0,0,0,81,195s0,0,0,0a1.12,1.12,0,0,1,.31-.71s0-.08-.06-.05Z"/><path class="cls-2" d="M82,194.44a2,2,0,0,0-.21.57s0,0,0,0a2.2,2.2,0,0,0,.2-.56,0,0,0,0,0,0,0Z"/><path class="cls-2" d="M82.65,194.37a1.21,1.21,0,0,0-.22.84s0,0,0,0a2.14,2.14,0,0,1,.23-.82s0-.06,0,0Z"/><path class="cls-2" d="M83.37,194.35a.68.68,0,0,0-.19.69s0,0,.06,0a1.06,1.06,0,0,1,.2-.61s0-.12-.07-.07Z"/><path class="cls-2" d="M95.84,202.16c-.66,1.42-1,2.92-1.54,4.35a23.31,23.31,0,0,1-1.2,2.13,7.66,7.66,0,0,1-1.56,2.58,0,0,0,1,0,0,.05c1.14-1,1.76-2.75,2.48-4.07a49.88,49.88,0,0,0,1.81-5s0,0,0,0Z"/><path class="cls-2" d="M94.53,206.93c-.69,1.38-1.37,2.79-2,4.21,0,0,0,.06.07,0,.71-1.37,1.35-2.8,2-4.21,0,0,0-.06-.06,0Z"/><path class="cls-2" d="M95.14,207.05a34.81,34.81,0,0,1-1.73,3.72s0,0,0,0a11.93,11.93,0,0,0,1.69-3.74Z"/><path class="cls-2" d="M95.85,207.31c-.42,1.14-.95,2.22-1.46,3.32a0,0,0,0,0,0,0,12.84,12.84,0,0,0,1.45-3.33s0,0,0,0Z"/><path class="cls-2" d="M104.34,200.6a4,4,0,0,1-.56,1.11,8.12,8.12,0,0,0-.56,1s0,0,0,0a9.47,9.47,0,0,0,.59-1l.28-.51a1.93,1.93,0,0,0,.28-.53c0-.07,0-.22-.1-.16v0a0,0,0,1,0,0,0Z"/><path class="cls-2" d="M104.86,200.79a9.34,9.34,0,0,0-1,1.93s0,0,0,0c.37-.62.65-1.29,1-1.92,0,0,0,0,0,0Z"/><path class="cls-2" d="M105.39,201.26a3.51,3.51,0,0,0-.49,1.12,0,0,0,0,0,0,0c.19-.35.32-.74.51-1.1,0,0,0-.09-.07,0Z"/><path class="cls-2" d="M59.59,215c-.13,1.77-.26,3.53-.37,5.3,0,0,0,0,0,0a36.13,36.13,0,0,0,.37-5.3Z"/><path class="cls-2" d="M60.23,214.77a32.67,32.67,0,0,0-.36,4.74,0,0,0,1,0,.08,0q.12-2.37.3-4.74s0,0,0,0Z"/><path class="cls-2" d="M60.78,215.06c-.12,1.29-.29,2.6-.32,3.9a0,0,0,0,0,0,0c.18-1.29.21-2.6.3-3.9,0,0,0,0,0,0Z"/><path class="cls-2" d="M61.34,216.18a10.68,10.68,0,0,1-.1,2.33s0,0,0,0a5.77,5.77,0,0,0,.08-2.34s0,0,0,0Z"/><path class="cls-2" d="M62.11,217.13a5.91,5.91,0,0,0,0,1s0,0,.06,0a7,7,0,0,0,0-1s-.05,0-.06,0Z"/><path class="cls-2" d="M85.2,223.16a.68.68,0,0,1,.46.63s0,0,0,0a.61.61,0,0,0-.47-.67,0,0,0,0,0,0,0Z"/><path class="cls-2" d="M114.6,235.67a27.28,27.28,0,0,1,.62,7.75.05.05,0,0,0,.1,0,23.58,23.58,0,0,0-.68-7.76s0,0,0,0Z"/><path class="cls-2" d="M58.08,236.16c-.35,2.61-.57,5.26-.78,7.89,0,0,.07,0,.08,0,.32-2.61.61-5.26.74-7.89,0,0,0,0,0,0Z"/><path class="cls-2" d="M58.56,239c-.23,1.48-.4,3-.56,4.47,0,.06.08.06.09,0,.21-1.48.41-3,.55-4.46a0,0,0,0,0-.08,0Z"/><path class="cls-2" d="M59.14,240.27a17.72,17.72,0,0,0-.3,2.51c0,.05.08.05.09,0a17.49,17.49,0,0,0,.24-2.51s0,0,0,0Z"/><path class="cls-2" d="M59.74,241.5c-.05.42-.13.87-.14,1.3,0,0,0,0,0,0a11.24,11.24,0,0,0,.15-1.3s0,0-.06,0Z"/></g></svg>